M48
;Layer_Color=9474304
;FILE_FORMAT=2:5
INCH,LZ
;TYPE=PLATED
T01F00S00C0.00984
T03F00S00C0.03543
T04F00S00C0.04331
T05F00S00C0.04724
T06F00S00C0.05906
T07F00S00C0.09843
;TYPE=NON_PLATED
T08F00S00C0.00984
T09F00S00C0.02559
T10F00S00C0.03543
T11F00S00C0.03937
T12F00S00C0.04331
T13F00S00C0.04724
T14F00S00C0.05906
T16F00S00C0.11811
%
T01
X-021811Y0167717
X-0222441Y0190059
X-0195669Y0176772
X-0218898Y0242126
X-0184055Y0235236
X-0173093Y0231755
X-0170866Y0229528
X-0167717Y0222835
X-0109862Y0214567
X-0087598Y021752
X-0087009Y022874
Y0233071
X-0090158Y0231102
X-0090158Y0235433
X-007756Y0235039
X-0071653
X-007126Y0244488
X-0066535Y0239764
X-0090355Y0202757
X-0106299Y0183858
X-0108661
X-0111024
Y0181496
X-0108661
X-0113386
X-0115748
Y0183858
X-0113386
X-011811
X-012874Y0181496
X-013189
X-011811Y0162205
X-0115748
X-0113386
X-0111024
X-0108661
X-0106299
X-0108661Y0164567
X-0111024
X-0113386
X-0115748
X-0095649Y0165728
X-0098819Y0151969
X-008937Y0150394
X-0088583Y0141732
X-0094488Y0132874
X-0106437Y0147638
X-0077559Y0151083
X-0068504Y0148425
X-0064961Y0141732
X-0063467Y0154331
X-008248Y0160826
X-0079724Y0177165
X-0051181Y0176378
X-0035352Y0154331
X-0030512Y0127165
X-0029921Y0199606
X-0130315Y0133858
X-0137469Y0128347
Y0121327
X-0184646Y0133858
X-0025Y0158465
X-0016929Y0163386
X0001969Y0163779
X0020669Y0166339
X0045669Y017126
X0045669Y0188189
X0052756Y0188976
X0062581Y0201229
X0069005Y0196025
X008189Y0207087
X0090945
X0084251Y0218898
X0079075Y0227913
Y0235
X0098012Y0231476
Y0243287
X0113779Y0224803
X0113742Y0202718
X0093307Y0180709
X0094013Y0154331
X0054643Y0154331
X0043826Y0127165
X0023622Y0219488
X0015748Y0217699
X0012205Y021811
Y0223622
X0005026Y0222835
X-0000001
X-0010031
X-00175
X-0024803Y0209055
X-000748Y0241339
X00075Y0234306
X0028346Y0236614
X0065286Y0218897
X0134252Y0220079
X0150394Y0229528
X0150305Y0233092
X0171259Y0243766
X0181268Y0224323
X0181496Y0183858
X015Y025315
X0148425Y0256693
X0143307Y0261024
X0135433Y0309449
X0128248Y0303937
X0135039Y0325984
X0175984Y031811
Y0312992
X0181102Y0309449
X0200945
X0205906Y0312992
Y031811
X0120866Y0325984
X0095276
X0081102
X0088386Y0303937
X0092117Y0290748
X0089764Y0285433
Y028189
X0096063Y0270472
X0094882Y0266535
X0098012Y0250373
X0079075Y0251536
X007874Y024685
X0077165Y0259055
X0072835Y0261811
X0061417
X0063386Y0259055
X0057087Y0263779
X0059055Y0247047
X0065354Y0277953
X0068504
X0026772Y027802
X0020078Y0271654
X0011417Y0282283
X0005906Y0282283
X0000394Y0282283
X-0010506Y0285433
X-0016142
X-0028346Y0283465
X-0026378Y0267284
X-0029232Y0265354
X-0025197Y0249213
X-0026772Y0245669
X-0007874
X-0009843Y0258268
X0000394Y025937
X0005906
X0008661Y0263347
X000315
X-0003937Y0265354
X-0005906Y0267323
X0101476Y0311122
X-0029528Y0299213
X-0042126
X-0064173Y0287402
X-0070866Y0272047
X-007126Y0268898
X-0070472Y0264173
X-0073228Y0265256
X-0074803Y0272441
X-0076772Y0275197
X-0080315Y0276772
X-0083465Y025748
X-0101181Y0259842
X-010315Y0261811
X-0106299
Y0253543
X-010315Y0251181
X-0101181Y0249213
X-0103347Y0292323
X-0094095Y0301181
X-0095276Y0308268
X-0125984Y0286614
X-0143701Y0293701
X-0183465Y027441
Y0251969
X-017067Y0247441
X-0053543Y0262796
X-0193898Y025
X-0205512Y0257087
X-0218898Y0247638
T03
X-010315Y0243976
X-009315
X-006315
Y0213976
X-005315
X-0185039Y0301024
Y0311024
Y0321024
X-0195039
Y0311024
Y0301024
T04
X-0203083Y0215954
Y0223828
Y0231702
X-0176311Y0258474
X-0168437
X-0160563
T05
X-0215354Y0133268
Y0147047
X-0215354Y0160827
T06
X0190945Y0320866
T07
X-0147638Y0155512
X0147638
Y0297244
X-0127953Y0316929
T08
X0147835Y0331299
X0149409
X0150984
X0152559
X0154134
X0155709
X0157283
X0158858
X-0112402
X-0113976
X-0115551
X-0117126
X-0118701
X-0120276
X-012185
X-0123425
T09
X009689Y0311409
X0119646Y0311409
T10
X-0124016Y0125984
X-0112205Y0125984
X0220276Y0138976
Y0162598
T11
X0068504Y0144291
X0099921Y0144291
T12
X-0025Y0134764
X-0015
Y0144764
X-0025
X-0005
X0005
Y0134764
X-0005
X0015
X0025
Y0144764
X0015
T13
X-002Y0139764
X002
T14
X-0192058Y0200206
X-0144815Y024745
X-0158661Y0294882
Y0318504
T16
X0152559Y0348425
X-0117126
M30
