G04*
G04 #@! TF.GenerationSoftware,Altium Limited,Altium Designer,25.1.2 (22)*
G04*
G04 Layer_Color=8421504*
%FSLAX25Y25*%
%MOIN*%
G70*
G04*
G04 #@! TF.SameCoordinates,2BFD892F-B62B-499B-95B1-C9C99951E055*
G04*
G04*
G04 #@! TF.FilePolarity,Positive*
G04*
G01*
G75*
%ADD10C,0.01575*%
%ADD11C,0.00591*%
%ADD12R,0.04724X0.17717*%
%ADD13R,0.07874X0.07874*%
%ADD14R,0.07874X0.07874*%
%ADD15R,0.05906X0.03937*%
%ADD16R,0.03150X0.05906*%
G36*
X-127165Y466535D02*
Y465547D01*
X-126780Y463607D01*
X-126023Y461780D01*
X-124924Y460136D01*
X-123526Y458737D01*
X-121881Y457639D01*
X-120054Y456882D01*
X-118115Y456496D01*
X-117126D01*
X-116137D01*
X-114198Y456882D01*
X-112371Y457639D01*
X-110726Y458737D01*
X-109328Y460136D01*
X-108229Y461780D01*
X-107473Y463607D01*
X-107087Y465547D01*
Y466535D01*
Y467524D01*
X-107473Y469464D01*
X-108229Y471291D01*
X-109328Y472935D01*
X-110726Y474333D01*
X-112371Y475432D01*
X-114198Y476189D01*
X-116137Y476575D01*
X-117126D01*
X-118115D01*
X-120054Y476189D01*
X-121881Y475432D01*
X-123526Y474333D01*
X-124924Y472935D01*
X-126023Y471291D01*
X-126780Y469464D01*
X-127165Y467524D01*
Y466535D01*
D01*
D02*
G37*
G36*
X162599D02*
Y465547D01*
X162213Y463607D01*
X161456Y461780D01*
X160357Y460136D01*
X158959Y458737D01*
X157315Y457639D01*
X155488Y456882D01*
X153548Y456496D01*
X152559D01*
X151570D01*
X149631Y456882D01*
X147804Y457639D01*
X146159Y458737D01*
X144761Y460136D01*
X143662Y461780D01*
X142906Y463607D01*
X142520Y465547D01*
Y466535D01*
Y467524D01*
X142906Y469464D01*
X143662Y471291D01*
X144761Y472935D01*
X146159Y474333D01*
X147804Y475432D01*
X149631Y476189D01*
X151570Y476575D01*
X152559D01*
X153548D01*
X155488Y476189D01*
X157315Y475432D01*
X158959Y474333D01*
X160357Y472935D01*
X161456Y471291D01*
X162213Y469464D01*
X162599Y467524D01*
Y466535D01*
D01*
D02*
G37*
D10*
X727960Y-140993D02*
X737144D01*
X732552D01*
Y-154768D01*
X744031D02*
X748623D01*
X750919Y-152472D01*
Y-147880D01*
X748623Y-145584D01*
X744031D01*
X741735Y-147880D01*
Y-152472D01*
X744031Y-154768D01*
X755511Y-159360D02*
Y-145584D01*
X762398D01*
X764694Y-147880D01*
Y-152472D01*
X762398Y-154768D01*
X755511D01*
X783061D02*
Y-140993D01*
X789948D01*
X792244Y-143289D01*
Y-147880D01*
X789948Y-150176D01*
X783061D01*
X799132Y-145584D02*
X803723D01*
X806019Y-147880D01*
Y-154768D01*
X799132D01*
X796836Y-152472D01*
X799132Y-150176D01*
X806019D01*
X810611Y-154768D02*
X817498D01*
X819794Y-152472D01*
X817498Y-150176D01*
X812907D01*
X810611Y-147880D01*
X812907Y-145584D01*
X819794D01*
X826682Y-143289D02*
Y-145584D01*
X824386D01*
X828978D01*
X826682D01*
Y-152472D01*
X828978Y-154768D01*
X842753D02*
X838161D01*
X835865Y-152472D01*
Y-147880D01*
X838161Y-145584D01*
X842753D01*
X845049Y-147880D01*
Y-150176D01*
X835865D01*
D11*
X312992Y541339D02*
X312992Y-72835D01*
X-312992Y541339D02*
X-312992Y-72835D01*
X-312992Y-72835D02*
X312992Y-72835D01*
X-312992Y541338D02*
X312992Y541338D01*
D12*
X200787Y320866D02*
D03*
X181102D02*
D03*
D13*
X-64961Y135827D02*
D03*
X-41339D02*
D03*
X64961Y135827D02*
D03*
X41339D02*
D03*
D14*
X180118Y272638D02*
D03*
Y249016D02*
D03*
Y168307D02*
D03*
Y191929D02*
D03*
X142717Y232283D02*
D03*
Y208661D02*
D03*
X215551D02*
D03*
Y232283D02*
D03*
D15*
X88386Y166929D02*
D03*
X88386Y154331D02*
D03*
X69095Y154331D02*
D03*
X69095Y166929D02*
D03*
X49016Y166929D02*
D03*
X49016Y154331D02*
D03*
X29724Y154331D02*
D03*
X29724Y166929D02*
D03*
X9646D02*
D03*
Y154331D02*
D03*
X-9646D02*
D03*
Y166929D02*
D03*
X-29724D02*
D03*
X-29724Y154331D02*
D03*
X-49016D02*
D03*
X-49016Y166929D02*
D03*
X-69095Y166929D02*
D03*
X-69095Y154331D02*
D03*
X-88386D02*
D03*
X-88386Y166929D02*
D03*
D16*
X-125984Y291339D02*
D03*
X-130984D02*
D03*
X-135984D02*
D03*
M02*
