G04*
G04 #@! TF.GenerationSoftware,Altium Limited,Altium Designer,26.1.1 (7)*
G04*
G04 Layer_Physical_Order=1*
G04 Layer_Color=3394611*
%FSLAX25Y25*%
%MOIN*%
G70*
G04*
G04 #@! TF.SameCoordinates,1CF2F012-C78B-4FB6-BE32-ECBD5177C318*
G04*
G04*
G04 #@! TF.FilePolarity,Positive*
G04*
G01*
G75*
%ADD10C,0.00394*%
%ADD11C,0.00591*%
%ADD12C,0.00787*%
%ADD13C,0.01575*%
%ADD14C,0.00394*%
%ADD15C,0.00984*%
%ADD16R,0.03150X0.05906*%
%ADD17R,0.07874X0.07874*%
%ADD18R,0.07874X0.07874*%
%ADD19R,0.05906X0.03937*%
%ADD25C,0.03543*%
%ADD27C,0.07087*%
%ADD35C,0.04724*%
%ADD40C,0.01968*%
%ADD41C,0.07874*%
%ADD42C,0.02756*%
%ADD43C,0.03937*%
%ADD44R,0.04724X0.17717*%
%ADD45C,0.03150*%
%ADD46O,0.03150X0.06299*%
%ADD47C,0.06693*%
%ADD48C,0.05906*%
%ADD49R,0.07087X0.07087*%
%ADD50C,0.09843*%
%ADD51R,0.05906X0.05906*%
%ADD52R,0.05906X0.05906*%
%ADD53O,0.09843X0.31496*%
%ADD54C,0.04331*%
%ADD55C,0.02559*%
%ADD56C,0.02165*%
G36*
X219470Y329705D02*
X221387Y329453D01*
X223254Y328953D01*
X225039Y328213D01*
X226713Y327247D01*
X228246Y326070D01*
X229613Y324703D01*
X230790Y323170D01*
X231756Y321496D01*
X232496Y319710D01*
X232996Y317843D01*
X233248Y315927D01*
X233248Y314961D01*
X233248Y125984D01*
Y125308D01*
X232984Y123980D01*
X232467Y122730D01*
X231715Y121605D01*
X230758Y120648D01*
X229632Y119896D01*
X228382Y119378D01*
X227055Y119114D01*
X226378D01*
X-135646Y119114D01*
X-135972Y119901D01*
X-135717Y120157D01*
X-135402Y120916D01*
Y121739D01*
X-135717Y122498D01*
X-136164Y122946D01*
Y126728D01*
X-135717Y127176D01*
X-135402Y127935D01*
Y128758D01*
X-135717Y129517D01*
X-136298Y130099D01*
X-137058Y130413D01*
X-137880D01*
X-138640Y130099D01*
X-139221Y129517D01*
X-139536Y128758D01*
Y127935D01*
X-139221Y127176D01*
X-138774Y126728D01*
Y122946D01*
X-139221Y122498D01*
X-139536Y121739D01*
Y120916D01*
X-139221Y120157D01*
X-138966Y119901D01*
X-139292Y119114D01*
X-226378D01*
X-227055D01*
X-228382Y119378D01*
X-229632Y119896D01*
X-230758Y120648D01*
X-231715Y121605D01*
X-232467Y122730D01*
X-232984Y123980D01*
X-233248Y125308D01*
Y125984D01*
X-233248Y314961D01*
Y315927D01*
X-232996Y317843D01*
X-232496Y319710D01*
X-231756Y321496D01*
X-230790Y323170D01*
X-229613Y324703D01*
X-228246Y326070D01*
X-226713Y327247D01*
X-225039Y328213D01*
X-223254Y328953D01*
X-221387Y329453D01*
X-219470Y329705D01*
X-104409D01*
X-82828Y308125D01*
X-82828Y308125D01*
X-82840Y308113D01*
X-81242Y306749D01*
X-79450Y305651D01*
X-77508Y304846D01*
X-75465Y304356D01*
X-73370Y304191D01*
Y304207D01*
X-35841D01*
X-35817Y304191D01*
X-35433Y304115D01*
X35433D01*
X35817Y304191D01*
X35841Y304207D01*
X49748D01*
Y304191D01*
X51843Y304356D01*
X53886Y304846D01*
X55828Y305651D01*
X57620Y306749D01*
X59218Y308113D01*
X59206Y308125D01*
X80787Y329705D01*
X177740D01*
Y321366D01*
X181102D01*
Y320866D01*
X181602D01*
Y311008D01*
X184465D01*
Y319138D01*
X185252Y319216D01*
X185266Y319144D01*
X185712Y318069D01*
X186358Y317102D01*
X187180Y316279D01*
X188148Y315633D01*
X189222Y315188D01*
X190363Y314961D01*
X191526D01*
X192667Y315188D01*
X193742Y315633D01*
X194709Y316279D01*
X195532Y317102D01*
X196178Y318069D01*
X196624Y319144D01*
X196638Y319216D01*
X197425Y319138D01*
Y311008D01*
X200287D01*
Y320866D01*
X200787D01*
Y321366D01*
X204150D01*
Y329705D01*
X218504D01*
X219470Y329705D01*
D02*
G37*
G36*
X-136799Y127482D02*
X-136878Y127392D01*
X-136947Y127300D01*
X-137007Y127209D01*
X-137058Y127117D01*
X-137100Y127025D01*
X-137132Y126933D01*
X-137155Y126841D01*
X-137169Y126748D01*
X-137174Y126655D01*
X-137764D01*
X-137769Y126748D01*
X-137783Y126841D01*
X-137806Y126933D01*
X-137838Y127025D01*
X-137880Y127117D01*
X-137931Y127209D01*
X-137991Y127300D01*
X-138060Y127392D01*
X-138139Y127482D01*
X-138227Y127573D01*
X-136711D01*
X-136799Y127482D01*
D02*
G37*
G36*
X-137169Y122926D02*
X-137155Y122833D01*
X-137132Y122741D01*
X-137100Y122649D01*
X-137058Y122557D01*
X-137007Y122465D01*
X-136947Y122374D01*
X-136878Y122282D01*
X-136799Y122191D01*
X-136711Y122101D01*
X-138227D01*
X-138139Y122191D01*
X-138060Y122282D01*
X-137991Y122374D01*
X-137931Y122465D01*
X-137880Y122557D01*
X-137838Y122649D01*
X-137806Y122741D01*
X-137783Y122833D01*
X-137769Y122926D01*
X-137764Y123019D01*
X-137174D01*
X-137169Y122926D01*
D02*
G37*
G36*
X690376Y-128249D02*
X690090D01*
Y-128535D01*
X689804D01*
Y-128821D01*
Y-129108D01*
X689517D01*
Y-129394D01*
X689231D01*
Y-129680D01*
X688945D01*
Y-129966D01*
Y-130253D01*
X688658D01*
Y-130539D01*
X688372D01*
Y-130825D01*
X688086D01*
Y-131112D01*
X687799D01*
Y-131398D01*
Y-131684D01*
X687513D01*
Y-131971D01*
X687227D01*
Y-132257D01*
X686940D01*
Y-132543D01*
Y-132830D01*
X686654D01*
Y-133116D01*
X686368D01*
Y-133402D01*
X686082D01*
Y-133689D01*
X685795D01*
Y-133975D01*
Y-134261D01*
X685509D01*
Y-134547D01*
X685223D01*
Y-134834D01*
X684936D01*
Y-135120D01*
Y-135406D01*
X684650D01*
Y-135693D01*
X684364D01*
Y-135979D01*
X684077D01*
Y-136265D01*
Y-136552D01*
X683791D01*
Y-136838D01*
X683505D01*
Y-137124D01*
X683218D01*
Y-137411D01*
X682932D01*
Y-137697D01*
Y-137983D01*
X682646D01*
Y-138270D01*
X682359D01*
Y-138556D01*
X682073D01*
Y-138842D01*
Y-139128D01*
X681787D01*
Y-139415D01*
X681500D01*
Y-139701D01*
X681214D01*
Y-139988D01*
Y-140274D01*
X680928D01*
Y-140560D01*
X680642D01*
Y-140846D01*
X680355D01*
Y-141133D01*
X680069D01*
Y-141419D01*
Y-141705D01*
X679783D01*
Y-141992D01*
X679496D01*
Y-142278D01*
X679210D01*
Y-142564D01*
Y-142851D01*
X678924D01*
Y-143137D01*
X678637D01*
Y-143423D01*
X678351D01*
Y-143710D01*
Y-143996D01*
X678065D01*
Y-144282D01*
X677778D01*
Y-144569D01*
X677492D01*
Y-144855D01*
X677206D01*
Y-145141D01*
Y-145427D01*
X676920D01*
Y-145714D01*
X676633D01*
Y-146000D01*
X676347D01*
Y-146286D01*
Y-146573D01*
X676060D01*
Y-146859D01*
X675774D01*
Y-147145D01*
X675488D01*
Y-147432D01*
X675202D01*
Y-147718D01*
Y-148004D01*
X675488D01*
Y-148291D01*
Y-148577D01*
X675774D01*
Y-148863D01*
Y-149150D01*
X676060D01*
Y-149436D01*
X676347D01*
Y-149722D01*
Y-150008D01*
X676633D01*
Y-150295D01*
Y-150581D01*
X676920D01*
Y-150867D01*
Y-151154D01*
X677206D01*
Y-151440D01*
Y-151726D01*
X677492D01*
Y-152013D01*
Y-152299D01*
X677778D01*
Y-152585D01*
Y-152872D01*
X678065D01*
Y-153158D01*
Y-153444D01*
X678351D01*
Y-153730D01*
Y-154017D01*
X678637D01*
Y-154303D01*
X678924D01*
Y-154589D01*
Y-154876D01*
X679210D01*
Y-155162D01*
Y-155448D01*
X679496D01*
Y-155735D01*
Y-156021D01*
X679783D01*
Y-156307D01*
Y-156594D01*
X680069D01*
Y-156880D01*
Y-157166D01*
X680355D01*
Y-157453D01*
Y-157739D01*
X680642D01*
Y-158025D01*
Y-158311D01*
X680928D01*
Y-158598D01*
X681214D01*
Y-158884D01*
Y-159170D01*
X681500D01*
Y-159457D01*
Y-159743D01*
X681787D01*
Y-160029D01*
Y-160316D01*
X682073D01*
Y-160602D01*
Y-160888D01*
X682359D01*
Y-161175D01*
Y-161461D01*
X682646D01*
Y-161747D01*
Y-162034D01*
X682932D01*
Y-162320D01*
Y-162606D01*
X683218D01*
Y-162892D01*
X683505D01*
Y-163179D01*
Y-163465D01*
X683791D01*
Y-163751D01*
Y-164038D01*
X684077D01*
Y-164324D01*
X668903D01*
Y-164038D01*
X668616D01*
Y-163751D01*
Y-163465D01*
Y-163179D01*
X668330D01*
Y-162892D01*
Y-162606D01*
Y-162320D01*
X668044D01*
Y-162034D01*
Y-161747D01*
X667758D01*
Y-161461D01*
Y-161175D01*
Y-160888D01*
X667471D01*
Y-160602D01*
Y-160316D01*
Y-160029D01*
X667185D01*
Y-159743D01*
Y-159457D01*
X666898D01*
Y-159170D01*
Y-158884D01*
Y-158598D01*
X666612D01*
Y-158311D01*
Y-158025D01*
Y-157739D01*
X666326D01*
Y-157453D01*
Y-157166D01*
Y-156880D01*
X666040D01*
Y-156594D01*
X665467D01*
Y-156880D01*
Y-157166D01*
X665181D01*
Y-157453D01*
X664894D01*
Y-157739D01*
Y-158025D01*
X664608D01*
Y-158311D01*
X664322D01*
Y-158598D01*
Y-158884D01*
X664035D01*
Y-159170D01*
X663749D01*
Y-159457D01*
Y-159743D01*
X663463D01*
Y-160029D01*
X663176D01*
Y-160316D01*
X662890D01*
Y-160602D01*
Y-160888D01*
X662604D01*
Y-161175D01*
X662318D01*
Y-161461D01*
Y-161747D01*
X662031D01*
Y-162034D01*
X661745D01*
Y-162320D01*
Y-162606D01*
X661459D01*
Y-162892D01*
X661172D01*
Y-163179D01*
Y-163465D01*
X660886D01*
Y-163751D01*
X660600D01*
Y-164038D01*
Y-164324D01*
X644566D01*
Y-164038D01*
X644852D01*
Y-163751D01*
X645139D01*
Y-163465D01*
X645425D01*
Y-163179D01*
X645711D01*
Y-162892D01*
Y-162606D01*
X645998D01*
Y-162320D01*
X646284D01*
Y-162034D01*
X646570D01*
Y-161747D01*
X646857D01*
Y-161461D01*
Y-161175D01*
X647143D01*
Y-160888D01*
X647429D01*
Y-160602D01*
X647716D01*
Y-160316D01*
Y-160029D01*
X648002D01*
Y-159743D01*
X648288D01*
Y-159457D01*
X648574D01*
Y-159170D01*
X648861D01*
Y-158884D01*
Y-158598D01*
X649147D01*
Y-158311D01*
X649433D01*
Y-158025D01*
X649720D01*
Y-157739D01*
X650006D01*
Y-157453D01*
Y-157166D01*
X650292D01*
Y-156880D01*
X650579D01*
Y-156594D01*
X650865D01*
Y-156307D01*
Y-156021D01*
X651151D01*
Y-155735D01*
X651438D01*
Y-155448D01*
X651724D01*
Y-155162D01*
X652010D01*
Y-154876D01*
Y-154589D01*
X652297D01*
Y-154303D01*
X652583D01*
Y-154017D01*
X652869D01*
Y-153730D01*
Y-153444D01*
X653156D01*
Y-153158D01*
X653442D01*
Y-152872D01*
X653728D01*
Y-152585D01*
X654014D01*
Y-152299D01*
Y-152013D01*
X654301D01*
Y-151726D01*
X654587D01*
Y-151440D01*
X654873D01*
Y-151154D01*
Y-150867D01*
X655160D01*
Y-150581D01*
X655446D01*
Y-150295D01*
X655732D01*
Y-150008D01*
X656019D01*
Y-149722D01*
Y-149436D01*
X656305D01*
Y-149150D01*
X656591D01*
Y-148863D01*
X656878D01*
Y-148577D01*
X657164D01*
Y-148291D01*
Y-148004D01*
X657450D01*
Y-147718D01*
X657736D01*
Y-147432D01*
X658023D01*
Y-147145D01*
Y-146859D01*
X658309D01*
Y-146573D01*
X658596D01*
Y-146286D01*
X658882D01*
Y-146000D01*
X659168D01*
Y-145714D01*
Y-145427D01*
X659454D01*
Y-145141D01*
Y-144855D01*
Y-144569D01*
X659168D01*
Y-144282D01*
X658882D01*
Y-143996D01*
Y-143710D01*
X658596D01*
Y-143423D01*
Y-143137D01*
X658309D01*
Y-142851D01*
Y-142564D01*
X658023D01*
Y-142278D01*
Y-141992D01*
X657736D01*
Y-141705D01*
Y-141419D01*
X657450D01*
Y-141133D01*
Y-140846D01*
X657164D01*
Y-140560D01*
X656878D01*
Y-140274D01*
Y-139988D01*
X656591D01*
Y-139701D01*
Y-139415D01*
X656305D01*
Y-139128D01*
Y-138842D01*
X656019D01*
Y-138556D01*
Y-138270D01*
X655732D01*
Y-137983D01*
Y-137697D01*
X655446D01*
Y-137411D01*
Y-137124D01*
X655160D01*
Y-136838D01*
X654873D01*
Y-136552D01*
Y-136265D01*
X654587D01*
Y-135979D01*
Y-135693D01*
X654301D01*
Y-135406D01*
Y-135120D01*
X654014D01*
Y-134834D01*
Y-134547D01*
X653728D01*
Y-134261D01*
Y-133975D01*
X653442D01*
Y-133689D01*
Y-133402D01*
X653156D01*
Y-133116D01*
Y-132830D01*
X652869D01*
Y-132543D01*
X652583D01*
Y-132257D01*
Y-131971D01*
X652297D01*
Y-131684D01*
Y-131398D01*
X652010D01*
Y-131112D01*
Y-130825D01*
X651724D01*
Y-130539D01*
Y-130253D01*
X651438D01*
Y-129966D01*
Y-129680D01*
X651151D01*
Y-129394D01*
Y-129108D01*
X650865D01*
Y-128821D01*
X650579D01*
Y-128535D01*
Y-128249D01*
X650292D01*
Y-127962D01*
X666040D01*
Y-128249D01*
X666326D01*
Y-128535D01*
Y-128821D01*
Y-129108D01*
X666612D01*
Y-129394D01*
Y-129680D01*
Y-129966D01*
X666898D01*
Y-130253D01*
Y-130539D01*
Y-130825D01*
X667185D01*
Y-131112D01*
Y-131398D01*
Y-131684D01*
X667471D01*
Y-131971D01*
Y-132257D01*
Y-132543D01*
X667758D01*
Y-132830D01*
Y-133116D01*
Y-133402D01*
X668044D01*
Y-133689D01*
Y-133975D01*
Y-134261D01*
X668330D01*
Y-134547D01*
Y-134834D01*
Y-135120D01*
X668616D01*
Y-135406D01*
Y-135693D01*
Y-135979D01*
Y-136265D01*
X669189D01*
Y-135979D01*
X669475D01*
Y-135693D01*
X669762D01*
Y-135406D01*
Y-135120D01*
X670048D01*
Y-134834D01*
X670334D01*
Y-134547D01*
Y-134261D01*
X670621D01*
Y-133975D01*
X670907D01*
Y-133689D01*
Y-133402D01*
X671193D01*
Y-133116D01*
X671480D01*
Y-132830D01*
Y-132543D01*
X671766D01*
Y-132257D01*
X672052D01*
Y-131971D01*
Y-131684D01*
X672338D01*
Y-131398D01*
X672625D01*
Y-131112D01*
Y-130825D01*
X672911D01*
Y-130539D01*
X673197D01*
Y-130253D01*
Y-129966D01*
X673484D01*
Y-129680D01*
X673770D01*
Y-129394D01*
Y-129108D01*
X674056D01*
Y-128821D01*
X674343D01*
Y-128535D01*
Y-128249D01*
X674629D01*
Y-127962D01*
X690376D01*
Y-128249D01*
D02*
G37*
G36*
X557241Y-114219D02*
X558959D01*
Y-114506D01*
X559818D01*
Y-114792D01*
X560676D01*
Y-115078D01*
X561535D01*
Y-115365D01*
X562108D01*
Y-115651D01*
X562394D01*
Y-115937D01*
X562967D01*
Y-116224D01*
X563253D01*
Y-116510D01*
X563826D01*
Y-116796D01*
X564112D01*
Y-117083D01*
X564398D01*
Y-117369D01*
X564685D01*
Y-117655D01*
X564971D01*
Y-117941D01*
X565258D01*
Y-118228D01*
X565544D01*
Y-118514D01*
Y-118800D01*
X565830D01*
Y-119087D01*
X566116D01*
Y-119373D01*
Y-119659D01*
X566403D01*
Y-119946D01*
X566689D01*
Y-120232D01*
Y-120518D01*
X566975D01*
Y-120805D01*
Y-121091D01*
Y-121377D01*
X567262D01*
Y-121663D01*
Y-121950D01*
Y-122236D01*
X567548D01*
Y-122522D01*
Y-122809D01*
Y-123095D01*
Y-123381D01*
X567834D01*
Y-123668D01*
Y-123954D01*
Y-124240D01*
Y-124527D01*
Y-124813D01*
X568121D01*
Y-125099D01*
Y-125385D01*
Y-125672D01*
Y-125958D01*
Y-126244D01*
Y-126531D01*
Y-126817D01*
Y-127103D01*
Y-127390D01*
Y-127676D01*
Y-127962D01*
Y-128249D01*
Y-128535D01*
Y-128821D01*
Y-129108D01*
Y-129394D01*
Y-129680D01*
Y-129966D01*
Y-130253D01*
Y-130539D01*
X567834D01*
Y-130825D01*
Y-131112D01*
Y-131398D01*
Y-131684D01*
Y-131971D01*
Y-132257D01*
Y-132543D01*
X567548D01*
Y-132830D01*
Y-133116D01*
Y-133402D01*
Y-133689D01*
Y-133975D01*
X567262D01*
Y-134261D01*
Y-134547D01*
Y-134834D01*
Y-135120D01*
Y-135406D01*
X566975D01*
Y-135693D01*
Y-135979D01*
Y-136265D01*
X566689D01*
Y-136552D01*
Y-136838D01*
Y-137124D01*
Y-137411D01*
X566403D01*
Y-137697D01*
Y-137983D01*
Y-138270D01*
X566116D01*
Y-138556D01*
Y-138842D01*
X565830D01*
Y-139128D01*
Y-139415D01*
Y-139701D01*
X565544D01*
Y-139988D01*
Y-140274D01*
X565258D01*
Y-140560D01*
Y-140846D01*
X564971D01*
Y-141133D01*
Y-141419D01*
X564685D01*
Y-141705D01*
X564398D01*
Y-141992D01*
Y-142278D01*
X564112D01*
Y-142564D01*
X563826D01*
Y-142851D01*
X563540D01*
Y-143137D01*
Y-143423D01*
X563253D01*
Y-143710D01*
X562967D01*
Y-143996D01*
X562681D01*
Y-144282D01*
X562394D01*
Y-144569D01*
X562108D01*
Y-144855D01*
X561535D01*
Y-145141D01*
X561249D01*
Y-145427D01*
X560676D01*
Y-145714D01*
X560390D01*
Y-146000D01*
X559818D01*
Y-146286D01*
X558959D01*
Y-146573D01*
X558100D01*
Y-146859D01*
X557241D01*
Y-147145D01*
X555523D01*
Y-147432D01*
X550369D01*
Y-147145D01*
X547792D01*
Y-146859D01*
X545788D01*
Y-146573D01*
X544357D01*
Y-146286D01*
X542925D01*
Y-146000D01*
X541494D01*
Y-146286D01*
Y-146573D01*
Y-146859D01*
Y-147145D01*
Y-147432D01*
Y-147718D01*
Y-148004D01*
X541207D01*
Y-148291D01*
Y-148577D01*
Y-148863D01*
Y-149150D01*
Y-149436D01*
Y-149722D01*
X540921D01*
Y-150008D01*
Y-150295D01*
Y-150581D01*
Y-150867D01*
Y-151154D01*
Y-151440D01*
X540635D01*
Y-151726D01*
Y-152013D01*
Y-152299D01*
Y-152585D01*
Y-152872D01*
Y-153158D01*
Y-153444D01*
X540348D01*
Y-153730D01*
Y-154017D01*
Y-154303D01*
Y-154589D01*
Y-154876D01*
Y-155162D01*
X540062D01*
Y-155448D01*
Y-155735D01*
Y-156021D01*
Y-156307D01*
Y-156594D01*
Y-156880D01*
X539776D01*
Y-157166D01*
Y-157453D01*
Y-157739D01*
Y-158025D01*
Y-158311D01*
Y-158598D01*
Y-158884D01*
X539489D01*
Y-159170D01*
Y-159457D01*
Y-159743D01*
Y-160029D01*
Y-160316D01*
Y-160602D01*
X539203D01*
Y-160888D01*
Y-161175D01*
Y-161461D01*
Y-161747D01*
Y-162034D01*
Y-162320D01*
X538917D01*
Y-162606D01*
Y-162892D01*
Y-163179D01*
Y-163465D01*
Y-163751D01*
Y-164038D01*
Y-164324D01*
X525460D01*
Y-164038D01*
X525746D01*
Y-163751D01*
Y-163465D01*
Y-163179D01*
Y-162892D01*
Y-162606D01*
X526033D01*
Y-162320D01*
Y-162034D01*
Y-161747D01*
Y-161461D01*
Y-161175D01*
Y-160888D01*
Y-160602D01*
X526319D01*
Y-160316D01*
Y-160029D01*
Y-159743D01*
Y-159457D01*
Y-159170D01*
Y-158884D01*
X526605D01*
Y-158598D01*
Y-158311D01*
Y-158025D01*
Y-157739D01*
Y-157453D01*
Y-157166D01*
X526892D01*
Y-156880D01*
Y-156594D01*
Y-156307D01*
Y-156021D01*
Y-155735D01*
Y-155448D01*
Y-155162D01*
X527178D01*
Y-154876D01*
Y-154589D01*
Y-154303D01*
Y-154017D01*
Y-153730D01*
Y-153444D01*
X527464D01*
Y-153158D01*
Y-152872D01*
Y-152585D01*
Y-152299D01*
Y-152013D01*
Y-151726D01*
X527750D01*
Y-151440D01*
Y-151154D01*
Y-150867D01*
Y-150581D01*
Y-150295D01*
Y-150008D01*
X528037D01*
Y-149722D01*
Y-149436D01*
Y-149150D01*
Y-148863D01*
Y-148577D01*
Y-148291D01*
Y-148004D01*
X528323D01*
Y-147718D01*
Y-147432D01*
Y-147145D01*
Y-146859D01*
Y-146573D01*
Y-146286D01*
X528609D01*
Y-146000D01*
Y-145714D01*
Y-145427D01*
Y-145141D01*
Y-144855D01*
Y-144569D01*
X528896D01*
Y-144282D01*
Y-143996D01*
Y-143710D01*
Y-143423D01*
Y-143137D01*
Y-142851D01*
X529182D01*
Y-142564D01*
Y-142278D01*
Y-141992D01*
Y-141705D01*
Y-141419D01*
Y-141133D01*
Y-140846D01*
X529468D01*
Y-140560D01*
Y-140274D01*
Y-139988D01*
Y-139701D01*
Y-139415D01*
Y-139128D01*
X529755D01*
Y-138842D01*
Y-138556D01*
Y-138270D01*
Y-137983D01*
Y-137697D01*
Y-137411D01*
X530041D01*
Y-137124D01*
Y-136838D01*
Y-136552D01*
Y-136265D01*
Y-135979D01*
Y-135693D01*
Y-135406D01*
X530327D01*
Y-135120D01*
Y-134834D01*
Y-134547D01*
Y-134261D01*
Y-133975D01*
Y-133689D01*
X530614D01*
Y-133402D01*
Y-133116D01*
Y-132830D01*
Y-132543D01*
Y-132257D01*
Y-131971D01*
X530900D01*
Y-131684D01*
Y-131398D01*
Y-131112D01*
Y-130825D01*
Y-130539D01*
Y-130253D01*
X531186D01*
Y-129966D01*
Y-129680D01*
Y-129394D01*
Y-129108D01*
Y-128821D01*
Y-128535D01*
Y-128249D01*
X531473D01*
Y-127962D01*
Y-127676D01*
Y-127390D01*
Y-127103D01*
Y-126817D01*
Y-126531D01*
X531759D01*
Y-126244D01*
Y-125958D01*
Y-125672D01*
Y-125385D01*
Y-125099D01*
Y-124813D01*
X532045D01*
Y-124527D01*
Y-124240D01*
Y-123954D01*
Y-123668D01*
Y-123381D01*
Y-123095D01*
Y-122809D01*
X532332D01*
Y-122522D01*
Y-122236D01*
Y-121950D01*
Y-121663D01*
Y-121377D01*
Y-121091D01*
X532618D01*
Y-120805D01*
Y-120518D01*
Y-120232D01*
Y-119946D01*
Y-119659D01*
Y-119373D01*
X532904D01*
Y-119087D01*
Y-118800D01*
Y-118514D01*
Y-118228D01*
Y-117941D01*
Y-117655D01*
Y-117369D01*
X533190D01*
Y-117083D01*
Y-116796D01*
Y-116510D01*
Y-116224D01*
Y-115937D01*
Y-115651D01*
X533477D01*
Y-115365D01*
Y-115078D01*
Y-114792D01*
Y-114506D01*
Y-114219D01*
Y-113933D01*
X557241D01*
Y-114219D01*
D02*
G37*
G36*
X646284Y-128249D02*
Y-128535D01*
Y-128821D01*
Y-129108D01*
Y-129394D01*
Y-129680D01*
Y-129966D01*
Y-130253D01*
Y-130539D01*
Y-130825D01*
Y-131112D01*
Y-131398D01*
Y-131684D01*
Y-131971D01*
Y-132257D01*
Y-132543D01*
Y-132830D01*
Y-133116D01*
Y-133402D01*
Y-133689D01*
Y-133975D01*
X645998D01*
Y-134261D01*
Y-134547D01*
Y-134834D01*
Y-135120D01*
Y-135406D01*
X645711D01*
Y-135693D01*
Y-135979D01*
Y-136265D01*
Y-136552D01*
X645425D01*
Y-136838D01*
Y-137124D01*
Y-137411D01*
Y-137697D01*
X645139D01*
Y-137983D01*
Y-138270D01*
Y-138556D01*
X644852D01*
Y-138842D01*
Y-139128D01*
Y-139415D01*
X644566D01*
Y-139701D01*
Y-139988D01*
Y-140274D01*
X644280D01*
Y-140560D01*
Y-140846D01*
Y-141133D01*
X643994D01*
Y-141419D01*
Y-141705D01*
X643707D01*
Y-141992D01*
Y-142278D01*
X643421D01*
Y-142564D01*
Y-142851D01*
Y-143137D01*
X643135D01*
Y-143423D01*
Y-143710D01*
X642848D01*
Y-143996D01*
Y-144282D01*
Y-144569D01*
X642562D01*
Y-144855D01*
Y-145141D01*
X642276D01*
Y-145427D01*
Y-145714D01*
Y-146000D01*
X641989D01*
Y-146286D01*
Y-146573D01*
X641703D01*
Y-146859D01*
Y-147145D01*
Y-147432D01*
X641417D01*
Y-147718D01*
Y-148004D01*
X641130D01*
Y-148291D01*
Y-148577D01*
Y-148863D01*
X640844D01*
Y-149150D01*
Y-149436D01*
X640558D01*
Y-149722D01*
Y-150008D01*
Y-150295D01*
X640271D01*
Y-150581D01*
Y-150867D01*
X639985D01*
Y-151154D01*
Y-151440D01*
Y-151726D01*
X639699D01*
Y-152013D01*
Y-152299D01*
X639412D01*
Y-152585D01*
Y-152872D01*
Y-153158D01*
X639126D01*
Y-153444D01*
Y-153730D01*
X638840D01*
Y-154017D01*
Y-154303D01*
Y-154589D01*
X638554D01*
Y-154876D01*
Y-155162D01*
X638267D01*
Y-155448D01*
Y-155735D01*
Y-156021D01*
X637981D01*
Y-156307D01*
Y-156594D01*
X637695D01*
Y-156880D01*
Y-157166D01*
Y-157453D01*
X637408D01*
Y-157739D01*
Y-158025D01*
X637122D01*
Y-158311D01*
Y-158598D01*
Y-158884D01*
X636836D01*
Y-159170D01*
Y-159457D01*
X636549D01*
Y-159743D01*
Y-160029D01*
Y-160316D01*
X636263D01*
Y-160602D01*
Y-160888D01*
X635977D01*
Y-161175D01*
Y-161461D01*
Y-161747D01*
X635690D01*
Y-162034D01*
Y-162320D01*
X635404D01*
Y-162606D01*
Y-162892D01*
Y-163179D01*
X635118D01*
Y-163465D01*
Y-163751D01*
X634831D01*
Y-164038D01*
Y-164324D01*
Y-164610D01*
X634545D01*
Y-164897D01*
Y-165183D01*
X634259D01*
Y-165469D01*
Y-165756D01*
X633973D01*
Y-166042D01*
Y-166328D01*
X633686D01*
Y-166615D01*
Y-166901D01*
Y-167187D01*
X633400D01*
Y-167473D01*
X633114D01*
Y-167760D01*
Y-168046D01*
Y-168333D01*
X632827D01*
Y-168619D01*
X632541D01*
Y-168905D01*
Y-169191D01*
X632255D01*
Y-169478D01*
Y-169764D01*
X631968D01*
Y-170050D01*
Y-170337D01*
X631682D01*
Y-170623D01*
Y-170909D01*
X631396D01*
Y-171196D01*
X631109D01*
Y-171482D01*
Y-171768D01*
X630823D01*
Y-172055D01*
Y-172341D01*
X630537D01*
Y-172627D01*
X630251D01*
Y-172914D01*
X629964D01*
Y-173200D01*
Y-173486D01*
X629678D01*
Y-173772D01*
X629392D01*
Y-174059D01*
Y-174345D01*
X629105D01*
Y-174631D01*
X628819D01*
Y-174918D01*
X628533D01*
Y-175204D01*
Y-175490D01*
X628246D01*
Y-175777D01*
X627960D01*
Y-176063D01*
X627674D01*
Y-176349D01*
X627387D01*
Y-176636D01*
X627101D01*
Y-176922D01*
Y-177208D01*
X626815D01*
Y-177495D01*
X626528D01*
Y-177781D01*
X626242D01*
Y-178067D01*
X625956D01*
Y-178353D01*
X625669D01*
Y-178640D01*
X625383D01*
Y-178926D01*
X625097D01*
Y-179212D01*
X624524D01*
Y-179499D01*
X624238D01*
Y-179785D01*
X623952D01*
Y-180071D01*
X623665D01*
Y-180358D01*
X623379D01*
Y-180644D01*
X622806D01*
Y-180930D01*
X622520D01*
Y-181217D01*
X621947D01*
Y-181503D01*
X621661D01*
Y-181789D01*
X621089D01*
Y-182076D01*
X620802D01*
Y-182362D01*
X620229D01*
Y-182648D01*
X619657D01*
Y-182934D01*
X619084D01*
Y-183221D01*
X618512D01*
Y-183507D01*
X617939D01*
Y-183793D01*
X617080D01*
Y-184080D01*
X616507D01*
Y-184366D01*
X615649D01*
Y-184652D01*
X614503D01*
Y-184939D01*
X613358D01*
Y-185225D01*
X611640D01*
Y-185511D01*
X609636D01*
Y-185798D01*
X609350D01*
Y-185511D01*
Y-185225D01*
Y-184939D01*
Y-184652D01*
Y-184366D01*
Y-184080D01*
Y-183793D01*
Y-183507D01*
Y-183221D01*
Y-182934D01*
Y-182648D01*
Y-182362D01*
Y-182076D01*
Y-181789D01*
Y-181503D01*
Y-181217D01*
Y-180930D01*
Y-180644D01*
Y-180358D01*
Y-180071D01*
Y-179785D01*
Y-179499D01*
Y-179212D01*
Y-178926D01*
Y-178640D01*
Y-178353D01*
Y-178067D01*
Y-177781D01*
Y-177495D01*
Y-177208D01*
Y-176922D01*
Y-176636D01*
Y-176349D01*
X609922D01*
Y-176063D01*
X610495D01*
Y-175777D01*
X611067D01*
Y-175490D01*
X611640D01*
Y-175204D01*
X612213D01*
Y-174918D01*
X612785D01*
Y-174631D01*
X613072D01*
Y-174345D01*
X613644D01*
Y-174059D01*
X613931D01*
Y-173772D01*
X614503D01*
Y-173486D01*
X614790D01*
Y-173200D01*
X615076D01*
Y-172914D01*
X615649D01*
Y-172627D01*
X615935D01*
Y-172341D01*
X616221D01*
Y-172055D01*
X616507D01*
Y-171768D01*
X616794D01*
Y-171482D01*
X617080D01*
Y-171196D01*
X617366D01*
Y-170909D01*
X617653D01*
Y-170623D01*
X617939D01*
Y-170337D01*
X618225D01*
Y-170050D01*
X618512D01*
Y-169764D01*
X618798D01*
Y-169478D01*
Y-169191D01*
X619084D01*
Y-168905D01*
X619371D01*
Y-168619D01*
X619657D01*
Y-168333D01*
Y-168046D01*
X619943D01*
Y-167760D01*
X620229D01*
Y-167473D01*
Y-167187D01*
X620516D01*
Y-166901D01*
Y-166615D01*
X620802D01*
Y-166328D01*
X621089D01*
Y-166042D01*
Y-165756D01*
X621375D01*
Y-165469D01*
Y-165183D01*
X621661D01*
Y-164897D01*
Y-164610D01*
X619943D01*
Y-164324D01*
X617939D01*
Y-164038D01*
X616794D01*
Y-163751D01*
X616221D01*
Y-163465D01*
X615362D01*
Y-163179D01*
X614790D01*
Y-162892D01*
X614503D01*
Y-162606D01*
X613931D01*
Y-162320D01*
X613644D01*
Y-162034D01*
X613358D01*
Y-161747D01*
X613072D01*
Y-161461D01*
X612785D01*
Y-161175D01*
X612499D01*
Y-160888D01*
Y-160602D01*
X612213D01*
Y-160316D01*
X611927D01*
Y-160029D01*
Y-159743D01*
X611640D01*
Y-159457D01*
Y-159170D01*
X611354D01*
Y-158884D01*
Y-158598D01*
X611067D01*
Y-158311D01*
Y-158025D01*
Y-157739D01*
X610781D01*
Y-157453D01*
Y-157166D01*
Y-156880D01*
Y-156594D01*
X610495D01*
Y-156307D01*
Y-156021D01*
Y-155735D01*
Y-155448D01*
Y-155162D01*
Y-154876D01*
Y-154589D01*
X610209D01*
Y-154303D01*
Y-154017D01*
Y-153730D01*
Y-153444D01*
Y-153158D01*
Y-152872D01*
Y-152585D01*
Y-152299D01*
Y-152013D01*
Y-151726D01*
Y-151440D01*
Y-151154D01*
Y-150867D01*
Y-150581D01*
Y-150295D01*
X609922D01*
Y-150008D01*
Y-149722D01*
Y-149436D01*
Y-149150D01*
Y-148863D01*
Y-148577D01*
Y-148291D01*
Y-148004D01*
Y-147718D01*
Y-147432D01*
Y-147145D01*
Y-146859D01*
Y-146573D01*
Y-146286D01*
Y-146000D01*
X609636D01*
Y-145714D01*
Y-145427D01*
Y-145141D01*
Y-144855D01*
Y-144569D01*
Y-144282D01*
Y-143996D01*
Y-143710D01*
Y-143423D01*
Y-143137D01*
Y-142851D01*
Y-142564D01*
Y-142278D01*
Y-141992D01*
Y-141705D01*
Y-141419D01*
X609350D01*
Y-141133D01*
Y-140846D01*
Y-140560D01*
Y-140274D01*
Y-139988D01*
Y-139701D01*
Y-139415D01*
Y-139128D01*
Y-138842D01*
Y-138556D01*
Y-138270D01*
Y-137983D01*
Y-137697D01*
Y-137411D01*
Y-137124D01*
Y-136838D01*
X609063D01*
Y-136552D01*
Y-136265D01*
Y-135979D01*
Y-135693D01*
Y-135406D01*
Y-135120D01*
Y-134834D01*
Y-134547D01*
Y-134261D01*
Y-133975D01*
Y-133689D01*
Y-133402D01*
Y-133116D01*
Y-132830D01*
X608777D01*
Y-132543D01*
Y-132257D01*
Y-131971D01*
Y-131684D01*
Y-131398D01*
Y-131112D01*
Y-130825D01*
Y-130539D01*
Y-130253D01*
Y-129966D01*
Y-129680D01*
Y-129394D01*
Y-129108D01*
Y-128821D01*
Y-128535D01*
Y-128249D01*
X608491D01*
Y-127962D01*
X622234D01*
Y-128249D01*
Y-128535D01*
Y-128821D01*
Y-129108D01*
Y-129394D01*
Y-129680D01*
Y-129966D01*
Y-130253D01*
Y-130539D01*
Y-130825D01*
Y-131112D01*
Y-131398D01*
Y-131684D01*
Y-131971D01*
X622520D01*
Y-132257D01*
Y-132543D01*
Y-132830D01*
Y-133116D01*
Y-133402D01*
Y-133689D01*
Y-133975D01*
Y-134261D01*
Y-134547D01*
Y-134834D01*
Y-135120D01*
Y-135406D01*
Y-135693D01*
Y-135979D01*
Y-136265D01*
Y-136552D01*
Y-136838D01*
Y-137124D01*
Y-137411D01*
Y-137697D01*
Y-137983D01*
Y-138270D01*
Y-138556D01*
Y-138842D01*
Y-139128D01*
Y-139415D01*
Y-139701D01*
Y-139988D01*
Y-140274D01*
Y-140560D01*
Y-140846D01*
Y-141133D01*
Y-141419D01*
Y-141705D01*
Y-141992D01*
Y-142278D01*
Y-142564D01*
Y-142851D01*
Y-143137D01*
Y-143423D01*
Y-143710D01*
X622806D01*
Y-143996D01*
X622520D01*
Y-144282D01*
Y-144569D01*
X622806D01*
Y-144855D01*
Y-145141D01*
Y-145427D01*
Y-145714D01*
Y-146000D01*
Y-146286D01*
Y-146573D01*
Y-146859D01*
Y-147145D01*
Y-147432D01*
Y-147718D01*
Y-148004D01*
Y-148291D01*
Y-148577D01*
Y-148863D01*
Y-149150D01*
Y-149436D01*
Y-149722D01*
Y-150008D01*
Y-150295D01*
Y-150581D01*
Y-150867D01*
Y-151154D01*
Y-151440D01*
Y-151726D01*
Y-152013D01*
X623093D01*
Y-152299D01*
Y-152585D01*
Y-152872D01*
X623379D01*
Y-153158D01*
X623665D01*
Y-153444D01*
X623952D01*
Y-153730D01*
X624811D01*
Y-154017D01*
X625669D01*
Y-153730D01*
X625956D01*
Y-153444D01*
Y-153158D01*
Y-152872D01*
X626242D01*
Y-152585D01*
Y-152299D01*
X626528D01*
Y-152013D01*
Y-151726D01*
Y-151440D01*
X626815D01*
Y-151154D01*
Y-150867D01*
Y-150581D01*
X627101D01*
Y-150295D01*
Y-150008D01*
Y-149722D01*
X627387D01*
Y-149436D01*
Y-149150D01*
Y-148863D01*
X627674D01*
Y-148577D01*
Y-148291D01*
X627960D01*
Y-148004D01*
Y-147718D01*
Y-147432D01*
X628246D01*
Y-147145D01*
Y-146859D01*
Y-146573D01*
X628533D01*
Y-146286D01*
Y-146000D01*
Y-145714D01*
X628819D01*
Y-145427D01*
Y-145141D01*
X629105D01*
Y-144855D01*
Y-144569D01*
Y-144282D01*
X629392D01*
Y-143996D01*
Y-143710D01*
Y-143423D01*
X629678D01*
Y-143137D01*
Y-142851D01*
Y-142564D01*
X629964D01*
Y-142278D01*
Y-141992D01*
X630251D01*
Y-141705D01*
Y-141419D01*
Y-141133D01*
X630537D01*
Y-140846D01*
Y-140560D01*
Y-140274D01*
X630823D01*
Y-139988D01*
Y-139701D01*
Y-139415D01*
X631109D01*
Y-139128D01*
Y-138842D01*
X631396D01*
Y-138556D01*
Y-138270D01*
Y-137983D01*
X631682D01*
Y-137697D01*
Y-137411D01*
Y-137124D01*
X631968D01*
Y-136838D01*
Y-136552D01*
Y-136265D01*
X632255D01*
Y-135979D01*
Y-135693D01*
Y-135406D01*
Y-135120D01*
X632541D01*
Y-134834D01*
Y-134547D01*
Y-134261D01*
Y-133975D01*
X632827D01*
Y-133689D01*
Y-133402D01*
Y-133116D01*
Y-132830D01*
Y-132543D01*
X633114D01*
Y-132257D01*
Y-131971D01*
Y-131684D01*
Y-131398D01*
Y-131112D01*
Y-130825D01*
X633400D01*
Y-130539D01*
Y-130253D01*
Y-129966D01*
Y-129680D01*
Y-129394D01*
Y-129108D01*
Y-128821D01*
Y-128535D01*
Y-128249D01*
Y-127962D01*
X646284D01*
Y-128249D01*
D02*
G37*
G36*
X588449Y-110784D02*
Y-111070D01*
X588163D01*
Y-111356D01*
Y-111643D01*
Y-111929D01*
Y-112215D01*
Y-112501D01*
Y-112788D01*
X587876D01*
Y-113074D01*
Y-113360D01*
Y-113647D01*
Y-113933D01*
Y-114219D01*
Y-114506D01*
X587590D01*
Y-114792D01*
Y-115078D01*
Y-115365D01*
Y-115651D01*
Y-115937D01*
Y-116224D01*
Y-116510D01*
X587304D01*
Y-116796D01*
Y-117083D01*
Y-117369D01*
Y-117655D01*
Y-117941D01*
Y-118228D01*
X587017D01*
Y-118514D01*
Y-118800D01*
Y-119087D01*
Y-119373D01*
Y-119659D01*
Y-119946D01*
X586731D01*
Y-120232D01*
Y-120518D01*
Y-120805D01*
Y-121091D01*
Y-121377D01*
Y-121663D01*
Y-121950D01*
X586445D01*
Y-122236D01*
Y-122522D01*
Y-122809D01*
Y-123095D01*
Y-123381D01*
Y-123668D01*
X586158D01*
Y-123954D01*
Y-124240D01*
Y-124527D01*
Y-124813D01*
Y-125099D01*
Y-125385D01*
X585872D01*
Y-125672D01*
Y-125958D01*
Y-126244D01*
Y-126531D01*
Y-126817D01*
Y-127103D01*
X585586D01*
Y-127390D01*
Y-127676D01*
Y-127962D01*
Y-128249D01*
Y-128535D01*
Y-128821D01*
Y-129108D01*
X585299D01*
Y-129394D01*
Y-129680D01*
Y-129966D01*
Y-130253D01*
Y-130539D01*
Y-130825D01*
X585013D01*
Y-131112D01*
Y-131398D01*
X585586D01*
Y-131112D01*
X585872D01*
Y-130825D01*
X586158D01*
Y-130539D01*
X586731D01*
Y-130253D01*
X587017D01*
Y-129966D01*
X587304D01*
Y-129680D01*
X587876D01*
Y-129394D01*
X588449D01*
Y-129108D01*
X588735D01*
Y-128821D01*
X589308D01*
Y-128535D01*
X590167D01*
Y-128249D01*
X590739D01*
Y-127962D01*
X591598D01*
Y-127676D01*
X593030D01*
Y-127390D01*
X599329D01*
Y-127676D01*
X600474D01*
Y-127962D01*
X601333D01*
Y-128249D01*
X601905D01*
Y-128535D01*
X602192D01*
Y-128821D01*
X602765D01*
Y-129108D01*
X603051D01*
Y-129394D01*
X603337D01*
Y-129680D01*
X603623D01*
Y-129966D01*
X603910D01*
Y-130253D01*
Y-130539D01*
X604196D01*
Y-130825D01*
Y-131112D01*
X604482D01*
Y-131398D01*
Y-131684D01*
Y-131971D01*
X604769D01*
Y-132257D01*
Y-132543D01*
Y-132830D01*
Y-133116D01*
X605055D01*
Y-133402D01*
Y-133689D01*
Y-133975D01*
Y-134261D01*
Y-134547D01*
Y-134834D01*
Y-135120D01*
Y-135406D01*
Y-135693D01*
Y-135979D01*
Y-136265D01*
Y-136552D01*
Y-136838D01*
Y-137124D01*
Y-137411D01*
Y-137697D01*
Y-137983D01*
Y-138270D01*
X604769D01*
Y-138556D01*
Y-138842D01*
Y-139128D01*
Y-139415D01*
Y-139701D01*
Y-139988D01*
Y-140274D01*
X604482D01*
Y-140560D01*
Y-140846D01*
Y-141133D01*
Y-141419D01*
Y-141705D01*
Y-141992D01*
Y-142278D01*
X604196D01*
Y-142564D01*
Y-142851D01*
Y-143137D01*
Y-143423D01*
Y-143710D01*
Y-143996D01*
X603910D01*
Y-144282D01*
Y-144569D01*
Y-144855D01*
Y-145141D01*
Y-145427D01*
Y-145714D01*
X603623D01*
Y-146000D01*
Y-146286D01*
Y-146573D01*
Y-146859D01*
Y-147145D01*
Y-147432D01*
X603337D01*
Y-147718D01*
Y-148004D01*
Y-148291D01*
Y-148577D01*
Y-148863D01*
Y-149150D01*
Y-149436D01*
X603051D01*
Y-149722D01*
Y-150008D01*
Y-150295D01*
Y-150581D01*
Y-150867D01*
Y-151154D01*
X602765D01*
Y-151440D01*
Y-151726D01*
Y-152013D01*
Y-152299D01*
Y-152585D01*
Y-152872D01*
X602478D01*
Y-153158D01*
Y-153444D01*
Y-153730D01*
Y-154017D01*
Y-154303D01*
Y-154589D01*
Y-154876D01*
X602192D01*
Y-155162D01*
Y-155448D01*
Y-155735D01*
Y-156021D01*
Y-156307D01*
Y-156594D01*
X601905D01*
Y-156880D01*
Y-157166D01*
Y-157453D01*
Y-157739D01*
Y-158025D01*
Y-158311D01*
X601619D01*
Y-158598D01*
Y-158884D01*
Y-159170D01*
Y-159457D01*
Y-159743D01*
Y-160029D01*
X601333D01*
Y-160316D01*
Y-160602D01*
Y-160888D01*
Y-161175D01*
Y-161461D01*
Y-161747D01*
Y-162034D01*
X601047D01*
Y-162320D01*
Y-162606D01*
Y-162892D01*
Y-163179D01*
Y-163465D01*
Y-163751D01*
X600760D01*
Y-164038D01*
Y-164324D01*
X587590D01*
Y-164038D01*
Y-163751D01*
X587876D01*
Y-163465D01*
Y-163179D01*
Y-162892D01*
Y-162606D01*
Y-162320D01*
Y-162034D01*
X588163D01*
Y-161747D01*
Y-161461D01*
Y-161175D01*
Y-160888D01*
Y-160602D01*
Y-160316D01*
Y-160029D01*
X588449D01*
Y-159743D01*
Y-159457D01*
Y-159170D01*
Y-158884D01*
Y-158598D01*
Y-158311D01*
X588735D01*
Y-158025D01*
Y-157739D01*
Y-157453D01*
Y-157166D01*
Y-156880D01*
Y-156594D01*
X589021D01*
Y-156307D01*
Y-156021D01*
Y-155735D01*
Y-155448D01*
Y-155162D01*
Y-154876D01*
Y-154589D01*
X589308D01*
Y-154303D01*
Y-154017D01*
Y-153730D01*
Y-153444D01*
Y-153158D01*
Y-152872D01*
X589594D01*
Y-152585D01*
Y-152299D01*
Y-152013D01*
Y-151726D01*
Y-151440D01*
Y-151154D01*
Y-150867D01*
X589880D01*
Y-150581D01*
Y-150295D01*
Y-150008D01*
Y-149722D01*
Y-149436D01*
Y-149150D01*
X590167D01*
Y-148863D01*
Y-148577D01*
Y-148291D01*
Y-148004D01*
Y-147718D01*
Y-147432D01*
X590453D01*
Y-147145D01*
Y-146859D01*
Y-146573D01*
Y-146286D01*
Y-146000D01*
Y-145714D01*
X590739D01*
Y-145427D01*
Y-145141D01*
Y-144855D01*
Y-144569D01*
Y-144282D01*
Y-143996D01*
Y-143710D01*
X591026D01*
Y-143423D01*
Y-143137D01*
Y-142851D01*
Y-142564D01*
Y-142278D01*
Y-141992D01*
X591312D01*
Y-141705D01*
Y-141419D01*
Y-141133D01*
Y-140846D01*
Y-140560D01*
Y-140274D01*
Y-139988D01*
X591598D01*
Y-139701D01*
Y-139415D01*
Y-139128D01*
Y-138842D01*
Y-138556D01*
Y-138270D01*
X591312D01*
Y-137983D01*
Y-137697D01*
X591026D01*
Y-137411D01*
X590739D01*
Y-137124D01*
X590167D01*
Y-136838D01*
X588449D01*
Y-137124D01*
X587017D01*
Y-137411D01*
X586158D01*
Y-137697D01*
X585586D01*
Y-137983D01*
X585299D01*
Y-138270D01*
X584727D01*
Y-138556D01*
X584440D01*
Y-138842D01*
X584154D01*
Y-139128D01*
Y-139415D01*
X583868D01*
Y-139701D01*
Y-139988D01*
Y-140274D01*
X583581D01*
Y-140560D01*
Y-140846D01*
Y-141133D01*
Y-141419D01*
Y-141705D01*
Y-141992D01*
X583295D01*
Y-142278D01*
Y-142564D01*
Y-142851D01*
Y-143137D01*
Y-143423D01*
Y-143710D01*
Y-143996D01*
X583009D01*
Y-144282D01*
Y-144569D01*
Y-144855D01*
Y-145141D01*
Y-145427D01*
Y-145714D01*
X582723D01*
Y-146000D01*
Y-146286D01*
Y-146573D01*
Y-146859D01*
Y-147145D01*
Y-147432D01*
X582436D01*
Y-147718D01*
Y-148004D01*
Y-148291D01*
Y-148577D01*
Y-148863D01*
Y-149150D01*
X582150D01*
Y-149436D01*
Y-149722D01*
Y-150008D01*
Y-150295D01*
Y-150581D01*
Y-150867D01*
Y-151154D01*
X581864D01*
Y-151440D01*
Y-151726D01*
Y-152013D01*
Y-152299D01*
Y-152585D01*
Y-152872D01*
X581577D01*
Y-153158D01*
Y-153444D01*
Y-153730D01*
Y-154017D01*
Y-154303D01*
Y-154589D01*
X581291D01*
Y-154876D01*
Y-155162D01*
Y-155448D01*
Y-155735D01*
Y-156021D01*
Y-156307D01*
Y-156594D01*
X581005D01*
Y-156880D01*
Y-157166D01*
Y-157453D01*
Y-157739D01*
Y-158025D01*
Y-158311D01*
X580718D01*
Y-158598D01*
Y-158884D01*
Y-159170D01*
Y-159457D01*
Y-159743D01*
Y-160029D01*
X580432D01*
Y-160316D01*
Y-160602D01*
Y-160888D01*
Y-161175D01*
Y-161461D01*
Y-161747D01*
X580146D01*
Y-162034D01*
Y-162320D01*
Y-162606D01*
Y-162892D01*
Y-163179D01*
Y-163465D01*
Y-163751D01*
X579859D01*
Y-164038D01*
Y-164324D01*
X566689D01*
Y-164038D01*
Y-163751D01*
X566975D01*
Y-163465D01*
Y-163179D01*
Y-162892D01*
Y-162606D01*
Y-162320D01*
Y-162034D01*
Y-161747D01*
X567262D01*
Y-161461D01*
Y-161175D01*
Y-160888D01*
Y-160602D01*
Y-160316D01*
Y-160029D01*
X567548D01*
Y-159743D01*
Y-159457D01*
Y-159170D01*
Y-158884D01*
Y-158598D01*
Y-158311D01*
X567834D01*
Y-158025D01*
Y-157739D01*
Y-157453D01*
Y-157166D01*
Y-156880D01*
Y-156594D01*
Y-156307D01*
X568121D01*
Y-156021D01*
Y-155735D01*
Y-155448D01*
Y-155162D01*
Y-154876D01*
Y-154589D01*
X568407D01*
Y-154303D01*
Y-154017D01*
Y-153730D01*
Y-153444D01*
Y-153158D01*
Y-152872D01*
X568693D01*
Y-152585D01*
Y-152299D01*
Y-152013D01*
Y-151726D01*
Y-151440D01*
Y-151154D01*
X568980D01*
Y-150867D01*
Y-150581D01*
Y-150295D01*
Y-150008D01*
Y-149722D01*
Y-149436D01*
Y-149150D01*
X569266D01*
Y-148863D01*
Y-148577D01*
Y-148291D01*
Y-148004D01*
Y-147718D01*
Y-147432D01*
X569552D01*
Y-147145D01*
Y-146859D01*
Y-146573D01*
Y-146286D01*
Y-146000D01*
Y-145714D01*
X569838D01*
Y-145427D01*
Y-145141D01*
Y-144855D01*
Y-144569D01*
Y-144282D01*
Y-143996D01*
Y-143710D01*
X570125D01*
Y-143423D01*
Y-143137D01*
Y-142851D01*
Y-142564D01*
Y-142278D01*
Y-141992D01*
X570411D01*
Y-141705D01*
Y-141419D01*
Y-141133D01*
Y-140846D01*
Y-140560D01*
Y-140274D01*
X570697D01*
Y-139988D01*
Y-139701D01*
Y-139415D01*
Y-139128D01*
Y-138842D01*
Y-138556D01*
X570984D01*
Y-138270D01*
Y-137983D01*
Y-137697D01*
Y-137411D01*
Y-137124D01*
Y-136838D01*
Y-136552D01*
X571270D01*
Y-136265D01*
Y-135979D01*
Y-135693D01*
Y-135406D01*
Y-135120D01*
Y-134834D01*
X571556D01*
Y-134547D01*
Y-134261D01*
Y-133975D01*
Y-133689D01*
Y-133402D01*
Y-133116D01*
X571843D01*
Y-132830D01*
Y-132543D01*
Y-132257D01*
Y-131971D01*
Y-131684D01*
Y-131398D01*
X572129D01*
Y-131112D01*
Y-130825D01*
Y-130539D01*
Y-130253D01*
Y-129966D01*
Y-129680D01*
Y-129394D01*
X572415D01*
Y-129108D01*
Y-128821D01*
Y-128535D01*
Y-128249D01*
Y-127962D01*
Y-127676D01*
X572702D01*
Y-127390D01*
Y-127103D01*
Y-126817D01*
Y-126531D01*
Y-126244D01*
Y-125958D01*
X572988D01*
Y-125672D01*
Y-125385D01*
Y-125099D01*
Y-124813D01*
Y-124527D01*
Y-124240D01*
Y-123954D01*
X573274D01*
Y-123668D01*
Y-123381D01*
Y-123095D01*
Y-122809D01*
Y-122522D01*
Y-122236D01*
X573560D01*
Y-121950D01*
Y-121663D01*
Y-121377D01*
Y-121091D01*
Y-120805D01*
Y-120518D01*
X573847D01*
Y-120232D01*
Y-119946D01*
Y-119659D01*
Y-119373D01*
Y-119087D01*
Y-118800D01*
X574133D01*
Y-118514D01*
Y-118228D01*
Y-117941D01*
Y-117655D01*
Y-117369D01*
Y-117083D01*
Y-116796D01*
X574419D01*
Y-116510D01*
Y-116224D01*
Y-115937D01*
Y-115651D01*
Y-115365D01*
Y-115078D01*
X574706D01*
Y-114792D01*
Y-114506D01*
Y-114219D01*
Y-113933D01*
Y-113647D01*
Y-113360D01*
X574992D01*
Y-113074D01*
Y-112788D01*
Y-112501D01*
Y-112215D01*
Y-111929D01*
Y-111643D01*
Y-111356D01*
X575278D01*
Y-111070D01*
Y-110784D01*
Y-110497D01*
X588449D01*
Y-110784D01*
D02*
G37*
%LPC*%
G36*
X-214567Y328779D02*
X-219278Y328779D01*
X-219408Y328753D01*
X-219540Y328762D01*
X-221075Y328559D01*
X-221200Y328517D01*
X-221333Y328508D01*
X-222828Y328108D01*
X-222947Y328049D01*
X-223077Y328023D01*
X-224507Y327431D01*
X-224617Y327357D01*
X-224743Y327314D01*
X-226083Y326540D01*
X-226183Y326453D01*
X-226302Y326395D01*
X-227530Y325452D01*
X-227617Y325352D01*
X-227727Y325279D01*
X-228822Y324184D01*
X-228896Y324074D01*
X-228995Y323987D01*
X-229938Y322758D01*
X-229996Y322640D01*
X-230084Y322540D01*
X-230858Y321199D01*
X-230900Y321074D01*
X-230974Y320964D01*
X-231566Y319533D01*
X-231592Y319404D01*
X-231651Y319285D01*
X-232051Y317789D01*
X-232060Y317657D01*
X-232103Y317532D01*
X-232305Y315997D01*
X-232296Y315865D01*
X-232322Y315735D01*
Y314961D01*
X-232322Y314961D01*
Y310675D01*
X-232283Y310481D01*
Y310283D01*
X-232147Y309598D01*
X-232072Y309416D01*
X-232033Y309222D01*
X-231766Y308577D01*
X-231656Y308413D01*
X-231580Y308230D01*
X-231193Y307650D01*
X-231053Y307510D01*
X-230943Y307346D01*
X-230450Y306852D01*
X-230285Y306742D01*
X-230146Y306603D01*
X-229565Y306215D01*
X-229382Y306139D01*
X-229218Y306029D01*
X-228573Y305762D01*
X-228379Y305724D01*
X-228197Y305648D01*
X-227512Y305512D01*
X-227314D01*
X-227121Y305473D01*
X-226772D01*
X-226772Y305473D01*
X-222060Y305473D01*
X-221931Y305499D01*
X-221799Y305490D01*
X-220264Y305693D01*
X-220138Y305735D01*
X-220006Y305744D01*
X-218511Y306144D01*
X-218392Y306203D01*
X-218262Y306229D01*
X-216831Y306821D01*
X-216721Y306895D01*
X-216596Y306938D01*
X-215255Y307712D01*
X-215156Y307799D01*
X-215037Y307857D01*
X-213809Y308800D01*
X-213721Y308899D01*
X-213611Y308973D01*
X-212516Y310068D01*
X-212443Y310178D01*
X-212343Y310265D01*
X-211401Y311494D01*
X-211342Y311612D01*
X-211255Y311712D01*
X-210481Y313053D01*
X-210438Y313178D01*
X-210365Y313288D01*
X-209772Y314719D01*
X-209746Y314848D01*
X-209688Y314967D01*
X-209287Y316463D01*
X-209278Y316595D01*
X-209236Y316720D01*
X-209034Y318255D01*
X-209042Y318387D01*
X-209017Y318517D01*
Y319291D01*
X-209017Y319291D01*
X-209017Y323228D01*
X-209017Y323577D01*
X-209055Y323771D01*
Y323969D01*
X-209191Y324653D01*
X-209267Y324836D01*
X-209306Y325030D01*
X-209573Y325675D01*
X-209682Y325839D01*
X-209758Y326022D01*
X-210146Y326602D01*
X-210286Y326742D01*
X-210396Y326906D01*
X-210889Y327400D01*
X-211053Y327510D01*
X-211193Y327649D01*
X-211773Y328037D01*
X-211956Y328113D01*
X-212121Y328223D01*
X-212765Y328490D01*
X-212959Y328528D01*
X-213142Y328604D01*
X-213826Y328740D01*
X-214024D01*
X-214218Y328779D01*
X-214567D01*
X-214567Y328779D01*
D02*
G37*
G36*
X110236Y326308D02*
X109660Y326194D01*
X109172Y325868D01*
X108845Y325379D01*
X108731Y324803D01*
Y320866D01*
X108845Y320290D01*
X109172Y319802D01*
X109660Y319475D01*
X110236Y319361D01*
X110812Y319475D01*
X111301Y319802D01*
X111627Y320290D01*
X111741Y320866D01*
Y324803D01*
X111627Y325379D01*
X111301Y325868D01*
X110812Y326194D01*
X110236Y326308D01*
D02*
G37*
G36*
X-110236D02*
X-110812Y326194D01*
X-111301Y325868D01*
X-111627Y325379D01*
X-111741Y324803D01*
Y320866D01*
X-111627Y320290D01*
X-111301Y319802D01*
X-110812Y319475D01*
X-110236Y319361D01*
X-109660Y319475D01*
X-109172Y319802D01*
X-108845Y320290D01*
X-108731Y320866D01*
Y324803D01*
X-108845Y325379D01*
X-109172Y325868D01*
X-109660Y326194D01*
X-110236Y326308D01*
D02*
G37*
G36*
X-184521Y322992D02*
X-185558D01*
X-186559Y322724D01*
X-187457Y322205D01*
X-188190Y321473D01*
X-188708Y320575D01*
X-188976Y319573D01*
Y318537D01*
X-188708Y317535D01*
X-188190Y316638D01*
X-187457Y315905D01*
X-186559Y315386D01*
X-185558Y315118D01*
X-184521D01*
X-183520Y315386D01*
X-182622Y315905D01*
X-181889Y316638D01*
X-181371Y317535D01*
X-181102Y318537D01*
Y319573D01*
X-181371Y320575D01*
X-181889Y321473D01*
X-182622Y322205D01*
X-183520Y322724D01*
X-184521Y322992D01*
D02*
G37*
G36*
X-194521D02*
X-195558D01*
X-196559Y322724D01*
X-197457Y322205D01*
X-198190Y321473D01*
X-198708Y320575D01*
X-198976Y319573D01*
Y318537D01*
X-198708Y317535D01*
X-198190Y316638D01*
X-197457Y315905D01*
X-196559Y315386D01*
X-195558Y315118D01*
X-194521D01*
X-193520Y315386D01*
X-192622Y315905D01*
X-191889Y316638D01*
X-191371Y317535D01*
X-191102Y318537D01*
Y319573D01*
X-191371Y320575D01*
X-191889Y321473D01*
X-192622Y322205D01*
X-193520Y322724D01*
X-194521Y322992D01*
D02*
G37*
G36*
X101476Y314100D02*
X100706Y313999D01*
X99987Y313701D01*
X99370Y313228D01*
X98332Y313168D01*
X98172Y313329D01*
X97340Y313673D01*
X96439D01*
X95608Y313329D01*
X94971Y312692D01*
X94626Y311860D01*
Y310959D01*
X94971Y310127D01*
X95608Y309490D01*
X96439Y309146D01*
X97241D01*
X97563Y308845D01*
X97823Y308493D01*
X97801Y308442D01*
X97413Y307936D01*
X96934Y307347D01*
X96392Y306805D01*
X90317Y300730D01*
X89760Y300173D01*
X89175Y299684D01*
X88771Y299352D01*
X87637Y298746D01*
X86407Y298373D01*
X85158Y298250D01*
X85127Y298254D01*
X-78663D01*
Y298267D01*
X-81424Y298112D01*
X-84151Y297649D01*
X-86808Y296883D01*
X-89363Y295825D01*
X-91783Y294488D01*
X-94038Y292887D01*
X-96100Y291045D01*
X-96091Y291035D01*
X-96091Y291035D01*
X-106011Y281115D01*
X-106028Y281133D01*
X-106028Y281133D01*
X-106541Y280548D01*
X-108041Y278837D01*
X-109738Y276298D01*
X-111088Y273560D01*
X-112070Y270668D01*
X-112665Y267674D01*
X-112814Y265403D01*
X-112865Y264627D01*
X-112865Y264627D01*
X-112840D01*
X-112840Y264627D01*
Y214567D01*
X-112739Y213796D01*
X-112441Y213078D01*
X-111968Y212461D01*
X-111351Y211988D01*
X-110633Y211690D01*
X-109862Y211589D01*
X-109091Y211690D01*
X-108373Y211988D01*
X-107756Y212461D01*
X-107283Y213078D01*
X-106985Y213796D01*
X-106884Y214567D01*
Y241068D01*
X-106097Y241356D01*
X-105567Y240826D01*
X-104669Y240308D01*
X-103668Y240039D01*
X-102631D01*
X-101630Y240308D01*
X-101372Y240457D01*
X-100584Y240002D01*
Y228564D01*
X-100586Y227776D01*
X-100586Y227776D01*
X-100511Y227019D01*
X-100395Y225842D01*
X-99831Y223983D01*
X-98915Y222269D01*
X-97682Y220766D01*
X-97681Y220767D01*
X-97681Y220767D01*
X-94536Y217622D01*
X-94500Y217598D01*
X-93210Y216540D01*
X-91702Y215733D01*
X-90065Y215237D01*
X-88362Y215069D01*
X-87313Y215173D01*
X-87312Y215168D01*
X-86677Y215295D01*
X-86582Y215358D01*
X-85895Y215817D01*
X-85373Y216598D01*
X-85190Y217520D01*
X-85373Y218441D01*
X-85895Y219223D01*
X-86677Y219745D01*
X-87598Y219928D01*
X-87890Y219914D01*
X-88652Y219890D01*
X-89383Y219986D01*
X-90334Y220380D01*
X-91078Y220951D01*
X-91130Y221028D01*
X-94275Y224173D01*
X-94378Y224242D01*
X-95120Y225209D01*
X-95632Y226447D01*
X-95792Y227655D01*
X-95767Y227776D01*
Y240039D01*
X-89213D01*
Y247913D01*
X-95767D01*
Y266207D01*
X-95796Y266350D01*
X-95643Y269068D01*
X-95163Y271894D01*
X-94370Y274648D01*
X-93273Y277296D01*
X-91887Y279804D01*
X-90228Y282141D01*
X-88414Y284172D01*
X-88292Y284253D01*
X-88212Y284373D01*
X-86651Y285707D01*
X-84778Y286854D01*
X-82749Y287694D01*
X-80614Y288207D01*
X-79203Y288318D01*
X-78425Y288340D01*
X-78425Y288340D01*
X-77648Y288340D01*
X-66592D01*
X-66240Y287813D01*
Y286990D01*
X-65926Y286231D01*
X-65344Y285649D01*
X-64584Y285335D01*
X-63951D01*
X-62734Y284117D01*
X-62739Y284112D01*
X-61725Y283280D01*
X-60569Y282662D01*
X-59314Y282281D01*
X-58009Y282153D01*
Y282160D01*
X-29965D01*
X-29517Y281712D01*
X-28758Y281398D01*
X-27935D01*
X-27176Y281712D01*
X-26594Y282294D01*
X-26280Y283053D01*
Y283876D01*
X-26594Y284635D01*
X-27176Y285217D01*
X-27935Y285531D01*
X-28758D01*
X-29517Y285217D01*
X-29965Y284769D01*
X-58009D01*
X-58039Y284763D01*
X-59066Y284898D01*
X-60050Y285306D01*
X-60871Y285936D01*
X-60888Y285962D01*
X-62106Y287180D01*
Y287813D01*
X-61754Y288340D01*
X20366D01*
X20588Y287552D01*
X19906Y287134D01*
X18844Y286227D01*
X18259Y285727D01*
X18257Y285725D01*
X18257Y285725D01*
Y285701D01*
X14329Y281773D01*
X14329D01*
X14329Y281773D01*
X13747Y281276D01*
X13082Y280730D01*
X11647Y279963D01*
X10090Y279491D01*
X8521Y279336D01*
X8471Y279346D01*
X-72900D01*
X-72916Y279343D01*
X-73419Y279443D01*
X-74048Y279826D01*
X-74048Y279826D01*
X-74762Y280374D01*
X-75594Y280719D01*
X-76487Y280837D01*
Y280832D01*
X-78850D01*
Y280837D01*
X-80062Y280718D01*
X-81227Y280364D01*
X-82301Y279790D01*
X-83242Y279018D01*
X-83863Y278617D01*
X-84269D01*
X-85029Y278302D01*
X-85611Y277720D01*
X-85925Y276961D01*
Y276138D01*
X-85611Y275379D01*
X-85029Y274797D01*
X-84269Y274483D01*
X-83447D01*
X-82687Y274797D01*
X-82106Y275379D01*
X-81889Y275422D01*
X-81486Y275019D01*
X-80726Y274705D01*
X-79904D01*
X-79626Y274820D01*
X-78970Y274791D01*
X-78688Y274421D01*
X-78524Y274026D01*
X-77943Y273445D01*
X-77545Y273280D01*
X-76870Y272852D01*
Y272030D01*
X-76555Y271270D01*
X-75974Y270689D01*
X-75214Y270374D01*
X-74392D01*
X-73632Y270689D01*
X-73038Y270169D01*
X-73000Y270080D01*
X-73012Y270068D01*
X-73327Y269309D01*
Y268486D01*
X-73171Y268110D01*
X-73637Y267323D01*
X-73640D01*
X-74399Y267008D01*
X-74981Y266427D01*
X-75295Y265667D01*
Y264845D01*
X-74981Y264085D01*
X-74399Y263504D01*
X-73640Y263189D01*
X-72817D01*
X-72377Y263371D01*
X-72225Y263002D01*
X-71643Y262421D01*
X-70884Y262106D01*
X-70061D01*
X-69302Y262421D01*
X-68720Y263002D01*
X-68405Y263762D01*
Y264395D01*
X-64758Y268043D01*
X-64758Y268043D01*
X-64757Y268042D01*
X-64179Y268486D01*
X-63506Y268765D01*
X-62783Y268860D01*
Y268861D01*
X-28752D01*
X-28288Y268073D01*
X-28295Y268056D01*
X-28821Y267421D01*
X-29643D01*
X-30403Y267107D01*
X-30985Y266525D01*
X-31299Y265766D01*
Y264943D01*
X-30985Y264183D01*
X-30403Y263602D01*
X-29643Y263287D01*
X-28821D01*
X-28062Y263602D01*
X-27614Y264050D01*
X-5556D01*
X-5108Y263602D01*
X-4348Y263287D01*
X-3526D01*
X-2766Y263602D01*
X-2185Y264183D01*
X-1870Y264943D01*
Y265766D01*
X-2185Y266525D01*
X-2766Y267107D01*
X-3526Y267421D01*
X-3640D01*
X-3915Y268177D01*
X-3492Y268861D01*
X7987D01*
X8775Y268847D01*
X8775Y268847D01*
X9547Y268897D01*
X11172Y269004D01*
X13528Y269472D01*
X15802Y270244D01*
X17956Y271307D01*
X19953Y272641D01*
X21759Y274225D01*
X21749Y274235D01*
X24472Y276958D01*
X25019Y276849D01*
X25601Y276268D01*
X26360Y275953D01*
X27183D01*
X27942Y276268D01*
X28524Y276849D01*
X28798Y277510D01*
X29362Y277622D01*
X29418Y277611D01*
X70737D01*
X70755Y277614D01*
X71549Y277509D01*
X72306Y277196D01*
X72941Y276708D01*
X72951Y276694D01*
X84961Y264684D01*
X85450Y264357D01*
X86026Y264243D01*
X93464D01*
X93711Y263996D01*
X94471Y263681D01*
X95293D01*
X96053Y263996D01*
X96634Y264577D01*
X96949Y265337D01*
Y266159D01*
X97142Y266494D01*
X97748Y266574D01*
X99040Y267109D01*
X100150Y267961D01*
X100150Y267960D01*
X100150Y267961D01*
X100150Y267990D01*
X101144Y268984D01*
X101147Y268982D01*
X101504Y269220D01*
X101925Y269304D01*
Y269308D01*
X114857D01*
X114891Y269314D01*
X116590Y269180D01*
X118281Y268775D01*
X119887Y268109D01*
X121369Y267201D01*
X121440Y267140D01*
X121998Y266589D01*
X121999Y266586D01*
X122005Y266583D01*
X122586Y266110D01*
X122653Y266053D01*
X124001Y264706D01*
X124001Y264706D01*
X133550Y255156D01*
X133599Y255124D01*
X134646Y253848D01*
X135451Y252342D01*
X135947Y250707D01*
X136108Y249065D01*
X136097Y249008D01*
Y223228D01*
X136102Y223201D01*
X135967Y222518D01*
X135901Y222420D01*
X135423Y221831D01*
X134663Y222146D01*
X133841D01*
X133081Y221831D01*
X132500Y221250D01*
X132185Y220490D01*
Y219668D01*
X132500Y218908D01*
X133081Y218326D01*
X133841Y218012D01*
X134663D01*
X135423Y218326D01*
X136004Y218908D01*
X136130Y219212D01*
X136486Y219359D01*
X137411Y220070D01*
X138121Y220995D01*
X138567Y222072D01*
X138719Y223228D01*
X138706D01*
Y227362D01*
X147638D01*
Y237205D01*
X144021D01*
Y245267D01*
X144031D01*
X143900Y246929D01*
X144291Y247261D01*
X144542Y247401D01*
X176267Y215676D01*
X176315Y215644D01*
X177362Y214368D01*
X178167Y212862D01*
X178663Y211228D01*
X178825Y209585D01*
X178814Y209528D01*
Y196850D01*
X175197D01*
Y187008D01*
X185039D01*
Y196850D01*
X181423D01*
Y209528D01*
X181432D01*
X181293Y211298D01*
X180879Y213024D01*
X180199Y214665D01*
X179272Y216178D01*
X178119Y217528D01*
X178112Y217521D01*
X165272Y230361D01*
X165658Y231089D01*
X167178Y230969D01*
Y230979D01*
X210630D01*
Y227362D01*
X220473D01*
Y237205D01*
X210630D01*
Y233588D01*
X167178D01*
X167121Y233577D01*
X165478Y233738D01*
X163844Y234234D01*
X162338Y235039D01*
X161062Y236086D01*
X161029Y236135D01*
X148693Y248472D01*
X149079Y249199D01*
X150599Y249079D01*
Y249089D01*
X175197D01*
Y244094D01*
X185039D01*
Y253153D01*
X185827Y253737D01*
X186407Y253561D01*
X187913Y252756D01*
X189189Y251709D01*
X189222Y251660D01*
X194226Y246656D01*
X194236Y246650D01*
X194956Y245771D01*
X195497Y244759D01*
X195745Y243943D01*
X195492Y243690D01*
X195177Y242931D01*
Y242109D01*
X195492Y241349D01*
X196073Y240767D01*
X196833Y240453D01*
X197655D01*
X198415Y240767D01*
X198996Y241349D01*
X199311Y242109D01*
Y242931D01*
X198996Y243690D01*
X198415Y244272D01*
X198365Y244292D01*
X197919Y245763D01*
X197136Y247228D01*
X196082Y248512D01*
X196071Y248501D01*
X191067Y253505D01*
X191074Y253512D01*
X189723Y254665D01*
X188210Y255593D01*
X186569Y256272D01*
X184843Y256687D01*
X183073Y256826D01*
Y256816D01*
X146749D01*
X146715Y256810D01*
X145653Y256949D01*
X144631Y257372D01*
X144363Y257578D01*
X143762Y258054D01*
X143762Y258054D01*
X143762Y258054D01*
X129048Y272768D01*
X128504Y273330D01*
X128501Y273333D01*
X127927Y273837D01*
X126737Y274881D01*
X124785Y276185D01*
X122680Y277223D01*
X120457Y277977D01*
X118156Y278435D01*
X115820Y278588D01*
Y278588D01*
X115032Y278575D01*
X92751Y278575D01*
X92380D01*
X92304Y278560D01*
X91005Y278688D01*
X91005Y278688D01*
X91005Y278688D01*
X90247Y278835D01*
X89287Y279065D01*
X87881Y279648D01*
X87202Y280041D01*
Y280041D01*
X87202Y280041D01*
X86588Y280490D01*
X85878Y281073D01*
X85845Y281122D01*
X84890Y282077D01*
X84890Y282077D01*
X82621Y284346D01*
X82075Y284907D01*
X82072Y284910D01*
X81497Y285414D01*
X80442Y286340D01*
X78639Y287544D01*
X78580Y287573D01*
X78759Y288340D01*
X92117D01*
X93039Y288523D01*
X93821Y289045D01*
X94343Y289827D01*
X94526Y290748D01*
X94343Y291670D01*
X93821Y292451D01*
X93039Y292973D01*
X92117Y293157D01*
X91516D01*
X91294Y293944D01*
X92487Y294676D01*
X93396Y295451D01*
X93981Y295952D01*
X93981Y295952D01*
X93972Y295961D01*
X100590Y302579D01*
X101153Y303129D01*
X101153Y303129D01*
X102305Y304478D01*
X103232Y305990D01*
X103911Y307629D01*
X104325Y309354D01*
X104464Y311122D01*
X104455D01*
X104353Y311893D01*
X104056Y312611D01*
X103582Y313228D01*
X102965Y313701D01*
X102247Y313999D01*
X101476Y314100D01*
D02*
G37*
G36*
X-158143Y320866D02*
X-159180D01*
X-160181Y320598D01*
X-161079Y320079D01*
X-161812Y319346D01*
X-162330Y318449D01*
X-162598Y317447D01*
Y316411D01*
X-162330Y315409D01*
X-161812Y314512D01*
X-161079Y313779D01*
X-160181Y313260D01*
X-159180Y312992D01*
X-158143D01*
X-157142Y313260D01*
X-156244Y313779D01*
X-155511Y314512D01*
X-154993Y315409D01*
X-154724Y316411D01*
Y317447D01*
X-154993Y318449D01*
X-155511Y319346D01*
X-156244Y320079D01*
X-157142Y320598D01*
X-158143Y320866D01*
D02*
G37*
G36*
X204150Y320366D02*
X201287D01*
Y311008D01*
X204150D01*
Y320366D01*
D02*
G37*
G36*
X180602D02*
X177740D01*
Y311008D01*
X180602D01*
Y320366D01*
D02*
G37*
G36*
X120096Y313673D02*
X119195D01*
X118363Y313329D01*
X117727Y312692D01*
X117382Y311860D01*
Y310959D01*
X117727Y310127D01*
X118363Y309490D01*
X119195Y309146D01*
X120096D01*
X120928Y309490D01*
X121565Y310127D01*
X121909Y310959D01*
Y311860D01*
X121565Y312692D01*
X120928Y313329D01*
X120096Y313673D01*
D02*
G37*
G36*
X-127953Y325237D02*
X-129574Y325077D01*
X-131132Y324605D01*
X-132568Y323837D01*
X-133827Y322804D01*
X-134860Y321545D01*
X-135628Y320108D01*
X-136101Y318550D01*
X-136260Y316929D01*
X-136101Y315308D01*
X-135628Y313750D01*
X-134860Y312314D01*
X-133827Y311055D01*
X-132568Y310021D01*
X-131132Y309254D01*
X-129574Y308781D01*
X-127953Y308621D01*
X-126332Y308781D01*
X-124774Y309254D01*
X-123337Y310021D01*
X-122078Y311055D01*
X-121045Y312314D01*
X-120277Y313750D01*
X-119805Y315308D01*
X-119645Y316929D01*
X-119805Y318550D01*
X-120277Y320108D01*
X-121045Y321545D01*
X-122078Y322804D01*
X-123337Y323837D01*
X-124774Y324605D01*
X-126332Y325077D01*
X-127953Y325237D01*
D02*
G37*
G36*
X214567Y328779D02*
X214567Y328779D01*
X214218D01*
X214024Y328740D01*
X213826D01*
X213142Y328604D01*
X212959Y328528D01*
X212765Y328490D01*
X212120Y328223D01*
X211956Y328113D01*
X211773Y328037D01*
X211193Y327649D01*
X211053Y327510D01*
X210889Y327400D01*
X210395Y326906D01*
X210286Y326742D01*
X210146Y326602D01*
X209758Y326022D01*
X209682Y325839D01*
X209573Y325675D01*
X209306Y325030D01*
X209267Y324836D01*
X209191Y324653D01*
X209055Y323969D01*
Y323771D01*
X209017Y323577D01*
X209017Y323228D01*
Y319291D01*
X209017Y319291D01*
Y318517D01*
X209042Y318387D01*
X209034Y318255D01*
X209236Y316720D01*
X209278Y316595D01*
X209287Y316463D01*
X209688Y314967D01*
X209746Y314848D01*
X209772Y314719D01*
X210365Y313288D01*
X210438Y313178D01*
X210481Y313053D01*
X211255Y311712D01*
X211342Y311612D01*
X211401Y311494D01*
X212343Y310265D01*
X212443Y310178D01*
X212516Y310068D01*
X213611Y308973D01*
X213721Y308899D01*
X213809Y308800D01*
X215037Y307857D01*
X215156Y307799D01*
X215255Y307712D01*
X216596Y306938D01*
X216721Y306895D01*
X216831Y306821D01*
X218262Y306229D01*
X218392Y306203D01*
X218511Y306144D01*
X220006Y305744D01*
X220138Y305735D01*
X220264Y305693D01*
X221799Y305490D01*
X221931Y305499D01*
X222060Y305473D01*
X226772Y305473D01*
X226772Y305473D01*
X227121D01*
X227314Y305512D01*
X227512D01*
X228197Y305648D01*
X228379Y305724D01*
X228573Y305762D01*
X229218Y306029D01*
X229382Y306139D01*
X229565Y306215D01*
X230145Y306603D01*
X230285Y306742D01*
X230450Y306852D01*
X230943Y307346D01*
X231053Y307510D01*
X231193Y307650D01*
X231580Y308230D01*
X231656Y308413D01*
X231766Y308577D01*
X232033Y309222D01*
X232072Y309416D01*
X232147Y309598D01*
X232283Y310283D01*
Y310481D01*
X232322Y310675D01*
Y314961D01*
X232322Y314961D01*
Y315735D01*
X232296Y315865D01*
X232305Y315997D01*
X232103Y317532D01*
X232060Y317657D01*
X232051Y317789D01*
X231651Y319285D01*
X231592Y319404D01*
X231566Y319533D01*
X230974Y320964D01*
X230900Y321074D01*
X230858Y321199D01*
X230084Y322540D01*
X229996Y322640D01*
X229938Y322758D01*
X228995Y323987D01*
X228896Y324074D01*
X228822Y324184D01*
X227727Y325279D01*
X227617Y325352D01*
X227530Y325452D01*
X226302Y326395D01*
X226183Y326453D01*
X226083Y326540D01*
X224743Y327314D01*
X224617Y327357D01*
X224507Y327431D01*
X223077Y328023D01*
X222947Y328049D01*
X222828Y328108D01*
X221333Y328508D01*
X221200Y328517D01*
X221075Y328559D01*
X219540Y328762D01*
X219408Y328753D01*
X219278Y328779D01*
X218504D01*
X214567Y328779D01*
D02*
G37*
G36*
X-184521Y312992D02*
X-185558D01*
X-186559Y312724D01*
X-187457Y312206D01*
X-188190Y311473D01*
X-188708Y310575D01*
X-188976Y309573D01*
Y308537D01*
X-188708Y307536D01*
X-188190Y306638D01*
X-187457Y305905D01*
X-186559Y305386D01*
X-185558Y305118D01*
X-184521D01*
X-183520Y305386D01*
X-182622Y305905D01*
X-181889Y306638D01*
X-181371Y307536D01*
X-181102Y308537D01*
Y309573D01*
X-181371Y310575D01*
X-181889Y311473D01*
X-182622Y312206D01*
X-183520Y312724D01*
X-184521Y312992D01*
D02*
G37*
G36*
X-194521D02*
X-195558D01*
X-196559Y312724D01*
X-197457Y312206D01*
X-198190Y311473D01*
X-198708Y310575D01*
X-198976Y309573D01*
Y308537D01*
X-198708Y307536D01*
X-198190Y306638D01*
X-197457Y305905D01*
X-196559Y305386D01*
X-195558Y305118D01*
X-194521D01*
X-193520Y305386D01*
X-192622Y305905D01*
X-191889Y306638D01*
X-191371Y307536D01*
X-191102Y308537D01*
Y309573D01*
X-191371Y310575D01*
X-191889Y311473D01*
X-192622Y312206D01*
X-193520Y312724D01*
X-194521Y312992D01*
D02*
G37*
G36*
X-94864Y310335D02*
X-95687D01*
X-96446Y310020D01*
X-97028Y309438D01*
X-97342Y308679D01*
Y308046D01*
X-99175Y306214D01*
X-99207Y306165D01*
X-100483Y305118D01*
X-101989Y304313D01*
X-103623Y303817D01*
X-105266Y303655D01*
X-105323Y303667D01*
X-132283D01*
Y303685D01*
X-133584Y303514D01*
X-134795Y303012D01*
X-135835Y302213D01*
X-136634Y301173D01*
X-137136Y299962D01*
X-137307Y298661D01*
X-137289D01*
Y287402D01*
X-138543D01*
Y279528D01*
X-133559D01*
Y279512D01*
X-131484D01*
Y283465D01*
Y287417D01*
X-133559D01*
Y287402D01*
X-134680D01*
Y298661D01*
X-134690Y298716D01*
X-134517Y299587D01*
X-133993Y300371D01*
X-133209Y300895D01*
X-132338Y301068D01*
X-132283Y301058D01*
X-105323D01*
Y301048D01*
X-103553Y301187D01*
X-101827Y301602D01*
X-100187Y302281D01*
X-98673Y303209D01*
X-97323Y304362D01*
X-97330Y304369D01*
X-95498Y306201D01*
X-94864D01*
X-94105Y306516D01*
X-93523Y307097D01*
X-93209Y307857D01*
Y308679D01*
X-93523Y309438D01*
X-94105Y310020D01*
X-94864Y310335D01*
D02*
G37*
G36*
X-184519Y303008D02*
X-184539D01*
Y299555D01*
X-181087D01*
Y299575D01*
X-181356Y300581D01*
X-181876Y301482D01*
X-182612Y302218D01*
X-183514Y302738D01*
X-184519Y303008D01*
D02*
G37*
G36*
X-185539D02*
X-185560D01*
X-186565Y302738D01*
X-187466Y302218D01*
X-188202Y301482D01*
X-188723Y300581D01*
X-188992Y299575D01*
Y299555D01*
X-185539D01*
Y303008D01*
D02*
G37*
G36*
X-191102Y302992D02*
X-198976D01*
Y295118D01*
X-191102D01*
Y302992D01*
D02*
G37*
G36*
X-181087Y298555D02*
X-184539D01*
Y295102D01*
X-184519D01*
X-183514Y295372D01*
X-182612Y295892D01*
X-181876Y296628D01*
X-181356Y297529D01*
X-181087Y298535D01*
Y298555D01*
D02*
G37*
G36*
X-185539D02*
X-188992D01*
Y298535D01*
X-188723Y297529D01*
X-188202Y296628D01*
X-187466Y295892D01*
X-186565Y295372D01*
X-185560Y295102D01*
X-185539D01*
Y298555D01*
D02*
G37*
G36*
X-158143Y297244D02*
X-159180D01*
X-160181Y296976D01*
X-161079Y296458D01*
X-161812Y295725D01*
X-162330Y294827D01*
X-162598Y293825D01*
Y292789D01*
X-162330Y291788D01*
X-161812Y290890D01*
X-161079Y290157D01*
X-160181Y289638D01*
X-159180Y289370D01*
X-158143D01*
X-157142Y289638D01*
X-156244Y290157D01*
X-155511Y290890D01*
X-154993Y291788D01*
X-154724Y292789D01*
Y293825D01*
X-154993Y294827D01*
X-155511Y295725D01*
X-156244Y296458D01*
X-157142Y296976D01*
X-158143Y297244D01*
D02*
G37*
G36*
X147638Y305552D02*
X146017Y305392D01*
X144459Y304919D01*
X143022Y304152D01*
X141763Y303118D01*
X140730Y301860D01*
X139962Y300423D01*
X139490Y298865D01*
X139330Y297244D01*
X139490Y295623D01*
X139962Y294065D01*
X140730Y292629D01*
X141763Y291370D01*
X143022Y290336D01*
X144459Y289569D01*
X146017Y289096D01*
X147638Y288936D01*
X149258Y289096D01*
X150817Y289569D01*
X152253Y290336D01*
X153512Y291370D01*
X154545Y292629D01*
X155313Y294065D01*
X155786Y295623D01*
X155946Y297244D01*
X155786Y298865D01*
X155313Y300423D01*
X154545Y301860D01*
X153512Y303118D01*
X152253Y304152D01*
X150817Y304919D01*
X149258Y305392D01*
X147638Y305552D01*
D02*
G37*
G36*
X-10095Y287500D02*
X-10918D01*
X-11677Y287185D01*
X-12125Y286738D01*
X-14523D01*
X-14971Y287185D01*
X-15731Y287500D01*
X-16553D01*
X-17312Y287185D01*
X-17894Y286604D01*
X-18209Y285844D01*
Y285022D01*
X-17894Y284262D01*
X-17312Y283681D01*
X-16553Y283366D01*
X-15731D01*
X-14971Y283681D01*
X-14523Y284128D01*
X-12125D01*
X-11677Y283681D01*
X-10918Y283366D01*
X-10095D01*
X-9336Y283681D01*
X-8754Y284262D01*
X-8439Y285022D01*
Y285844D01*
X-8754Y286604D01*
X-9336Y287185D01*
X-10095Y287500D01*
D02*
G37*
G36*
X-125573Y290256D02*
X-126395D01*
X-127155Y289941D01*
X-127736Y289360D01*
X-128051Y288600D01*
Y288056D01*
X-128270Y287666D01*
X-128754Y287417D01*
X-130484D01*
Y283465D01*
Y279512D01*
X-128409D01*
Y279528D01*
X-123425D01*
Y287402D01*
X-123666D01*
X-123917Y287778D01*
Y288600D01*
X-124232Y289360D01*
X-124813Y289941D01*
X-125573Y290256D01*
D02*
G37*
G36*
X185055Y277575D02*
X180618D01*
Y273138D01*
X185055D01*
Y277575D01*
D02*
G37*
G36*
X179618D02*
X175181D01*
Y273138D01*
X179618D01*
Y277575D01*
D02*
G37*
G36*
X185055Y272138D02*
X180618D01*
Y267701D01*
X185055D01*
Y272138D01*
D02*
G37*
G36*
X179618D02*
X175181D01*
Y267701D01*
X179618D01*
Y272138D01*
D02*
G37*
G36*
X-183053Y276476D02*
X-183876D01*
X-184635Y276162D01*
X-185217Y275580D01*
X-185531Y274821D01*
Y273998D01*
X-185217Y273239D01*
X-184635Y272657D01*
X-183876Y272342D01*
X-183053D01*
X-182909Y272402D01*
X-171859D01*
X-171767Y272421D01*
X-170294Y272275D01*
X-168790Y271819D01*
X-167403Y271078D01*
X-166259Y270139D01*
X-166207Y270061D01*
X-159682Y263537D01*
X-159920Y262977D01*
X-160064Y262805D01*
X-161133D01*
X-162235Y262509D01*
X-163222Y261939D01*
X-164028Y261133D01*
X-164106Y260998D01*
X-164893D01*
X-164971Y261133D01*
X-165778Y261939D01*
X-166765Y262509D01*
X-167867Y262805D01*
X-169007D01*
X-170108Y262509D01*
X-171096Y261939D01*
X-171902Y261133D01*
X-171971Y261014D01*
X-172758D01*
X-172833Y261143D01*
X-173642Y261952D01*
X-174633Y262524D01*
X-175739Y262820D01*
X-175811D01*
Y258474D01*
Y254128D01*
X-175739D01*
X-174633Y254424D01*
X-173642Y254996D01*
X-172833Y255805D01*
X-172758Y255934D01*
X-171971D01*
X-171902Y255815D01*
X-171096Y255009D01*
X-170108Y254438D01*
X-169007Y254143D01*
X-167867D01*
X-166765Y254438D01*
X-165778Y255009D01*
X-164971Y255815D01*
X-164893Y255949D01*
X-164106D01*
X-164028Y255815D01*
X-163222Y255009D01*
X-162235Y254438D01*
X-161133Y254143D01*
X-159993D01*
X-158891Y254438D01*
X-157904Y255009D01*
X-157098Y255815D01*
X-156527Y256802D01*
X-156232Y257904D01*
Y258363D01*
X-155445Y258560D01*
X-155346Y258376D01*
X-154890Y256871D01*
X-154745Y255398D01*
X-154763Y255307D01*
Y241937D01*
X-154745Y241846D01*
X-154890Y240373D01*
X-155346Y238868D01*
X-156087Y237482D01*
X-157027Y236337D01*
X-157104Y236286D01*
X-168743Y224647D01*
X-168887Y224587D01*
X-169469Y224006D01*
X-169783Y223246D01*
Y222424D01*
X-169469Y221664D01*
X-168887Y221082D01*
X-168128Y220768D01*
X-167305D01*
X-166546Y221082D01*
X-165964Y221664D01*
X-165904Y221808D01*
X-154266Y233447D01*
X-154258Y233458D01*
X-153043Y234881D01*
X-152059Y236487D01*
X-151338Y238228D01*
X-150898Y240059D01*
X-150751Y241924D01*
X-150749Y241937D01*
Y255307D01*
X-150751Y255320D01*
X-150898Y257185D01*
X-151338Y259017D01*
X-152059Y260757D01*
X-153043Y262363D01*
X-154258Y263786D01*
X-154266Y263797D01*
X-163368Y272900D01*
X-163379Y272907D01*
X-164802Y274122D01*
X-166408Y275106D01*
X-168149Y275827D01*
X-169981Y276267D01*
X-171846Y276414D01*
X-171859Y276416D01*
X-182909D01*
X-183053Y276476D01*
D02*
G37*
G36*
X-176811Y262820D02*
X-176883D01*
X-177989Y262524D01*
X-178980Y261952D01*
X-179789Y261143D01*
X-180361Y260152D01*
X-180657Y259046D01*
Y258974D01*
X-176811D01*
Y262820D01*
D02*
G37*
G36*
X57498Y265846D02*
X56675D01*
X55916Y265532D01*
X55334Y264950D01*
X55020Y264191D01*
Y263368D01*
X55334Y262609D01*
X55772Y262016D01*
X55913Y260578D01*
X56333Y259196D01*
X57013Y257922D01*
X57930Y256805D01*
X57930Y256805D01*
X58494Y256256D01*
X65893Y248857D01*
X65886Y248850D01*
X67236Y247697D01*
X68750Y246769D01*
X70390Y246090D01*
X72117Y245675D01*
X73887Y245536D01*
Y245546D01*
X77122D01*
X77569Y245098D01*
X78329Y244783D01*
X79151D01*
X79911Y245098D01*
X80492Y245680D01*
X80807Y246439D01*
Y247262D01*
X80492Y248021D01*
X79911Y248603D01*
X79151Y248917D01*
X78329D01*
X77569Y248603D01*
X77122Y248155D01*
X73887D01*
X73830Y248144D01*
X72187Y248305D01*
X70553Y248801D01*
X69046Y249606D01*
X67771Y250653D01*
X67738Y250702D01*
X61719Y256721D01*
X62215Y257303D01*
X62975Y256988D01*
X63797D01*
X64557Y257303D01*
X65004Y257751D01*
X75547D01*
X75994Y257303D01*
X76754Y256988D01*
X77577D01*
X78336Y257303D01*
X78918Y257884D01*
X79232Y258644D01*
Y259466D01*
X78918Y260226D01*
X78336Y260807D01*
X77577Y261122D01*
X76754D01*
X75994Y260807D01*
X75979Y260792D01*
X75511Y260833D01*
X74902Y261400D01*
Y262222D01*
X74587Y262982D01*
X74006Y263563D01*
X73246Y263878D01*
X72423D01*
X71664Y263563D01*
X71216Y263116D01*
X63036D01*
X62588Y263563D01*
X61829Y263878D01*
X61006D01*
X60246Y263563D01*
X59881Y263198D01*
X59795Y263218D01*
X59153Y263584D01*
Y264191D01*
X58839Y264950D01*
X58257Y265532D01*
X57498Y265846D01*
D02*
G37*
G36*
X-53132Y264862D02*
X-53954D01*
X-54364Y264693D01*
X-54653Y264655D01*
X-55688Y264226D01*
X-56576Y263545D01*
X-57258Y262656D01*
X-57686Y261622D01*
X-57829Y260540D01*
X-57834Y260512D01*
Y240853D01*
X-57821Y240789D01*
X-57943Y239862D01*
X-58326Y238939D01*
X-58934Y238146D01*
X-59727Y237538D01*
X-60650Y237156D01*
X-61576Y237034D01*
X-61641Y237046D01*
X-71098D01*
X-71242Y237106D01*
X-72065D01*
X-72209Y237046D01*
X-77004D01*
X-77149Y237106D01*
X-77971D01*
X-78731Y236792D01*
X-79312Y236210D01*
X-79627Y235451D01*
Y235419D01*
X-80414Y234978D01*
X-81289Y235514D01*
X-82929Y236194D01*
X-84656Y236608D01*
X-86426Y236748D01*
Y236738D01*
X-88540D01*
X-88987Y237185D01*
X-89747Y237500D01*
X-90569D01*
X-91329Y237185D01*
X-91910Y236604D01*
X-92225Y235844D01*
Y235022D01*
X-91910Y234262D01*
X-91329Y233681D01*
X-91328Y232855D01*
X-91910Y232273D01*
X-92224Y231514D01*
Y230691D01*
X-91910Y229932D01*
X-91328Y229350D01*
X-90569Y229035D01*
X-89746D01*
X-89075Y228461D01*
Y228329D01*
X-88761Y227569D01*
X-88179Y226988D01*
X-87420Y226673D01*
X-86598D01*
X-85838Y226988D01*
X-85390Y227436D01*
X-84817D01*
X-84761Y227447D01*
X-83133Y227286D01*
X-81514Y226795D01*
X-80022Y225998D01*
X-78758Y224960D01*
X-78726Y224913D01*
X-74718Y220904D01*
X-74725Y220897D01*
X-73374Y219744D01*
X-71861Y218816D01*
X-70220Y218137D01*
X-68494Y217723D01*
X-66724Y217583D01*
Y217583D01*
X-66388Y217395D01*
X-66208Y216508D01*
X-66313Y216403D01*
X-66833Y215502D01*
X-67102Y214497D01*
Y214476D01*
X-63149D01*
X-59197D01*
Y214497D01*
X-59466Y215502D01*
X-59987Y216403D01*
X-60389Y216806D01*
X-60063Y217593D01*
X-57087D01*
Y210039D01*
X-49213D01*
Y217593D01*
X-3053D01*
Y217583D01*
X-1283Y217723D01*
X444Y218137D01*
X2084Y218816D01*
X3598Y219744D01*
X4796Y220768D01*
X5438D01*
X6197Y221082D01*
X6779Y221664D01*
X7093Y222424D01*
Y223246D01*
X6779Y224006D01*
X6197Y224587D01*
X5438Y224902D01*
X4615D01*
X3856Y224587D01*
X3274Y224006D01*
X2995Y223332D01*
X2892Y223212D01*
X2854Y223193D01*
X2716Y223202D01*
X1918Y223604D01*
X1751Y224006D01*
X1170Y224587D01*
X410Y224902D01*
X-298D01*
X-1036Y225532D01*
X-2550Y226459D01*
X-4190Y227139D01*
X-5916Y227553D01*
X-7686Y227692D01*
Y227682D01*
X-20608D01*
Y227690D01*
X-21912Y227561D01*
X-23167Y227181D01*
X-24323Y226562D01*
X-25337Y225731D01*
X-25337Y225731D01*
X-25919Y225234D01*
X-26352Y224879D01*
X-27522Y224253D01*
X-28792Y223868D01*
X-30087Y223740D01*
X-30112Y223745D01*
X-42972D01*
X-43254Y224533D01*
X-43048Y224702D01*
X-42310Y225601D01*
X-41762Y226627D01*
X-41424Y227740D01*
X-41310Y228898D01*
Y250551D01*
X-41424Y251709D01*
X-41762Y252822D01*
X-42310Y253848D01*
X-43048Y254747D01*
X-43947Y255485D01*
X-44973Y256034D01*
X-46086Y256371D01*
X-47244Y256485D01*
X-48402Y256371D01*
X-49515Y256034D01*
X-50541Y255485D01*
X-51440Y254747D01*
X-52178Y253848D01*
X-52727Y252822D01*
X-53064Y251709D01*
X-53820Y251838D01*
Y260512D01*
X-53132Y260729D01*
X-52988Y260788D01*
X-50965D01*
X-50930Y260796D01*
X-50264Y260708D01*
X-49657Y260456D01*
X-49058Y259998D01*
X-49058Y259998D01*
X-47535Y258697D01*
X-45827Y257651D01*
X-43977Y256885D01*
X-42030Y256417D01*
X-40797Y256320D01*
X-40034Y256260D01*
X-40034Y256260D01*
X-39247Y256261D01*
X-10398D01*
X-10254Y256201D01*
X-9431D01*
X-8672Y256516D01*
X-8090Y257097D01*
X-7776Y257857D01*
Y258679D01*
X-8090Y259438D01*
X-8672Y260020D01*
X-9431Y260335D01*
X-10254D01*
X-10398Y260275D01*
X-40034D01*
X-40138Y260254D01*
X-41746Y260413D01*
X-43393Y260912D01*
X-44910Y261723D01*
X-45643Y262325D01*
X-46218Y262836D01*
X-46219Y262837D01*
X-46219Y262837D01*
X-46271Y262872D01*
X-47239Y263666D01*
X-48399Y264286D01*
X-49657Y264668D01*
X-50903Y264790D01*
X-50965Y264803D01*
X-52988D01*
X-53132Y264862D01*
D02*
G37*
G36*
X-176811Y257974D02*
X-180657D01*
Y257902D01*
X-180361Y256796D01*
X-179789Y255805D01*
X-178980Y254996D01*
X-177989Y254424D01*
X-176883Y254128D01*
X-176811D01*
Y257974D01*
D02*
G37*
G36*
X59466Y249114D02*
X58644D01*
X58499Y249054D01*
X28543D01*
Y249063D01*
X26614Y248873D01*
X24758Y248310D01*
X23049Y247397D01*
X21550Y246167D01*
X20320Y244668D01*
X19406Y242958D01*
X18843Y241103D01*
X18653Y239173D01*
X18662D01*
Y226583D01*
X18665Y226570D01*
X18812Y224705D01*
X19251Y222873D01*
X19972Y221133D01*
X20957Y219526D01*
X21757Y218589D01*
X21870Y218317D01*
X22451Y217736D01*
X23211Y217421D01*
X24033D01*
X24793Y217736D01*
X25374Y218317D01*
X25689Y219077D01*
Y219899D01*
X25374Y220659D01*
X24793Y221240D01*
X24696Y221281D01*
X24001Y222127D01*
X23260Y223514D01*
X22803Y225018D01*
X22658Y226492D01*
X22676Y226583D01*
Y239173D01*
X22665Y239230D01*
X22772Y240321D01*
X23107Y241425D01*
X23651Y242442D01*
X24383Y243334D01*
X25274Y244065D01*
X26292Y244609D01*
X27395Y244944D01*
X28486Y245052D01*
X28543Y245040D01*
X58499D01*
X58644Y244980D01*
X59466D01*
X60226Y245295D01*
X60807Y245876D01*
X61122Y246636D01*
Y247458D01*
X60807Y248218D01*
X60226Y248799D01*
X59466Y249114D01*
D02*
G37*
G36*
X-144297Y251387D02*
X-145333D01*
X-146335Y251119D01*
X-147232Y250601D01*
X-147965Y249868D01*
X-148484Y248970D01*
X-148752Y247969D01*
Y246932D01*
X-148484Y245931D01*
X-147965Y245033D01*
X-147232Y244300D01*
X-146335Y243782D01*
X-145333Y243513D01*
X-144297D01*
X-143295Y243782D01*
X-142398Y244300D01*
X-141665Y245033D01*
X-141146Y245931D01*
X-140878Y246932D01*
Y247969D01*
X-141146Y248970D01*
X-141665Y249868D01*
X-142398Y250601D01*
X-143295Y251119D01*
X-144297Y251387D01*
D02*
G37*
G36*
X-218486Y249705D02*
X-219309D01*
X-220068Y249390D01*
X-220650Y248809D01*
X-220965Y248049D01*
Y247227D01*
X-220650Y246467D01*
X-220202Y246019D01*
Y243744D01*
X-220650Y243297D01*
X-220965Y242537D01*
Y241715D01*
X-220650Y240955D01*
X-220068Y240374D01*
X-219309Y240059D01*
X-218486D01*
X-217727Y240374D01*
X-217145Y240955D01*
X-216831Y241715D01*
Y242537D01*
X-217145Y243297D01*
X-217593Y243744D01*
Y246019D01*
X-217145Y246467D01*
X-216831Y247227D01*
Y248049D01*
X-217145Y248809D01*
X-217727Y249390D01*
X-218486Y249705D01*
D02*
G37*
G36*
X-62631Y247913D02*
X-63668D01*
X-64669Y247645D01*
X-65567Y247127D01*
X-66300Y246394D01*
X-66818Y245496D01*
X-67087Y244495D01*
Y243458D01*
X-66818Y242457D01*
X-66300Y241559D01*
X-65567Y240826D01*
X-64669Y240308D01*
X-63668Y240039D01*
X-62631D01*
X-61630Y240308D01*
X-60732Y240826D01*
X-59999Y241559D01*
X-59481Y242457D01*
X-59213Y243458D01*
Y244495D01*
X-59481Y245496D01*
X-59999Y246394D01*
X-60732Y247127D01*
X-61630Y247645D01*
X-62631Y247913D01*
D02*
G37*
G36*
X-190534Y256791D02*
X-191356D01*
X-192116Y256477D01*
X-192697Y255895D01*
X-193012Y255136D01*
Y254313D01*
X-192697Y253554D01*
X-192250Y253106D01*
Y235870D01*
X-192697Y235423D01*
X-193012Y234663D01*
Y233841D01*
X-192697Y233081D01*
X-192116Y232500D01*
X-191356Y232185D01*
X-190534D01*
X-189774Y232500D01*
X-189193Y233081D01*
X-188878Y233841D01*
Y234663D01*
X-189193Y235423D01*
X-189640Y235870D01*
Y253106D01*
X-189193Y253554D01*
X-188878Y254313D01*
Y255136D01*
X-189193Y255895D01*
X-189774Y256477D01*
X-190534Y256791D01*
D02*
G37*
G36*
X-24786Y251279D02*
X-25608D01*
X-26368Y250965D01*
X-26949Y250383D01*
X-27264Y249624D01*
Y248801D01*
X-27149Y248524D01*
X-27177Y247868D01*
X-27547Y247585D01*
X-27942Y247422D01*
X-28524Y246840D01*
X-28839Y246080D01*
Y245258D01*
X-28524Y244498D01*
X-27942Y243917D01*
X-27183Y243602D01*
X-26360D01*
X-25601Y243917D01*
X-25153Y244365D01*
X-9493D01*
X-9045Y243917D01*
X-8879Y243848D01*
X-8796Y243573D01*
X-8785Y242957D01*
X-9233Y242509D01*
X-9547Y241750D01*
Y240927D01*
X-9233Y240168D01*
X-8651Y239586D01*
X-7891Y239272D01*
X-7069D01*
X-6310Y239586D01*
X-5862Y240034D01*
X-3675D01*
X-3617Y240045D01*
X-1975Y239884D01*
X-340Y239388D01*
X1166Y238583D01*
X2442Y237536D01*
X2474Y237487D01*
X5433Y234528D01*
Y233895D01*
X5748Y233135D01*
X6329Y232554D01*
X7089Y232239D01*
X7911D01*
X8671Y232554D01*
X9252Y233135D01*
X9567Y233895D01*
Y234717D01*
X9252Y235477D01*
X8671Y236058D01*
X7911Y236373D01*
X7278D01*
X4319Y239332D01*
X4326Y239339D01*
X2976Y240492D01*
X1462Y241420D01*
X-178Y242099D01*
X-1905Y242514D01*
X-3675Y242653D01*
Y242643D01*
X-5862D01*
X-6310Y243091D01*
X-6475Y243159D01*
X-6558Y243435D01*
X-6570Y244051D01*
X-6122Y244498D01*
X-5807Y245258D01*
Y246080D01*
X-6122Y246840D01*
X-6402Y247121D01*
X-6076Y247908D01*
X-2484D01*
X-2427Y247919D01*
X-784Y247758D01*
X850Y247262D01*
X2357Y246457D01*
X3632Y245410D01*
X3665Y245361D01*
X11897Y237129D01*
X11945Y237097D01*
X12992Y235821D01*
X13797Y234315D01*
X14293Y232681D01*
X14455Y231038D01*
X14443Y230981D01*
Y225420D01*
X13656Y225094D01*
X13375Y225374D01*
X12616Y225689D01*
X11794D01*
X11034Y225374D01*
X10452Y224793D01*
X10138Y224033D01*
Y223211D01*
X10452Y222451D01*
X10900Y222004D01*
Y219729D01*
X10452Y219281D01*
X10138Y218521D01*
Y217699D01*
X10452Y216939D01*
X11034Y216358D01*
X11794Y216043D01*
X12616D01*
X13238Y216301D01*
X13996Y216528D01*
X14577Y215947D01*
X15337Y215632D01*
X16159D01*
X16919Y215947D01*
X17500Y216528D01*
X17815Y217288D01*
Y218110D01*
X17500Y218870D01*
X17053Y219318D01*
Y230981D01*
X17062D01*
X16923Y232751D01*
X16509Y234477D01*
X15829Y236117D01*
X14902Y237631D01*
X13748Y238981D01*
X13742Y238974D01*
X13742Y238974D01*
X5510Y247206D01*
X5517Y247213D01*
X4167Y248366D01*
X2653Y249294D01*
X1013Y249973D01*
X-714Y250388D01*
X-2484Y250527D01*
Y250517D01*
X-23578D01*
X-24026Y250965D01*
X-24786Y251279D01*
D02*
G37*
G36*
X-202513Y236033D02*
X-203653D01*
X-204754Y235738D01*
X-205742Y235168D01*
X-206548Y234361D01*
X-207118Y233374D01*
X-207413Y232272D01*
Y231132D01*
X-207118Y230031D01*
X-206548Y229043D01*
X-205742Y228237D01*
X-205607Y228159D01*
Y227372D01*
X-205742Y227294D01*
X-206548Y226487D01*
X-207118Y225500D01*
X-207413Y224398D01*
Y223258D01*
X-207118Y222157D01*
X-206548Y221169D01*
X-205742Y220363D01*
X-205623Y220294D01*
Y219507D01*
X-205751Y219432D01*
X-206561Y218623D01*
X-207133Y217632D01*
X-207429Y216527D01*
Y216454D01*
X-203083D01*
X-198736D01*
Y216527D01*
X-199032Y217632D01*
X-199605Y218623D01*
X-200414Y219432D01*
X-200543Y219507D01*
Y220294D01*
X-200424Y220363D01*
X-199617Y221169D01*
X-199047Y222157D01*
X-198752Y223258D01*
Y224398D01*
X-199047Y225500D01*
X-199617Y226487D01*
X-200424Y227294D01*
X-200558Y227372D01*
Y228159D01*
X-200424Y228237D01*
X-199617Y229043D01*
X-199047Y230031D01*
X-198752Y231132D01*
Y232272D01*
X-199047Y233374D01*
X-199617Y234361D01*
X-200424Y235168D01*
X-201411Y235738D01*
X-202513Y236033D01*
D02*
G37*
G36*
X-198736Y215454D02*
X-202583D01*
Y211608D01*
X-202510D01*
X-201405Y211904D01*
X-200414Y212476D01*
X-199605Y213285D01*
X-199032Y214277D01*
X-198736Y215382D01*
Y215454D01*
D02*
G37*
G36*
X-203583D02*
X-207429D01*
Y215382D01*
X-207133Y214277D01*
X-206561Y213285D01*
X-205751Y212476D01*
X-204760Y211904D01*
X-203655Y211608D01*
X-203583D01*
Y215454D01*
D02*
G37*
G36*
X-59197Y213476D02*
X-62650D01*
Y210024D01*
X-62629D01*
X-61624Y210293D01*
X-60723Y210813D01*
X-59987Y211549D01*
X-59466Y212451D01*
X-59197Y213456D01*
Y213476D01*
D02*
G37*
G36*
X-63649D02*
X-67102D01*
Y213456D01*
X-66833Y212451D01*
X-66313Y211549D01*
X-65577Y210813D01*
X-64675Y210293D01*
X-63670Y210024D01*
X-63649D01*
Y213476D01*
D02*
G37*
G36*
X220488Y213598D02*
X216051D01*
Y209161D01*
X220488D01*
Y213598D01*
D02*
G37*
G36*
X147654D02*
X143217D01*
Y209161D01*
X147654D01*
Y213598D01*
D02*
G37*
G36*
X215051D02*
X210614D01*
Y209161D01*
X215051D01*
Y213598D01*
D02*
G37*
G36*
X142217D02*
X137780D01*
Y209161D01*
X142217D01*
Y213598D01*
D02*
G37*
G36*
X220488Y208161D02*
X216051D01*
Y203724D01*
X220488D01*
Y208161D01*
D02*
G37*
G36*
X215051D02*
X210614D01*
Y203724D01*
X215051D01*
Y208161D01*
D02*
G37*
G36*
X147654D02*
X143217D01*
Y203724D01*
X147654D01*
Y208161D01*
D02*
G37*
G36*
X142217D02*
X137780D01*
Y203724D01*
X142217D01*
Y208161D01*
D02*
G37*
G36*
X114191Y226870D02*
X113368D01*
X113224Y226810D01*
X104536D01*
X104523Y226808D01*
X102658Y226661D01*
X100826Y226221D01*
X99085Y225500D01*
X97479Y224516D01*
X96056Y223301D01*
X96046Y223293D01*
X95825Y223073D01*
X95779Y223003D01*
X94717Y222132D01*
X93433Y221446D01*
X92040Y221023D01*
X90673Y220889D01*
X90592Y220905D01*
X84807D01*
X84662Y220965D01*
X83840D01*
X83080Y220650D01*
X82499Y220069D01*
X82184Y219309D01*
Y218487D01*
X82499Y217727D01*
X83080Y217146D01*
X83840Y216831D01*
X84662D01*
X84807Y216891D01*
X90592D01*
X90620Y216897D01*
X92377Y217035D01*
X94118Y217453D01*
X95772Y218138D01*
X97299Y219074D01*
X98640Y220218D01*
X98663Y220234D01*
X98884Y220455D01*
X98936Y220532D01*
X100080Y221472D01*
X101467Y222213D01*
X102971Y222669D01*
X104444Y222814D01*
X104536Y222796D01*
X111773D01*
Y203365D01*
X111675Y203130D01*
Y202307D01*
X111990Y201548D01*
X112571Y200966D01*
X113331Y200651D01*
X114153D01*
X114913Y200966D01*
X115494Y201548D01*
X115809Y202307D01*
Y203130D01*
X115787Y203183D01*
Y224248D01*
X115847Y224392D01*
Y225214D01*
X115532Y225974D01*
X114950Y226555D01*
X114191Y226870D01*
D02*
G37*
G36*
X-191540Y204143D02*
X-192577D01*
X-193578Y203874D01*
X-194476Y203356D01*
X-195209Y202623D01*
X-195727Y201725D01*
X-195995Y200724D01*
Y199687D01*
X-195727Y198686D01*
X-195209Y197788D01*
X-194476Y197055D01*
X-193578Y196537D01*
X-192577Y196269D01*
X-191540D01*
X-190539Y196537D01*
X-189641Y197055D01*
X-188908Y197788D01*
X-188390Y198686D01*
X-188121Y199687D01*
Y200724D01*
X-188390Y201725D01*
X-188908Y202623D01*
X-189641Y203356D01*
X-190539Y203874D01*
X-191540Y204143D01*
D02*
G37*
G36*
X62992Y203296D02*
X62170D01*
X61410Y202981D01*
X60829Y202400D01*
X60514Y201640D01*
Y200818D01*
X60829Y200058D01*
X61410Y199477D01*
X62170Y199162D01*
X62379D01*
X65275Y196266D01*
X65260Y196252D01*
X66357Y195410D01*
X67161Y195077D01*
X67253Y194855D01*
X67835Y194273D01*
X68594Y193958D01*
X69416D01*
X70176Y194273D01*
X70758Y194855D01*
X71072Y195614D01*
Y196437D01*
X70758Y197196D01*
X70176Y197778D01*
X69416Y198092D01*
X68594D01*
X67835Y197778D01*
X67725Y197668D01*
X67673Y197689D01*
X67121Y198112D01*
X67120Y198111D01*
X64579Y200652D01*
X64648Y200818D01*
Y201640D01*
X64333Y202400D01*
X63752Y202981D01*
X62992Y203296D01*
D02*
G37*
G36*
X-79313Y179232D02*
X-80136D01*
X-80895Y178918D01*
X-81142Y178671D01*
X-85649D01*
Y178677D01*
X-87450Y178535D01*
X-89207Y178114D01*
X-90876Y177422D01*
X-92416Y176479D01*
X-93789Y175305D01*
X-94963Y173932D01*
X-95906Y172392D01*
X-96598Y170723D01*
X-97019Y168966D01*
X-97161Y167165D01*
X-97401Y166899D01*
X-97401Y166899D01*
X-97550Y166539D01*
X-97716Y166139D01*
Y165317D01*
X-97401Y164557D01*
X-96820Y163976D01*
X-96060Y163661D01*
X-95238D01*
X-94478Y163976D01*
X-94157Y164297D01*
X-94097Y164356D01*
X-93595Y164585D01*
X-93164Y164624D01*
X-93110Y164642D01*
X-92666Y164504D01*
X-92323Y164267D01*
Y163976D01*
X-85072D01*
Y163961D01*
X-84985Y163750D01*
X-84910Y163535D01*
X-84397Y162960D01*
X-84379Y162952D01*
X-84372Y162934D01*
X-84161Y162847D01*
X-83956Y162748D01*
X-83938Y162754D01*
X-83920Y162747D01*
X-81724D01*
X-81466Y162721D01*
X-80961Y162512D01*
X-80598Y162149D01*
X-80389Y161644D01*
X-80364Y161386D01*
Y150199D01*
X-80315Y150082D01*
Y149954D01*
X-80015Y149231D01*
X-79925Y149141D01*
X-79877Y149023D01*
X-79323Y148470D01*
X-79206Y148421D01*
X-79116Y148331D01*
X-78392Y148031D01*
X-78265D01*
X-78148Y147983D01*
X-77465D01*
X-77405Y148008D01*
X-77340Y147995D01*
X-76770Y148109D01*
X-76715Y148145D01*
X-76650D01*
X-76113Y148368D01*
X-76066Y148414D01*
X-76002Y148427D01*
X-75519Y148750D01*
X-75482Y148804D01*
X-75422Y148829D01*
X-75010Y149241D01*
X-74985Y149301D01*
X-74931Y149337D01*
X-74608Y149821D01*
X-74595Y149885D01*
X-74549Y149932D01*
X-74326Y150469D01*
Y150534D01*
X-74290Y150589D01*
X-74176Y151159D01*
X-74189Y151224D01*
X-74164Y151284D01*
Y160402D01*
X-74138Y160660D01*
X-73930Y161165D01*
X-73566Y161528D01*
X-73062Y161737D01*
X-72803Y161762D01*
X-65764D01*
X-65615Y161824D01*
X-65455Y161842D01*
X-65397Y161914D01*
X-65312Y161950D01*
X-65269Y162055D01*
X-65189Y162176D01*
X-65150Y162225D01*
X-64472Y162485D01*
X-52953Y155266D01*
Y151378D01*
X-45079D01*
Y157283D01*
X-51258D01*
X-57198Y161006D01*
X-56980Y161762D01*
X-26394D01*
X-26245Y161824D01*
X-26085Y161842D01*
X-26027Y161914D01*
X-25942Y161950D01*
X-25899Y162055D01*
X-25819Y162176D01*
X-25780Y162225D01*
X-25101Y162485D01*
X-13583Y155266D01*
Y151378D01*
X-5709D01*
Y157283D01*
X-11888D01*
X-17071Y160531D01*
X-16845Y161319D01*
X-16518D01*
X-15758Y161634D01*
X-15311Y162081D01*
X-6558D01*
X-6528Y162087D01*
X-5501Y161952D01*
X-4517Y161544D01*
X-4279Y161362D01*
X-3693Y160874D01*
X-3693Y160874D01*
X-2583Y160022D01*
X-1291Y159487D01*
X95Y159305D01*
Y159325D01*
X7669D01*
X7726Y159337D01*
X9369Y159175D01*
X11003Y158679D01*
X12111Y158087D01*
X11914Y157299D01*
X10146D01*
Y154831D01*
X13598D01*
Y155884D01*
X14386Y156210D01*
X20520Y150076D01*
X20517Y150073D01*
X21436Y149319D01*
X22484Y148759D01*
X23550Y148436D01*
X23639Y148159D01*
X23648Y147620D01*
X23066Y147284D01*
X22480Y146698D01*
X22065Y145979D01*
X21850Y145178D01*
Y144349D01*
X22065Y143548D01*
X22241Y143243D01*
X21665Y142667D01*
X21292Y142882D01*
X20441Y143110D01*
X19559D01*
X18708Y142882D01*
X18335Y142667D01*
X17759Y143243D01*
X17935Y143548D01*
X18150Y144349D01*
Y145178D01*
X17935Y145979D01*
X17520Y146698D01*
X16934Y147284D01*
X16216Y147699D01*
X15415Y147913D01*
X14585D01*
X13784Y147699D01*
X13066Y147284D01*
X12480Y146698D01*
X12065Y145979D01*
X11850Y145178D01*
Y144349D01*
X12065Y143548D01*
X12480Y142830D01*
X13066Y142244D01*
X13784Y141829D01*
X14585Y141614D01*
X15415D01*
X16216Y141829D01*
X16521Y142005D01*
X17097Y141428D01*
X16882Y141056D01*
X16654Y140204D01*
Y139323D01*
X16882Y138472D01*
X17097Y138099D01*
X16521Y137523D01*
X16216Y137699D01*
X15415Y137913D01*
X14585D01*
X13784Y137699D01*
X13066Y137284D01*
X12480Y136698D01*
X12065Y135979D01*
X11850Y135178D01*
Y134349D01*
X12065Y133548D01*
X12480Y132830D01*
X13066Y132244D01*
X13784Y131829D01*
X14585Y131614D01*
X15415D01*
X16216Y131829D01*
X16934Y132244D01*
X17520Y132830D01*
X17935Y133548D01*
X18150Y134349D01*
Y135178D01*
X17935Y135979D01*
X17759Y136284D01*
X18335Y136861D01*
X18708Y136645D01*
X19559Y136417D01*
X20441D01*
X21292Y136645D01*
X21665Y136861D01*
X22241Y136284D01*
X22065Y135979D01*
X21850Y135178D01*
Y134349D01*
X22065Y133548D01*
X22480Y132830D01*
X23066Y132244D01*
X23784Y131829D01*
X24585Y131614D01*
X25415D01*
X26216Y131829D01*
X26934Y132244D01*
X27520Y132830D01*
X27935Y133548D01*
X28150Y134349D01*
Y135178D01*
X27935Y135979D01*
X27520Y136698D01*
X26934Y137284D01*
X26216Y137699D01*
X25415Y137913D01*
X24585D01*
X23784Y137699D01*
X23480Y137523D01*
X22903Y138099D01*
X23118Y138472D01*
X23346Y139323D01*
Y140204D01*
X23118Y141056D01*
X22903Y141428D01*
X23480Y142005D01*
X23784Y141829D01*
X24585Y141614D01*
X25415D01*
X26216Y141829D01*
X26934Y142244D01*
X27520Y142830D01*
X27935Y143548D01*
X28150Y144349D01*
Y145178D01*
X27959Y145889D01*
X27988Y146062D01*
X28416Y146720D01*
X28585Y146735D01*
X36417Y138903D01*
Y130905D01*
X46260D01*
Y140748D01*
X38262D01*
X30987Y148023D01*
X30440Y148590D01*
X30440Y148590D01*
X29831Y149089D01*
X30113Y149876D01*
X32419D01*
Y149869D01*
X33723Y149998D01*
X34978Y150379D01*
X36134Y150997D01*
X37148Y151828D01*
X37143Y151833D01*
X39726Y154416D01*
X39758Y154465D01*
X41034Y155512D01*
X42540Y156317D01*
X44175Y156813D01*
X44480Y156843D01*
X45063Y156314D01*
Y154831D01*
X51956D01*
Y156287D01*
X51976Y156103D01*
X52035Y155937D01*
X52134Y155791D01*
X52271Y155665D01*
X52449Y155558D01*
X52665Y155471D01*
X52921Y155403D01*
X52969Y155395D01*
Y156353D01*
X53552Y156881D01*
X54251Y156813D01*
X55885Y156317D01*
X57391Y155512D01*
X58667Y154465D01*
X58699Y154416D01*
X60716Y152400D01*
X60716Y152400D01*
X60709Y152393D01*
X62059Y151240D01*
X63572Y150312D01*
X65213Y149633D01*
X66939Y149219D01*
X68709Y149079D01*
Y149089D01*
X72835D01*
Y149085D01*
X74012Y149201D01*
X75143Y149544D01*
X76186Y150102D01*
X77101Y150852D01*
X77851Y151766D01*
X78408Y152809D01*
X78752Y153941D01*
X78868Y155118D01*
X78868D01*
X78949Y155526D01*
X79181Y155873D01*
X79734Y156433D01*
X87278Y163976D01*
X92323D01*
Y169882D01*
X84449D01*
Y164837D01*
X77889Y158278D01*
X77328Y157725D01*
X77328Y157725D01*
X76742Y156962D01*
X76374Y156072D01*
X76248Y155118D01*
X76248D01*
X76160Y154367D01*
X76142Y154232D01*
X75800Y153406D01*
X75256Y152697D01*
X74547Y152153D01*
X73819Y151851D01*
X73367Y152023D01*
X73032Y152317D01*
Y157283D01*
X67118D01*
X61267Y161006D01*
X61488Y161762D01*
X72835D01*
X73287Y161950D01*
X73474Y162402D01*
Y163961D01*
X73287Y164413D01*
X73032Y164518D01*
Y169882D01*
X65158D01*
Y169800D01*
X65142Y169790D01*
X64103D01*
X62944Y169942D01*
X61902Y170374D01*
X60974Y171086D01*
X57395Y174665D01*
X56943Y174852D01*
X-40508D01*
X-41104Y174881D01*
X-42288Y175117D01*
X-43389Y175573D01*
X-44393Y176243D01*
X-44835Y176644D01*
X-45292Y177101D01*
X-45352Y177126D01*
X-45388Y177181D01*
X-46489Y177916D01*
X-46554Y177929D01*
X-46600Y177975D01*
X-47823Y178482D01*
X-47888D01*
X-47943Y178518D01*
X-49241Y178777D01*
X-49305Y178764D01*
X-49366Y178789D01*
X-54965D01*
X-55025Y178764D01*
X-55089Y178777D01*
X-56388Y178518D01*
X-56442Y178482D01*
X-56508D01*
X-57731Y177975D01*
X-57777Y177929D01*
X-57841Y177916D01*
X-58942Y177181D01*
X-58978Y177126D01*
X-59039Y177101D01*
X-59496Y176644D01*
X-59938Y176243D01*
X-60942Y175573D01*
X-62043Y175117D01*
X-63227Y174881D01*
X-63823Y174852D01*
X-78008D01*
X-78328Y175639D01*
X-77972Y175995D01*
X-77658Y176754D01*
Y177576D01*
X-77972Y178336D01*
X-78554Y178918D01*
X-79313Y179232D01*
D02*
G37*
G36*
X185055Y173244D02*
X180618D01*
Y168807D01*
X185055D01*
Y173244D01*
D02*
G37*
G36*
X179618D02*
X175181D01*
Y171642D01*
X176179Y168807D01*
X179618D01*
Y173244D01*
D02*
G37*
G36*
X211720Y170641D02*
Y167035D01*
X213818D01*
Y168110D01*
X213729Y168782D01*
X213470Y169409D01*
X213057Y169947D01*
X212519Y170359D01*
X211893Y170619D01*
X211720Y170641D01*
D02*
G37*
G36*
X210720Y170642D02*
X210548Y170619D01*
X209922Y170359D01*
X209384Y169947D01*
X208971Y169409D01*
X208712Y168782D01*
X208624Y168110D01*
Y167035D01*
X210720D01*
Y170642D01*
D02*
G37*
G36*
X179618Y167807D02*
X176531D01*
X177334Y165523D01*
X176371Y166407D01*
X175344Y167199D01*
X175181Y167303D01*
Y163370D01*
X179618D01*
Y167807D01*
D02*
G37*
G36*
X185055D02*
X180618D01*
Y163370D01*
X185055D01*
Y167807D01*
D02*
G37*
G36*
X213818Y166035D02*
X211720D01*
Y162429D01*
X211893Y162452D01*
X212519Y162712D01*
X213057Y163124D01*
X213470Y163662D01*
X213729Y164288D01*
X213818Y164961D01*
Y166035D01*
D02*
G37*
G36*
X210720D02*
X208624D01*
Y164961D01*
X208712Y164288D01*
X208971Y163662D01*
X209384Y163124D01*
X209922Y162712D01*
X210548Y162452D01*
X210720Y162429D01*
Y166035D01*
D02*
G37*
G36*
X220638Y162992D02*
X219913D01*
X219212Y162804D01*
X218583Y162442D01*
X218070Y161928D01*
X217707Y161300D01*
X217520Y160599D01*
Y159873D01*
X217707Y159172D01*
X218070Y158544D01*
X218583Y158031D01*
X219212Y157668D01*
X219913Y157480D01*
X220638D01*
X221339Y157668D01*
X221968Y158031D01*
X222481Y158544D01*
X222844Y159172D01*
X223031Y159873D01*
Y160599D01*
X222844Y161300D01*
X222481Y161928D01*
X221968Y162442D01*
X221339Y162804D01*
X220638Y162992D01*
D02*
G37*
G36*
X-222030Y192126D02*
X-222852D01*
X-223612Y191811D01*
X-224193Y191230D01*
X-224508Y190470D01*
Y189648D01*
X-224448Y189503D01*
Y184942D01*
X-224458Y184159D01*
X-224458Y184151D01*
X-224408Y183391D01*
X-224264Y181190D01*
X-223685Y178280D01*
X-222731Y175470D01*
X-221419Y172809D01*
X-219771Y170342D01*
X-218314Y168681D01*
X-217814Y168111D01*
X-217803Y168101D01*
X-217240Y167551D01*
X-213022Y163333D01*
X-212985Y163205D01*
X-212981Y163184D01*
X-213189Y162407D01*
Y161215D01*
X-212880Y160063D01*
X-212284Y159031D01*
X-211441Y158188D01*
X-210409Y157592D01*
X-209258Y157283D01*
X-208065D01*
X-206914Y157592D01*
X-205881Y158188D01*
X-205038Y159031D01*
X-204442Y160063D01*
X-204134Y161215D01*
Y162407D01*
X-204442Y163559D01*
X-205038Y164591D01*
X-205881Y165434D01*
X-206914Y166030D01*
X-208065Y166339D01*
X-209258D01*
X-210035Y166130D01*
X-210056Y166135D01*
X-210184Y166172D01*
X-214952Y170940D01*
X-214954Y170941D01*
X-214955Y170943D01*
X-214963Y170951D01*
X-215055Y171012D01*
X-216601Y172774D01*
X-217959Y174807D01*
X-219040Y176999D01*
X-219826Y179314D01*
X-220303Y181711D01*
X-220456Y184046D01*
X-220434Y184155D01*
X-220434Y184161D01*
X-220434Y184162D01*
X-220434Y184164D01*
Y189503D01*
X-220374Y189648D01*
Y190470D01*
X-220689Y191230D01*
X-221270Y191811D01*
X-222030Y192126D01*
D02*
G37*
G36*
X92339Y157299D02*
X88886D01*
Y154831D01*
X91327D01*
Y156287D01*
X91346Y156103D01*
X91405Y155937D01*
X91504Y155791D01*
X91641Y155665D01*
X91819Y155558D01*
X92035Y155471D01*
X92291Y155403D01*
X92339Y155395D01*
Y157299D01*
D02*
G37*
G36*
X-65142Y157299D02*
X-68594D01*
Y154831D01*
X-66154D01*
Y156287D01*
X-66134Y156103D01*
X-66075Y155937D01*
X-65977Y155791D01*
X-65839Y155665D01*
X-65662Y155558D01*
X-65445Y155471D01*
X-65189Y155402D01*
X-65142Y155395D01*
Y157299D01*
D02*
G37*
G36*
X87886Y157299D02*
X84433D01*
Y154831D01*
X87886D01*
Y157299D01*
D02*
G37*
G36*
X9146Y157299D02*
X5693D01*
Y154831D01*
X9146D01*
Y157299D01*
D02*
G37*
G36*
X-25772D02*
X-29224D01*
Y154831D01*
X-25772D01*
Y157299D01*
D02*
G37*
G36*
X-30224D02*
X-33677D01*
Y155395D01*
X-33630Y155403D01*
X-33374Y155471D01*
X-33157Y155558D01*
X-32980Y155665D01*
X-32842Y155791D01*
X-32744Y155937D01*
X-32685Y156103D01*
X-32665Y156287D01*
Y154831D01*
X-30224D01*
Y157299D01*
D02*
G37*
G36*
X-69595Y157299D02*
X-73047D01*
Y154831D01*
X-69595D01*
Y157299D01*
D02*
G37*
G36*
X-30224Y153831D02*
X-32665D01*
Y152374D01*
X-32685Y152559D01*
X-32744Y152724D01*
X-32842Y152870D01*
X-32980Y152997D01*
X-33157Y153103D01*
X-33374Y153191D01*
X-33630Y153259D01*
X-33677Y153267D01*
Y151362D01*
X-30224D01*
Y153831D01*
D02*
G37*
G36*
X91327Y153831D02*
X88886D01*
Y151362D01*
X92339D01*
Y153267D01*
X92291Y153259D01*
X92035Y153191D01*
X91819Y153103D01*
X91641Y152997D01*
X91504Y152870D01*
X91405Y152724D01*
X91346Y152559D01*
X91327Y152374D01*
Y153831D01*
D02*
G37*
G36*
X87886D02*
X84433D01*
Y151362D01*
X87886D01*
Y153831D01*
D02*
G37*
G36*
X51956Y153831D02*
X49516D01*
Y151362D01*
X52969D01*
Y153267D01*
X52921Y153259D01*
X52665Y153191D01*
X52449Y153103D01*
X52271Y152997D01*
X52134Y152870D01*
X52035Y152724D01*
X51976Y152559D01*
X51956Y152374D01*
Y153831D01*
D02*
G37*
G36*
X48516D02*
X45063D01*
Y151362D01*
X48516D01*
Y153831D01*
D02*
G37*
G36*
X13598D02*
X10146D01*
Y151362D01*
X13598D01*
Y153831D01*
D02*
G37*
G36*
X9146D02*
X5693D01*
Y151362D01*
X9146D01*
Y153831D01*
D02*
G37*
G36*
X-25772D02*
X-29224D01*
Y151362D01*
X-25772D01*
Y153831D01*
D02*
G37*
G36*
X-66154Y153831D02*
X-68594D01*
Y151362D01*
X-65142D01*
Y153267D01*
X-65189Y153259D01*
X-65445Y153191D01*
X-65662Y153103D01*
X-65839Y152996D01*
X-65977Y152870D01*
X-66075Y152724D01*
X-66134Y152559D01*
X-66154Y152374D01*
Y153831D01*
D02*
G37*
G36*
X-69595D02*
X-73047D01*
Y151362D01*
X-69595D01*
Y153831D01*
D02*
G37*
G36*
X-84449Y157283D02*
X-92323D01*
Y151378D01*
X-91820D01*
X-91437Y150805D01*
Y149983D01*
X-91122Y149223D01*
X-90541Y148642D01*
X-89781Y148327D01*
X-88959D01*
X-88199Y148642D01*
X-87618Y149223D01*
X-87303Y149983D01*
Y150805D01*
X-86920Y151378D01*
X-84449D01*
Y157283D01*
D02*
G37*
G36*
X147638Y163820D02*
X146017Y163660D01*
X144459Y163187D01*
X143022Y162419D01*
X141763Y161386D01*
X140730Y160127D01*
X139962Y158691D01*
X139490Y157133D01*
X139330Y155512D01*
X139490Y153891D01*
X139962Y152333D01*
X140730Y150896D01*
X141763Y149637D01*
X143022Y148604D01*
X144459Y147836D01*
X146017Y147364D01*
X147638Y147204D01*
X149258Y147364D01*
X150817Y147836D01*
X152253Y148604D01*
X153512Y149637D01*
X154545Y150896D01*
X155313Y152333D01*
X155786Y153891D01*
X155946Y155512D01*
X155786Y157133D01*
X155313Y158691D01*
X154545Y160127D01*
X153512Y161386D01*
X152253Y162419D01*
X150817Y163187D01*
X149258Y163660D01*
X147638Y163820D01*
D02*
G37*
G36*
X-147638D02*
X-149258Y163660D01*
X-150817Y163187D01*
X-152253Y162419D01*
X-153512Y161386D01*
X-154545Y160127D01*
X-155313Y158691D01*
X-155786Y157133D01*
X-155946Y155512D01*
X-155786Y153891D01*
X-155313Y152333D01*
X-154545Y150896D01*
X-153512Y149637D01*
X-152253Y148604D01*
X-150817Y147836D01*
X-149258Y147364D01*
X-147638Y147204D01*
X-146017Y147364D01*
X-144459Y147836D01*
X-143022Y148604D01*
X-141763Y149637D01*
X-140730Y150896D01*
X-139962Y152333D01*
X-139490Y153891D01*
X-139330Y155512D01*
X-139490Y157133D01*
X-139962Y158691D01*
X-140730Y160127D01*
X-141763Y161386D01*
X-143022Y162419D01*
X-144459Y163187D01*
X-146017Y163660D01*
X-147638Y163820D01*
D02*
G37*
G36*
X-208065Y152559D02*
X-209258D01*
X-210409Y152251D01*
X-211441Y151654D01*
X-212284Y150812D01*
X-212880Y149779D01*
X-213189Y148628D01*
Y147435D01*
X-212880Y146284D01*
X-212284Y145252D01*
X-211441Y144409D01*
X-210409Y143813D01*
X-209258Y143504D01*
X-208065D01*
X-206914Y143813D01*
X-205881Y144409D01*
X-205038Y145252D01*
X-204442Y146284D01*
X-204134Y147435D01*
Y148628D01*
X-204442Y149779D01*
X-205038Y150812D01*
X-205881Y151654D01*
X-206914Y152251D01*
X-208065Y152559D01*
D02*
G37*
G36*
X229331Y151006D02*
X228663Y150918D01*
X228040Y150661D01*
X227506Y150250D01*
X227095Y149716D01*
X226837Y149093D01*
X226750Y148425D01*
Y145276D01*
X226837Y144608D01*
X227095Y143985D01*
X227506Y143450D01*
X228040Y143040D01*
X228663Y142782D01*
X229331Y142694D01*
X229999Y142782D01*
X230621Y143040D01*
X231156Y143450D01*
X231566Y143985D01*
X231824Y144608D01*
X231912Y145276D01*
Y148425D01*
X231824Y149093D01*
X231566Y149716D01*
X231156Y150250D01*
X230621Y150661D01*
X229999Y150918D01*
X229331Y151006D01*
D02*
G37*
G36*
X-14585Y147913D02*
X-15415D01*
X-16216Y147699D01*
X-16934Y147284D01*
X-17520Y146698D01*
X-17935Y145979D01*
X-18150Y145178D01*
Y144349D01*
X-17935Y143548D01*
X-17759Y143243D01*
X-18335Y142667D01*
X-18708Y142882D01*
X-19559Y143110D01*
X-20441D01*
X-21292Y142882D01*
X-21665Y142667D01*
X-22241Y143243D01*
X-22065Y143548D01*
X-21850Y144349D01*
Y145178D01*
X-22065Y145979D01*
X-22480Y146698D01*
X-23066Y147284D01*
X-23784Y147699D01*
X-24585Y147913D01*
X-25415D01*
X-26216Y147699D01*
X-26934Y147284D01*
X-27520Y146698D01*
X-27935Y145979D01*
X-28150Y145178D01*
Y144349D01*
X-27935Y143548D01*
X-27520Y142830D01*
X-26934Y142244D01*
X-26216Y141829D01*
X-25415Y141614D01*
X-24585D01*
X-23784Y141829D01*
X-23480Y142005D01*
X-22903Y141428D01*
X-23118Y141056D01*
X-23346Y140204D01*
Y139323D01*
X-23118Y138472D01*
X-22903Y138099D01*
X-23480Y137523D01*
X-23784Y137699D01*
X-24585Y137913D01*
X-25415D01*
X-26216Y137699D01*
X-26934Y137284D01*
X-27520Y136698D01*
X-27935Y135979D01*
X-28150Y135178D01*
Y134349D01*
X-27935Y133548D01*
X-27520Y132830D01*
X-26934Y132244D01*
X-26216Y131829D01*
X-25415Y131614D01*
X-24585D01*
X-23784Y131829D01*
X-23066Y132244D01*
X-22480Y132830D01*
X-22065Y133548D01*
X-21850Y134349D01*
Y135178D01*
X-22065Y135979D01*
X-22241Y136284D01*
X-21665Y136861D01*
X-21292Y136645D01*
X-20441Y136417D01*
X-19559D01*
X-18708Y136645D01*
X-18335Y136861D01*
X-17759Y136284D01*
X-17935Y135979D01*
X-18150Y135178D01*
Y134349D01*
X-17935Y133548D01*
X-17520Y132830D01*
X-16934Y132244D01*
X-16216Y131829D01*
X-15415Y131614D01*
X-14585D01*
X-13784Y131829D01*
X-13066Y132244D01*
X-12480Y132830D01*
X-12065Y133548D01*
X-11850Y134349D01*
Y135178D01*
X-12065Y135979D01*
X-12480Y136698D01*
X-13066Y137284D01*
X-13784Y137699D01*
X-14585Y137913D01*
X-15415D01*
X-16216Y137699D01*
X-16521Y137523D01*
X-17097Y138099D01*
X-16882Y138472D01*
X-16654Y139323D01*
Y140204D01*
X-16882Y141056D01*
X-17097Y141428D01*
X-16521Y142005D01*
X-16216Y141829D01*
X-15415Y141614D01*
X-14585D01*
X-13784Y141829D01*
X-13066Y142244D01*
X-12480Y142830D01*
X-12065Y143548D01*
X-11850Y144349D01*
Y145178D01*
X-12065Y145979D01*
X-12480Y146698D01*
X-13066Y147284D01*
X-13784Y147699D01*
X-14585Y147913D01*
D02*
G37*
G36*
X5415D02*
X4585D01*
X3784Y147699D01*
X3066Y147284D01*
X2480Y146698D01*
X2065Y145979D01*
X1850Y145178D01*
Y144349D01*
X2065Y143548D01*
X2480Y142830D01*
X3066Y142244D01*
X3784Y141829D01*
X4585Y141614D01*
X5415D01*
X6216Y141829D01*
X6934Y142244D01*
X7520Y142830D01*
X7935Y143548D01*
X8150Y144349D01*
Y145178D01*
X7935Y145979D01*
X7520Y146698D01*
X6934Y147284D01*
X6216Y147699D01*
X5415Y147913D01*
D02*
G37*
G36*
X-4585D02*
X-5415D01*
X-6216Y147699D01*
X-6934Y147284D01*
X-7520Y146698D01*
X-7935Y145979D01*
X-8150Y145178D01*
Y144349D01*
X-7935Y143548D01*
X-7520Y142830D01*
X-6934Y142244D01*
X-6216Y141829D01*
X-5415Y141614D01*
X-4585D01*
X-3784Y141829D01*
X-3066Y142244D01*
X-2480Y142830D01*
X-2065Y143548D01*
X-1850Y144349D01*
Y145178D01*
X-2065Y145979D01*
X-2480Y146698D01*
X-3066Y147284D01*
X-3784Y147699D01*
X-4585Y147913D01*
D02*
G37*
G36*
X100310Y147244D02*
X99533D01*
X98782Y147043D01*
X98108Y146654D01*
X97558Y146104D01*
X97170Y145431D01*
X96969Y144680D01*
Y143903D01*
X97170Y143152D01*
X97558Y142478D01*
X98108Y141929D01*
X98782Y141540D01*
X99533Y141339D01*
X100310D01*
X101061Y141540D01*
X101734Y141929D01*
X102284Y142478D01*
X102673Y143152D01*
X102874Y143903D01*
Y144680D01*
X102673Y145431D01*
X102284Y146104D01*
X101734Y146654D01*
X101061Y147043D01*
X100310Y147244D01*
D02*
G37*
G36*
X-98408Y154035D02*
X-99230D01*
X-99990Y153721D01*
X-100571Y153139D01*
X-100886Y152380D01*
Y151557D01*
X-100571Y150798D01*
X-99990Y150216D01*
X-99230Y149902D01*
X-98597D01*
X-90650Y141954D01*
Y141321D01*
X-90335Y140561D01*
X-89754Y139980D01*
X-88994Y139665D01*
X-88171D01*
X-87412Y139980D01*
X-86830Y140561D01*
X-86516Y141321D01*
Y142143D01*
X-86830Y142903D01*
X-87412Y143484D01*
X-88171Y143799D01*
X-88805D01*
X-96752Y151746D01*
Y152380D01*
X-97067Y153139D01*
X-97648Y153721D01*
X-98408Y154035D01*
D02*
G37*
G36*
X68893Y147244D02*
X68115D01*
X67364Y147043D01*
X66691Y146654D01*
X66141Y146104D01*
X65752Y145431D01*
X65551Y144680D01*
Y143903D01*
X65752Y143152D01*
X66141Y142478D01*
X66691Y141929D01*
X67364Y141540D01*
X67218Y140764D01*
X65461D01*
Y136327D01*
X69898D01*
Y140764D01*
X69790D01*
X69644Y141540D01*
X70317Y141929D01*
X70867Y142478D01*
X71255Y143152D01*
X71457Y143903D01*
Y144680D01*
X71255Y145431D01*
X70867Y146104D01*
X70317Y146654D01*
X69644Y147043D01*
X68893Y147244D01*
D02*
G37*
G36*
X64461Y140764D02*
X60024D01*
Y136327D01*
X64461D01*
Y140764D01*
D02*
G37*
G36*
X-36402Y140764D02*
X-40839D01*
Y136327D01*
X-36402D01*
Y140764D01*
D02*
G37*
G36*
X-41839D02*
X-46276D01*
Y136327D01*
X-41839D01*
Y140764D01*
D02*
G37*
G36*
X211221Y143132D02*
X210552Y143044D01*
X209930Y142787D01*
X209395Y142376D01*
X208985Y141842D01*
X208727Y141219D01*
X208639Y140551D01*
Y137402D01*
X208727Y136733D01*
X208985Y136111D01*
X209395Y135576D01*
X209930Y135166D01*
X210552Y134908D01*
X211221Y134820D01*
X211889Y134908D01*
X212511Y135166D01*
X213046Y135576D01*
X213456Y136111D01*
X213714Y136733D01*
X213802Y137402D01*
Y140551D01*
X213714Y141219D01*
X213456Y141842D01*
X213046Y142376D01*
X212511Y142787D01*
X211889Y143044D01*
X211221Y143132D01*
D02*
G37*
G36*
X-204118Y138795D02*
X-208161D01*
Y134752D01*
X-204118D01*
Y138795D01*
D02*
G37*
G36*
X-209161D02*
X-213205D01*
Y134752D01*
X-209161D01*
Y138795D01*
D02*
G37*
G36*
X220638Y139370D02*
X219913D01*
X219212Y139182D01*
X218583Y138820D01*
X218070Y138306D01*
X217707Y137678D01*
X217520Y136977D01*
Y136251D01*
X217707Y135550D01*
X218070Y134922D01*
X218583Y134409D01*
X219212Y134046D01*
X219913Y133858D01*
X220638D01*
X221339Y134046D01*
X221968Y134409D01*
X222481Y134922D01*
X222844Y135550D01*
X223031Y136251D01*
Y136977D01*
X222844Y137678D01*
X222481Y138306D01*
X221968Y138820D01*
X221339Y139182D01*
X220638Y139370D01*
D02*
G37*
G36*
X5415Y137913D02*
X4585D01*
X3784Y137699D01*
X3066Y137284D01*
X2480Y136698D01*
X2065Y135979D01*
X1850Y135178D01*
Y134349D01*
X2065Y133548D01*
X2480Y132830D01*
X3066Y132244D01*
X3784Y131829D01*
X4585Y131614D01*
X5415D01*
X6216Y131829D01*
X6934Y132244D01*
X7520Y132830D01*
X7935Y133548D01*
X8150Y134349D01*
Y135178D01*
X7935Y135979D01*
X7520Y136698D01*
X6934Y137284D01*
X6216Y137699D01*
X5415Y137913D01*
D02*
G37*
G36*
X-4585D02*
X-5415D01*
X-6216Y137699D01*
X-6934Y137284D01*
X-7520Y136698D01*
X-7935Y135979D01*
X-8150Y135178D01*
Y134349D01*
X-7935Y133548D01*
X-7520Y132830D01*
X-6934Y132244D01*
X-6216Y131829D01*
X-5415Y131614D01*
X-4585D01*
X-3784Y131829D01*
X-3066Y132244D01*
X-2480Y132830D01*
X-2065Y133548D01*
X-1850Y134349D01*
Y135178D01*
X-2065Y135979D01*
X-2480Y136698D01*
X-3066Y137284D01*
X-3784Y137699D01*
X-4585Y137913D01*
D02*
G37*
G36*
X-64549Y143799D02*
X-65372D01*
X-66131Y143484D01*
X-66713Y142903D01*
X-67027Y142143D01*
Y141321D01*
X-67410Y140748D01*
X-69882D01*
Y130905D01*
X-60039D01*
Y140748D01*
X-62511D01*
X-62894Y141321D01*
Y142143D01*
X-63208Y142903D01*
X-63790Y143484D01*
X-64549Y143799D01*
D02*
G37*
G36*
X-36402Y135327D02*
X-40839D01*
Y130890D01*
X-36402D01*
Y135327D01*
D02*
G37*
G36*
X-41839D02*
X-46276D01*
Y130890D01*
X-41839D01*
Y135327D01*
D02*
G37*
G36*
X69898Y135327D02*
X65461D01*
Y130890D01*
X69898D01*
Y135327D01*
D02*
G37*
G36*
X64461D02*
X60024D01*
Y130890D01*
X64461D01*
Y135327D01*
D02*
G37*
G36*
X-106026Y149705D02*
X-106849D01*
X-107608Y149390D01*
X-108190Y148809D01*
X-108504Y148049D01*
Y147227D01*
X-108190Y146467D01*
X-107608Y145886D01*
X-107464Y145826D01*
X-97898Y136260D01*
X-97821Y136209D01*
X-97111Y135283D01*
X-96630Y134121D01*
X-96528Y133350D01*
X-96555Y133285D01*
Y132463D01*
X-96240Y131703D01*
X-95659Y131122D01*
X-94899Y130807D01*
X-94077D01*
X-93317Y131122D01*
X-92736Y131703D01*
X-92421Y132463D01*
Y133285D01*
X-92548Y133591D01*
X-92646Y134592D01*
X-93148Y136244D01*
X-93961Y137766D01*
X-95056Y139101D01*
X-95059Y139098D01*
X-104625Y148664D01*
X-104685Y148809D01*
X-105267Y149390D01*
X-106026Y149705D01*
D02*
G37*
G36*
X-204118Y133752D02*
X-208161D01*
Y129709D01*
X-204118D01*
Y133752D01*
D02*
G37*
G36*
X-209161D02*
X-213205D01*
Y129709D01*
X-209161D01*
Y133752D01*
D02*
G37*
G36*
X-30101Y129232D02*
X-30923D01*
X-31683Y128918D01*
X-32264Y128336D01*
X-32579Y127576D01*
Y126754D01*
X-32264Y125995D01*
X-31683Y125413D01*
X-30923Y125098D01*
X-30101D01*
X-29956Y125158D01*
X43270D01*
X43414Y125098D01*
X44237D01*
X44996Y125413D01*
X45578Y125995D01*
X45892Y126754D01*
Y127576D01*
X45578Y128336D01*
X44996Y128918D01*
X44237Y129232D01*
X43414D01*
X43270Y129172D01*
X-29956D01*
X-30101Y129232D01*
D02*
G37*
G36*
X-123653Y128740D02*
X-124379D01*
X-125080Y128552D01*
X-125708Y128190D01*
X-126221Y127676D01*
X-126584Y127048D01*
X-126772Y126347D01*
Y125621D01*
X-126584Y124920D01*
X-126221Y124292D01*
X-125708Y123779D01*
X-125080Y123416D01*
X-124379Y123228D01*
X-123653D01*
X-122952Y123416D01*
X-122324Y123779D01*
X-121810Y124292D01*
X-121448Y124920D01*
X-121260Y125621D01*
Y126347D01*
X-121448Y127048D01*
X-121810Y127676D01*
X-122324Y128190D01*
X-122952Y128552D01*
X-123653Y128740D01*
D02*
G37*
G36*
X-111842Y128740D02*
X-112568D01*
X-113268Y128552D01*
X-113897Y128190D01*
X-114410Y127676D01*
X-114773Y127048D01*
X-114961Y126347D01*
Y125621D01*
X-114773Y124920D01*
X-114410Y124292D01*
X-113897Y123779D01*
X-113268Y123416D01*
X-112568Y123228D01*
X-111842D01*
X-111141Y123416D01*
X-110513Y123779D01*
X-110000Y124292D01*
X-109637Y124920D01*
X-109449Y125621D01*
Y126347D01*
X-109637Y127048D01*
X-110000Y127676D01*
X-110513Y128190D01*
X-111141Y128552D01*
X-111842Y128740D01*
D02*
G37*
%LPD*%
G36*
X-63089Y287264D02*
X-63080Y287144D01*
X-63064Y287031D01*
X-63042Y286924D01*
X-63013Y286823D01*
X-62978Y286728D01*
X-62936Y286640D01*
X-62887Y286559D01*
X-62831Y286483D01*
X-62769Y286415D01*
X-63186Y285997D01*
X-63255Y286059D01*
X-63330Y286115D01*
X-63412Y286164D01*
X-63500Y286206D01*
X-63595Y286242D01*
X-63695Y286270D01*
X-63802Y286293D01*
X-63916Y286308D01*
X-64036Y286317D01*
X-64162Y286319D01*
X-63091Y287391D01*
X-63089Y287264D01*
D02*
G37*
G36*
X-29120Y282707D02*
X-29210Y282795D01*
X-29302Y282873D01*
X-29393Y282943D01*
X-29484Y283003D01*
X-29576Y283054D01*
X-29668Y283095D01*
X-29760Y283128D01*
X-29852Y283151D01*
X-29945Y283165D01*
X-30038Y283169D01*
Y283760D01*
X-29945Y283765D01*
X-29852Y283778D01*
X-29760Y283802D01*
X-29668Y283834D01*
X-29576Y283875D01*
X-29484Y283926D01*
X-29393Y283986D01*
X-29302Y284056D01*
X-29210Y284135D01*
X-29120Y284222D01*
Y282707D01*
D02*
G37*
G36*
X28432Y278471D02*
X28331Y278434D01*
X28239Y278393D01*
X28157Y278346D01*
X28084Y278294D01*
X28021Y278237D01*
X27966Y278175D01*
X27922Y278108D01*
X27887Y278035D01*
X27861Y277957D01*
X27845Y277874D01*
X26939Y279090D01*
X26997Y279084D01*
X27062Y279084D01*
X27133Y279090D01*
X27211Y279101D01*
X27294Y279119D01*
X27482Y279170D01*
X27585Y279205D01*
X27811Y279292D01*
X28432Y278471D01*
D02*
G37*
G36*
X-78719Y277441D02*
X-78803Y277404D01*
X-78881Y277358D01*
X-78951Y277302D01*
X-79014Y277236D01*
X-79070Y277161D01*
X-79118Y277076D01*
X-79160Y276981D01*
X-79194Y276876D01*
X-79221Y276761D01*
X-79241Y276637D01*
X-80159Y277843D01*
X-80035Y277827D01*
X-79799Y277813D01*
X-79687Y277813D01*
X-79473Y277831D01*
X-79372Y277848D01*
X-79274Y277870D01*
X-79180Y277898D01*
X-79090Y277931D01*
X-78719Y277441D01*
D02*
G37*
G36*
X-82454Y277537D02*
X-82516Y277468D01*
X-82572Y277393D01*
X-82621Y277311D01*
X-82663Y277223D01*
X-82698Y277129D01*
X-82727Y277028D01*
X-82749Y276920D01*
X-82765Y276807D01*
X-82774Y276687D01*
X-82776Y276560D01*
X-83847Y277632D01*
X-83721Y277634D01*
X-83601Y277643D01*
X-83487Y277659D01*
X-83380Y277681D01*
X-83280Y277710D01*
X-83185Y277745D01*
X-83097Y277787D01*
X-83015Y277836D01*
X-82940Y277892D01*
X-82871Y277954D01*
X-82454Y277537D01*
D02*
G37*
G36*
X-75691Y276057D02*
X-75379Y275492D01*
X-75418Y275485D01*
X-75455Y275468D01*
X-75492Y275438D01*
X-75528Y275398D01*
X-75563Y275346D01*
X-75597Y275283D01*
X-75630Y275208D01*
X-75663Y275122D01*
X-75726Y274917D01*
X-76471Y276237D01*
X-75691Y276057D01*
D02*
G37*
G36*
X-73290Y273272D02*
X-73365Y273219D01*
X-73433Y273157D01*
X-73494Y273088D01*
X-73548Y273010D01*
X-73595Y272924D01*
X-73634Y272831D01*
X-73667Y272729D01*
X-73693Y272620D01*
X-73711Y272502D01*
X-73722Y272376D01*
X-74717Y273520D01*
X-74591Y273513D01*
X-74354Y273517D01*
X-74244Y273528D01*
X-74138Y273545D01*
X-74037Y273568D01*
X-73941Y273598D01*
X-73849Y273633D01*
X-73763Y273675D01*
X-73682Y273722D01*
X-73290Y273272D01*
D02*
G37*
G36*
X-69311Y272803D02*
X-69391Y272758D01*
X-69464Y272703D01*
X-69529Y272640D01*
X-69588Y272568D01*
X-69639Y272487D01*
X-69683Y272397D01*
X-69720Y272298D01*
X-69750Y272191D01*
X-69772Y272074D01*
X-69788Y271949D01*
X-70746Y273123D01*
X-70622Y273112D01*
X-70385Y273107D01*
X-70273Y273113D01*
X-70165Y273125D01*
X-70062Y273143D01*
X-69964Y273166D01*
X-69869Y273195D01*
X-69779Y273230D01*
X-69693Y273271D01*
X-69311Y272803D01*
D02*
G37*
G36*
X-70085Y269655D02*
X-70128Y269611D01*
X-70271Y269450D01*
X-70285Y269430D01*
X-70294Y269414D01*
X-70298Y269401D01*
X-70297Y269392D01*
X-70765Y269861D01*
X-70757Y269860D01*
X-70744Y269864D01*
X-70727Y269872D01*
X-70707Y269886D01*
X-70683Y269905D01*
X-70622Y269957D01*
X-70502Y270073D01*
X-70085Y269655D01*
D02*
G37*
G36*
X95290Y268927D02*
X95199Y269015D01*
X95108Y269094D01*
X95017Y269163D01*
X94925Y269223D01*
X94834Y269274D01*
X94742Y269316D01*
X94649Y269348D01*
X94557Y269371D01*
X94465Y269385D01*
X94372Y269390D01*
Y269980D01*
X94465Y269985D01*
X94557Y269999D01*
X94649Y270022D01*
X94742Y270054D01*
X94834Y270096D01*
X94925Y270147D01*
X95017Y270207D01*
X95108Y270276D01*
X95199Y270355D01*
X95290Y270443D01*
Y268927D01*
D02*
G37*
G36*
X-6679Y266565D02*
X-6769Y266653D01*
X-6860Y266732D01*
X-6952Y266801D01*
X-7043Y266861D01*
X-7135Y266912D01*
X-7227Y266953D01*
X-7319Y266986D01*
X-7411Y267009D01*
X-7504Y267023D01*
X-7597Y267028D01*
Y267618D01*
X-7504Y267623D01*
X-7411Y267637D01*
X-7319Y267660D01*
X-7227Y267692D01*
X-7135Y267734D01*
X-7043Y267785D01*
X-6952Y267845D01*
X-6860Y267914D01*
X-6769Y267993D01*
X-6679Y268081D01*
Y266565D01*
D02*
G37*
G36*
X-25538Y267983D02*
X-25443Y267907D01*
X-25349Y267839D01*
X-25255Y267780D01*
X-25162Y267731D01*
X-25068Y267690D01*
X-24975Y267659D01*
X-24883Y267636D01*
X-24791Y267623D01*
X-24699Y267618D01*
X-24676Y267028D01*
X-24770Y267023D01*
X-24863Y267009D01*
X-24955Y266985D01*
X-25046Y266952D01*
X-25137Y266909D01*
X-25226Y266857D01*
X-25315Y266796D01*
X-25404Y266725D01*
X-25491Y266644D01*
X-25578Y266554D01*
X-25633Y268069D01*
X-25538Y267983D01*
D02*
G37*
G36*
X-71708Y266082D02*
X-71790Y266043D01*
X-71863Y265995D01*
X-71928Y265936D01*
X-71984Y265867D01*
X-72032Y265788D01*
X-72072Y265699D01*
X-72103Y265600D01*
X-72126Y265491D01*
X-72140Y265372D01*
X-72146Y265242D01*
X-73193Y266338D01*
X-73074Y266336D01*
X-72845Y266348D01*
X-72735Y266361D01*
X-72523Y266401D01*
X-72422Y266428D01*
X-72324Y266460D01*
X-72229Y266497D01*
X-72137Y266539D01*
X-71708Y266082D01*
D02*
G37*
G36*
X94109Y264990D02*
X94053Y265041D01*
X93992Y265086D01*
X93924Y265126D01*
X93849Y265160D01*
X93768Y265190D01*
X93681Y265213D01*
X93587Y265232D01*
X93487Y265245D01*
X93381Y265253D01*
X93268Y265256D01*
Y266240D01*
X93381Y266243D01*
X93587Y266264D01*
X93681Y266283D01*
X93768Y266307D01*
X93849Y266336D01*
X93924Y266370D01*
X93992Y266410D01*
X94053Y266455D01*
X94109Y266506D01*
Y264990D01*
D02*
G37*
G36*
X-4710Y264597D02*
X-4801Y264684D01*
X-4892Y264763D01*
X-4983Y264832D01*
X-5075Y264893D01*
X-5166Y264943D01*
X-5258Y264985D01*
X-5350Y265017D01*
X-5443Y265040D01*
X-5535Y265054D01*
X-5628Y265059D01*
Y265650D01*
X-5535Y265654D01*
X-5443Y265668D01*
X-5350Y265691D01*
X-5258Y265724D01*
X-5166Y265765D01*
X-5075Y265816D01*
X-4983Y265876D01*
X-4892Y265946D01*
X-4801Y266024D01*
X-4710Y266112D01*
Y264597D01*
D02*
G37*
G36*
X-28368Y266024D02*
X-28277Y265946D01*
X-28186Y265876D01*
X-28095Y265816D01*
X-28003Y265765D01*
X-27911Y265724D01*
X-27819Y265691D01*
X-27726Y265668D01*
X-27634Y265654D01*
X-27541Y265650D01*
Y265059D01*
X-27634Y265054D01*
X-27726Y265040D01*
X-27819Y265017D01*
X-27911Y264985D01*
X-28003Y264943D01*
X-28095Y264893D01*
X-28186Y264832D01*
X-28277Y264763D01*
X-28368Y264684D01*
X-28459Y264597D01*
Y266112D01*
X-28368Y266024D01*
D02*
G37*
G36*
X-69068Y265160D02*
X-69130Y265091D01*
X-69186Y265016D01*
X-69235Y264934D01*
X-69277Y264846D01*
X-69313Y264752D01*
X-69341Y264651D01*
X-69363Y264544D01*
X-69379Y264430D01*
X-69388Y264310D01*
X-69390Y264184D01*
X-70462Y265256D01*
X-70335Y265258D01*
X-70215Y265267D01*
X-70102Y265282D01*
X-69994Y265304D01*
X-69894Y265333D01*
X-69799Y265369D01*
X-69711Y265411D01*
X-69630Y265460D01*
X-69554Y265515D01*
X-69485Y265578D01*
X-69068Y265160D01*
D02*
G37*
G36*
X-102480Y260947D02*
X-102558Y260856D01*
X-102628Y260765D01*
X-102688Y260673D01*
X-102739Y260582D01*
X-102780Y260490D01*
X-102813Y260398D01*
X-102836Y260305D01*
X-102850Y260213D01*
X-102854Y260120D01*
X-103445D01*
X-103449Y260213D01*
X-103463Y260305D01*
X-103487Y260398D01*
X-103519Y260490D01*
X-103560Y260582D01*
X-103611Y260673D01*
X-103672Y260765D01*
X-103741Y260856D01*
X-103820Y260947D01*
X-103908Y261038D01*
X-102392D01*
X-102480Y260947D01*
D02*
G37*
G36*
X-105629D02*
X-105708Y260856D01*
X-105777Y260765D01*
X-105837Y260673D01*
X-105888Y260582D01*
X-105930Y260490D01*
X-105962Y260398D01*
X-105985Y260305D01*
X-105999Y260213D01*
X-106004Y260120D01*
X-106595D01*
X-106599Y260213D01*
X-106613Y260305D01*
X-106636Y260398D01*
X-106668Y260490D01*
X-106710Y260582D01*
X-106761Y260673D01*
X-106821Y260765D01*
X-106891Y260856D01*
X-106969Y260947D01*
X-107057Y261038D01*
X-105541D01*
X-105629Y260947D01*
D02*
G37*
G36*
X-100511Y258979D02*
X-100590Y258888D01*
X-100659Y258796D01*
X-100719Y258705D01*
X-100770Y258613D01*
X-100812Y258521D01*
X-100844Y258429D01*
X-100867Y258337D01*
X-100881Y258244D01*
X-100886Y258151D01*
X-101476D01*
X-101481Y258244D01*
X-101495Y258337D01*
X-101518Y258429D01*
X-101550Y258521D01*
X-101592Y258613D01*
X-101643Y258705D01*
X-101703Y258796D01*
X-101772Y258888D01*
X-101851Y258979D01*
X-101939Y259069D01*
X-100423D01*
X-100511Y258979D01*
D02*
G37*
G36*
X-105999Y255142D02*
X-105985Y255049D01*
X-105962Y254957D01*
X-105930Y254865D01*
X-105888Y254773D01*
X-105837Y254681D01*
X-105777Y254590D01*
X-105708Y254498D01*
X-105629Y254407D01*
X-105541Y254316D01*
X-107057D01*
X-106969Y254407D01*
X-106891Y254498D01*
X-106821Y254590D01*
X-106761Y254681D01*
X-106710Y254773D01*
X-106668Y254865D01*
X-106636Y254957D01*
X-106613Y255049D01*
X-106599Y255142D01*
X-106595Y255235D01*
X-106004D01*
X-105999Y255142D01*
D02*
G37*
G36*
X149218Y252401D02*
X149129Y252489D01*
X148950Y252641D01*
X148860Y252705D01*
X148769Y252761D01*
X148678Y252808D01*
X148586Y252847D01*
X148494Y252878D01*
X148401Y252900D01*
X148308Y252914D01*
X148314Y253508D01*
X148406Y253502D01*
X148498Y253507D01*
X148590Y253522D01*
X148682Y253548D01*
X148774Y253584D01*
X148866Y253630D01*
X148958Y253686D01*
X149051Y253752D01*
X149143Y253829D01*
X149236Y253916D01*
X149218Y252401D01*
D02*
G37*
G36*
X-102850Y252780D02*
X-102836Y252687D01*
X-102813Y252595D01*
X-102780Y252502D01*
X-102739Y252411D01*
X-102688Y252319D01*
X-102628Y252227D01*
X-102558Y252136D01*
X-102480Y252045D01*
X-102392Y251954D01*
X-103908D01*
X-103820Y252045D01*
X-103741Y252136D01*
X-103672Y252227D01*
X-103611Y252319D01*
X-103560Y252411D01*
X-103519Y252502D01*
X-103487Y252595D01*
X-103463Y252687D01*
X-103449Y252780D01*
X-103445Y252872D01*
X-102854D01*
X-102850Y252780D01*
D02*
G37*
G36*
X-100881Y250811D02*
X-100867Y250718D01*
X-100844Y250626D01*
X-100812Y250534D01*
X-100770Y250442D01*
X-100719Y250350D01*
X-100659Y250259D01*
X-100590Y250168D01*
X-100511Y250077D01*
X-100423Y249986D01*
X-101939D01*
X-101851Y250077D01*
X-101772Y250168D01*
X-101703Y250259D01*
X-101643Y250350D01*
X-101592Y250442D01*
X-101550Y250534D01*
X-101518Y250626D01*
X-101495Y250718D01*
X-101481Y250811D01*
X-101476Y250904D01*
X-100886D01*
X-100881Y250811D01*
D02*
G37*
G36*
X176193Y249803D02*
X176187Y249859D01*
X176170Y249909D01*
X176140Y249954D01*
X176099Y249992D01*
X176046Y250025D01*
X175980Y250051D01*
X175904Y250072D01*
X175815Y250087D01*
X175715Y250096D01*
X175603Y250098D01*
Y250689D01*
X175715Y250692D01*
X175815Y250701D01*
X175904Y250715D01*
X175980Y250736D01*
X176046Y250763D01*
X176099Y250795D01*
X176140Y250834D01*
X176170Y250878D01*
X176187Y250928D01*
X176193Y250984D01*
Y249803D01*
D02*
G37*
G36*
X197368Y244127D02*
X197401Y244037D01*
X197442Y243948D01*
X197490Y243860D01*
X197546Y243772D01*
X197610Y243686D01*
X197681Y243600D01*
X197760Y243515D01*
X197941Y243348D01*
X196430Y243233D01*
X196510Y243331D01*
X196580Y243427D01*
X196638Y243523D01*
X196686Y243618D01*
X196723Y243713D01*
X196750Y243807D01*
X196765Y243899D01*
X196770Y243992D01*
X196763Y244083D01*
X196746Y244174D01*
X197343Y244218D01*
X197368Y244127D01*
D02*
G37*
G36*
X143015Y236687D02*
X143024Y236586D01*
X143038Y236498D01*
X143059Y236421D01*
X143086Y236356D01*
X143118Y236303D01*
X143157Y236262D01*
X143201Y236232D01*
X143251Y236214D01*
X143307Y236209D01*
X142126D01*
X142182Y236214D01*
X142232Y236232D01*
X142277Y236262D01*
X142315Y236303D01*
X142348Y236356D01*
X142374Y236421D01*
X142395Y236498D01*
X142410Y236586D01*
X142418Y236687D01*
X142421Y236799D01*
X143012D01*
X143015Y236687D01*
D02*
G37*
G36*
X211626Y231693D02*
X211620Y231749D01*
X211603Y231799D01*
X211573Y231843D01*
X211532Y231882D01*
X211479Y231914D01*
X211414Y231941D01*
X211337Y231962D01*
X211248Y231976D01*
X211148Y231985D01*
X211036Y231988D01*
Y232579D01*
X211148Y232582D01*
X211248Y232591D01*
X211337Y232605D01*
X211414Y232626D01*
X211479Y232653D01*
X211532Y232685D01*
X211573Y232723D01*
X211603Y232768D01*
X211620Y232818D01*
X211626Y232874D01*
Y231693D01*
D02*
G37*
G36*
X134988Y220889D02*
X135090Y220832D01*
X135189Y220788D01*
X135285Y220756D01*
X135379Y220738D01*
X135470Y220732D01*
X135559Y220739D01*
X135645Y220758D01*
X135728Y220791D01*
X135809Y220836D01*
X135922Y220215D01*
X135838Y220166D01*
X135755Y220110D01*
X135674Y220049D01*
X135516Y219910D01*
X135439Y219833D01*
X135289Y219660D01*
X135216Y219565D01*
X135144Y219465D01*
X134883Y220958D01*
X134988Y220889D01*
D02*
G37*
G36*
X180416Y196333D02*
X180425Y196232D01*
X180440Y196143D01*
X180461Y196067D01*
X180487Y196002D01*
X180520Y195949D01*
X180558Y195907D01*
X180602Y195878D01*
X180653Y195860D01*
X180709Y195854D01*
X179528D01*
X179584Y195860D01*
X179634Y195878D01*
X179678Y195907D01*
X179717Y195949D01*
X179749Y196002D01*
X179776Y196067D01*
X179796Y196143D01*
X179811Y196232D01*
X179820Y196333D01*
X179823Y196445D01*
X180413D01*
X180416Y196333D01*
D02*
G37*
G36*
X-95286Y307185D02*
X-95413Y307183D01*
X-95533Y307174D01*
X-95646Y307159D01*
X-95754Y307137D01*
X-95854Y307108D01*
X-95949Y307072D01*
X-96037Y307030D01*
X-96118Y306981D01*
X-96194Y306925D01*
X-96263Y306863D01*
X-96680Y307281D01*
X-96618Y307349D01*
X-96562Y307425D01*
X-96513Y307506D01*
X-96471Y307594D01*
X-96435Y307689D01*
X-96407Y307790D01*
X-96385Y307897D01*
X-96369Y308011D01*
X-96360Y308131D01*
X-96358Y308257D01*
X-95286Y307185D01*
D02*
G37*
G36*
X-135686Y286884D02*
X-135677Y286783D01*
X-135662Y286695D01*
X-135642Y286618D01*
X-135615Y286553D01*
X-135583Y286500D01*
X-135544Y286458D01*
X-135500Y286429D01*
X-135450Y286411D01*
X-135394Y286405D01*
X-136575D01*
X-136519Y286411D01*
X-136469Y286429D01*
X-136424Y286458D01*
X-136386Y286500D01*
X-136353Y286553D01*
X-136327Y286618D01*
X-136306Y286695D01*
X-136291Y286783D01*
X-136282Y286884D01*
X-136279Y286996D01*
X-135689D01*
X-135686Y286884D01*
D02*
G37*
G36*
X-11280Y284675D02*
X-11370Y284763D01*
X-11462Y284842D01*
X-11553Y284911D01*
X-11644Y284971D01*
X-11736Y285022D01*
X-11828Y285064D01*
X-11920Y285096D01*
X-12012Y285119D01*
X-12105Y285133D01*
X-12198Y285138D01*
Y285728D01*
X-12105Y285733D01*
X-12012Y285747D01*
X-11920Y285770D01*
X-11828Y285802D01*
X-11736Y285844D01*
X-11644Y285895D01*
X-11553Y285955D01*
X-11462Y286024D01*
X-11370Y286103D01*
X-11280Y286191D01*
Y284675D01*
D02*
G37*
G36*
X-15278Y286103D02*
X-15187Y286024D01*
X-15096Y285955D01*
X-15004Y285895D01*
X-14912Y285844D01*
X-14820Y285802D01*
X-14728Y285770D01*
X-14636Y285747D01*
X-14543Y285733D01*
X-14450Y285728D01*
Y285138D01*
X-14543Y285133D01*
X-14636Y285119D01*
X-14728Y285096D01*
X-14820Y285064D01*
X-14912Y285022D01*
X-15004Y284971D01*
X-15096Y284911D01*
X-15187Y284842D01*
X-15278Y284763D01*
X-15369Y284675D01*
Y286191D01*
X-15278Y286103D01*
D02*
G37*
G36*
X-125277Y287361D02*
X-125322Y287299D01*
X-125362Y287231D01*
X-125397Y287156D01*
X-125426Y287075D01*
X-125450Y286988D01*
X-125458Y286947D01*
X-125448Y286888D01*
X-125413Y286760D01*
X-125369Y286651D01*
X-125315Y286563D01*
X-125251Y286494D01*
X-125177Y286445D01*
X-125093Y286415D01*
X-125000Y286405D01*
X-126969D01*
X-126875Y286415D01*
X-126791Y286445D01*
X-126717Y286494D01*
X-126654Y286563D01*
X-126599Y286651D01*
X-126555Y286760D01*
X-126521Y286888D01*
X-126511Y286947D01*
X-126519Y286988D01*
X-126543Y287075D01*
X-126572Y287156D01*
X-126607Y287231D01*
X-126646Y287299D01*
X-126692Y287361D01*
X-126742Y287416D01*
X-125226Y287416D01*
X-125277Y287361D01*
D02*
G37*
G36*
X57757Y262915D02*
X57678Y262825D01*
X57609Y262733D01*
X57548Y262642D01*
X57498Y262550D01*
X57456Y262458D01*
X57424Y262366D01*
X57400Y262274D01*
X57386Y262181D01*
X57382Y262088D01*
X56791D01*
X56787Y262181D01*
X56773Y262274D01*
X56750Y262366D01*
X56717Y262458D01*
X56676Y262550D01*
X56625Y262642D01*
X56565Y262733D01*
X56495Y262825D01*
X56417Y262915D01*
X56329Y263006D01*
X57845D01*
X57757Y262915D01*
D02*
G37*
G36*
X72062Y261053D02*
X71971Y261141D01*
X71880Y261220D01*
X71788Y261289D01*
X71697Y261349D01*
X71605Y261400D01*
X71513Y261442D01*
X71421Y261474D01*
X71329Y261497D01*
X71236Y261511D01*
X71143Y261516D01*
Y262106D01*
X71236Y262111D01*
X71329Y262125D01*
X71421Y262148D01*
X71513Y262180D01*
X71605Y262222D01*
X71697Y262273D01*
X71788Y262333D01*
X71880Y262402D01*
X71971Y262481D01*
X72062Y262569D01*
Y261053D01*
D02*
G37*
G36*
X62281Y262481D02*
X62372Y262402D01*
X62464Y262333D01*
X62555Y262273D01*
X62647Y262222D01*
X62739Y262180D01*
X62831Y262148D01*
X62923Y262125D01*
X63016Y262111D01*
X63109Y262106D01*
Y261516D01*
X63016Y261511D01*
X62923Y261497D01*
X62831Y261474D01*
X62739Y261442D01*
X62647Y261400D01*
X62555Y261349D01*
X62464Y261289D01*
X62372Y261220D01*
X62281Y261141D01*
X62191Y261053D01*
Y262569D01*
X62281Y262481D01*
D02*
G37*
G36*
X76392Y258297D02*
X76301Y258385D01*
X76210Y258464D01*
X76119Y258533D01*
X76028Y258593D01*
X75936Y258644D01*
X75844Y258686D01*
X75752Y258718D01*
X75660Y258741D01*
X75567Y258755D01*
X75474Y258760D01*
Y259350D01*
X75567Y259355D01*
X75660Y259369D01*
X75752Y259392D01*
X75844Y259424D01*
X75936Y259466D01*
X76028Y259517D01*
X76119Y259577D01*
X76210Y259647D01*
X76301Y259725D01*
X76392Y259813D01*
Y258297D01*
D02*
G37*
G36*
X64250Y259725D02*
X64341Y259647D01*
X64432Y259577D01*
X64524Y259517D01*
X64615Y259466D01*
X64707Y259424D01*
X64799Y259392D01*
X64892Y259369D01*
X64984Y259355D01*
X65077Y259350D01*
Y258760D01*
X64984Y258755D01*
X64892Y258741D01*
X64799Y258718D01*
X64707Y258686D01*
X64615Y258644D01*
X64524Y258593D01*
X64432Y258533D01*
X64341Y258464D01*
X64250Y258385D01*
X64159Y258297D01*
Y259813D01*
X64250Y259725D01*
D02*
G37*
G36*
X77967Y246093D02*
X77876Y246180D01*
X77785Y246259D01*
X77694Y246328D01*
X77602Y246389D01*
X77511Y246440D01*
X77419Y246481D01*
X77327Y246514D01*
X77234Y246537D01*
X77142Y246550D01*
X77049Y246555D01*
Y247146D01*
X77142Y247150D01*
X77234Y247164D01*
X77327Y247187D01*
X77419Y247220D01*
X77511Y247261D01*
X77602Y247312D01*
X77694Y247372D01*
X77785Y247442D01*
X77876Y247520D01*
X77967Y247608D01*
Y246093D01*
D02*
G37*
G36*
X-89294Y236103D02*
X-89203Y236024D01*
X-89112Y235955D01*
X-89021Y235895D01*
X-88929Y235844D01*
X-88837Y235802D01*
X-88745Y235770D01*
X-88652Y235747D01*
X-88560Y235733D01*
X-88467Y235728D01*
Y235138D01*
X-88560Y235133D01*
X-88652Y235119D01*
X-88745Y235096D01*
X-88837Y235064D01*
X-88929Y235022D01*
X-89021Y234971D01*
X-89112Y234911D01*
X-89203Y234842D01*
X-89294Y234763D01*
X-89385Y234675D01*
Y236191D01*
X-89294Y236103D01*
D02*
G37*
G36*
X-86146Y233742D02*
X-86056Y233664D01*
X-85966Y233594D01*
X-85875Y233532D01*
X-85783Y233479D01*
X-85691Y233435D01*
X-85599Y233399D01*
X-85506Y233371D01*
X-85412Y233352D01*
X-85318Y233341D01*
X-85318Y232749D01*
X-85409Y232751D01*
X-85501Y232743D01*
X-85592Y232724D01*
X-85684Y232696D01*
X-85776Y232657D01*
X-85867Y232608D01*
X-85959Y232549D01*
X-86051Y232481D01*
X-86144Y232402D01*
X-86236Y232313D01*
X-86235Y233828D01*
X-86146Y233742D01*
D02*
G37*
G36*
X-89293Y231772D02*
X-89202Y231694D01*
X-89111Y231624D01*
X-89020Y231564D01*
X-88928Y231513D01*
X-88836Y231472D01*
X-88744Y231439D01*
X-88652Y231416D01*
X-88559Y231402D01*
X-88466Y231398D01*
Y230807D01*
X-88559Y230802D01*
X-88652Y230789D01*
X-88744Y230766D01*
X-88836Y230733D01*
X-88928Y230691D01*
X-89020Y230641D01*
X-89111Y230580D01*
X-89202Y230511D01*
X-89293Y230432D01*
X-89384Y230345D01*
Y231860D01*
X-89293Y231772D01*
D02*
G37*
G36*
X-86145Y229410D02*
X-86054Y229331D01*
X-85962Y229262D01*
X-85871Y229202D01*
X-85779Y229151D01*
X-85687Y229110D01*
X-85595Y229077D01*
X-85503Y229054D01*
X-85410Y229040D01*
X-85317Y229035D01*
Y228445D01*
X-85410Y228440D01*
X-85503Y228426D01*
X-85595Y228403D01*
X-85687Y228371D01*
X-85779Y228329D01*
X-85871Y228278D01*
X-85962Y228218D01*
X-86054Y228149D01*
X-86145Y228070D01*
X-86235Y227982D01*
Y229498D01*
X-86145Y229410D01*
D02*
G37*
G36*
X-936Y224158D02*
X-856Y224106D01*
X-770Y224060D01*
X-679Y224021D01*
X-582Y223988D01*
X-479Y223961D01*
X-371Y223941D01*
X-258Y223927D01*
X-138Y223919D01*
X-14Y223917D01*
X-1083Y222843D01*
X-1086Y222971D01*
X-1096Y223092D01*
X-1112Y223205D01*
X-1136Y223311D01*
X-1167Y223410D01*
X-1205Y223502D01*
X-1251Y223586D01*
X-1303Y223663D01*
X-1362Y223733D01*
X-1429Y223796D01*
X-1011Y224216D01*
X-936Y224158D01*
D02*
G37*
G36*
X-11088Y224051D02*
X-11000Y224012D01*
X-10908Y223978D01*
X-10811Y223951D01*
X-10709Y223930D01*
X-10603Y223914D01*
X-10492Y223905D01*
X-10376Y223902D01*
X-10130Y223913D01*
X-11112Y222758D01*
X-11124Y222884D01*
X-11144Y223001D01*
X-11171Y223110D01*
X-11205Y223211D01*
X-11247Y223303D01*
X-11295Y223387D01*
X-11350Y223463D01*
X-11413Y223531D01*
X-11483Y223590D01*
X-11560Y223640D01*
X-11171Y224097D01*
X-11088Y224051D01*
D02*
G37*
G36*
X4598Y221840D02*
X4576Y221846D01*
X4550Y221846D01*
X4521Y221839D01*
X4489Y221826D01*
X4453Y221807D01*
X4415Y221782D01*
X4373Y221750D01*
X4279Y221668D01*
X4227Y221618D01*
X3810Y222035D01*
X3860Y222087D01*
X3942Y222181D01*
X3973Y222223D01*
X3999Y222262D01*
X4018Y222297D01*
X4031Y222329D01*
X4038Y222358D01*
X4038Y222384D01*
X4032Y222406D01*
X4598Y221840D01*
D02*
G37*
G36*
X-17573Y221754D02*
X-17699Y221760D01*
X-17935Y221753D01*
X-18045Y221740D01*
X-18151Y221720D01*
X-18251Y221695D01*
X-18345Y221663D01*
X-18435Y221625D01*
X-18519Y221581D01*
X-18599Y221530D01*
X-18995Y221974D01*
X-18922Y222030D01*
X-18856Y222095D01*
X-18797Y222167D01*
X-18745Y222246D01*
X-18700Y222334D01*
X-18663Y222429D01*
X-18632Y222531D01*
X-18608Y222642D01*
X-18591Y222760D01*
X-18582Y222886D01*
X-17573Y221754D01*
D02*
G37*
G36*
X-218228Y246774D02*
X-218306Y246683D01*
X-218376Y246592D01*
X-218436Y246500D01*
X-218487Y246408D01*
X-218528Y246317D01*
X-218561Y246224D01*
X-218584Y246132D01*
X-218598Y246039D01*
X-218602Y245947D01*
X-219193D01*
X-219198Y246039D01*
X-219211Y246132D01*
X-219234Y246224D01*
X-219267Y246317D01*
X-219309Y246408D01*
X-219359Y246500D01*
X-219420Y246592D01*
X-219489Y246683D01*
X-219568Y246774D01*
X-219655Y246865D01*
X-218140D01*
X-218228Y246774D01*
D02*
G37*
G36*
X-218598Y243724D02*
X-218584Y243632D01*
X-218561Y243539D01*
X-218528Y243447D01*
X-218487Y243355D01*
X-218436Y243264D01*
X-218376Y243172D01*
X-218306Y243081D01*
X-218228Y242990D01*
X-218140Y242899D01*
X-219655D01*
X-219568Y242990D01*
X-219489Y243081D01*
X-219420Y243172D01*
X-219359Y243264D01*
X-219309Y243355D01*
X-219267Y243447D01*
X-219234Y243539D01*
X-219211Y243632D01*
X-219198Y243724D01*
X-219193Y243817D01*
X-218602D01*
X-218598Y243724D01*
D02*
G37*
G36*
X-190275Y253860D02*
X-190354Y253769D01*
X-190423Y253678D01*
X-190483Y253587D01*
X-190534Y253495D01*
X-190576Y253403D01*
X-190608Y253311D01*
X-190631Y253219D01*
X-190645Y253126D01*
X-190650Y253033D01*
X-191240D01*
X-191245Y253126D01*
X-191259Y253219D01*
X-191282Y253311D01*
X-191314Y253403D01*
X-191356Y253495D01*
X-191407Y253587D01*
X-191467Y253678D01*
X-191536Y253769D01*
X-191615Y253860D01*
X-191703Y253951D01*
X-190187D01*
X-190275Y253860D01*
D02*
G37*
G36*
X-190645Y235850D02*
X-190631Y235758D01*
X-190608Y235665D01*
X-190576Y235573D01*
X-190534Y235481D01*
X-190483Y235390D01*
X-190423Y235298D01*
X-190354Y235207D01*
X-190275Y235116D01*
X-190187Y235025D01*
X-191703D01*
X-191615Y235116D01*
X-191536Y235207D01*
X-191467Y235298D01*
X-191407Y235390D01*
X-191356Y235481D01*
X-191314Y235573D01*
X-191282Y235665D01*
X-191259Y235758D01*
X-191245Y235850D01*
X-191240Y235943D01*
X-190650D01*
X-190645Y235850D01*
D02*
G37*
G36*
X-24333Y249883D02*
X-24242Y249804D01*
X-24151Y249734D01*
X-24059Y249674D01*
X-23967Y249623D01*
X-23876Y249582D01*
X-23783Y249550D01*
X-23691Y249526D01*
X-23598Y249513D01*
X-23506Y249508D01*
Y248917D01*
X-23598Y248913D01*
X-23691Y248899D01*
X-23783Y248876D01*
X-23876Y248843D01*
X-23967Y248802D01*
X-24059Y248751D01*
X-24151Y248691D01*
X-24242Y248621D01*
X-24333Y248543D01*
X-24424Y248455D01*
Y249971D01*
X-24333Y249883D01*
D02*
G37*
G36*
X-8647Y244911D02*
X-8738Y244999D01*
X-8829Y245078D01*
X-8920Y245147D01*
X-9012Y245208D01*
X-9103Y245258D01*
X-9195Y245300D01*
X-9287Y245332D01*
X-9380Y245356D01*
X-9472Y245369D01*
X-9565Y245374D01*
Y245965D01*
X-9472Y245969D01*
X-9380Y245983D01*
X-9287Y246006D01*
X-9195Y246039D01*
X-9103Y246080D01*
X-9012Y246131D01*
X-8920Y246191D01*
X-8829Y246261D01*
X-8738Y246339D01*
X-8647Y246427D01*
Y244911D01*
D02*
G37*
G36*
X-25908Y246339D02*
X-25817Y246261D01*
X-25725Y246191D01*
X-25634Y246131D01*
X-25542Y246080D01*
X-25450Y246039D01*
X-25358Y246006D01*
X-25266Y245983D01*
X-25173Y245969D01*
X-25080Y245965D01*
Y245374D01*
X-25173Y245369D01*
X-25266Y245356D01*
X-25358Y245332D01*
X-25450Y245300D01*
X-25542Y245258D01*
X-25634Y245208D01*
X-25725Y245147D01*
X-25817Y245078D01*
X-25908Y244999D01*
X-25998Y244911D01*
Y246427D01*
X-25908Y246339D01*
D02*
G37*
G36*
X-6616Y242009D02*
X-6525Y241930D01*
X-6434Y241861D01*
X-6343Y241800D01*
X-6251Y241750D01*
X-6159Y241708D01*
X-6067Y241675D01*
X-5974Y241652D01*
X-5882Y241638D01*
X-5789Y241634D01*
Y241043D01*
X-5882Y241039D01*
X-5974Y241025D01*
X-6067Y241002D01*
X-6159Y240969D01*
X-6251Y240928D01*
X-6343Y240877D01*
X-6434Y240817D01*
X-6525Y240747D01*
X-6616Y240669D01*
X-6707Y240581D01*
Y242096D01*
X-6616Y242009D01*
D02*
G37*
G36*
X6582Y235648D02*
X6657Y235593D01*
X6739Y235544D01*
X6827Y235502D01*
X6921Y235466D01*
X7022Y235437D01*
X7129Y235415D01*
X7243Y235400D01*
X7363Y235391D01*
X7489Y235389D01*
X6417Y234317D01*
X6415Y234443D01*
X6407Y234563D01*
X6391Y234677D01*
X6369Y234784D01*
X6340Y234885D01*
X6305Y234979D01*
X6262Y235068D01*
X6213Y235149D01*
X6158Y235224D01*
X6095Y235293D01*
X6513Y235711D01*
X6582Y235648D01*
D02*
G37*
G36*
X12875Y222758D02*
X12796Y222667D01*
X12727Y222576D01*
X12666Y222484D01*
X12616Y222393D01*
X12574Y222301D01*
X12542Y222209D01*
X12518Y222116D01*
X12505Y222024D01*
X12500Y221931D01*
X11909D01*
X11905Y222024D01*
X11891Y222116D01*
X11868Y222209D01*
X11835Y222301D01*
X11794Y222393D01*
X11743Y222484D01*
X11683Y222576D01*
X11613Y222667D01*
X11535Y222758D01*
X11447Y222849D01*
X12963D01*
X12875Y222758D01*
D02*
G37*
G36*
X12505Y219709D02*
X12518Y219616D01*
X12542Y219524D01*
X12574Y219432D01*
X12616Y219340D01*
X12666Y219248D01*
X12727Y219157D01*
X12796Y219065D01*
X12875Y218974D01*
X12963Y218883D01*
X11447D01*
X11535Y218974D01*
X11613Y219065D01*
X11683Y219157D01*
X11743Y219248D01*
X11794Y219340D01*
X11835Y219432D01*
X11868Y219524D01*
X11891Y219616D01*
X11905Y219709D01*
X11909Y219801D01*
X12500D01*
X12505Y219709D01*
D02*
G37*
G36*
X16048Y219298D02*
X16062Y219205D01*
X16085Y219113D01*
X16117Y219020D01*
X16159Y218929D01*
X16210Y218837D01*
X16270Y218745D01*
X16339Y218654D01*
X16418Y218563D01*
X16506Y218472D01*
X14990D01*
X15078Y218563D01*
X15157Y218654D01*
X15226Y218745D01*
X15286Y218837D01*
X15337Y218929D01*
X15379Y219020D01*
X15411Y219113D01*
X15434Y219205D01*
X15448Y219298D01*
X15453Y219390D01*
X16043D01*
X16048Y219298D01*
D02*
G37*
G36*
X63590Y200808D02*
X63572Y200701D01*
X63564Y200599D01*
X63567Y200501D01*
X63580Y200407D01*
X63604Y200317D01*
X63638Y200232D01*
X63682Y200150D01*
X63737Y200074D01*
X63803Y200001D01*
X63259Y199709D01*
X63198Y199766D01*
X63128Y199820D01*
X63051Y199873D01*
X62966Y199924D01*
X62873Y199972D01*
X62664Y200063D01*
X62548Y200106D01*
X62292Y200186D01*
X63618Y200919D01*
X63590Y200808D01*
D02*
G37*
G36*
X68136Y195380D02*
X68060Y195479D01*
X67904Y195656D01*
X67824Y195736D01*
X67661Y195875D01*
X67578Y195935D01*
X67493Y195989D01*
X67407Y196036D01*
X67320Y196077D01*
X67406Y196687D01*
X67491Y196652D01*
X67578Y196630D01*
X67667Y196619D01*
X67758Y196620D01*
X67851Y196634D01*
X67945Y196659D01*
X68042Y196697D01*
X68140Y196746D01*
X68240Y196808D01*
X68343Y196882D01*
X68136Y195380D01*
D02*
G37*
G36*
X-80498Y176408D02*
X-80553Y176458D01*
X-80615Y176503D01*
X-80683Y176543D01*
X-80757Y176578D01*
X-80838Y176607D01*
X-80925Y176631D01*
X-81019Y176649D01*
X-81119Y176663D01*
X-81226Y176671D01*
X-81338Y176673D01*
Y177657D01*
X-81226Y177660D01*
X-81019Y177681D01*
X-80925Y177700D01*
X-80838Y177724D01*
X-80757Y177753D01*
X-80683Y177788D01*
X-80615Y177828D01*
X-80553Y177873D01*
X-80498Y177923D01*
Y176408D01*
D02*
G37*
G36*
X-66149Y165706D02*
X-66134Y165637D01*
X-66109Y165569D01*
X-66074Y165502D01*
X-66029Y165436D01*
X-65974Y165370D01*
X-65909Y165305D01*
X-65833Y165240D01*
X-65748Y165176D01*
X-65653Y165113D01*
X-66041Y164659D01*
X-66141Y164719D01*
X-66346Y164819D01*
X-66450Y164860D01*
X-66555Y164894D01*
X-66661Y164922D01*
X-66768Y164944D01*
X-66877Y164960D01*
X-66987Y164970D01*
X-67097Y164973D01*
X-66154Y165775D01*
X-66149Y165706D01*
D02*
G37*
G36*
X12591Y165706D02*
X12606Y165637D01*
X12631Y165569D01*
X12666Y165502D01*
X12711Y165436D01*
X12767Y165370D01*
X12832Y165305D01*
X12907Y165240D01*
X12992Y165176D01*
X13087Y165113D01*
X12699Y164659D01*
X12599Y164719D01*
X12394Y164819D01*
X12290Y164860D01*
X12185Y164894D01*
X12079Y164922D01*
X11972Y164944D01*
X11863Y164960D01*
X11754Y164970D01*
X11643Y164973D01*
X12586Y165775D01*
X12591Y165706D01*
D02*
G37*
G36*
X-26779D02*
X-26764Y165637D01*
X-26739Y165569D01*
X-26704Y165502D01*
X-26659Y165436D01*
X-26603Y165370D01*
X-26539Y165305D01*
X-26463Y165240D01*
X-26378Y165176D01*
X-26283Y165113D01*
X-26671Y164659D01*
X-26771Y164719D01*
X-26976Y164819D01*
X-27080Y164860D01*
X-27185Y164894D01*
X-27291Y164922D01*
X-27398Y164944D01*
X-27507Y164960D01*
X-27616Y164970D01*
X-27727Y164973D01*
X-26784Y165775D01*
X-26779Y165706D01*
D02*
G37*
G36*
X87181Y164969D02*
X87098Y164956D01*
X87014Y164935D01*
X86930Y164906D01*
X86847Y164868D01*
X86763Y164822D01*
X86680Y164768D01*
X86596Y164705D01*
X86513Y164634D01*
X86429Y164555D01*
X85594D01*
X85669Y164634D01*
X85728Y164705D01*
X85769Y164768D01*
X85795Y164822D01*
X85803Y164868D01*
X85795Y164906D01*
X85769Y164935D01*
X85728Y164956D01*
X85669Y164969D01*
X85594Y164973D01*
X87265D01*
X87181Y164969D01*
D02*
G37*
G36*
X51965Y166198D02*
X51990Y166083D01*
X52031Y165969D01*
X52089Y165856D01*
X52164Y165744D01*
X52255Y165634D01*
X52363Y165524D01*
X52488Y165416D01*
X52629Y165308D01*
X52787Y165202D01*
X52145Y164444D01*
X51978Y164545D01*
X51639Y164714D01*
X51467Y164782D01*
X51293Y164841D01*
X51117Y164888D01*
X50940Y164925D01*
X50761Y164952D01*
X50580Y164967D01*
X50398Y164973D01*
X51956Y166314D01*
X51965Y166198D01*
D02*
G37*
G36*
X2833Y164450D02*
X2923Y164371D01*
X3015Y164302D01*
X3106Y164241D01*
X3198Y164190D01*
X3290Y164149D01*
X3382Y164116D01*
X3474Y164093D01*
X3567Y164079D01*
X3660Y164075D01*
Y163484D01*
X3567Y163480D01*
X3474Y163466D01*
X3382Y163443D01*
X3290Y163410D01*
X3198Y163369D01*
X3106Y163318D01*
X3015Y163258D01*
X2923Y163188D01*
X2833Y163110D01*
X2742Y163022D01*
Y164537D01*
X2833Y164450D01*
D02*
G37*
G36*
X-16065Y164056D02*
X-15974Y163977D01*
X-15883Y163908D01*
X-15791Y163848D01*
X-15700Y163797D01*
X-15608Y163755D01*
X-15516Y163723D01*
X-15423Y163700D01*
X-15331Y163686D01*
X-15238Y163681D01*
Y163091D01*
X-15331Y163086D01*
X-15423Y163072D01*
X-15516Y163049D01*
X-15608Y163016D01*
X-15700Y162975D01*
X-15791Y162924D01*
X-15883Y162864D01*
X-15974Y162794D01*
X-16065Y162716D01*
X-16156Y162628D01*
Y164144D01*
X-16065Y164056D01*
D02*
G37*
G36*
X-48068Y177891D02*
X-46845Y177385D01*
X-45744Y176649D01*
X-45276Y176181D01*
X-44787Y175738D01*
X-43691Y175006D01*
X-42474Y174502D01*
X-41182Y174245D01*
X-40523Y174213D01*
X56943D01*
X60551Y170604D01*
X61579Y169816D01*
X62777Y169320D01*
X64061Y169150D01*
X65142D01*
Y167429D01*
X69095D01*
Y166929D01*
X69595D01*
Y163961D01*
X72835D01*
Y162402D01*
X59075D01*
X52953Y166297D01*
Y169882D01*
X45079D01*
Y163976D01*
X50993D01*
X52279Y163158D01*
X52059Y162402D01*
X19315D01*
X13583Y165994D01*
Y169882D01*
X5709D01*
Y165084D01*
X3587D01*
X3139Y165532D01*
X2380Y165847D01*
X1557D01*
X798Y165532D01*
X216Y164950D01*
X-98Y164191D01*
Y163368D01*
X-24Y163189D01*
X-550Y162402D01*
X-1181D01*
X-1828Y162739D01*
X-1828D01*
X-2842Y163570D01*
X-3998Y164188D01*
X-5253Y164569D01*
X-5693Y164612D01*
Y166429D01*
X-13598D01*
Y164690D01*
X-15311D01*
X-15758Y165138D01*
X-16518Y165453D01*
X-17340D01*
X-18100Y165138D01*
X-18681Y164557D01*
X-18996Y163797D01*
Y162975D01*
X-19379Y162402D01*
X-20055D01*
X-25787Y165994D01*
Y169882D01*
X-33661D01*
Y163976D01*
X-27482D01*
X-26177Y163158D01*
X-26394Y162402D01*
X-59425D01*
X-65158Y165994D01*
Y169882D01*
X-73032D01*
Y163976D01*
X-66852D01*
X-65547Y163158D01*
X-65764Y162402D01*
X-72835D01*
X-73219Y162364D01*
X-73928Y162070D01*
X-74471Y161527D01*
X-74765Y160817D01*
X-74803Y160433D01*
Y151284D01*
X-74917Y150714D01*
X-75139Y150176D01*
X-75462Y149692D01*
X-75874Y149281D01*
X-76357Y148958D01*
X-76895Y148735D01*
X-77465Y148622D01*
X-78148D01*
X-78871Y148922D01*
X-79425Y149476D01*
X-79724Y150199D01*
Y161417D01*
X-79762Y161801D01*
X-80056Y162511D01*
X-80599Y163054D01*
X-81309Y163348D01*
X-81693Y163386D01*
X-83920D01*
X-84433Y163961D01*
Y166429D01*
X-92339D01*
Y165561D01*
X-93126Y165262D01*
X-93412Y165584D01*
X-93504Y166048D01*
Y169776D01*
X-93315Y170727D01*
X-93181Y171051D01*
X-92729Y171896D01*
X-91773Y173061D01*
X-91720Y173114D01*
X-90914Y173653D01*
X-90018Y174023D01*
X-89067Y174213D01*
X-63807D01*
X-63149Y174245D01*
X-61857Y174502D01*
X-60639Y175006D01*
X-59544Y175738D01*
X-59055Y176181D01*
X-58587Y176649D01*
X-57486Y177385D01*
X-56263Y177891D01*
X-54965Y178150D01*
X-49366D01*
X-48068Y177891D01*
D02*
G37*
G36*
X-12599Y156541D02*
X-12394Y156441D01*
X-12290Y156400D01*
X-12185Y156366D01*
X-12079Y156337D01*
X-11972Y156315D01*
X-11863Y156300D01*
X-11754Y156290D01*
X-11643Y156287D01*
X-12586Y155484D01*
X-12591Y155554D01*
X-12606Y155622D01*
X-12631Y155691D01*
X-12666Y155758D01*
X-12711Y155824D01*
X-12767Y155890D01*
X-12832Y155955D01*
X-12907Y156020D01*
X-12992Y156084D01*
X-13087Y156147D01*
X-12699Y156601D01*
X-12599Y156541D01*
D02*
G37*
G36*
X-51969D02*
X-51764Y156441D01*
X-51660Y156400D01*
X-51555Y156366D01*
X-51449Y156337D01*
X-51342Y156315D01*
X-51233Y156300D01*
X-51124Y156290D01*
X-51013Y156287D01*
X-51956Y155484D01*
X-51961Y155554D01*
X-51977Y155622D01*
X-52002Y155691D01*
X-52037Y155758D01*
X-52082Y155824D01*
X-52137Y155890D01*
X-52202Y155955D01*
X-52277Y156020D01*
X-52362Y156084D01*
X-52457Y156147D01*
X-52070Y156601D01*
X-51969Y156541D01*
D02*
G37*
G36*
X26771Y156541D02*
X26976Y156441D01*
X27080Y156400D01*
X27185Y156366D01*
X27291Y156337D01*
X27398Y156315D01*
X27507Y156300D01*
X27616Y156290D01*
X27727Y156287D01*
X26784Y155484D01*
X26779Y155554D01*
X26764Y155622D01*
X26739Y155691D01*
X26704Y155758D01*
X26659Y155824D01*
X26603Y155890D01*
X26539Y155955D01*
X26463Y156020D01*
X26378Y156084D01*
X26283Y156147D01*
X26671Y156601D01*
X26771Y156541D01*
D02*
G37*
G36*
X66133Y156715D02*
X66472Y156546D01*
X66644Y156477D01*
X66818Y156419D01*
X66993Y156372D01*
X67171Y156335D01*
X67349Y156308D01*
X67530Y156292D01*
X67713Y156287D01*
X66154Y154946D01*
X66145Y155062D01*
X66120Y155177D01*
X66079Y155291D01*
X66021Y155404D01*
X65946Y155516D01*
X65855Y155626D01*
X65747Y155736D01*
X65622Y155844D01*
X65481Y155951D01*
X65323Y156058D01*
X65966Y156816D01*
X66133Y156715D01*
D02*
G37*
G36*
X37497Y140090D02*
X37581Y140019D01*
X37664Y139956D01*
X37748Y139902D01*
X37831Y139856D01*
X37915Y139819D01*
X37998Y139789D01*
X38082Y139769D01*
X38165Y139756D01*
X38249Y139752D01*
X37414Y138917D01*
X37409Y139000D01*
X37397Y139084D01*
X37376Y139167D01*
X37347Y139251D01*
X37309Y139334D01*
X37263Y139418D01*
X37209Y139501D01*
X37146Y139585D01*
X37075Y139668D01*
X36996Y139752D01*
X37414Y140169D01*
X37497Y140090D01*
D02*
G37*
%LPC*%
G36*
X-84433Y169898D02*
X-87886D01*
Y167429D01*
X-84433D01*
Y169898D01*
D02*
G37*
G36*
X-88886D02*
X-92339D01*
Y167429D01*
X-88886D01*
Y169898D01*
D02*
G37*
G36*
X33677Y169898D02*
X30224D01*
Y167429D01*
X33677D01*
Y169898D01*
D02*
G37*
G36*
X29224D02*
X25772D01*
Y167429D01*
X29224D01*
Y169898D01*
D02*
G37*
G36*
X-5693D02*
X-9146D01*
Y167429D01*
X-5693D01*
Y169898D01*
D02*
G37*
G36*
X-10146D02*
X-13598D01*
Y167429D01*
X-10146D01*
Y169898D01*
D02*
G37*
G36*
X-45063D02*
X-48516D01*
Y167429D01*
X-45063D01*
Y169898D01*
D02*
G37*
G36*
X-49516D02*
X-52969D01*
Y167429D01*
X-49516D01*
Y169898D01*
D02*
G37*
G36*
X33677Y166429D02*
X30224D01*
Y163961D01*
X33677D01*
Y166429D01*
D02*
G37*
G36*
X29224D02*
X25772D01*
Y163961D01*
X29224D01*
Y166429D01*
D02*
G37*
G36*
X-45063D02*
X-48516D01*
Y163961D01*
X-45063D01*
Y166429D01*
D02*
G37*
G36*
X-49516D02*
X-52969D01*
Y163961D01*
X-49516D01*
Y166429D01*
D02*
G37*
G36*
X68594Y166429D02*
X65142D01*
Y163961D01*
X68594D01*
Y166429D01*
D02*
G37*
%LPD*%
G36*
X-211649Y166211D02*
X-211402Y166028D01*
X-211134Y165866D01*
X-210847Y165727D01*
X-210539Y165609D01*
X-210211Y165514D01*
X-209863Y165441D01*
X-209494Y165390D01*
X-209106Y165361D01*
X-208697Y165354D01*
X-212205Y161846D01*
X-212211Y162255D01*
X-212240Y162644D01*
X-212291Y163012D01*
X-212365Y163361D01*
X-212460Y163689D01*
X-212577Y163996D01*
X-212717Y164284D01*
X-212878Y164551D01*
X-213062Y164798D01*
X-213268Y165025D01*
X-211876Y166417D01*
X-211649Y166211D01*
D02*
G37*
G36*
X-88836Y152368D02*
X-88886Y152351D01*
X-88930Y152321D01*
X-88968Y152280D01*
X-89001Y152227D01*
X-89028Y152162D01*
X-89048Y152085D01*
X-89063Y151996D01*
X-89066Y151963D01*
X-89056Y151900D01*
X-89033Y151807D01*
X-89001Y151715D01*
X-88959Y151623D01*
X-88908Y151531D01*
X-88848Y151440D01*
X-88779Y151349D01*
X-88700Y151258D01*
X-88612Y151167D01*
X-90128D01*
X-90040Y151258D01*
X-89961Y151349D01*
X-89892Y151440D01*
X-89832Y151531D01*
X-89781Y151623D01*
X-89739Y151715D01*
X-89707Y151807D01*
X-89684Y151900D01*
X-89674Y151963D01*
X-89677Y151996D01*
X-89692Y152085D01*
X-89713Y152162D01*
X-89739Y152227D01*
X-89772Y152280D01*
X-89810Y152321D01*
X-89854Y152351D01*
X-89904Y152368D01*
X-89961Y152374D01*
X-88779D01*
X-88836Y152368D01*
D02*
G37*
G36*
X-97734Y151831D02*
X-97725Y151711D01*
X-97710Y151598D01*
X-97688Y151491D01*
X-97659Y151390D01*
X-97623Y151295D01*
X-97581Y151207D01*
X-97532Y151126D01*
X-97477Y151050D01*
X-97414Y150981D01*
X-97832Y150564D01*
X-97901Y150626D01*
X-97976Y150682D01*
X-98058Y150731D01*
X-98146Y150773D01*
X-98240Y150809D01*
X-98341Y150838D01*
X-98448Y150860D01*
X-98562Y150875D01*
X-98682Y150884D01*
X-98808Y150886D01*
X-97736Y151958D01*
X-97734Y151831D01*
D02*
G37*
G36*
X-89501Y143075D02*
X-89426Y143019D01*
X-89344Y142970D01*
X-89256Y142928D01*
X-89161Y142892D01*
X-89061Y142863D01*
X-88953Y142841D01*
X-88840Y142826D01*
X-88720Y142817D01*
X-88594Y142815D01*
X-89665Y141743D01*
X-89667Y141869D01*
X-89676Y141989D01*
X-89692Y142103D01*
X-89714Y142210D01*
X-89743Y142311D01*
X-89778Y142405D01*
X-89820Y142493D01*
X-89869Y142575D01*
X-89925Y142650D01*
X-89987Y142719D01*
X-89570Y143137D01*
X-89501Y143075D01*
D02*
G37*
G36*
X-64291Y140868D02*
X-64369Y140777D01*
X-64439Y140686D01*
X-64499Y140595D01*
X-64550Y140503D01*
X-64591Y140411D01*
X-64624Y140319D01*
X-64647Y140226D01*
X-64656Y140163D01*
X-64653Y140130D01*
X-64639Y140041D01*
X-64618Y139964D01*
X-64591Y139899D01*
X-64559Y139846D01*
X-64521Y139805D01*
X-64476Y139775D01*
X-64426Y139758D01*
X-64370Y139752D01*
X-65551D01*
X-65495Y139758D01*
X-65445Y139775D01*
X-65401Y139805D01*
X-65362Y139846D01*
X-65330Y139899D01*
X-65303Y139964D01*
X-65282Y140041D01*
X-65268Y140130D01*
X-65265Y140163D01*
X-65274Y140226D01*
X-65298Y140319D01*
X-65330Y140411D01*
X-65372Y140503D01*
X-65422Y140595D01*
X-65483Y140686D01*
X-65552Y140777D01*
X-65631Y140868D01*
X-65719Y140959D01*
X-64203D01*
X-64291Y140868D01*
D02*
G37*
%LPC*%
G36*
X552946Y-125099D02*
X544929D01*
Y-125385D01*
Y-125672D01*
Y-125958D01*
Y-126244D01*
Y-126531D01*
X544643D01*
Y-126817D01*
Y-127103D01*
Y-127390D01*
Y-127676D01*
Y-127962D01*
Y-128249D01*
X544357D01*
Y-128535D01*
Y-128821D01*
Y-129108D01*
Y-129394D01*
Y-129680D01*
Y-129966D01*
X544070D01*
Y-130253D01*
Y-130539D01*
Y-130825D01*
Y-131112D01*
Y-131398D01*
Y-131684D01*
X543784D01*
Y-131971D01*
Y-132257D01*
Y-132543D01*
Y-132830D01*
Y-133116D01*
Y-133402D01*
Y-133689D01*
X543498D01*
Y-133975D01*
Y-134261D01*
Y-134547D01*
Y-134834D01*
Y-135120D01*
Y-135406D01*
X543211D01*
Y-135693D01*
Y-135979D01*
Y-136265D01*
X550369D01*
Y-135979D01*
X551514D01*
Y-135693D01*
X552087D01*
Y-135406D01*
X552373D01*
Y-135120D01*
X552660D01*
Y-134834D01*
X552946D01*
Y-134547D01*
X553232D01*
Y-134261D01*
Y-133975D01*
X553519D01*
Y-133689D01*
Y-133402D01*
X553805D01*
Y-133116D01*
Y-132830D01*
X554091D01*
Y-132543D01*
Y-132257D01*
Y-131971D01*
Y-131684D01*
X554378D01*
Y-131398D01*
Y-131112D01*
Y-130825D01*
Y-130539D01*
Y-130253D01*
X554664D01*
Y-129966D01*
Y-129680D01*
Y-129394D01*
Y-129108D01*
Y-128821D01*
Y-128535D01*
Y-128249D01*
Y-127962D01*
Y-127676D01*
Y-127390D01*
Y-127103D01*
X554378D01*
Y-126817D01*
Y-126531D01*
X554091D01*
Y-126244D01*
Y-125958D01*
X553805D01*
Y-125672D01*
X553519D01*
Y-125385D01*
X552946D01*
Y-125099D01*
D02*
G37*
%LPD*%
D10*
X-218504Y330709D02*
G03*
X-234252Y314961I0J-15748D01*
G01*
X-218504Y326772D02*
G03*
X-230315Y314961I0J-11811D01*
G01*
X-211024Y323228D02*
G03*
X-214567Y326772I-3543J0D01*
G01*
X-230315Y311024D02*
G03*
X-226772Y307480I3543J0D01*
G01*
X-222835D02*
G03*
X-211024Y319291I0J11811D01*
G01*
X-211024Y323228D02*
X-211024Y323228D01*
X211024D02*
X211024Y323228D01*
X211024Y319291D02*
G03*
X222835Y307480I11811J0D01*
G01*
X226772D02*
G03*
X230315Y311024I0J3543D01*
G01*
X214567Y326772D02*
G03*
X211024Y323228I0J-3543D01*
G01*
X230315Y314961D02*
G03*
X218504Y326772I-11811J0D01*
G01*
X-234252Y125984D02*
G03*
X-226378Y118110I7874J0D01*
G01*
X226378Y118110D02*
G03*
X234252Y125984I0J7874D01*
G01*
X234252Y314961D02*
G03*
X218504Y330709I-15748J0D01*
G01*
X-218504D02*
X218504D01*
X-218504Y326772D02*
X-214567D01*
X-211024Y319291D02*
Y323228D01*
X-226772Y307480D02*
X-222835D01*
X-230315Y311024D02*
Y314961D01*
X230315Y311024D02*
Y314961D01*
X222835Y307480D02*
X226772D01*
X211024Y319291D02*
Y323228D01*
X214567Y326772D02*
X218504D01*
X154449Y118110D02*
X154449D01*
X-226378Y118110D02*
X226378Y118110D01*
X-234252Y314961D02*
X-234252Y125984D01*
X234252Y314961D02*
X234252Y125984D01*
D11*
X-132283Y302362D02*
G03*
X-135984Y298661I0J-3701D01*
G01*
X-105323Y302362D02*
G03*
X-98252Y305291I0J10000D01*
G01*
X-3053Y218898D02*
G03*
X4018Y221827I0J10000D01*
G01*
X-10031Y222835D02*
G03*
X-14784Y224803I-4752J-4752D01*
G01*
X124372Y267754D02*
G03*
X114857Y271695I-9515J-9515D01*
G01*
X91953Y275101D02*
G03*
X91965Y275101I576J13941D01*
G01*
X127195Y271230D02*
G03*
X115230Y276188I-11969J-11969D01*
G01*
X83062Y278793D02*
G03*
X91953Y275101I9467J10249D01*
G01*
X142717Y245267D02*
G03*
X139788Y252338I-10000J0D01*
G01*
X80287Y276744D02*
G03*
X92478Y271695I12190J12190D01*
G01*
X81882Y278351D02*
G03*
X92476Y273959I10593J10577D01*
G01*
X90823Y277379D02*
G03*
X92380Y277271I1572J11356D01*
G01*
X90673Y276307D02*
G03*
X92395Y276188I1722J12429D01*
G01*
X84923Y280200D02*
G03*
X86525Y278898I7071J7071D01*
G01*
X81312Y277390D02*
G03*
X92204Y272876I10892J10885D01*
G01*
X86525Y278898D02*
G03*
X90823Y277379I6003J10144D01*
G01*
X84469Y279008D02*
G03*
X84473Y279005I7926J9727D01*
G01*
D02*
G03*
X90671Y276307I8056J10037D01*
G01*
X101925Y270612D02*
G03*
X100222Y269907I0J-2408D01*
G01*
X96361Y267717D02*
G03*
X99213Y268898I0J4033D01*
G01*
X122984Y267567D02*
G03*
X122952Y267597I-419J-416D01*
G01*
D02*
G03*
X114857Y270612I-8095J-9358D01*
G01*
X115547Y275041D02*
G03*
X115613Y275035I86J584D01*
G01*
X127572Y272398D02*
G03*
X115819Y277271I-11759J-11753D01*
G01*
X83523Y279863D02*
G03*
X84469Y279008I8872J8872D01*
G01*
X125788Y269531D02*
G03*
X115102Y273959I-10690J-10690D01*
G01*
X125121Y268667D02*
G03*
X114960Y272876I-10161J-10161D01*
G01*
X126517Y270334D02*
G03*
X115616Y275035I-11367J-11367D01*
G01*
D02*
G03*
X115613Y275035I-467J-16069D01*
G01*
X81145Y283977D02*
G03*
X70349Y288449I-10792J-10787D01*
G01*
X80087Y283299D02*
G03*
X70266Y287367I-9820J-9820D01*
G01*
X8471Y278042D02*
G03*
X15251Y280850I0J9589D01*
G01*
X28022Y288449D02*
G03*
X19192Y284791I0J-12486D01*
G01*
X-74973Y278900D02*
G03*
X-72900Y278042I2073J2073D01*
G01*
X28101Y287367D02*
G03*
X20139Y284069I0J-11260D01*
G01*
X160107Y235212D02*
G03*
X167178Y232283I7071J7071D01*
G01*
X180118Y209528D02*
G03*
X177189Y216599I-10000J0D01*
G01*
X197244Y242520D02*
G03*
X195149Y247578I-7154J0D01*
G01*
X190144Y252583D02*
G03*
X183073Y255512I-7071J-7071D01*
G01*
X142839Y257131D02*
G03*
X146749Y255512I3909J3909D01*
G01*
X142347Y256079D02*
G03*
X149418Y253150I7071J7071D01*
G01*
X73018Y280078D02*
G03*
X73014Y280080I-220J-548D01*
G01*
Y280080D02*
G03*
X70734Y280511I-2280J-5804D01*
G01*
X73018Y280078D02*
G03*
X73020Y280077I216J550D01*
G01*
X75156Y278673D02*
G03*
X73020Y280077I-4794J-4963D01*
G01*
X27994Y280511D02*
G03*
X24899Y279229I0J-4377D01*
G01*
X28101Y284055D02*
G03*
X22480Y281727I0J-7948D01*
G01*
X77735Y280966D02*
G03*
X70289Y284055I-7452J-7447D01*
G01*
X28101Y286220D02*
G03*
X20949Y283258I0J-10114D01*
G01*
X78920Y282844D02*
G03*
X70537Y286220I-8386J-8729D01*
G01*
X76007Y279355D02*
G03*
X70362Y281693I-5644J-5644D01*
G01*
X28101D02*
G03*
X24151Y280056I0J-5586D01*
G01*
X28101Y282874D02*
G03*
X23316Y280891I0J-6767D01*
G01*
X78471Y281762D02*
G03*
X70322Y285137I-8150J-8150D01*
G01*
X76842Y280190D02*
G03*
X70362Y282874I-6480J-6480D01*
G01*
X28101Y285137D02*
G03*
X21715Y282492I0J-9031D01*
G01*
X83183Y270645D02*
G03*
X90254Y267717I7071J7071D01*
G01*
X82746Y272614D02*
G03*
X89817Y269685I7071J7071D01*
G01*
X-74973Y278900D02*
G03*
X-76487Y279528I-1514J-1514D01*
G01*
X-78850D02*
G03*
X-82316Y278092I0J-4901D01*
G01*
X57087Y262016D02*
G03*
X58860Y257735I6054J-0D01*
G01*
X66816Y249779D02*
G03*
X73887Y246850I7071J7071D01*
G01*
X134252Y220079D02*
G03*
X137402Y223228I0J3150D01*
G01*
Y249008D02*
G03*
X134473Y256079I-10000J0D01*
G01*
X8775Y270165D02*
G03*
X20827Y275157I0J17044D01*
G01*
X-79355Y232504D02*
G03*
X-86426Y235433I-7071J-7071D01*
G01*
X-72515Y225665D02*
G03*
X-72214Y225376I7071J7071D01*
G01*
X-615Y223449D02*
G03*
X-7686Y226378I-7071J-7071D01*
G01*
X-20608D02*
G03*
X-24409Y224803I0J-5377D01*
G01*
X-72220Y225370D02*
G03*
X-65149Y222441I7071J7071D01*
G01*
X-30112D02*
G03*
X-24409Y224803I0J8065D01*
G01*
X-78961Y230142D02*
G03*
X-86032Y233071I-7071J-7071D01*
G01*
X-18476Y224803D02*
G03*
X-23228Y222835I0J-6721D01*
G01*
X-27030Y221260D02*
G03*
X-23228Y222835I0J5377D01*
G01*
X-73795Y221827D02*
G03*
X-66724Y218898I7071J7071D01*
G01*
X-77804Y225835D02*
G03*
X-84817Y228740I-7013J-7013D01*
G01*
X-78567Y228173D02*
G03*
X-85638Y231102I-7071J-7071D01*
G01*
X-24153Y220079D02*
G03*
X-17500Y222835I0J9409D01*
G01*
X-73401Y223008D02*
G03*
X-66330Y220079I7071J7071D01*
G01*
X-73401Y224583D02*
G03*
X-65380Y221260I8021J8021D01*
G01*
X8892Y273622D02*
G03*
X18236Y277482I136J12912D01*
G01*
X8905Y274705D02*
G03*
X17480Y278257I0J12125D01*
G01*
X-75346Y275787D02*
G03*
X-76772Y275197I0J-2016D01*
G01*
X8760Y275787D02*
G03*
X16817Y279125I0J11392D01*
G01*
X-62783Y270165D02*
G03*
X-65680Y268965I0J-4098D01*
G01*
X15748Y230981D02*
G03*
X12819Y238052I-10000J0D01*
G01*
X8862Y276934D02*
G03*
X15933Y279863I0J10000D01*
G01*
X8766Y271260D02*
G03*
X20013Y275919I0J15906D01*
G01*
X8766Y272441D02*
G03*
X19178Y276754I0J14724D01*
G01*
X-75346Y277559D02*
G03*
X-76296Y277953I-950J-950D01*
G01*
X-75346Y277559D02*
G03*
X-73837Y276934I1509J1509D01*
G01*
X-77464Y277953D02*
G03*
X-80315Y276772I0J-4033D01*
G01*
X180118Y249016D02*
G03*
X176792Y250394I-3327J-3327D01*
G01*
X143528Y253323D02*
G03*
X150599Y250394I7071J7071D01*
G01*
X-69338Y274705D02*
G03*
X-74803Y272441I0J-7729D01*
G01*
X-63386Y271260D02*
G03*
X-66233Y270080I0J-4027D01*
G01*
X-70401Y266535D02*
G03*
X-69338Y266976I0J1503D01*
G01*
X-70866Y266535D02*
G03*
X-72714Y265770I0J-2614D01*
G01*
X-64072Y272441D02*
G03*
X-70294Y269864I0J-8798D01*
G01*
X-67064Y273622D02*
G03*
X-70866Y272047I0J-5377D01*
G01*
X4587Y246284D02*
G03*
X-2484Y249213I-7071J-7071D01*
G01*
X3397Y238410D02*
G03*
X-3675Y241339I-7071J-7071D01*
G01*
X72835Y150394D02*
G03*
X77559Y155118I0J4724D01*
G01*
X78255Y156798D02*
G03*
X77559Y155118I1680J-1680D01*
G01*
X22459Y152738D02*
G03*
X26217Y151181I3758J3758D01*
G01*
X29508Y147658D02*
G03*
X24803Y149606I-4705J-4705D01*
G01*
X21443Y150998D02*
G03*
X24803Y149606I3360J3360D01*
G01*
X14740Y157701D02*
G03*
X7669Y160630I-7071J-7071D01*
G01*
X-2756Y161811D02*
G03*
X95Y160630I2851J2851D01*
G01*
X-2756Y161811D02*
G03*
X-6558Y163386I-3802J-3802D01*
G01*
X61638Y153323D02*
G03*
X68709Y150394I7071J7071D01*
G01*
X59622Y155339D02*
G03*
X52551Y158268I-7071J-7071D01*
G01*
X45874D02*
G03*
X38803Y155339I0J-10000D01*
G01*
X32419Y151181D02*
G03*
X36220Y152756I0J5377D01*
G01*
X14346Y160851D02*
G03*
X7275Y163779I-7071J-7071D01*
G01*
X-61811Y285039D02*
G03*
X-58009Y283465I3802J3802D01*
G01*
X66197Y197188D02*
G03*
X69005Y196025I2808J2808D01*
G01*
X-135984Y283465D02*
Y298661D01*
X-132283Y302362D02*
X-105323D01*
X-98252Y305291D02*
X-95276Y308268D01*
X4018Y221827D02*
X5026Y222835D01*
X-18476Y224803D02*
X-14784D01*
X-190945Y234252D02*
Y254724D01*
X92478Y271695D02*
X114857D01*
X92204Y272876D02*
X114960D01*
X78471Y281762D02*
X81882Y278351D01*
X78920Y282844D02*
X83062Y278793D01*
X83062D01*
X90671Y276307D02*
X90673Y276307D01*
X92751Y277271D02*
X115819Y277271D01*
X76842Y280190D02*
X80287Y276744D01*
X124372Y267754D02*
X139788Y252338D01*
X92380Y277271D02*
X92751D01*
X92395Y276188D02*
X115230Y276188D01*
X77735Y280966D02*
X81312Y277390D01*
X92476Y273959D02*
X115102D01*
X83968Y281154D02*
X84923Y280200D01*
X99213Y268898D02*
X100222Y269907D01*
X90811Y267717D02*
X96361D01*
X101925Y270612D02*
X114857D01*
X122984Y267567D02*
X124923Y265628D01*
X124915Y265636D02*
X134473Y256079D01*
X113961Y275041D02*
X115547Y275041D01*
X91965Y275101D02*
X113961Y275041D01*
X81145Y283977D02*
X81145D01*
X83968Y281154D01*
X80087Y283299D02*
X83523Y279863D01*
X15251Y280850D02*
X19192Y284791D01*
X-72900Y278042D02*
X8471D01*
X28022Y288449D02*
X70349D01*
X28101Y287367D02*
X70266D01*
X15933Y279863D02*
X20139Y284069D01*
X127195Y271230D02*
X142347Y256079D01*
X126517Y270334D02*
X143528Y253323D01*
X125788Y269531D02*
X160107Y235212D01*
X125121Y268667D02*
X177189Y216599D01*
X127572Y272398D02*
X142839Y257131D01*
X190144Y252583D02*
X195149Y247578D01*
X146749Y255512D02*
X183073D01*
X150599Y250394D02*
X176792D01*
X75160Y278669D02*
X83183Y270645D01*
X27994Y280511D02*
X70734D01*
X28101Y284055D02*
X70289Y284055D01*
X28101Y281693D02*
X70362D01*
X28101Y282874D02*
X70362D01*
X28101Y286220D02*
X70537Y286220D01*
X75156Y278673D02*
X75160Y278669D01*
X28101Y285137D02*
X70322D01*
X90254Y267717D02*
X90811D01*
X81842Y273518D02*
X82746Y272614D01*
X89817Y269685D02*
X96063D01*
X76007Y279355D02*
X81842Y273519D01*
X90811Y267717D02*
X90811Y267717D01*
X-78850Y279528D02*
X-76487D01*
X-83858Y276550D02*
X-82316Y278092D01*
X-106299Y253543D02*
Y261811D01*
X-103150Y251181D02*
Y261811D01*
X-101181Y249213D02*
Y259842D01*
X-29232Y265354D02*
X-3937D01*
X-26597Y267323D02*
X-5906D01*
X-58009Y283465D02*
X-28346D01*
X-52082Y276934D02*
X8862D01*
X-65149Y222441D02*
X-30112D01*
X-65380Y221260D02*
X-27030D01*
X-66330Y220079D02*
X-24153D01*
X-66724Y218898D02*
X-3053D01*
X-78961Y230142D02*
X-73401Y224583D01*
X62581Y200805D02*
X66197Y197188D01*
X62581Y200805D02*
Y201229D01*
X57087Y262016D02*
Y263779D01*
X58860Y257735D02*
X66816Y249779D01*
X73887Y246850D02*
X78740D01*
X137402Y223228D02*
Y249008D01*
X20827Y275157D02*
X24899Y279229D01*
X-62783Y270165D02*
X8775D01*
X-218898Y242126D02*
Y247638D01*
X63386Y259055D02*
X77165D01*
X-615Y223449D02*
X-1Y222835D01*
X-20608Y226378D02*
X-7686D01*
X-79355Y232504D02*
X-72515Y225665D01*
X-72220Y225370D01*
X-90158Y235433D02*
X-86426D01*
X-87008Y233071D02*
X-86032D01*
X-87008Y228740D02*
X-84817D01*
X-77804Y225835D02*
X-73795Y221827D01*
X-90158Y231102D02*
X-85638D01*
X-78567Y228173D02*
X-73401Y223008D01*
X18257Y277503D02*
X22480Y281727D01*
X8888Y273622D02*
X8892Y273622D01*
X7424Y273622D02*
X8888D01*
X18236Y277482D02*
X18257Y277503D01*
X8902Y274705D02*
X8905Y274705D01*
X17480Y278257D02*
X21715Y282492D01*
X-69338Y274705D02*
X8902D01*
X16817Y279125D02*
X20949Y283258D01*
X-75346Y275787D02*
X8757D01*
X8760Y275787D01*
X4587Y246284D02*
X12819Y238052D01*
X15748Y217699D02*
Y230981D01*
X-64173Y287402D02*
X-61811Y285039D01*
X-64173Y287402D02*
X-64173D01*
X-16142Y285433D02*
X-10506D01*
X-63386Y271260D02*
X8766D01*
X20013Y275919D02*
X24151Y280056D01*
X6975Y272441D02*
X8766D01*
X19178Y276754D02*
X23316Y280891D01*
X149418Y253150D02*
X150000D01*
X-77464Y277953D02*
X-76296D01*
X-73837Y276934D02*
X-52082D01*
X167178Y232283D02*
X215551D01*
X-69338Y266976D02*
X-66233Y270080D01*
X-70866Y266535D02*
X-70401D01*
X-73228Y265256D02*
X-72714Y265770D01*
X-64072Y272441D02*
X6975Y272441D01*
X142717Y232283D02*
Y245267D01*
X-71260Y268898D02*
X-70294Y269864D01*
X-61093Y273622D02*
X7424Y273622D01*
X-67064Y273622D02*
X-61093D01*
X180118Y191929D02*
Y209528D01*
X-26772Y245669D02*
X-7874D01*
X-25197Y249213D02*
X-2484D01*
X3397Y238410D02*
X7500Y234306D01*
X-7480Y241339D02*
X-3675D01*
X-98819Y151969D02*
X-88583Y141732D01*
X-89370Y154331D02*
X-88386D01*
X-89370Y150394D02*
Y154331D01*
X-137469Y121327D02*
Y128347D01*
X68709Y150394D02*
X72835D01*
X78255Y156798D02*
X88386Y166929D01*
X26217Y151181D02*
X32419D01*
X14346Y160851D02*
X22459Y152738D01*
X29508Y147658D02*
X41339Y135827D01*
X14740Y157701D02*
X21443Y150998D01*
X95Y160630D02*
X7669D01*
X-16929Y163386D02*
X-6558D01*
X59622Y155339D02*
X61638Y153323D01*
X45874Y158268D02*
X52551D01*
X36220Y152756D02*
X38803Y155339D01*
X1969Y163779D02*
X7275D01*
X-64961Y135827D02*
Y141732D01*
X-70472Y264173D02*
X-65680Y268965D01*
X12205Y218110D02*
Y223622D01*
X61417Y261811D02*
X72835D01*
X-51673Y156004D02*
X-49016Y154331D01*
X-66437Y165256D02*
X-51673Y156004D01*
X-69095Y166929D02*
X-66437Y165256D01*
X-12303Y156004D02*
X-9646Y154331D01*
X-27067Y165256D02*
X-12303Y156004D01*
X-29724Y166929D02*
X-27067Y165256D01*
X27067Y156004D02*
X29724Y154331D01*
X12303Y165256D02*
X27067Y156004D01*
X9646Y166929D02*
X12303Y165256D01*
D12*
X863787Y-202012D02*
Y-162642D01*
X706307Y-123272D02*
X981897D01*
X706307Y-162642D02*
X981897D01*
X509456Y-202012D02*
X981897D01*
X509456Y-83902D02*
X981897D01*
X509456Y-241382D02*
Y-83902D01*
X706307Y-241382D02*
Y-83902D01*
X-671646Y927909D02*
X981897D01*
Y-241382D02*
Y927909D01*
X-671646Y-241382D02*
Y927909D01*
Y-241382D02*
X981897D01*
X720085Y-227604D02*
X716149D01*
Y-230556D01*
X718117D01*
X716149D01*
Y-233508D01*
X722053Y-229572D02*
Y-233508D01*
Y-231540D01*
X723037Y-230556D01*
X724021Y-229572D01*
X725005D01*
X727956Y-233508D02*
X729924D01*
X728940D01*
Y-229572D01*
X727956D01*
X732876Y-228588D02*
X733860Y-227604D01*
X735828D01*
X736812Y-228588D01*
Y-229572D01*
X735828Y-230556D01*
X734844D01*
X735828D01*
X736812Y-231540D01*
Y-232524D01*
X735828Y-233508D01*
X733860D01*
X732876Y-232524D01*
X738780Y-227604D02*
Y-233508D01*
X741732D01*
X742716Y-232524D01*
Y-228588D01*
X741732Y-227604D01*
X738780D01*
X744683Y-234492D02*
X748619D01*
X754523Y-233508D02*
X750587D01*
X754523Y-229572D01*
Y-228588D01*
X753539Y-227604D01*
X751571D01*
X750587Y-228588D01*
X756491D02*
X757475Y-227604D01*
X759442D01*
X760426Y-228588D01*
Y-232524D01*
X759442Y-233508D01*
X757475D01*
X756491Y-232524D01*
Y-228588D01*
X766330Y-233508D02*
X762394D01*
X766330Y-229572D01*
Y-228588D01*
X765346Y-227604D01*
X763378D01*
X762394Y-228588D01*
X772233Y-227604D02*
X770266Y-228588D01*
X768298Y-230556D01*
Y-232524D01*
X769282Y-233508D01*
X771250D01*
X772233Y-232524D01*
Y-231540D01*
X771250Y-230556D01*
X768298D01*
X774201Y-234492D02*
X778137D01*
X780105Y-228588D02*
X781089Y-227604D01*
X783057D01*
X784041Y-228588D01*
Y-232524D01*
X783057Y-233508D01*
X781089D01*
X780105Y-232524D01*
Y-228588D01*
X789944Y-233508D02*
X786009D01*
X789944Y-229572D01*
Y-228588D01*
X788960Y-227604D01*
X786993D01*
X786009Y-228588D01*
X791912Y-233508D02*
Y-232524D01*
X792896D01*
Y-233508D01*
X791912D01*
X796832D02*
Y-227604D01*
X799784D01*
X800768Y-228588D01*
Y-230556D01*
X799784Y-231540D01*
X796832D01*
X806671Y-229572D02*
X803719D01*
X802735Y-230556D01*
Y-232524D01*
X803719Y-233508D01*
X806671D01*
X808639Y-227604D02*
Y-233508D01*
X811591D01*
X812575Y-232524D01*
Y-231540D01*
Y-230556D01*
X811591Y-229572D01*
X808639D01*
X814543Y-227604D02*
Y-233508D01*
X817494D01*
X818478Y-232524D01*
Y-228588D01*
X817494Y-227604D01*
X814543D01*
X821430Y-233508D02*
X823398D01*
X824382Y-232524D01*
Y-230556D01*
X823398Y-229572D01*
X821430D01*
X820446Y-230556D01*
Y-232524D01*
X821430Y-233508D01*
X830286Y-229572D02*
X827334D01*
X826350Y-230556D01*
Y-232524D01*
X827334Y-233508D01*
X830286D01*
D13*
X727960Y-140993D02*
X737144D01*
X732552D01*
Y-154768D01*
X744031D02*
X748623D01*
X750919Y-152472D01*
Y-147880D01*
X748623Y-145584D01*
X744031D01*
X741735Y-147880D01*
Y-152472D01*
X744031Y-154768D01*
X755511Y-159360D02*
Y-145584D01*
X762398D01*
X764694Y-147880D01*
Y-152472D01*
X762398Y-154768D01*
X755511D01*
X783061Y-140993D02*
Y-154768D01*
X792244D01*
X799132Y-145584D02*
X803723D01*
X806019Y-147880D01*
Y-154768D01*
X799132D01*
X796836Y-152472D01*
X799132Y-150176D01*
X806019D01*
X810611Y-145584D02*
Y-152472D01*
X812907Y-154768D01*
X819794D01*
Y-157064D01*
X817498Y-159360D01*
X815203D01*
X819794Y-154768D02*
Y-145584D01*
X831273Y-154768D02*
X826682D01*
X824386Y-152472D01*
Y-147880D01*
X826682Y-145584D01*
X831273D01*
X833569Y-147880D01*
Y-150176D01*
X824386D01*
X838161Y-145584D02*
Y-154768D01*
Y-150176D01*
X840457Y-147880D01*
X842753Y-145584D01*
X845049D01*
X531110Y-219734D02*
Y-235476D01*
X536358Y-230229D01*
X541605Y-235476D01*
Y-219734D01*
X546853Y-235476D02*
X552101D01*
X549477D01*
Y-224981D01*
X546853D01*
X559972Y-235476D02*
Y-224981D01*
X562596D01*
X565220Y-227605D01*
Y-235476D01*
Y-227605D01*
X567843Y-224981D01*
X570467Y-227605D01*
Y-235476D01*
X575715Y-219734D02*
Y-230229D01*
X580963Y-235476D01*
X586210Y-230229D01*
Y-219734D01*
X601953Y-222357D02*
X599329Y-219734D01*
X594082D01*
X591458Y-222357D01*
Y-232853D01*
X594082Y-235476D01*
X599329D01*
X601953Y-232853D01*
Y-227605D01*
X596705D01*
X885441Y-182987D02*
X888064Y-180364D01*
X893312D01*
X895936Y-182987D01*
Y-193483D01*
X893312Y-196106D01*
X888064D01*
X885441Y-193483D01*
Y-182987D01*
X911679Y-196106D02*
X901184D01*
X911679Y-185611D01*
Y-182987D01*
X909055Y-180364D01*
X903807D01*
X901184Y-182987D01*
X731238Y-196106D02*
X722055D01*
X731238Y-186923D01*
Y-184627D01*
X728942Y-182331D01*
X724351D01*
X722055Y-184627D01*
X735830Y-196106D02*
X740422D01*
X738126D01*
Y-182331D01*
X735830Y-184627D01*
X747309Y-196106D02*
X756493Y-186923D01*
X761084Y-184627D02*
X763380Y-182331D01*
X767972D01*
X770268Y-184627D01*
Y-193811D01*
X767972Y-196106D01*
X763380D01*
X761084Y-193811D01*
Y-184627D01*
X781747Y-196106D02*
Y-182331D01*
X774859Y-189219D01*
X784043D01*
X788634Y-196106D02*
X797818Y-186923D01*
X811593Y-196106D02*
X802409D01*
X811593Y-186923D01*
Y-184627D01*
X809297Y-182331D01*
X804705D01*
X802409Y-184627D01*
X816185D02*
X818480Y-182331D01*
X823072D01*
X825368Y-184627D01*
Y-193811D01*
X823072Y-196106D01*
X818480D01*
X816185Y-193811D01*
Y-184627D01*
X839143Y-196106D02*
X829960D01*
X839143Y-186923D01*
Y-184627D01*
X836847Y-182331D01*
X832255D01*
X829960Y-184627D01*
X852918Y-182331D02*
X848326Y-184627D01*
X843735Y-189219D01*
Y-193811D01*
X846031Y-196106D01*
X850622D01*
X852918Y-193811D01*
Y-191515D01*
X850622Y-189219D01*
X843735D01*
X724545Y-104772D02*
X716149D01*
Y-111069D01*
X720347D01*
X716149D01*
Y-117366D01*
X728744Y-108970D02*
Y-117366D01*
Y-113168D01*
X730843Y-111069D01*
X732942Y-108970D01*
X735041D01*
X741338Y-117366D02*
X745536D01*
X743437D01*
Y-108970D01*
X741338D01*
X751833Y-106871D02*
X753932Y-104772D01*
X758131D01*
X760230Y-106871D01*
Y-108970D01*
X758131Y-111069D01*
X756031D01*
X758131D01*
X760230Y-113168D01*
Y-115267D01*
X758131Y-117366D01*
X753932D01*
X751833Y-115267D01*
X764428Y-104772D02*
Y-117366D01*
X770725D01*
X772824Y-115267D01*
Y-106871D01*
X770725Y-104772D01*
X764428D01*
X789616D02*
Y-117366D01*
X795914D01*
X798013Y-115267D01*
Y-113168D01*
X795914Y-111069D01*
X789616D01*
X795914D01*
X798013Y-108970D01*
Y-106871D01*
X795914Y-104772D01*
X789616D01*
X804310Y-108970D02*
X808508D01*
X810607Y-111069D01*
Y-117366D01*
X804310D01*
X802211Y-115267D01*
X804310Y-113168D01*
X810607D01*
X823201Y-104772D02*
Y-117366D01*
X816904D01*
X814805Y-115267D01*
Y-111069D01*
X816904Y-108970D01*
X823201D01*
X831598Y-121564D02*
X833697D01*
X835796Y-119465D01*
Y-108970D01*
X829498D01*
X827400Y-111069D01*
Y-115267D01*
X829498Y-117366D01*
X835796D01*
X846291D02*
X842093D01*
X839994Y-115267D01*
Y-111069D01*
X842093Y-108970D01*
X846291D01*
X848390Y-111069D01*
Y-113168D01*
X839994D01*
X873579Y-117366D02*
X865183D01*
X873579Y-108970D01*
Y-106871D01*
X871480Y-104772D01*
X867282D01*
X865183Y-106871D01*
X877777D02*
X879876Y-104772D01*
X884074D01*
X886173Y-106871D01*
Y-115267D01*
X884074Y-117366D01*
X879876D01*
X877777Y-115267D01*
Y-106871D01*
X898767Y-117366D02*
X890371D01*
X898767Y-108970D01*
Y-106871D01*
X896668Y-104772D01*
X892470D01*
X890371Y-106871D01*
X911362Y-104772D02*
X907164Y-106871D01*
X902966Y-111069D01*
Y-115267D01*
X905065Y-117366D01*
X909263D01*
X911362Y-115267D01*
Y-113168D01*
X909263Y-111069D01*
X902966D01*
D14*
X-230315Y314961D02*
D03*
D03*
X230315D02*
D03*
D03*
D15*
X74016Y277758D02*
G03*
X70737Y279116I-3279J-3279D01*
G01*
X29418D02*
G03*
X26772Y278020I0J-3742D01*
G01*
X-85649Y177165D02*
G03*
X-95649Y167165I0J-10000D01*
G01*
X-125984Y288189D02*
X-125984Y288189D01*
Y283465D02*
Y288189D01*
X-110236Y320866D02*
Y324803D01*
X110236Y320866D02*
Y324803D01*
X29418Y279116D02*
X70737D01*
X74016Y277758D02*
X86026Y265748D01*
X94882D01*
X-85649Y177165D02*
X-79724D01*
X-95649Y165728D02*
Y167165D01*
X66634Y155807D02*
X69095Y154331D01*
X51476Y165453D02*
X66634Y155807D01*
X49016Y166929D02*
X51476Y165453D01*
X867724Y-174453D02*
Y-166581D01*
X871660D01*
X872972Y-167893D01*
Y-170517D01*
X871660Y-171829D01*
X867724D01*
X870348D02*
X872972Y-174453D01*
X879531D02*
X876908D01*
X875596Y-173141D01*
Y-170517D01*
X876908Y-169205D01*
X879531D01*
X880843Y-170517D01*
Y-171829D01*
X875596D01*
X883467Y-169205D02*
X886091Y-174453D01*
X888715Y-169205D01*
X513393Y-205951D02*
Y-213823D01*
X517329D01*
X518641Y-212511D01*
Y-207263D01*
X517329Y-205951D01*
X513393D01*
X525201Y-213823D02*
X522577D01*
X521265Y-212511D01*
Y-209887D01*
X522577Y-208575D01*
X525201D01*
X526512Y-209887D01*
Y-211199D01*
X521265D01*
X529136Y-213823D02*
X533072D01*
X534384Y-212511D01*
X533072Y-211199D01*
X530448D01*
X529136Y-209887D01*
X530448Y-208575D01*
X534384D01*
X539632Y-216447D02*
X540944D01*
X542255Y-215135D01*
Y-208575D01*
X538320D01*
X537008Y-209887D01*
Y-212511D01*
X538320Y-213823D01*
X542255D01*
X544879D02*
X547503D01*
X546191D01*
Y-208575D01*
X544879D01*
X551439Y-213823D02*
Y-208575D01*
X555375D01*
X556686Y-209887D01*
Y-213823D01*
X563246D02*
X560622D01*
X559310Y-212511D01*
Y-209887D01*
X560622Y-208575D01*
X563246D01*
X564558Y-209887D01*
Y-211199D01*
X559310D01*
X567182Y-208575D02*
Y-213823D01*
Y-211199D01*
X568494Y-209887D01*
X569806Y-208575D01*
X571118D01*
X710244Y-87841D02*
Y-95713D01*
X714180D01*
X715491Y-94401D01*
Y-89153D01*
X714180Y-87841D01*
X710244D01*
X719427Y-95713D02*
X722051D01*
X723363Y-94401D01*
Y-91777D01*
X722051Y-90465D01*
X719427D01*
X718115Y-91777D01*
Y-94401D01*
X719427Y-95713D01*
X731234Y-90465D02*
X727299D01*
X725987Y-91777D01*
Y-94401D01*
X727299Y-95713D01*
X731234D01*
X733858Y-90465D02*
Y-94401D01*
X735170Y-95713D01*
X739106D01*
Y-90465D01*
X741730Y-95713D02*
Y-90465D01*
X743042D01*
X744353Y-91777D01*
Y-95713D01*
Y-91777D01*
X745665Y-90465D01*
X746977Y-91777D01*
Y-95713D01*
X753537D02*
X750913D01*
X749601Y-94401D01*
Y-91777D01*
X750913Y-90465D01*
X753537D01*
X754849Y-91777D01*
Y-93089D01*
X749601D01*
X757473Y-95713D02*
Y-90465D01*
X761408D01*
X762720Y-91777D01*
Y-95713D01*
X766656Y-89153D02*
Y-90465D01*
X765344D01*
X767968D01*
X766656D01*
Y-94401D01*
X767968Y-95713D01*
X710244Y-127211D02*
Y-135083D01*
X715491D01*
X719427Y-129835D02*
X722051D01*
X723363Y-131147D01*
Y-135083D01*
X719427D01*
X718115Y-133771D01*
X719427Y-132459D01*
X723363D01*
X725987Y-129835D02*
Y-133771D01*
X727299Y-135083D01*
X731234D01*
Y-136395D01*
X729922Y-137707D01*
X728611D01*
X731234Y-135083D02*
Y-129835D01*
X737794Y-135083D02*
X735170D01*
X733858Y-133771D01*
Y-131147D01*
X735170Y-129835D01*
X737794D01*
X739106Y-131147D01*
Y-132459D01*
X733858D01*
X741730Y-129835D02*
Y-135083D01*
Y-132459D01*
X743042Y-131147D01*
X744353Y-129835D01*
X745665D01*
X757473Y-135083D02*
Y-127211D01*
X762720Y-135083D01*
Y-127211D01*
X766656Y-129835D02*
X769280D01*
X770592Y-131147D01*
Y-135083D01*
X766656D01*
X765344Y-133771D01*
X766656Y-132459D01*
X770592D01*
X773216Y-135083D02*
Y-129835D01*
X774528D01*
X775839Y-131147D01*
Y-135083D01*
Y-131147D01*
X777151Y-129835D01*
X778463Y-131147D01*
Y-135083D01*
X785023D02*
X782399D01*
X781087Y-133771D01*
Y-131147D01*
X782399Y-129835D01*
X785023D01*
X786335Y-131147D01*
Y-132459D01*
X781087D01*
X710244Y-166581D02*
Y-174453D01*
X714180D01*
X715491Y-173141D01*
Y-167893D01*
X714180Y-166581D01*
X710244D01*
X719427Y-169205D02*
X722051D01*
X723363Y-170517D01*
Y-174453D01*
X719427D01*
X718115Y-173141D01*
X719427Y-171829D01*
X723363D01*
X727299Y-167893D02*
Y-169205D01*
X725987D01*
X728611D01*
X727299D01*
Y-173141D01*
X728611Y-174453D01*
X736482D02*
X733858D01*
X732546Y-173141D01*
Y-170517D01*
X733858Y-169205D01*
X736482D01*
X737794Y-170517D01*
Y-171829D01*
X732546D01*
X710244Y-205951D02*
Y-213823D01*
X714180D01*
X715491Y-212511D01*
Y-207263D01*
X714180Y-205951D01*
X710244D01*
X719427Y-213823D02*
X722051D01*
X723363Y-212511D01*
Y-209887D01*
X722051Y-208575D01*
X719427D01*
X718115Y-209887D01*
Y-212511D01*
X719427Y-213823D01*
X731234Y-208575D02*
X727299D01*
X725987Y-209887D01*
Y-212511D01*
X727299Y-213823D01*
X731234D01*
X733858Y-208575D02*
Y-212511D01*
X735170Y-213823D01*
X739106D01*
Y-208575D01*
X741730Y-213823D02*
Y-208575D01*
X743042D01*
X744353Y-209887D01*
Y-213823D01*
Y-209887D01*
X745665Y-208575D01*
X746977Y-209887D01*
Y-213823D01*
X753537D02*
X750913D01*
X749601Y-212511D01*
Y-209887D01*
X750913Y-208575D01*
X753537D01*
X754849Y-209887D01*
Y-211199D01*
X749601D01*
X757473Y-213823D02*
Y-208575D01*
X761408D01*
X762720Y-209887D01*
Y-213823D01*
X766656Y-207263D02*
Y-208575D01*
X765344D01*
X767968D01*
X766656D01*
Y-212511D01*
X767968Y-213823D01*
D16*
X-130984Y283465D02*
D03*
X-125984D02*
D03*
X-135984D02*
D03*
D17*
X215551Y208661D02*
D03*
X142717D02*
D03*
X180118Y168307D02*
D03*
Y272638D02*
D03*
Y249016D02*
D03*
Y191929D02*
D03*
X142717Y232283D02*
D03*
X215551D02*
D03*
D18*
X64961Y135827D02*
D03*
X-41339Y135827D02*
D03*
X-64961D02*
D03*
X41339Y135827D02*
D03*
D19*
X-69095Y154331D02*
D03*
X-29724Y154331D02*
D03*
X9646D02*
D03*
X49016D02*
D03*
X88386Y154331D02*
D03*
X-88386Y166929D02*
D03*
X-49016Y166929D02*
D03*
X-9646D02*
D03*
X29724D02*
D03*
X69095Y166929D02*
D03*
X88386Y166929D02*
D03*
X69095Y154331D02*
D03*
X49016Y166929D02*
D03*
X29724Y154331D02*
D03*
X9646Y166929D02*
D03*
X-9646Y154331D02*
D03*
X-29724Y166929D02*
D03*
X-49016Y154331D02*
D03*
X-69095Y166929D02*
D03*
X-88386Y154331D02*
D03*
D25*
X-124016Y125984D02*
D03*
X-112205Y125984D02*
D03*
D27*
X-208661Y161811D02*
D03*
Y148031D02*
D03*
D35*
X-20000Y139764D02*
D03*
X20000D02*
D03*
D40*
X104536Y224803D02*
G03*
X97465Y221874I0J-10000D01*
G01*
X90592Y218898D02*
G03*
X97244Y221654I0J9408D01*
G01*
X28543Y247047D02*
G03*
X20669Y239173I0J-7874D01*
G01*
Y226583D02*
G03*
X23598Y219512I10000J0D01*
G01*
X-222441Y184158D02*
G03*
X-216378Y169528I20666J-7D01*
G01*
X-164788Y271480D02*
G03*
X-171859Y274410I-7071J-7071D01*
G01*
X-152756Y255307D02*
G03*
X-155685Y262378I-10000J0D01*
G01*
X-61641Y235039D02*
G03*
X-55827Y240853I0J5814D01*
G01*
X-47638Y261417D02*
G03*
X-40034Y258268I7604J7604D01*
G01*
X-47638Y261417D02*
G03*
X-50965Y262796I-3328J-3328D01*
G01*
X-53543D02*
G03*
X-55827Y260512I0J-2284D01*
G01*
X-155685Y234866D02*
G03*
X-152756Y241937I-7071J7071D01*
G01*
X-94488Y132874D02*
G03*
X-96478Y137679I-6795J0D01*
G01*
X104536Y224803D02*
X113779D01*
X97244Y221654D02*
X97465Y221874D01*
X28543Y247047D02*
X59055D01*
X20669Y226583D02*
Y239173D01*
X84251Y218898D02*
X90592D01*
X23598Y219512D02*
X23622Y219488D01*
X-222441Y184158D02*
X-222441Y184164D01*
X-216378Y169528D02*
X-216371Y169520D01*
X88386Y154331D02*
X94013D01*
X49016Y154331D02*
X54643D01*
X-35352D02*
X-29724D01*
X-69095Y154331D02*
X-63467D01*
X-222441Y184164D02*
Y190059D01*
X-216371Y169520D02*
X-208661Y161811D01*
X-183465Y274410D02*
X-171859D01*
X-164788Y271480D02*
X-155685Y262378D01*
X-152756Y241937D02*
Y255307D01*
X-71653Y235039D02*
X-61641D01*
X-77559Y235039D02*
X-71653D01*
X-40034Y258268D02*
X-9843D01*
X-53543Y262796D02*
X-50965D01*
X-55827Y240853D02*
Y260512D01*
X113779Y202756D02*
Y224803D01*
X-167717Y222835D02*
X-155685Y234866D01*
X-106437Y147638D02*
X-96478Y137679D01*
X-30512Y127165D02*
X43826D01*
D41*
X189165Y168898D02*
G03*
X196236Y171827I0J10000D01*
G01*
X194381Y174114D02*
G03*
X201453Y177043I0J10000D01*
G01*
X223843Y199433D02*
G03*
X226772Y206504I-7071J7071D01*
G01*
Y239165D02*
G03*
X223843Y246236I-10000J0D01*
G01*
X107180Y304631D02*
G03*
X107087Y304724I-94J0D01*
G01*
X129701Y280929D02*
G03*
X122629Y283858I-7071J-7071D01*
G01*
X143921Y266708D02*
G03*
X150993Y263779I7071J7071D01*
G01*
X209228Y260851D02*
G03*
X202157Y263779I-7071J-7071D01*
G01*
X107180Y291312D02*
G03*
X114634Y283858I7453J0D01*
G01*
X59449Y187590D02*
G03*
X56520Y194661I-10000J0D01*
G01*
X174311Y174114D02*
X180118Y168307D01*
X29096Y237363D02*
X38116D01*
X28346Y236614D02*
X29096Y237363D01*
X38116D02*
X42728Y232751D01*
Y208453D02*
Y232751D01*
X59449Y178727D02*
X64061Y174114D01*
X174311D01*
X42728Y208453D02*
X56520Y194661D01*
X59449Y178727D02*
Y187590D01*
X180118Y168898D02*
X189165D01*
X174311Y174114D02*
X194381D01*
X196236Y171827D02*
X201453Y177043D01*
X223843Y199433D01*
X226772Y206504D02*
Y239165D01*
X209228Y260851D02*
X223843Y246236D01*
X107180Y291312D02*
Y304631D01*
X129701Y280929D02*
X143921Y266708D01*
X150993Y263779D02*
X202157D01*
X114634Y283858D02*
X122629D01*
D42*
X-92833Y219325D02*
G03*
X-87598Y217520I4470J4470D01*
G01*
X-78425Y290748D02*
G03*
X-89995Y285956I0J-16364D01*
G01*
D02*
G03*
X-98176Y266207I19749J-19749D01*
G01*
Y227776D02*
G03*
X-95978Y222470I7503J-0D01*
G01*
X-78425Y290748D02*
X-78425D01*
X92117D01*
X-95978Y222470D02*
X-92833Y219325D01*
X-98176Y227776D02*
Y266207D01*
D43*
X85127Y295276D02*
G03*
X91866Y298067I-0J9530D01*
G01*
X-78663Y295276D02*
G03*
X-93985Y288929I0J-21668D01*
G01*
X99041Y305241D02*
G03*
X101476Y311122I-5881J5881D01*
G01*
X-103905Y279010D02*
G03*
X-109862Y264627I14383J-14383D01*
G01*
X-78663Y295276D02*
X85127D01*
X91866Y298067D02*
X99041Y305241D01*
X-103905Y279010D02*
X-93985Y288929D01*
X-109862Y214567D02*
Y264627D01*
D44*
X181102Y320866D02*
D03*
X200787D02*
D03*
D45*
X220276Y136614D02*
D03*
Y160236D02*
D03*
D46*
X211221Y166535D02*
D03*
X229331Y146850D02*
D03*
X211221Y138976D02*
D03*
D47*
X-203083Y215954D02*
D03*
X-176311Y258474D02*
D03*
X-168437D02*
D03*
X-160563D02*
D03*
X-203083Y231702D02*
D03*
Y223828D02*
D03*
D48*
X-185039Y299055D02*
D03*
X-63150Y213976D02*
D03*
X-158661Y293307D02*
D03*
Y316929D02*
D03*
X-63150Y243976D02*
D03*
X-103150D02*
D03*
X-195039Y309055D02*
D03*
X-185039D02*
D03*
X-195039Y319055D02*
D03*
X-185039D02*
D03*
X-192058Y200206D02*
D03*
X-144815Y247450D02*
D03*
D49*
X-208661Y134252D02*
D03*
D50*
X190945Y320866D02*
D03*
X-127953Y316929D02*
D03*
X-147638Y155512D02*
D03*
X147638D02*
D03*
Y297244D02*
D03*
D51*
X-93150Y243976D02*
D03*
X-53150Y213976D02*
D03*
D52*
X-195039Y299055D02*
D03*
D53*
X-47244Y239724D02*
D03*
D54*
X25000Y134764D02*
D03*
Y144764D02*
D03*
X5000Y134764D02*
D03*
Y144764D02*
D03*
X-25000Y134764D02*
D03*
X-15000D02*
D03*
X-25000Y144764D02*
D03*
X-15000D02*
D03*
X-5000D02*
D03*
Y134764D02*
D03*
X15000Y144764D02*
D03*
Y134764D02*
D03*
D55*
X96890Y311409D02*
D03*
X119646Y311409D02*
D03*
D56*
X-125984Y288189D02*
D03*
X79075Y227913D02*
D03*
X28346Y236614D02*
D03*
X81890Y207087D02*
D03*
X90945D02*
D03*
X-83465Y257480D02*
D03*
X171259Y243766D02*
D03*
X3150Y263347D02*
D03*
X8661D02*
D03*
X394Y282283D02*
D03*
X5906Y282283D02*
D03*
X11417Y282283D02*
D03*
X394Y259370D02*
D03*
X5906D02*
D03*
X150305Y233092D02*
D03*
X-90355Y202757D02*
D03*
X-82480Y160826D02*
D03*
X94013Y154331D02*
D03*
X54643Y154331D02*
D03*
X-35352D02*
D03*
X-63467Y154331D02*
D03*
X-184055Y235236D02*
D03*
X-205512Y257087D02*
D03*
X135433Y309449D02*
D03*
X135039Y325984D02*
D03*
X120866D02*
D03*
X95276D02*
D03*
X81102D02*
D03*
X89764Y285433D02*
D03*
X45669Y188189D02*
D03*
X52756Y188976D02*
D03*
X93307Y180709D02*
D03*
X181496Y183858D02*
D03*
X181268Y224323D02*
D03*
X143307Y261024D02*
D03*
X150394Y229528D02*
D03*
X-29921Y199606D02*
D03*
X-24803Y209055D02*
D03*
X-94095Y301181D02*
D03*
X-42126Y299213D02*
D03*
X-29528D02*
D03*
X-66535Y239764D02*
D03*
X-71260Y244488D02*
D03*
X-131890Y181496D02*
D03*
X-128740D02*
D03*
X-130315Y133858D02*
D03*
X-171681Y152207D02*
D03*
X-195669Y176772D02*
D03*
X-103347Y292323D02*
D03*
X-173093Y231755D02*
D03*
X-170866Y229528D02*
D03*
X-118110Y183858D02*
D03*
X-115748D02*
D03*
X-113386D02*
D03*
X-111024D02*
D03*
X-108661D02*
D03*
X-106299D02*
D03*
X-115748Y181496D02*
D03*
X-113386D02*
D03*
X-111024D02*
D03*
X-108661D02*
D03*
Y164567D02*
D03*
X-111024D02*
D03*
X-113386D02*
D03*
X-115748D02*
D03*
X-106299Y162205D02*
D03*
X-108661D02*
D03*
X-111024D02*
D03*
X-113386D02*
D03*
X-115748D02*
D03*
X-118110D02*
D03*
X89764Y281890D02*
D03*
X20078Y271654D02*
D03*
X88386Y303937D02*
D03*
X128248D02*
D03*
X-170670Y247441D02*
D03*
X-25000Y158465D02*
D03*
X181102Y309449D02*
D03*
X200945D02*
D03*
X175984Y312992D02*
D03*
Y318110D02*
D03*
X205906Y312992D02*
D03*
Y318110D02*
D03*
X-68504Y148425D02*
D03*
X-193898Y250000D02*
D03*
X65286Y218897D02*
D03*
X79075Y235000D02*
D03*
X98012Y231476D02*
D03*
Y243287D02*
D03*
Y250373D02*
D03*
X79075Y251536D02*
D03*
X65354Y276772D02*
D03*
X68504D02*
D03*
X-143701Y292126D02*
D03*
X149606Y258268D02*
D03*
X-185433Y252756D02*
D03*
X45669Y171260D02*
D03*
X-77559Y151083D02*
D03*
X92117Y290748D02*
D03*
X-51181Y176378D02*
D03*
X-87598Y217520D02*
D03*
X20669Y166339D02*
D03*
X-190945Y254724D02*
D03*
Y234252D02*
D03*
X197244Y242520D02*
D03*
X96063Y269685D02*
D03*
X94882Y265748D02*
D03*
X-83858Y276550D02*
D03*
X-183465Y274410D02*
D03*
X-106299Y261811D02*
D03*
Y253543D02*
D03*
X-103150Y251181D02*
D03*
X-101181Y249213D02*
D03*
X-103150Y261811D02*
D03*
X-71653Y235039D02*
D03*
X-9843Y258268D02*
D03*
X-3937Y265354D02*
D03*
X-5906Y267323D02*
D03*
X-29232Y265354D02*
D03*
X-28346Y283465D02*
D03*
X62581Y201229D02*
D03*
X26772Y278020D02*
D03*
X-101181Y259842D02*
D03*
X134252Y220079D02*
D03*
X113779Y224803D02*
D03*
X-218898Y242126D02*
D03*
X77165Y259055D02*
D03*
X78740Y246850D02*
D03*
X-167717Y222835D02*
D03*
X-1D02*
D03*
X-90158Y235433D02*
D03*
X5026Y222835D02*
D03*
X-87009Y233071D02*
D03*
X-17500Y222835D02*
D03*
X-90158Y231102D02*
D03*
X-10031Y222835D02*
D03*
X-87009Y228740D02*
D03*
X-16929Y163386D02*
D03*
X-30512Y127165D02*
D03*
X59055Y247047D02*
D03*
X57087Y263779D02*
D03*
X23622Y219488D02*
D03*
X15748Y217699D02*
D03*
X-106437Y147638D02*
D03*
X-94488Y132874D02*
D03*
X-79724Y177165D02*
D03*
X-64173Y287402D02*
D03*
X-10506Y285433D02*
D03*
X-95276Y308268D02*
D03*
X-222441Y190059D02*
D03*
X113742Y202718D02*
D03*
X43826Y127165D02*
D03*
X-109862Y214567D02*
D03*
X101476Y311122D02*
D03*
X-53543Y262796D02*
D03*
X-77560Y235039D02*
D03*
X84251Y218898D02*
D03*
X150000Y253150D02*
D03*
X-80315Y276772D02*
D03*
X-76772Y275197D02*
D03*
X-74803Y272441D02*
D03*
X-73228Y265256D02*
D03*
X-71260Y268898D02*
D03*
X-70866Y272047D02*
D03*
X-7874Y245669D02*
D03*
X-26772D02*
D03*
X-95649Y165728D02*
D03*
X-25197Y249213D02*
D03*
X-7480Y241339D02*
D03*
X7500Y234306D02*
D03*
X-16142Y285433D02*
D03*
X-98819Y151969D02*
D03*
X-88583Y141732D02*
D03*
X-89370Y150394D02*
D03*
X-137469Y128347D02*
D03*
Y121327D02*
D03*
X1969Y163779D02*
D03*
X-64961Y141732D02*
D03*
X-70472Y264173D02*
D03*
X12205Y218110D02*
D03*
Y223622D02*
D03*
X-218898Y247638D02*
D03*
X61417Y261811D02*
D03*
X63386Y259055D02*
D03*
X72835Y261811D02*
D03*
X-26378Y267284D02*
D03*
X69005Y196025D02*
D03*
M02*
