M48
;Layer_Color=9474304
;FILE_FORMAT=2:5
INCH,LZ
;TYPE=PLATED
T01F00S00C0.00984
T02F00S00C0.03543
T03F00S00C0.09843
;TYPE=NON_PLATED
T04F00S00C0.09843
T05F00S00C0.18898
%
T01
X-0022835Y0042126
X000315Y0046457
X0011417Y003622
X0093701Y0042126
X0108268Y0084252
X-0032677Y0049213
X-0070866Y0053543
X-0068898Y0061024
X-0123622Y0053543
X-0103543Y0091732
X-0126378Y0122441
X-0123228Y015315
X-008189Y0183858
X-0018504Y0190551
X0035433Y0184252
X0072047Y0172047
X0094095Y0165354
X0133858Y0141339
Y0103543
T02
X-0025Y0016654
X-0015
Y0026654
X-0005
X0005
Y0016654
X-0005
X0015
X0025
Y0026654
X0015
X-0025
T03
X0169291Y0027559
Y0059055
X-0169291
Y0027559
Y0090551
Y0122047
Y0153543
Y0185039
X0169291
Y0153543
Y0122047
Y0090551
T04
X0147638Y0037402
X-0147638
X-0127953Y0198819
X0147638Y0179134
T05
X015748Y0074803
X0125984Y0043307
X-015748Y0074803
Y0106299
Y0137795
Y0169291
X0125984
X015748Y0137795
Y0106299
M30
