G04*
G04 #@! TF.GenerationSoftware,Altium Limited,Altium Designer,26.1.1 (7)*
G04*
G04 Layer_Color=65535*
%FSLAX25Y25*%
%MOIN*%
G70*
G04*
G04 #@! TF.SameCoordinates,1A265796-0B11-4517-A3FD-3FE39C335806*
G04*
G04*
G04 #@! TF.FilePolarity,Positive*
G04*
G01*
G75*
%ADD10C,0.00787*%
%ADD11C,0.00591*%
%ADD12C,0.00394*%
%ADD13C,0.01575*%
%ADD14C,0.00984*%
G36*
X-1010Y116591D02*
X4279Y118770D01*
X4322Y118724D01*
X2824Y115718D01*
X2066Y116024D01*
X2044Y116084D01*
X2563Y117131D01*
X115Y116123D01*
X4804Y114201D01*
X4817Y114138D01*
X-1019Y108302D01*
X-6855Y114138D01*
X-6842Y114201D01*
X-2144Y116132D01*
X-4592Y117140D01*
X-4073Y116093D01*
X-4095Y116033D01*
X-4853Y115727D01*
X-6342Y118724D01*
X-6299Y118770D01*
X-1010Y116591D01*
D02*
G37*
G36*
X-48068Y94048D02*
X-48040Y94048D01*
X-48009Y94043D01*
X-47940Y94029D01*
X-47858Y94011D01*
X-47776Y93980D01*
X-47695Y93939D01*
X-47617Y93879D01*
X-47608Y93870D01*
X-47585Y93848D01*
X-47558Y93811D01*
X-47522Y93761D01*
X-47485Y93702D01*
X-47458Y93629D01*
X-47435Y93543D01*
X-47426Y93452D01*
Y93447D01*
X-47426Y93438D01*
Y93425D01*
X-47430Y93406D01*
X-47435Y93356D01*
X-47449Y93293D01*
X-47471Y93220D01*
X-47508Y93142D01*
X-47553Y93065D01*
X-47617Y92992D01*
X-47626Y92983D01*
X-47653Y92965D01*
X-47694Y92933D01*
X-47749Y92901D01*
X-47822Y92869D01*
X-47908Y92838D01*
X-48008Y92819D01*
X-48117Y92810D01*
X-48145Y92810D01*
X-48167Y92815D01*
X-48195Y92815D01*
X-48222Y92819D01*
X-48295Y92833D01*
X-48372Y92856D01*
X-48454Y92883D01*
X-48536Y92928D01*
X-48613Y92987D01*
X-48622Y92996D01*
X-48645Y93019D01*
X-48672Y93060D01*
X-48709Y93110D01*
X-48745Y93178D01*
X-48773Y93251D01*
X-48795Y93338D01*
X-48805Y93433D01*
Y93438D01*
X-48805Y93447D01*
Y93460D01*
X-48800Y93479D01*
X-48796Y93524D01*
X-48782Y93588D01*
X-48759Y93656D01*
X-48723Y93729D01*
X-48677Y93806D01*
X-48614Y93875D01*
X-48605Y93884D01*
X-48577Y93902D01*
X-48536Y93929D01*
X-48482Y93966D01*
X-48409Y93998D01*
X-48322Y94025D01*
X-48227Y94043D01*
X-48118Y94052D01*
X-48086Y94052D01*
X-48068Y94048D01*
D02*
G37*
G36*
X7529Y93535D02*
X7570Y93535D01*
X7615Y93530D01*
X7670Y93530D01*
X7784Y93517D01*
X7916Y93503D01*
X8052Y93480D01*
X8189Y93449D01*
X8193D01*
X8207Y93444D01*
X8225Y93439D01*
X8252Y93435D01*
X8284Y93426D01*
X8321Y93412D01*
X8407Y93385D01*
X8503Y93348D01*
X8607Y93308D01*
X8712Y93258D01*
X8812Y93199D01*
X8385Y92352D01*
X8380Y92357D01*
X8367Y92361D01*
X8348Y92375D01*
X8317Y92393D01*
X8280Y92411D01*
X8239Y92429D01*
X8189Y92452D01*
X8130Y92479D01*
X8066Y92502D01*
X7993Y92525D01*
X7921Y92543D01*
X7834Y92561D01*
X7748Y92579D01*
X7652Y92593D01*
X7557Y92597D01*
X7452Y92602D01*
X7425Y92602D01*
X7393Y92597D01*
X7347Y92597D01*
X7293Y92593D01*
X7234Y92584D01*
X7165Y92570D01*
X7088Y92556D01*
X7011Y92533D01*
X6929Y92511D01*
X6847Y92479D01*
X6761Y92442D01*
X6679Y92401D01*
X6597Y92351D01*
X6519Y92292D01*
X6447Y92228D01*
X6442Y92224D01*
X6433Y92210D01*
X6415Y92192D01*
X6387Y92160D01*
X6360Y92124D01*
X6328Y92074D01*
X6292Y92019D01*
X6260Y91955D01*
X6224Y91882D01*
X6188Y91805D01*
X6156Y91714D01*
X6124Y91619D01*
X6097Y91514D01*
X6074Y91405D01*
X6056Y91282D01*
X6047Y91154D01*
X6051Y91159D01*
X6069Y91173D01*
X6092Y91195D01*
X6129Y91223D01*
X6174Y91259D01*
X6229Y91295D01*
X6292Y91332D01*
X6365Y91378D01*
X6452Y91418D01*
X6543Y91455D01*
X6643Y91496D01*
X6752Y91528D01*
X6870Y91555D01*
X6998Y91578D01*
X7134Y91592D01*
X7280Y91596D01*
X7325Y91596D01*
X7361Y91592D01*
X7402Y91592D01*
X7452Y91587D01*
X7507Y91578D01*
X7566Y91574D01*
X7634Y91560D01*
X7703Y91551D01*
X7848Y91515D01*
X7999Y91465D01*
X8076Y91437D01*
X8149Y91401D01*
X8153D01*
X8167Y91392D01*
X8185Y91383D01*
X8212Y91365D01*
X8249Y91346D01*
X8285Y91324D01*
X8376Y91260D01*
X8476Y91183D01*
X8581Y91092D01*
X8681Y90983D01*
X8772Y90855D01*
X8777Y90851D01*
X8781Y90842D01*
X8795Y90819D01*
X8809Y90792D01*
X8827Y90760D01*
X8845Y90719D01*
X8863Y90673D01*
X8886Y90623D01*
X8909Y90564D01*
X8927Y90505D01*
X8945Y90437D01*
X8964Y90364D01*
X8991Y90214D01*
X8996Y90132D01*
X9000Y90045D01*
Y90041D01*
X9000Y90023D01*
X9000Y89995D01*
X8996Y89964D01*
X8991Y89918D01*
X8986Y89868D01*
X8978Y89809D01*
X8968Y89750D01*
X8941Y89613D01*
X8896Y89463D01*
X8868Y89390D01*
X8832Y89313D01*
X8796Y89240D01*
X8750Y89167D01*
X8746Y89163D01*
X8737Y89149D01*
X8723Y89131D01*
X8705Y89104D01*
X8677Y89072D01*
X8650Y89035D01*
X8614Y88999D01*
X8573Y88953D01*
X8523Y88908D01*
X8473Y88862D01*
X8418Y88812D01*
X8359Y88762D01*
X8291Y88717D01*
X8223Y88671D01*
X8068Y88589D01*
X8063Y88589D01*
X8050Y88580D01*
X8027Y88571D01*
X7995Y88557D01*
X7954Y88543D01*
X7904Y88525D01*
X7850Y88507D01*
X7790Y88489D01*
X7722Y88471D01*
X7645Y88452D01*
X7568Y88434D01*
X7486Y88420D01*
X7304Y88398D01*
X7213Y88393D01*
X7113Y88388D01*
X7067Y88388D01*
X7040Y88393D01*
X7012Y88393D01*
X6940Y88398D01*
X6853Y88406D01*
X6749Y88420D01*
X6639Y88443D01*
X6516Y88470D01*
X6385Y88502D01*
X6253Y88543D01*
X6116Y88597D01*
X5979Y88656D01*
X5847Y88729D01*
X5715Y88815D01*
X5588Y88911D01*
X5474Y89025D01*
X5470Y89034D01*
X5447Y89057D01*
X5420Y89093D01*
X5383Y89143D01*
X5338Y89211D01*
X5288Y89289D01*
X5233Y89384D01*
X5178Y89493D01*
X5124Y89616D01*
X5069Y89753D01*
X5019Y89903D01*
X4973Y90066D01*
X4937Y90244D01*
X4910Y90435D01*
X4887Y90640D01*
X4882Y90854D01*
Y90858D01*
X4882Y90863D01*
Y90876D01*
X4882Y90890D01*
X4882Y90935D01*
X4887Y90995D01*
X4891Y91067D01*
X4900Y91154D01*
X4909Y91249D01*
X4923Y91354D01*
X4936Y91463D01*
X4959Y91582D01*
X4986Y91700D01*
X5018Y91823D01*
X5054Y91946D01*
X5095Y92068D01*
X5145Y92191D01*
X5200Y92305D01*
X5204Y92314D01*
X5213Y92333D01*
X5232Y92364D01*
X5259Y92405D01*
X5291Y92455D01*
X5332Y92514D01*
X5377Y92578D01*
X5432Y92651D01*
X5495Y92724D01*
X5559Y92797D01*
X5636Y92874D01*
X5714Y92952D01*
X5800Y93024D01*
X5891Y93097D01*
X5991Y93165D01*
X6096Y93225D01*
X6100Y93229D01*
X6123Y93238D01*
X6155Y93252D01*
X6196Y93275D01*
X6250Y93297D01*
X6319Y93325D01*
X6392Y93352D01*
X6478Y93384D01*
X6569Y93411D01*
X6674Y93439D01*
X6783Y93466D01*
X6897Y93489D01*
X7019Y93512D01*
X7151Y93525D01*
X7283Y93535D01*
X7424Y93539D01*
X7493Y93539D01*
X7529Y93535D01*
D02*
G37*
G36*
X14254Y93537D02*
X14309Y93538D01*
X14377Y93528D01*
X14449Y93524D01*
X14531Y93515D01*
X14622Y93501D01*
X14713Y93488D01*
X14909Y93447D01*
X15014Y93420D01*
X15114Y93392D01*
X15214Y93356D01*
X15314Y93315D01*
X15319Y93310D01*
X15337Y93306D01*
X15364Y93292D01*
X15401Y93274D01*
X15446Y93251D01*
X15501Y93220D01*
X15555Y93188D01*
X15619Y93147D01*
X15687Y93106D01*
X15760Y93056D01*
X15833Y93001D01*
X15906Y92942D01*
X15983Y92879D01*
X16056Y92810D01*
X16129Y92738D01*
X16197Y92660D01*
X15456Y91977D01*
X15451Y91982D01*
X15433Y92005D01*
X15406Y92032D01*
X15365Y92068D01*
X15315Y92114D01*
X15256Y92164D01*
X15187Y92214D01*
X15110Y92269D01*
X15023Y92323D01*
X14928Y92378D01*
X14823Y92423D01*
X14714Y92469D01*
X14596Y92505D01*
X14468Y92537D01*
X14336Y92555D01*
X14200Y92559D01*
X14154Y92559D01*
X14122Y92555D01*
X14081Y92555D01*
X14036Y92550D01*
X13981Y92541D01*
X13922Y92532D01*
X13795Y92509D01*
X13654Y92473D01*
X13513Y92422D01*
X13440Y92391D01*
X13372Y92354D01*
X13367D01*
X13358Y92345D01*
X13335Y92331D01*
X13313Y92318D01*
X13281Y92295D01*
X13249Y92272D01*
X13167Y92208D01*
X13076Y92127D01*
X12980Y92031D01*
X12890Y91917D01*
X12808Y91790D01*
Y91785D01*
X12799Y91772D01*
X12789Y91753D01*
X12776Y91726D01*
X12762Y91690D01*
X12744Y91649D01*
X12726Y91603D01*
X12708Y91549D01*
X12685Y91494D01*
X12667Y91430D01*
X12649Y91362D01*
X12635Y91289D01*
X12612Y91135D01*
X12608Y91053D01*
X12603Y90966D01*
Y90961D01*
X12603Y90943D01*
X12603Y90921D01*
X12608Y90889D01*
X12608Y90848D01*
X12612Y90802D01*
X12622Y90748D01*
X12631Y90689D01*
X12653Y90561D01*
X12690Y90420D01*
X12740Y90279D01*
X12772Y90206D01*
X12808Y90138D01*
X12813Y90134D01*
X12818Y90124D01*
X12831Y90102D01*
X12845Y90079D01*
X12868Y90047D01*
X12890Y90011D01*
X12954Y89929D01*
X13036Y89838D01*
X13132Y89747D01*
X13245Y89651D01*
X13373Y89570D01*
X13377D01*
X13391Y89561D01*
X13409Y89551D01*
X13437Y89538D01*
X13473Y89524D01*
X13514Y89506D01*
X13559Y89488D01*
X13614Y89470D01*
X13673Y89451D01*
X13737Y89433D01*
X13805Y89415D01*
X13878Y89401D01*
X14033Y89379D01*
X14115Y89374D01*
X14201Y89370D01*
X14233Y89370D01*
X14274Y89374D01*
X14329Y89379D01*
X14392Y89388D01*
X14465Y89402D01*
X14547Y89420D01*
X14638Y89443D01*
X14738Y89475D01*
X14838Y89516D01*
X14943Y89561D01*
X15047Y89620D01*
X15152Y89689D01*
X15257Y89766D01*
X15361Y89857D01*
X15457Y89962D01*
X16199Y89275D01*
X16194Y89271D01*
X16180Y89257D01*
X16162Y89234D01*
X16135Y89202D01*
X16098Y89166D01*
X16058Y89125D01*
X16007Y89079D01*
X15953Y89029D01*
X15894Y88979D01*
X15826Y88924D01*
X15753Y88870D01*
X15671Y88815D01*
X15589Y88761D01*
X15503Y88710D01*
X15407Y88661D01*
X15312Y88615D01*
X15307Y88610D01*
X15289Y88606D01*
X15257Y88597D01*
X15221Y88578D01*
X15171Y88565D01*
X15111Y88547D01*
X15043Y88524D01*
X14970Y88506D01*
X14884Y88483D01*
X14797Y88464D01*
X14697Y88442D01*
X14597Y88428D01*
X14488Y88414D01*
X14374Y88401D01*
X14256Y88396D01*
X14138Y88391D01*
X14106Y88391D01*
X14065Y88396D01*
X14010Y88396D01*
X13942Y88401D01*
X13865Y88410D01*
X13778Y88419D01*
X13683Y88432D01*
X13578Y88450D01*
X13469Y88473D01*
X13355Y88496D01*
X13237Y88528D01*
X13114Y88569D01*
X12996Y88609D01*
X12877Y88659D01*
X12759Y88718D01*
X12750Y88723D01*
X12732Y88732D01*
X12700Y88755D01*
X12659Y88778D01*
X12604Y88814D01*
X12545Y88855D01*
X12481Y88900D01*
X12409Y88955D01*
X12331Y89019D01*
X12254Y89087D01*
X12172Y89160D01*
X12090Y89241D01*
X12013Y89332D01*
X11935Y89423D01*
X11858Y89528D01*
X11789Y89633D01*
X11785Y89642D01*
X11776Y89660D01*
X11758Y89692D01*
X11735Y89737D01*
X11708Y89792D01*
X11680Y89860D01*
X11648Y89937D01*
X11616Y90019D01*
X11580Y90115D01*
X11548Y90219D01*
X11521Y90329D01*
X11493Y90442D01*
X11470Y90565D01*
X11452Y90697D01*
X11443Y90829D01*
X11439Y90966D01*
Y90975D01*
X11439Y90997D01*
X11443Y91038D01*
X11443Y91088D01*
X11447Y91157D01*
X11457Y91229D01*
X11466Y91316D01*
X11484Y91407D01*
X11502Y91507D01*
X11525Y91612D01*
X11552Y91721D01*
X11588Y91835D01*
X11625Y91948D01*
X11675Y92062D01*
X11725Y92181D01*
X11788Y92290D01*
X11793Y92299D01*
X11806Y92317D01*
X11825Y92349D01*
X11852Y92385D01*
X11888Y92435D01*
X11934Y92495D01*
X11984Y92558D01*
X12043Y92627D01*
X12107Y92699D01*
X12179Y92772D01*
X12261Y92850D01*
X12348Y92927D01*
X12439Y93004D01*
X12539Y93077D01*
X12643Y93146D01*
X12757Y93209D01*
X12766Y93214D01*
X12784Y93223D01*
X12821Y93241D01*
X12866Y93259D01*
X12925Y93287D01*
X12994Y93314D01*
X13071Y93346D01*
X13162Y93378D01*
X13262Y93405D01*
X13367Y93437D01*
X13480Y93464D01*
X13603Y93492D01*
X13731Y93510D01*
X13863Y93528D01*
X14004Y93537D01*
X14145Y93542D01*
X14208Y93542D01*
X14254Y93537D01*
D02*
G37*
G36*
X-20656Y88458D02*
X-21716Y88458D01*
X-21716Y88899D01*
X-21721Y88895D01*
X-21735Y88876D01*
X-21762Y88854D01*
X-21794Y88822D01*
X-21835Y88785D01*
X-21889Y88744D01*
X-21948Y88699D01*
X-22021Y88653D01*
X-22103Y88603D01*
X-22189Y88562D01*
X-22290Y88517D01*
X-22394Y88480D01*
X-22512Y88449D01*
X-22635Y88426D01*
X-22772Y88407D01*
X-22913Y88403D01*
X-22967Y88403D01*
X-23004Y88407D01*
X-23054Y88412D01*
X-23109Y88416D01*
X-23168Y88421D01*
X-23241Y88435D01*
X-23313Y88444D01*
X-23391Y88462D01*
X-23554Y88503D01*
X-23641Y88530D01*
X-23727Y88562D01*
X-23814Y88598D01*
X-23896Y88639D01*
X-23900Y88644D01*
X-23914Y88653D01*
X-23937Y88666D01*
X-23969Y88684D01*
X-24005Y88707D01*
X-24046Y88739D01*
X-24096Y88775D01*
X-24146Y88816D01*
X-24201Y88862D01*
X-24255Y88912D01*
X-24315Y88971D01*
X-24369Y89035D01*
X-24428Y89098D01*
X-24483Y89171D01*
X-24533Y89249D01*
X-24583Y89330D01*
X-24588Y89335D01*
X-24592Y89353D01*
X-24606Y89376D01*
X-24620Y89412D01*
X-24638Y89453D01*
X-24661Y89503D01*
X-24683Y89562D01*
X-24706Y89631D01*
X-24729Y89703D01*
X-24752Y89781D01*
X-24770Y89867D01*
X-24793Y89958D01*
X-24806Y90058D01*
X-24820Y90158D01*
X-24825Y90263D01*
X-24829Y90372D01*
Y90381D01*
X-24829Y90399D01*
X-24829Y90431D01*
X-24825Y90472D01*
X-24820Y90522D01*
X-24816Y90582D01*
X-24807Y90650D01*
X-24798Y90723D01*
X-24784Y90804D01*
X-24770Y90886D01*
X-24725Y91059D01*
X-24698Y91150D01*
X-24666Y91237D01*
X-24625Y91323D01*
X-24584Y91410D01*
X-24579Y91414D01*
X-24570Y91428D01*
X-24557Y91455D01*
X-24539Y91483D01*
X-24511Y91523D01*
X-24484Y91564D01*
X-24448Y91615D01*
X-24402Y91665D01*
X-24357Y91719D01*
X-24307Y91778D01*
X-24252Y91833D01*
X-24188Y91892D01*
X-24125Y91947D01*
X-24052Y92001D01*
X-23975Y92056D01*
X-23897Y92102D01*
X-23893Y92106D01*
X-23879Y92111D01*
X-23852Y92124D01*
X-23820Y92138D01*
X-23779Y92161D01*
X-23729Y92179D01*
X-23674Y92202D01*
X-23611Y92225D01*
X-23538Y92247D01*
X-23465Y92270D01*
X-23383Y92293D01*
X-23297Y92311D01*
X-23110Y92339D01*
X-23015Y92343D01*
X-22915Y92348D01*
X-22883Y92348D01*
X-22846Y92343D01*
X-22792Y92339D01*
X-22733Y92334D01*
X-22660Y92325D01*
X-22582Y92307D01*
X-22496Y92289D01*
X-22405Y92266D01*
X-22314Y92234D01*
X-22218Y92198D01*
X-22123Y92152D01*
X-22027Y92098D01*
X-21936Y92039D01*
X-21850Y91966D01*
X-21768Y91884D01*
X-21769Y93740D01*
X-20658Y93741D01*
X-20656Y88458D01*
D02*
G37*
G36*
X-49363Y91308D02*
X-49372D01*
X-49391Y91313D01*
X-49422Y91313D01*
X-49463Y91317D01*
X-49545Y91322D01*
X-49659Y91322D01*
X-49691Y91317D01*
X-49732Y91312D01*
X-49777Y91308D01*
X-49827Y91299D01*
X-49882Y91290D01*
X-50005Y91258D01*
X-50064Y91235D01*
X-50128Y91208D01*
X-50191Y91176D01*
X-50251Y91144D01*
X-50305Y91098D01*
X-50360Y91053D01*
X-50364Y91048D01*
X-50373Y91039D01*
X-50382Y91026D01*
X-50401Y91003D01*
X-50423Y90975D01*
X-50446Y90939D01*
X-50469Y90903D01*
X-50491Y90853D01*
X-50519Y90803D01*
X-50542Y90743D01*
X-50564Y90675D01*
X-50587Y90602D01*
X-50605Y90525D01*
X-50614Y90438D01*
X-50623Y90347D01*
X-50628Y90252D01*
X-50627Y88446D01*
X-51742Y88445D01*
X-51743Y92276D01*
X-50679Y92277D01*
X-50678Y91772D01*
X-50674Y91776D01*
X-50669Y91785D01*
X-50660Y91799D01*
X-50642Y91817D01*
X-50597Y91867D01*
X-50538Y91926D01*
X-50465Y91995D01*
X-50369Y92067D01*
X-50265Y92131D01*
X-50146Y92190D01*
X-50142Y92190D01*
X-50133Y92195D01*
X-50110Y92204D01*
X-50087Y92213D01*
X-50055Y92222D01*
X-50014Y92236D01*
X-49969Y92250D01*
X-49919Y92263D01*
X-49864Y92277D01*
X-49805Y92291D01*
X-49673Y92313D01*
X-49523Y92332D01*
X-49364Y92336D01*
X-49363Y91308D01*
D02*
G37*
G36*
X19611Y88476D02*
X18469Y88475D01*
X16320Y93461D01*
X17562Y93462D01*
X19083Y89900D01*
X20619Y93463D01*
X21766Y93463D01*
X19611Y88476D01*
D02*
G37*
G36*
X41383Y88485D02*
X40236Y88485D01*
X38629Y92315D01*
X39771Y92316D01*
X40832Y89709D01*
X41932Y92316D01*
X43001Y92317D01*
X41383Y88485D01*
D02*
G37*
G36*
X-43308Y92685D02*
X-44431Y91401D01*
X-44422D01*
X-44404Y91397D01*
X-44367Y91387D01*
X-44322Y91378D01*
X-44267Y91365D01*
X-44204Y91347D01*
X-44135Y91329D01*
X-44058Y91301D01*
X-43981Y91269D01*
X-43899Y91238D01*
X-43817Y91197D01*
X-43730Y91151D01*
X-43648Y91101D01*
X-43571Y91047D01*
X-43498Y90983D01*
X-43430Y90915D01*
X-43425Y90910D01*
X-43416Y90896D01*
X-43398Y90874D01*
X-43375Y90847D01*
X-43348Y90810D01*
X-43321Y90765D01*
X-43289Y90715D01*
X-43252Y90655D01*
X-43220Y90587D01*
X-43189Y90519D01*
X-43161Y90442D01*
X-43134Y90355D01*
X-43111Y90269D01*
X-43093Y90173D01*
X-43084Y90078D01*
X-43079Y89973D01*
X-43079Y89969D01*
Y89955D01*
X-43079Y89932D01*
X-43084Y89900D01*
X-43084Y89859D01*
X-43093Y89814D01*
X-43097Y89764D01*
X-43106Y89709D01*
X-43134Y89586D01*
X-43174Y89450D01*
X-43202Y89377D01*
X-43229Y89309D01*
X-43265Y89236D01*
X-43306Y89168D01*
X-43311Y89163D01*
X-43315Y89154D01*
X-43329Y89131D01*
X-43347Y89108D01*
X-43374Y89077D01*
X-43402Y89040D01*
X-43438Y88999D01*
X-43479Y88958D01*
X-43525Y88913D01*
X-43575Y88867D01*
X-43634Y88817D01*
X-43697Y88767D01*
X-43766Y88722D01*
X-43839Y88671D01*
X-43916Y88626D01*
X-44002Y88585D01*
X-44007Y88580D01*
X-44025Y88576D01*
X-44048Y88567D01*
X-44084Y88553D01*
X-44130Y88535D01*
X-44184Y88517D01*
X-44248Y88498D01*
X-44321Y88476D01*
X-44398Y88457D01*
X-44484Y88434D01*
X-44580Y88416D01*
X-44680Y88403D01*
X-44785Y88384D01*
X-44899Y88375D01*
X-45021Y88371D01*
X-45144Y88366D01*
X-45194Y88366D01*
X-45235Y88371D01*
X-45281Y88371D01*
X-45340Y88375D01*
X-45404Y88380D01*
X-45472Y88384D01*
X-45549Y88389D01*
X-45631Y88398D01*
X-45804Y88425D01*
X-45990Y88457D01*
X-46182Y88502D01*
X-46186Y88502D01*
X-46204Y88507D01*
X-46232Y88516D01*
X-46268Y88529D01*
X-46309Y88543D01*
X-46359Y88557D01*
X-46418Y88579D01*
X-46482Y88602D01*
X-46614Y88657D01*
X-46760Y88725D01*
X-46905Y88802D01*
X-47042Y88893D01*
X-46596Y89776D01*
X-46592Y89771D01*
X-46583Y89767D01*
X-46569Y89758D01*
X-46546Y89740D01*
X-46519Y89721D01*
X-46487Y89703D01*
X-46451Y89680D01*
X-46410Y89653D01*
X-46314Y89603D01*
X-46200Y89544D01*
X-46077Y89494D01*
X-45941Y89444D01*
X-45936D01*
X-45923Y89439D01*
X-45904Y89435D01*
X-45877Y89426D01*
X-45841Y89417D01*
X-45800Y89408D01*
X-45754Y89399D01*
X-45704Y89389D01*
X-45645Y89376D01*
X-45586Y89367D01*
X-45458Y89349D01*
X-45318Y89335D01*
X-45172Y89331D01*
X-45131Y89331D01*
X-45099Y89335D01*
X-45063Y89335D01*
X-45022Y89340D01*
X-44976Y89344D01*
X-44926Y89353D01*
X-44817Y89372D01*
X-44703Y89399D01*
X-44589Y89440D01*
X-44489Y89495D01*
X-44485D01*
X-44480Y89504D01*
X-44449Y89526D01*
X-44412Y89563D01*
X-44362Y89618D01*
X-44317Y89686D01*
X-44280Y89768D01*
X-44249Y89863D01*
X-44244Y89918D01*
X-44239Y89973D01*
Y89982D01*
X-44239Y90000D01*
X-44244Y90027D01*
X-44253Y90068D01*
X-44267Y90114D01*
X-44289Y90164D01*
X-44317Y90223D01*
X-44358Y90277D01*
X-44403Y90337D01*
X-44467Y90391D01*
X-44545Y90441D01*
X-44631Y90487D01*
X-44740Y90527D01*
X-44799Y90541D01*
X-44863Y90555D01*
X-44936Y90568D01*
X-45009Y90577D01*
X-45086Y90582D01*
X-45700Y90582D01*
X-45700Y91346D01*
X-44677Y92507D01*
X-46798Y92506D01*
X-46798Y93434D01*
X-43308Y93436D01*
X-43308Y92685D01*
D02*
G37*
G36*
X31812Y93463D02*
X31867Y93463D01*
X31935Y93454D01*
X32008Y93450D01*
X32090Y93441D01*
X32181Y93427D01*
X32272Y93413D01*
X32463Y93372D01*
X32563Y93350D01*
X32659Y93318D01*
X32759Y93286D01*
X32850Y93245D01*
X32854Y93241D01*
X32873Y93236D01*
X32895Y93222D01*
X32932Y93204D01*
X32973Y93182D01*
X33018Y93154D01*
X33068Y93123D01*
X33127Y93086D01*
X33187Y93045D01*
X33246Y92995D01*
X33310Y92945D01*
X33373Y92891D01*
X33432Y92827D01*
X33492Y92763D01*
X33551Y92690D01*
X33601Y92618D01*
X33605Y92613D01*
X33615Y92599D01*
X33624Y92577D01*
X33642Y92545D01*
X33660Y92509D01*
X33683Y92458D01*
X33710Y92408D01*
X33733Y92345D01*
X33756Y92281D01*
X33783Y92204D01*
X33806Y92126D01*
X33824Y92040D01*
X33842Y91953D01*
X33856Y91858D01*
X33861Y91762D01*
X33865Y91658D01*
Y91653D01*
X33865Y91635D01*
X33865Y91603D01*
X33861Y91567D01*
X33856Y91517D01*
X33852Y91462D01*
X33843Y91398D01*
X33834Y91330D01*
X33820Y91257D01*
X33802Y91180D01*
X33779Y91098D01*
X33752Y91021D01*
X33720Y90939D01*
X33688Y90857D01*
X33643Y90775D01*
X33597Y90698D01*
X33593Y90693D01*
X33584Y90679D01*
X33570Y90661D01*
X33547Y90634D01*
X33520Y90597D01*
X33488Y90561D01*
X33447Y90516D01*
X33406Y90470D01*
X33352Y90420D01*
X33297Y90370D01*
X33233Y90320D01*
X33170Y90270D01*
X33092Y90220D01*
X33015Y90170D01*
X32933Y90124D01*
X32842Y90083D01*
X33957Y88482D01*
X32720Y88481D01*
X31759Y89869D01*
X30695Y89868D01*
X30695Y88481D01*
X29539Y88480D01*
X29537Y93467D01*
X31762Y93468D01*
X31812Y93463D01*
D02*
G37*
G36*
X24560Y93460D02*
X24614Y93460D01*
X24682Y93451D01*
X24755Y93446D01*
X24837Y93437D01*
X24928Y93424D01*
X25019Y93410D01*
X25210Y93369D01*
X25311Y93347D01*
X25406Y93315D01*
X25506Y93283D01*
X25597Y93242D01*
X25602Y93238D01*
X25620Y93233D01*
X25643Y93219D01*
X25679Y93201D01*
X25720Y93178D01*
X25765Y93151D01*
X25816Y93119D01*
X25875Y93083D01*
X25934Y93042D01*
X25993Y92992D01*
X26057Y92942D01*
X26120Y92888D01*
X26180Y92824D01*
X26239Y92760D01*
X26298Y92687D01*
X26348Y92615D01*
X26353Y92610D01*
X26362Y92596D01*
X26371Y92574D01*
X26389Y92542D01*
X26407Y92505D01*
X26430Y92455D01*
X26458Y92405D01*
X26480Y92342D01*
X26503Y92278D01*
X26530Y92201D01*
X26553Y92123D01*
X26571Y92037D01*
X26590Y91950D01*
X26603Y91855D01*
X26608Y91759D01*
X26612Y91655D01*
Y91650D01*
X26612Y91632D01*
X26612Y91600D01*
X26608Y91564D01*
X26603Y91514D01*
X26599Y91459D01*
X26590Y91395D01*
X26581Y91327D01*
X26567Y91254D01*
X26549Y91177D01*
X26526Y91095D01*
X26499Y91018D01*
X26467Y90936D01*
X26435Y90854D01*
X26390Y90772D01*
X26344Y90694D01*
X26340Y90690D01*
X26331Y90676D01*
X26317Y90658D01*
X26294Y90631D01*
X26267Y90594D01*
X26235Y90558D01*
X26194Y90512D01*
X26153Y90467D01*
X26099Y90417D01*
X26044Y90367D01*
X25981Y90317D01*
X25917Y90267D01*
X25840Y90216D01*
X25762Y90166D01*
X25680Y90121D01*
X25589Y90080D01*
X26705Y88479D01*
X25467Y88478D01*
X24507Y89865D01*
X23442Y89865D01*
X23442Y88477D01*
X22287Y88477D01*
X22285Y93464D01*
X24510Y93465D01*
X24560Y93460D01*
D02*
G37*
G36*
X2479Y93533D02*
X2524Y93533D01*
X2583Y93528D01*
X2647Y93524D01*
X2715Y93514D01*
X2788Y93505D01*
X2865Y93492D01*
X3029Y93460D01*
X3197Y93414D01*
X3357Y93355D01*
X3361D01*
X3375Y93346D01*
X3398Y93337D01*
X3425Y93324D01*
X3461Y93305D01*
X3502Y93283D01*
X3593Y93224D01*
X3698Y93155D01*
X3807Y93064D01*
X3912Y92964D01*
X4008Y92846D01*
X4012Y92842D01*
X4017Y92832D01*
X4030Y92814D01*
X4044Y92787D01*
X4062Y92755D01*
X4080Y92719D01*
X4103Y92673D01*
X4126Y92623D01*
X4144Y92569D01*
X4167Y92510D01*
X4185Y92446D01*
X4203Y92378D01*
X4231Y92227D01*
X4235Y92146D01*
X4240Y92064D01*
Y92059D01*
X4240Y92045D01*
X4240Y92023D01*
X4235Y91995D01*
X4235Y91959D01*
X4231Y91918D01*
X4226Y91868D01*
X4217Y91818D01*
X4199Y91700D01*
X4167Y91572D01*
X4126Y91436D01*
X4067Y91299D01*
Y91295D01*
X4058Y91281D01*
X4049Y91263D01*
X4031Y91235D01*
X4013Y91203D01*
X3985Y91163D01*
X3958Y91117D01*
X3922Y91067D01*
X3876Y91008D01*
X3831Y90944D01*
X3776Y90880D01*
X3713Y90808D01*
X3649Y90735D01*
X3572Y90653D01*
X3490Y90575D01*
X3403Y90489D01*
X2257Y89406D01*
X4405Y89407D01*
X4405Y88469D01*
X633Y88468D01*
X633Y89214D01*
X2557Y91030D01*
X2561Y91035D01*
X2571Y91044D01*
X2584Y91057D01*
X2607Y91080D01*
X2630Y91103D01*
X2657Y91135D01*
X2721Y91203D01*
X2789Y91280D01*
X2857Y91362D01*
X2921Y91449D01*
X2943Y91490D01*
X2966Y91531D01*
Y91535D01*
X2971Y91540D01*
X2984Y91567D01*
X3002Y91608D01*
X3021Y91663D01*
X3039Y91726D01*
X3057Y91799D01*
X3071Y91872D01*
X3075Y91949D01*
Y91954D01*
X3075Y91963D01*
Y91977D01*
X3071Y91999D01*
X3066Y92054D01*
X3048Y92118D01*
X3025Y92195D01*
X2989Y92268D01*
X2939Y92345D01*
X2907Y92377D01*
X2870Y92409D01*
X2861Y92418D01*
X2847Y92422D01*
X2834Y92436D01*
X2811Y92445D01*
X2788Y92459D01*
X2757Y92477D01*
X2720Y92491D01*
X2684Y92504D01*
X2638Y92523D01*
X2588Y92536D01*
X2538Y92545D01*
X2415Y92563D01*
X2279Y92572D01*
X2224Y92572D01*
X2197Y92568D01*
X2160Y92568D01*
X2083Y92559D01*
X1992Y92540D01*
X1892Y92518D01*
X1787Y92486D01*
X1687Y92445D01*
X1683Y92445D01*
X1674Y92440D01*
X1660Y92431D01*
X1642Y92422D01*
X1596Y92395D01*
X1533Y92354D01*
X1464Y92299D01*
X1392Y92235D01*
X1314Y92158D01*
X1246Y92071D01*
X404Y92612D01*
X409Y92617D01*
X418Y92631D01*
X436Y92654D01*
X459Y92685D01*
X486Y92722D01*
X522Y92763D01*
X568Y92808D01*
X613Y92858D01*
X668Y92913D01*
X727Y92967D01*
X795Y93027D01*
X868Y93081D01*
X945Y93136D01*
X1027Y93191D01*
X1114Y93241D01*
X1209Y93291D01*
X1214Y93295D01*
X1232Y93300D01*
X1259Y93314D01*
X1300Y93327D01*
X1350Y93350D01*
X1405Y93368D01*
X1473Y93391D01*
X1550Y93414D01*
X1632Y93437D01*
X1723Y93459D01*
X1819Y93482D01*
X1923Y93500D01*
X2028Y93514D01*
X2142Y93528D01*
X2260Y93532D01*
X2383Y93537D01*
X2437Y93537D01*
X2479Y93533D01*
D02*
G37*
G36*
X-6562Y93529D02*
X-6517Y93529D01*
X-6458Y93524D01*
X-6394Y93520D01*
X-6326Y93511D01*
X-6253Y93501D01*
X-6176Y93488D01*
X-6012Y93456D01*
X-5843Y93411D01*
X-5684Y93352D01*
X-5680D01*
X-5666Y93342D01*
X-5643Y93333D01*
X-5616Y93320D01*
X-5579Y93301D01*
X-5539Y93279D01*
X-5447Y93220D01*
X-5343Y93151D01*
X-5234Y93060D01*
X-5129Y92961D01*
X-5033Y92842D01*
X-5029Y92838D01*
X-5024Y92829D01*
X-5011Y92810D01*
X-4997Y92783D01*
X-4979Y92751D01*
X-4960Y92715D01*
X-4938Y92669D01*
X-4915Y92619D01*
X-4897Y92565D01*
X-4874Y92506D01*
X-4856Y92442D01*
X-4837Y92374D01*
X-4810Y92224D01*
X-4806Y92142D01*
X-4801Y92060D01*
Y92055D01*
X-4801Y92041D01*
X-4801Y92019D01*
X-4805Y91992D01*
X-4805Y91955D01*
X-4810Y91914D01*
X-4814Y91864D01*
X-4823Y91814D01*
X-4842Y91696D01*
X-4874Y91568D01*
X-4914Y91432D01*
X-4973Y91295D01*
Y91291D01*
X-4983Y91277D01*
X-4992Y91259D01*
X-5010Y91232D01*
X-5028Y91200D01*
X-5055Y91159D01*
X-5083Y91113D01*
X-5119Y91063D01*
X-5164Y91004D01*
X-5210Y90940D01*
X-5265Y90877D01*
X-5328Y90804D01*
X-5392Y90731D01*
X-5469Y90649D01*
X-5551Y90572D01*
X-5637Y90485D01*
X-6784Y89402D01*
X-4636Y89403D01*
X-4636Y88465D01*
X-8407Y88464D01*
X-8408Y89210D01*
X-6484Y91026D01*
X-6479Y91031D01*
X-6470Y91040D01*
X-6457Y91053D01*
X-6434Y91076D01*
X-6411Y91099D01*
X-6384Y91131D01*
X-6320Y91199D01*
X-6252Y91277D01*
X-6184Y91358D01*
X-6120Y91445D01*
X-6097Y91486D01*
X-6075Y91527D01*
Y91531D01*
X-6070Y91536D01*
X-6056Y91563D01*
X-6038Y91604D01*
X-6020Y91659D01*
X-6002Y91723D01*
X-5984Y91795D01*
X-5970Y91868D01*
X-5966Y91945D01*
Y91950D01*
X-5966Y91959D01*
Y91973D01*
X-5970Y91996D01*
X-5975Y92050D01*
X-5993Y92114D01*
X-6016Y92191D01*
X-6052Y92264D01*
X-6102Y92341D01*
X-6134Y92373D01*
X-6171Y92405D01*
X-6180Y92414D01*
X-6193Y92419D01*
X-6207Y92432D01*
X-6230Y92441D01*
X-6252Y92455D01*
X-6284Y92473D01*
X-6321Y92487D01*
X-6357Y92500D01*
X-6403Y92519D01*
X-6453Y92532D01*
X-6503Y92541D01*
X-6626Y92559D01*
X-6762Y92568D01*
X-6817Y92568D01*
X-6844Y92564D01*
X-6881Y92564D01*
X-6958Y92555D01*
X-7049Y92536D01*
X-7149Y92514D01*
X-7254Y92482D01*
X-7354Y92441D01*
X-7358D01*
X-7367Y92436D01*
X-7381Y92427D01*
X-7399Y92418D01*
X-7445Y92391D01*
X-7508Y92350D01*
X-7576Y92295D01*
X-7649Y92231D01*
X-7727Y92154D01*
X-7795Y92067D01*
X-8637Y92609D01*
X-8632Y92613D01*
X-8623Y92627D01*
X-8605Y92650D01*
X-8582Y92681D01*
X-8555Y92718D01*
X-8519Y92759D01*
X-8473Y92804D01*
X-8428Y92854D01*
X-8373Y92909D01*
X-8314Y92964D01*
X-8246Y93023D01*
X-8173Y93077D01*
X-8096Y93132D01*
X-8014Y93187D01*
X-7927Y93237D01*
X-7832Y93287D01*
X-7827Y93291D01*
X-7809Y93296D01*
X-7782Y93310D01*
X-7741Y93323D01*
X-7691Y93346D01*
X-7636Y93364D01*
X-7568Y93387D01*
X-7491Y93410D01*
X-7409Y93433D01*
X-7318Y93455D01*
X-7222Y93478D01*
X-7118Y93497D01*
X-7013Y93510D01*
X-6899Y93524D01*
X-6781Y93528D01*
X-6658Y93533D01*
X-6603Y93533D01*
X-6562Y93529D01*
D02*
G37*
G36*
X-27323Y92341D02*
X-27264Y92341D01*
X-27187Y92332D01*
X-27101Y92323D01*
X-27005Y92309D01*
X-26905Y92291D01*
X-26796Y92269D01*
X-26682Y92241D01*
X-26568Y92205D01*
X-26454Y92164D01*
X-26345Y92119D01*
X-26236Y92060D01*
X-26136Y91996D01*
X-26040Y91919D01*
X-26036Y91914D01*
X-26017Y91900D01*
X-25995Y91873D01*
X-25967Y91841D01*
X-25931Y91796D01*
X-25890Y91741D01*
X-25844Y91673D01*
X-25799Y91600D01*
X-25758Y91514D01*
X-25712Y91423D01*
X-25671Y91318D01*
X-25635Y91200D01*
X-25608Y91077D01*
X-25580Y90941D01*
X-25567Y90795D01*
X-25562Y90640D01*
X-25561Y88456D01*
X-26603Y88456D01*
X-26603Y88929D01*
X-26608Y88924D01*
X-26617Y88906D01*
X-26640Y88879D01*
X-26667Y88847D01*
X-26703Y88806D01*
X-26749Y88761D01*
X-26803Y88715D01*
X-26867Y88665D01*
X-26940Y88615D01*
X-27026Y88569D01*
X-27122Y88524D01*
X-27226Y88483D01*
X-27345Y88451D01*
X-27477Y88424D01*
X-27618Y88405D01*
X-27772Y88401D01*
X-27813Y88401D01*
X-27845Y88405D01*
X-27886Y88405D01*
X-27927Y88410D01*
X-27977Y88414D01*
X-28032Y88419D01*
X-28155Y88437D01*
X-28282Y88464D01*
X-28409Y88496D01*
X-28537Y88546D01*
X-28541D01*
X-28550Y88555D01*
X-28569Y88560D01*
X-28591Y88573D01*
X-28619Y88587D01*
X-28646Y88610D01*
X-28719Y88655D01*
X-28801Y88714D01*
X-28883Y88783D01*
X-28960Y88864D01*
X-29033Y88960D01*
Y88964D01*
X-29042Y88973D01*
X-29046Y88987D01*
X-29060Y89005D01*
X-29074Y89033D01*
X-29087Y89060D01*
X-29119Y89133D01*
X-29151Y89224D01*
X-29179Y89324D01*
X-29197Y89433D01*
X-29206Y89556D01*
Y89560D01*
X-29206Y89579D01*
X-29201Y89606D01*
X-29201Y89647D01*
X-29192Y89688D01*
X-29183Y89742D01*
X-29174Y89802D01*
X-29156Y89861D01*
X-29133Y89929D01*
X-29106Y89997D01*
X-29074Y90065D01*
X-29038Y90138D01*
X-28993Y90207D01*
X-28938Y90275D01*
X-28874Y90339D01*
X-28806Y90398D01*
X-28801Y90402D01*
X-28788Y90411D01*
X-28765Y90425D01*
X-28729Y90448D01*
X-28688Y90471D01*
X-28633Y90493D01*
X-28569Y90521D01*
X-28497Y90553D01*
X-28415Y90580D01*
X-28324Y90607D01*
X-28219Y90630D01*
X-28110Y90657D01*
X-27987Y90676D01*
X-27855Y90689D01*
X-27714Y90698D01*
X-27559Y90703D01*
X-26677Y90703D01*
Y90708D01*
X-26677Y90722D01*
Y90740D01*
X-26681Y90763D01*
X-26681Y90794D01*
X-26690Y90831D01*
X-26704Y90908D01*
X-26732Y90999D01*
X-26772Y91095D01*
X-26795Y91140D01*
X-26827Y91181D01*
X-26859Y91227D01*
X-26900Y91263D01*
X-26904Y91268D01*
X-26909Y91272D01*
X-26923Y91281D01*
X-26941Y91295D01*
X-26964Y91309D01*
X-26991Y91327D01*
X-27027Y91345D01*
X-27064Y91363D01*
X-27109Y91381D01*
X-27155Y91395D01*
X-27209Y91413D01*
X-27268Y91427D01*
X-27337Y91440D01*
X-27405Y91449D01*
X-27478Y91458D01*
X-27610Y91458D01*
X-27637Y91454D01*
X-27674Y91454D01*
X-27751Y91445D01*
X-27842Y91436D01*
X-27942Y91417D01*
X-28051Y91395D01*
X-28160Y91363D01*
X-28165D01*
X-28174Y91358D01*
X-28188Y91353D01*
X-28210Y91344D01*
X-28233Y91335D01*
X-28265Y91322D01*
X-28333Y91294D01*
X-28415Y91258D01*
X-28497Y91212D01*
X-28583Y91162D01*
X-28665Y91103D01*
X-29061Y91881D01*
X-29057Y91886D01*
X-29048Y91890D01*
X-29030Y91904D01*
X-29007Y91917D01*
X-28975Y91936D01*
X-28939Y91958D01*
X-28898Y91981D01*
X-28848Y92004D01*
X-28798Y92031D01*
X-28738Y92058D01*
X-28679Y92090D01*
X-28611Y92118D01*
X-28470Y92172D01*
X-28311Y92222D01*
X-28306D01*
X-28293Y92227D01*
X-28265Y92236D01*
X-28234Y92241D01*
X-28197Y92250D01*
X-28147Y92264D01*
X-28092Y92273D01*
X-28033Y92286D01*
X-27970Y92295D01*
X-27897Y92305D01*
X-27747Y92327D01*
X-27583Y92341D01*
X-27410Y92346D01*
X-27369Y92346D01*
X-27323Y92341D01*
D02*
G37*
G36*
X-31742Y93436D02*
X-31665Y93431D01*
X-31578Y93422D01*
X-31478Y93413D01*
X-31374Y93395D01*
X-31264Y93377D01*
X-31146Y93354D01*
X-31032Y93327D01*
X-30914Y93295D01*
X-30800Y93254D01*
X-30691Y93204D01*
X-30586Y93154D01*
X-30491Y93091D01*
X-30486Y93086D01*
X-30468Y93072D01*
X-30445Y93054D01*
X-30413Y93027D01*
X-30377Y92991D01*
X-30336Y92950D01*
X-30290Y92900D01*
X-30245Y92840D01*
X-30199Y92777D01*
X-30158Y92704D01*
X-30117Y92627D01*
X-30081Y92545D01*
X-30049Y92454D01*
X-30026Y92358D01*
X-30008Y92254D01*
X-30003Y92144D01*
Y92140D01*
X-30003Y92126D01*
X-30003Y92108D01*
X-30008Y92085D01*
X-30008Y92053D01*
X-30012Y92013D01*
X-30017Y91972D01*
X-30026Y91926D01*
X-30044Y91826D01*
X-30076Y91717D01*
X-30121Y91603D01*
X-30181Y91494D01*
Y91489D01*
X-30190Y91480D01*
X-30199Y91466D01*
X-30212Y91448D01*
X-30253Y91398D01*
X-30308Y91334D01*
X-30376Y91262D01*
X-30458Y91189D01*
X-30558Y91116D01*
X-30667Y91048D01*
X-30663D01*
X-30649Y91043D01*
X-30626Y91034D01*
X-30594Y91020D01*
X-30562Y91007D01*
X-30517Y90988D01*
X-30472Y90966D01*
X-30422Y90939D01*
X-30317Y90875D01*
X-30203Y90798D01*
X-30098Y90702D01*
X-29998Y90593D01*
X-29994Y90588D01*
X-29989Y90579D01*
X-29975Y90561D01*
X-29962Y90538D01*
X-29939Y90507D01*
X-29921Y90470D01*
X-29898Y90425D01*
X-29875Y90375D01*
X-29853Y90324D01*
X-29830Y90265D01*
X-29807Y90197D01*
X-29789Y90129D01*
X-29761Y89979D01*
X-29757Y89901D01*
X-29752Y89815D01*
X-29752Y89806D01*
Y89788D01*
X-29757Y89751D01*
X-29761Y89706D01*
X-29766Y89651D01*
X-29779Y89587D01*
X-29793Y89519D01*
X-29816Y89442D01*
X-29843Y89364D01*
X-29875Y89283D01*
X-29916Y89196D01*
X-29966Y89114D01*
X-30025Y89028D01*
X-30093Y88950D01*
X-30170Y88873D01*
X-30261Y88805D01*
X-30266Y88800D01*
X-30284Y88791D01*
X-30316Y88773D01*
X-30357Y88750D01*
X-30411Y88723D01*
X-30475Y88695D01*
X-30552Y88664D01*
X-30639Y88632D01*
X-30739Y88595D01*
X-30848Y88563D01*
X-30971Y88536D01*
X-31103Y88508D01*
X-31249Y88486D01*
X-31403Y88467D01*
X-31572Y88458D01*
X-31749Y88454D01*
X-34329Y88453D01*
X-34331Y93439D01*
X-31806Y93440D01*
X-31742Y93436D01*
D02*
G37*
G36*
X-39832Y93432D02*
X-39759Y93428D01*
X-39677Y93419D01*
X-39586Y93410D01*
X-39482Y93396D01*
X-39372Y93383D01*
X-39259Y93360D01*
X-39140Y93337D01*
X-39017Y93305D01*
X-38895Y93269D01*
X-38772Y93228D01*
X-38649Y93178D01*
X-38530Y93124D01*
X-38521Y93119D01*
X-38503Y93110D01*
X-38471Y93092D01*
X-38426Y93064D01*
X-38376Y93033D01*
X-38317Y92996D01*
X-38248Y92951D01*
X-38175Y92901D01*
X-38098Y92842D01*
X-38021Y92773D01*
X-37939Y92705D01*
X-37857Y92623D01*
X-37780Y92541D01*
X-37702Y92450D01*
X-37629Y92355D01*
X-37561Y92250D01*
X-37556Y92246D01*
X-37547Y92223D01*
X-37529Y92196D01*
X-37506Y92150D01*
X-37479Y92096D01*
X-37452Y92032D01*
X-37420Y91959D01*
X-37388Y91877D01*
X-37356Y91786D01*
X-37324Y91686D01*
X-37297Y91577D01*
X-37269Y91463D01*
X-37247Y91341D01*
X-37228Y91213D01*
X-37219Y91081D01*
X-37215Y90945D01*
Y90936D01*
X-37215Y90913D01*
X-37215Y90872D01*
X-37219Y90817D01*
X-37224Y90754D01*
X-37233Y90676D01*
X-37242Y90594D01*
X-37255Y90499D01*
X-37273Y90399D01*
X-37301Y90294D01*
X-37328Y90185D01*
X-37360Y90076D01*
X-37401Y89962D01*
X-37446Y89848D01*
X-37501Y89739D01*
X-37560Y89630D01*
X-37564Y89625D01*
X-37578Y89607D01*
X-37596Y89575D01*
X-37624Y89539D01*
X-37660Y89489D01*
X-37701Y89438D01*
X-37751Y89375D01*
X-37810Y89311D01*
X-37874Y89243D01*
X-37946Y89170D01*
X-38028Y89097D01*
X-38115Y89029D01*
X-38206Y88956D01*
X-38306Y88888D01*
X-38415Y88819D01*
X-38529Y88760D01*
X-38538Y88756D01*
X-38556Y88747D01*
X-38592Y88733D01*
X-38638Y88710D01*
X-38697Y88687D01*
X-38770Y88665D01*
X-38852Y88633D01*
X-38943Y88605D01*
X-39043Y88578D01*
X-39152Y88551D01*
X-39270Y88523D01*
X-39398Y88500D01*
X-39529Y88478D01*
X-39671Y88464D01*
X-39816Y88455D01*
X-39966Y88450D01*
X-42232Y88449D01*
X-42234Y93436D01*
X-39891Y93437D01*
X-39832Y93432D01*
D02*
G37*
G36*
X-47556Y88447D02*
X-48670Y88446D01*
X-48672Y92277D01*
X-47557Y92278D01*
X-47556Y88447D01*
D02*
G37*
G36*
X-52449Y92503D02*
X-55065Y92502D01*
X-55064Y91183D01*
X-52753Y91184D01*
X-52753Y90260D01*
X-55064Y90259D01*
X-55063Y88444D01*
X-56219Y88443D01*
X-56221Y93430D01*
X-52449Y93432D01*
X-52449Y92503D01*
D02*
G37*
G36*
X43926Y89806D02*
X43949Y89806D01*
X43981Y89801D01*
X44049Y89788D01*
X44126Y89765D01*
X44208Y89728D01*
X44290Y89683D01*
X44368Y89619D01*
X44372D01*
X44377Y89610D01*
X44399Y89587D01*
X44431Y89542D01*
X44468Y89487D01*
X44504Y89415D01*
X44536Y89333D01*
X44559Y89233D01*
X44568Y89178D01*
X44568Y89123D01*
X44568Y89119D01*
Y89110D01*
X44568Y89096D01*
X44563Y89073D01*
X44563Y89051D01*
X44559Y89019D01*
X44545Y88951D01*
X44518Y88873D01*
X44482Y88791D01*
X44436Y88705D01*
X44404Y88668D01*
X44368Y88627D01*
X44359Y88618D01*
X44331Y88595D01*
X44291Y88564D01*
X44231Y88532D01*
X44159Y88495D01*
X44077Y88463D01*
X43981Y88441D01*
X43931Y88436D01*
X43877Y88432D01*
X43849Y88432D01*
X43826Y88436D01*
X43804Y88436D01*
X43772Y88441D01*
X43704Y88454D01*
X43626Y88481D01*
X43544Y88513D01*
X43458Y88563D01*
X43422Y88591D01*
X43380Y88627D01*
Y88631D01*
X43371Y88636D01*
X43349Y88663D01*
X43317Y88704D01*
X43285Y88763D01*
X43249Y88836D01*
X43217Y88923D01*
X43194Y89018D01*
X43189Y89068D01*
X43185Y89123D01*
Y89127D01*
Y89136D01*
X43185Y89155D01*
X43189Y89173D01*
X43189Y89200D01*
X43194Y89232D01*
X43207Y89300D01*
X43235Y89382D01*
X43266Y89464D01*
X43316Y89546D01*
X43344Y89582D01*
X43380Y89619D01*
X43385Y89623D01*
X43389Y89628D01*
X43417Y89651D01*
X43457Y89678D01*
X43517Y89714D01*
X43589Y89751D01*
X43676Y89778D01*
X43771Y89801D01*
X43876Y89810D01*
X43903Y89810D01*
X43926Y89806D01*
D02*
G37*
G36*
X36554Y92369D02*
X36604Y92364D01*
X36663Y92360D01*
X36727Y92355D01*
X36800Y92342D01*
X36872Y92328D01*
X36954Y92314D01*
X37127Y92269D01*
X37214Y92242D01*
X37305Y92210D01*
X37391Y92173D01*
X37478Y92128D01*
X37482Y92123D01*
X37496Y92119D01*
X37523Y92101D01*
X37555Y92082D01*
X37591Y92060D01*
X37637Y92028D01*
X37683Y91992D01*
X37737Y91951D01*
X37796Y91905D01*
X37851Y91851D01*
X37910Y91796D01*
X37969Y91732D01*
X38028Y91664D01*
X38088Y91591D01*
X38142Y91514D01*
X38192Y91432D01*
X38197Y91427D01*
X38206Y91414D01*
X38215Y91387D01*
X38233Y91355D01*
X38252Y91309D01*
X38274Y91259D01*
X38302Y91200D01*
X38324Y91132D01*
X38347Y91059D01*
X38375Y90977D01*
X38397Y90891D01*
X38416Y90800D01*
X38434Y90704D01*
X38447Y90604D01*
X38452Y90495D01*
X38457Y90386D01*
X38457Y90377D01*
Y90363D01*
X38452Y90340D01*
X38452Y90304D01*
X38448Y90276D01*
X38448Y90249D01*
X38443Y90217D01*
X38443Y90176D01*
X38439Y90135D01*
X38434Y90085D01*
X35531Y90084D01*
Y90080D01*
X35536Y90070D01*
X35540Y90052D01*
X35549Y90025D01*
X35559Y89998D01*
X35572Y89961D01*
X35609Y89879D01*
X35659Y89788D01*
X35722Y89697D01*
X35804Y89606D01*
X35854Y89561D01*
X35904Y89520D01*
X35909D01*
X35918Y89511D01*
X35936Y89502D01*
X35959Y89488D01*
X35986Y89475D01*
X36018Y89456D01*
X36059Y89438D01*
X36105Y89420D01*
X36155Y89397D01*
X36209Y89379D01*
X36269Y89361D01*
X36337Y89347D01*
X36478Y89325D01*
X36551Y89320D01*
X36633Y89316D01*
X36683Y89316D01*
X36710Y89320D01*
X36737Y89320D01*
X36810Y89325D01*
X36892Y89338D01*
X36978Y89352D01*
X37069Y89375D01*
X37160Y89402D01*
X37165Y89402D01*
X37169Y89407D01*
X37183Y89411D01*
X37201Y89421D01*
X37242Y89443D01*
X37301Y89471D01*
X37370Y89512D01*
X37442Y89562D01*
X37515Y89616D01*
X37593Y89685D01*
X38184Y89043D01*
X38180Y89039D01*
X38157Y89016D01*
X38130Y88989D01*
X38084Y88948D01*
X38025Y88902D01*
X37957Y88848D01*
X37875Y88793D01*
X37784Y88738D01*
X37679Y88679D01*
X37561Y88625D01*
X37429Y88570D01*
X37288Y88524D01*
X37133Y88483D01*
X36970Y88456D01*
X36792Y88438D01*
X36601Y88428D01*
X36537Y88428D01*
X36492Y88433D01*
X36437Y88437D01*
X36369Y88442D01*
X36296Y88451D01*
X36214Y88460D01*
X36128Y88474D01*
X36037Y88487D01*
X35846Y88533D01*
X35746Y88564D01*
X35645Y88596D01*
X35550Y88633D01*
X35454Y88678D01*
X35450Y88683D01*
X35432Y88692D01*
X35409Y88705D01*
X35372Y88724D01*
X35331Y88751D01*
X35282Y88783D01*
X35231Y88819D01*
X35172Y88860D01*
X35113Y88906D01*
X35049Y88960D01*
X34986Y89015D01*
X34922Y89078D01*
X34858Y89147D01*
X34799Y89215D01*
X34740Y89292D01*
X34685Y89374D01*
X34681Y89378D01*
X34672Y89397D01*
X34662Y89420D01*
X34644Y89451D01*
X34621Y89497D01*
X34599Y89547D01*
X34576Y89606D01*
X34553Y89670D01*
X34526Y89742D01*
X34503Y89820D01*
X34480Y89906D01*
X34457Y89997D01*
X34439Y90088D01*
X34430Y90188D01*
X34421Y90293D01*
X34416Y90398D01*
X34416Y90402D01*
X34416Y90425D01*
X34416Y90452D01*
X34421Y90493D01*
X34425Y90543D01*
X34430Y90598D01*
X34439Y90662D01*
X34448Y90734D01*
X34462Y90812D01*
X34480Y90889D01*
X34503Y90975D01*
X34530Y91062D01*
X34557Y91148D01*
X34593Y91235D01*
X34634Y91321D01*
X34680Y91408D01*
X34684Y91412D01*
X34693Y91426D01*
X34707Y91453D01*
X34730Y91485D01*
X34757Y91522D01*
X34789Y91567D01*
X34830Y91613D01*
X34871Y91667D01*
X34921Y91722D01*
X34975Y91781D01*
X35034Y91840D01*
X35103Y91899D01*
X35171Y91959D01*
X35248Y92013D01*
X35326Y92068D01*
X35412Y92118D01*
X35416Y92123D01*
X35435Y92127D01*
X35458Y92141D01*
X35494Y92159D01*
X35539Y92177D01*
X35589Y92200D01*
X35653Y92223D01*
X35717Y92246D01*
X35794Y92268D01*
X35871Y92291D01*
X35958Y92314D01*
X36053Y92332D01*
X36149Y92350D01*
X36249Y92364D01*
X36354Y92369D01*
X36458Y92373D01*
X36513Y92373D01*
X36554Y92369D01*
D02*
G37*
G36*
X54176Y93555D02*
X54230Y93550D01*
X54294Y93541D01*
X54367Y93532D01*
X54444Y93523D01*
X54526Y93505D01*
X54617Y93487D01*
X54708Y93459D01*
X54799Y93432D01*
X54895Y93396D01*
X54990Y93355D01*
X55086Y93309D01*
X55177Y93255D01*
X55181Y93250D01*
X55199Y93241D01*
X55222Y93223D01*
X55259Y93200D01*
X55300Y93168D01*
X55345Y93128D01*
X55400Y93082D01*
X55454Y93032D01*
X55514Y92973D01*
X55577Y92905D01*
X55641Y92832D01*
X55705Y92755D01*
X55764Y92668D01*
X55828Y92573D01*
X55882Y92472D01*
X55937Y92368D01*
X55941Y92363D01*
X55951Y92341D01*
X55964Y92309D01*
X55978Y92263D01*
X56001Y92209D01*
X56024Y92145D01*
X56046Y92068D01*
X56074Y91977D01*
X56101Y91881D01*
X56124Y91777D01*
X56147Y91663D01*
X56169Y91540D01*
X56183Y91413D01*
X56197Y91276D01*
X56206Y91135D01*
X56211Y90985D01*
Y90976D01*
X56211Y90948D01*
X56211Y90908D01*
X56206Y90848D01*
X56201Y90780D01*
X56197Y90698D01*
X56188Y90607D01*
X56179Y90512D01*
X56161Y90402D01*
X56143Y90293D01*
X56124Y90175D01*
X56097Y90061D01*
X56065Y89943D01*
X56029Y89824D01*
X55988Y89711D01*
X55938Y89597D01*
X55934Y89592D01*
X55924Y89570D01*
X55911Y89542D01*
X55888Y89501D01*
X55861Y89451D01*
X55825Y89397D01*
X55788Y89333D01*
X55743Y89269D01*
X55688Y89196D01*
X55633Y89124D01*
X55570Y89051D01*
X55502Y88978D01*
X55429Y88905D01*
X55352Y88837D01*
X55270Y88769D01*
X55179Y88709D01*
X55174Y88705D01*
X55156Y88696D01*
X55129Y88682D01*
X55092Y88664D01*
X55047Y88641D01*
X54992Y88614D01*
X54928Y88586D01*
X54860Y88559D01*
X54783Y88532D01*
X54696Y88504D01*
X54605Y88477D01*
X54510Y88454D01*
X54405Y88436D01*
X54301Y88422D01*
X54187Y88413D01*
X54073Y88409D01*
X54014Y88409D01*
X53969Y88413D01*
X53914Y88418D01*
X53850Y88427D01*
X53782Y88436D01*
X53705Y88445D01*
X53618Y88463D01*
X53532Y88481D01*
X53441Y88504D01*
X53345Y88536D01*
X53250Y88568D01*
X53154Y88608D01*
X53058Y88654D01*
X52967Y88708D01*
X52963Y88713D01*
X52945Y88722D01*
X52922Y88740D01*
X52890Y88767D01*
X52849Y88795D01*
X52799Y88836D01*
X52749Y88881D01*
X52694Y88936D01*
X52631Y88995D01*
X52571Y89059D01*
X52508Y89131D01*
X52444Y89213D01*
X52385Y89300D01*
X52321Y89391D01*
X52266Y89491D01*
X52212Y89595D01*
X52207Y89604D01*
X52198Y89623D01*
X52184Y89654D01*
X52171Y89700D01*
X52148Y89755D01*
X52125Y89823D01*
X52102Y89900D01*
X52075Y89987D01*
X52048Y90082D01*
X52025Y90191D01*
X52002Y90305D01*
X51979Y90428D01*
X51965Y90555D01*
X51952Y90692D01*
X51943Y90833D01*
X51938Y90983D01*
X51938Y90987D01*
Y90992D01*
X51938Y91019D01*
X51938Y91060D01*
X51943Y91119D01*
X51947Y91188D01*
X51952Y91270D01*
X51961Y91361D01*
X51974Y91456D01*
X51988Y91565D01*
X52006Y91675D01*
X52029Y91788D01*
X52051Y91907D01*
X52083Y92025D01*
X52120Y92143D01*
X52161Y92257D01*
X52210Y92366D01*
X52215Y92371D01*
X52224Y92394D01*
X52238Y92421D01*
X52261Y92462D01*
X52288Y92512D01*
X52324Y92567D01*
X52360Y92630D01*
X52406Y92694D01*
X52456Y92767D01*
X52515Y92840D01*
X52579Y92913D01*
X52643Y92985D01*
X52715Y93058D01*
X52793Y93126D01*
X52879Y93195D01*
X52965Y93254D01*
X52970Y93258D01*
X52988Y93268D01*
X53015Y93281D01*
X53052Y93304D01*
X53097Y93327D01*
X53152Y93349D01*
X53216Y93377D01*
X53288Y93409D01*
X53366Y93436D01*
X53448Y93463D01*
X53539Y93486D01*
X53639Y93514D01*
X53739Y93532D01*
X53848Y93546D01*
X53957Y93555D01*
X54071Y93559D01*
X54130Y93559D01*
X54176Y93555D01*
D02*
G37*
G36*
X-12786Y92348D02*
X-12736Y92343D01*
X-12677Y92338D01*
X-12613Y92334D01*
X-12541Y92320D01*
X-12468Y92307D01*
X-12386Y92293D01*
X-12213Y92248D01*
X-12127Y92220D01*
X-12036Y92189D01*
X-11949Y92152D01*
X-11863Y92107D01*
X-11858Y92102D01*
X-11844Y92098D01*
X-11817Y92080D01*
X-11785Y92061D01*
X-11749Y92039D01*
X-11703Y92007D01*
X-11658Y91970D01*
X-11603Y91929D01*
X-11544Y91884D01*
X-11489Y91829D01*
X-11430Y91775D01*
X-11371Y91711D01*
X-11312Y91643D01*
X-11253Y91570D01*
X-11198Y91493D01*
X-11148Y91411D01*
X-11143Y91406D01*
X-11134Y91393D01*
X-11125Y91365D01*
X-11107Y91334D01*
X-11089Y91288D01*
X-11066Y91238D01*
X-11039Y91179D01*
X-11016Y91111D01*
X-10993Y91038D01*
X-10966Y90956D01*
X-10943Y90869D01*
X-10925Y90778D01*
X-10906Y90683D01*
X-10893Y90583D01*
X-10888Y90474D01*
X-10883Y90364D01*
Y90355D01*
X-10883Y90342D01*
X-10888Y90319D01*
X-10888Y90283D01*
X-10893Y90255D01*
X-10893Y90228D01*
X-10897Y90196D01*
X-10897Y90155D01*
X-10902Y90114D01*
X-10906Y90064D01*
X-13809Y90063D01*
Y90058D01*
X-13804Y90049D01*
X-13800Y90031D01*
X-13791Y90004D01*
X-13782Y89977D01*
X-13768Y89940D01*
X-13732Y89858D01*
X-13681Y89767D01*
X-13618Y89676D01*
X-13536Y89585D01*
X-13486Y89540D01*
X-13436Y89499D01*
X-13431Y89499D01*
X-13422Y89490D01*
X-13404Y89481D01*
X-13381Y89467D01*
X-13354Y89453D01*
X-13322Y89435D01*
X-13281Y89417D01*
X-13236Y89399D01*
X-13185Y89376D01*
X-13131Y89358D01*
X-13072Y89340D01*
X-13003Y89326D01*
X-12862Y89303D01*
X-12789Y89299D01*
X-12708Y89294D01*
X-12658Y89294D01*
X-12630Y89299D01*
X-12603Y89299D01*
X-12530Y89304D01*
X-12448Y89317D01*
X-12362Y89331D01*
X-12271Y89354D01*
X-12180Y89381D01*
X-12175D01*
X-12171Y89386D01*
X-12157Y89390D01*
X-12139Y89399D01*
X-12098Y89422D01*
X-12039Y89450D01*
X-11971Y89490D01*
X-11898Y89540D01*
X-11825Y89595D01*
X-11748Y89663D01*
X-11156Y89022D01*
X-11161Y89018D01*
X-11183Y88995D01*
X-11210Y88968D01*
X-11256Y88927D01*
X-11315Y88881D01*
X-11383Y88826D01*
X-11465Y88772D01*
X-11556Y88717D01*
X-11661Y88658D01*
X-11779Y88603D01*
X-11911Y88549D01*
X-12052Y88503D01*
X-12207Y88462D01*
X-12370Y88435D01*
X-12548Y88416D01*
X-12739Y88407D01*
X-12803Y88407D01*
X-12848Y88412D01*
X-12903Y88416D01*
X-12971Y88421D01*
X-13044Y88430D01*
X-13126Y88439D01*
X-13212Y88453D01*
X-13303Y88466D01*
X-13494Y88512D01*
X-13595Y88543D01*
X-13695Y88575D01*
X-13790Y88612D01*
X-13886Y88657D01*
X-13890Y88661D01*
X-13908Y88671D01*
X-13931Y88684D01*
X-13968Y88702D01*
X-14009Y88730D01*
X-14059Y88762D01*
X-14109Y88798D01*
X-14168Y88839D01*
X-14227Y88884D01*
X-14291Y88939D01*
X-14355Y88994D01*
X-14418Y89057D01*
X-14482Y89125D01*
X-14541Y89194D01*
X-14600Y89271D01*
X-14655Y89353D01*
X-14660Y89357D01*
X-14669Y89376D01*
X-14678Y89398D01*
X-14696Y89430D01*
X-14719Y89476D01*
X-14742Y89526D01*
X-14764Y89585D01*
X-14787Y89648D01*
X-14814Y89721D01*
X-14837Y89799D01*
X-14860Y89885D01*
X-14883Y89976D01*
X-14901Y90067D01*
X-14910Y90167D01*
X-14919Y90272D01*
X-14924Y90376D01*
Y90381D01*
X-14924Y90404D01*
X-14924Y90431D01*
X-14919Y90472D01*
X-14915Y90522D01*
X-14910Y90577D01*
X-14901Y90640D01*
X-14892Y90713D01*
X-14879Y90790D01*
X-14860Y90868D01*
X-14838Y90954D01*
X-14810Y91041D01*
X-14783Y91127D01*
X-14747Y91214D01*
X-14706Y91300D01*
X-14660Y91387D01*
X-14656Y91391D01*
X-14647Y91405D01*
X-14633Y91432D01*
X-14610Y91464D01*
X-14583Y91500D01*
X-14551Y91546D01*
X-14510Y91591D01*
X-14469Y91646D01*
X-14420Y91701D01*
X-14365Y91760D01*
X-14306Y91819D01*
X-14238Y91878D01*
X-14169Y91937D01*
X-14092Y91992D01*
X-14015Y92047D01*
X-13928Y92097D01*
X-13924Y92101D01*
X-13905Y92106D01*
X-13883Y92119D01*
X-13846Y92138D01*
X-13801Y92156D01*
X-13751Y92179D01*
X-13687Y92202D01*
X-13623Y92224D01*
X-13546Y92247D01*
X-13469Y92270D01*
X-13382Y92293D01*
X-13287Y92311D01*
X-13191Y92329D01*
X-13091Y92343D01*
X-12987Y92347D01*
X-12882Y92352D01*
X-12827Y92352D01*
X-12786Y92348D01*
D02*
G37*
G36*
X49339Y93553D02*
X49393Y93548D01*
X49457Y93539D01*
X49530Y93530D01*
X49607Y93521D01*
X49689Y93503D01*
X49780Y93485D01*
X49871Y93457D01*
X49962Y93430D01*
X50058Y93394D01*
X50153Y93353D01*
X50249Y93307D01*
X50340Y93253D01*
X50345Y93248D01*
X50363Y93239D01*
X50386Y93221D01*
X50422Y93198D01*
X50463Y93166D01*
X50508Y93125D01*
X50563Y93080D01*
X50618Y93030D01*
X50677Y92971D01*
X50741Y92903D01*
X50804Y92830D01*
X50868Y92752D01*
X50927Y92666D01*
X50991Y92571D01*
X51046Y92471D01*
X51100Y92366D01*
X51105Y92361D01*
X51114Y92339D01*
X51128Y92307D01*
X51141Y92261D01*
X51164Y92207D01*
X51187Y92143D01*
X51210Y92066D01*
X51237Y91975D01*
X51264Y91879D01*
X51287Y91774D01*
X51310Y91661D01*
X51333Y91538D01*
X51346Y91410D01*
X51360Y91274D01*
X51369Y91133D01*
X51374Y90983D01*
Y90974D01*
X51374Y90946D01*
X51374Y90905D01*
X51369Y90846D01*
X51365Y90778D01*
X51360Y90696D01*
X51351Y90605D01*
X51342Y90509D01*
X51324Y90400D01*
X51306Y90291D01*
X51288Y90173D01*
X51261Y90059D01*
X51229Y89941D01*
X51192Y89822D01*
X51152Y89709D01*
X51101Y89595D01*
X51097Y89590D01*
X51088Y89568D01*
X51074Y89540D01*
X51051Y89499D01*
X51024Y89449D01*
X50988Y89395D01*
X50951Y89331D01*
X50906Y89267D01*
X50851Y89194D01*
X50797Y89122D01*
X50733Y89049D01*
X50665Y88976D01*
X50592Y88903D01*
X50515Y88835D01*
X50433Y88766D01*
X50342Y88707D01*
X50337Y88703D01*
X50319Y88694D01*
X50292Y88680D01*
X50256Y88662D01*
X50210Y88639D01*
X50156Y88612D01*
X50092Y88584D01*
X50024Y88557D01*
X49946Y88530D01*
X49860Y88502D01*
X49769Y88475D01*
X49673Y88452D01*
X49569Y88434D01*
X49464Y88420D01*
X49350Y88411D01*
X49237Y88406D01*
X49177Y88406D01*
X49132Y88411D01*
X49077Y88415D01*
X49014Y88425D01*
X48945Y88434D01*
X48868Y88443D01*
X48781Y88461D01*
X48695Y88479D01*
X48604Y88502D01*
X48508Y88534D01*
X48413Y88565D01*
X48317Y88606D01*
X48222Y88652D01*
X48131Y88706D01*
X48126Y88711D01*
X48108Y88720D01*
X48085Y88738D01*
X48053Y88766D01*
X48012Y88793D01*
X47962Y88834D01*
X47912Y88879D01*
X47858Y88934D01*
X47794Y88993D01*
X47735Y89056D01*
X47671Y89129D01*
X47607Y89211D01*
X47548Y89298D01*
X47484Y89389D01*
X47430Y89489D01*
X47375Y89593D01*
X47370Y89602D01*
X47361Y89621D01*
X47348Y89652D01*
X47334Y89698D01*
X47311Y89753D01*
X47289Y89821D01*
X47266Y89898D01*
X47238Y89985D01*
X47211Y90080D01*
X47188Y90189D01*
X47165Y90303D01*
X47143Y90426D01*
X47129Y90553D01*
X47115Y90690D01*
X47106Y90831D01*
X47101Y90981D01*
X47101Y90986D01*
Y90990D01*
X47101Y91017D01*
X47101Y91058D01*
X47106Y91117D01*
X47110Y91186D01*
X47115Y91268D01*
X47124Y91359D01*
X47138Y91454D01*
X47151Y91563D01*
X47169Y91672D01*
X47192Y91786D01*
X47215Y91905D01*
X47247Y92023D01*
X47283Y92141D01*
X47324Y92255D01*
X47374Y92364D01*
X47378Y92369D01*
X47387Y92392D01*
X47401Y92419D01*
X47424Y92460D01*
X47451Y92510D01*
X47488Y92564D01*
X47524Y92628D01*
X47569Y92692D01*
X47619Y92765D01*
X47679Y92838D01*
X47742Y92910D01*
X47806Y92983D01*
X47879Y93056D01*
X47956Y93124D01*
X48042Y93193D01*
X48129Y93252D01*
X48133Y93256D01*
X48151Y93265D01*
X48179Y93279D01*
X48215Y93302D01*
X48261Y93325D01*
X48315Y93347D01*
X48379Y93375D01*
X48452Y93407D01*
X48529Y93434D01*
X48611Y93461D01*
X48702Y93484D01*
X48802Y93511D01*
X48902Y93530D01*
X49011Y93543D01*
X49121Y93553D01*
X49234Y93557D01*
X49293Y93557D01*
X49339Y93553D01*
D02*
G37*
G36*
X-1921Y93531D02*
X-1867Y93526D01*
X-1803Y93517D01*
X-1730Y93508D01*
X-1653Y93499D01*
X-1571Y93481D01*
X-1480Y93463D01*
X-1389Y93435D01*
X-1298Y93408D01*
X-1202Y93372D01*
X-1107Y93331D01*
X-1011Y93285D01*
X-920Y93231D01*
X-916Y93226D01*
X-898Y93217D01*
X-875Y93199D01*
X-838Y93176D01*
X-797Y93144D01*
X-752Y93103D01*
X-697Y93058D01*
X-643Y93008D01*
X-583Y92949D01*
X-520Y92881D01*
X-456Y92808D01*
X-392Y92730D01*
X-333Y92644D01*
X-269Y92549D01*
X-215Y92448D01*
X-160Y92344D01*
X-155Y92339D01*
X-146Y92317D01*
X-133Y92285D01*
X-119Y92239D01*
X-96Y92185D01*
X-74Y92121D01*
X-51Y92044D01*
X-23Y91953D01*
X4Y91857D01*
X27Y91752D01*
X50Y91639D01*
X72Y91516D01*
X86Y91388D01*
X100Y91252D01*
X109Y91111D01*
X114Y90961D01*
X114Y90952D01*
X114Y90924D01*
X114Y90883D01*
X109Y90824D01*
X105Y90756D01*
X100Y90674D01*
X91Y90583D01*
X82Y90487D01*
X64Y90378D01*
X46Y90269D01*
X27Y90151D01*
X0Y90037D01*
X-32Y89919D01*
X-68Y89800D01*
X-109Y89687D01*
X-159Y89573D01*
X-163Y89568D01*
X-172Y89546D01*
X-186Y89518D01*
X-209Y89477D01*
X-236Y89427D01*
X-273Y89373D01*
X-309Y89309D01*
X-354Y89245D01*
X-409Y89172D01*
X-464Y89100D01*
X-527Y89027D01*
X-595Y88954D01*
X-668Y88881D01*
X-746Y88813D01*
X-827Y88744D01*
X-918Y88685D01*
X-923Y88681D01*
X-941Y88672D01*
X-968Y88658D01*
X-1005Y88640D01*
X-1050Y88617D01*
X-1105Y88590D01*
X-1168Y88562D01*
X-1237Y88535D01*
X-1314Y88508D01*
X-1400Y88480D01*
X-1491Y88453D01*
X-1587Y88430D01*
X-1692Y88412D01*
X-1796Y88398D01*
X-1910Y88389D01*
X-2024Y88384D01*
X-2083Y88384D01*
X-2128Y88389D01*
X-2183Y88393D01*
X-2247Y88403D01*
X-2315Y88412D01*
X-2392Y88421D01*
X-2479Y88439D01*
X-2565Y88457D01*
X-2656Y88480D01*
X-2752Y88512D01*
X-2847Y88543D01*
X-2943Y88584D01*
X-3039Y88630D01*
X-3130Y88684D01*
X-3134Y88689D01*
X-3152Y88698D01*
X-3175Y88716D01*
X-3207Y88743D01*
X-3248Y88771D01*
X-3298Y88812D01*
X-3348Y88857D01*
X-3403Y88912D01*
X-3466Y88971D01*
X-3526Y89034D01*
X-3589Y89107D01*
X-3653Y89189D01*
X-3712Y89276D01*
X-3776Y89367D01*
X-3831Y89467D01*
X-3885Y89571D01*
X-3890Y89580D01*
X-3899Y89599D01*
X-3913Y89630D01*
X-3926Y89676D01*
X-3949Y89731D01*
X-3972Y89799D01*
X-3995Y89876D01*
X-4022Y89963D01*
X-4049Y90058D01*
X-4072Y90167D01*
X-4095Y90281D01*
X-4118Y90404D01*
X-4131Y90531D01*
X-4145Y90668D01*
X-4154Y90809D01*
X-4159Y90959D01*
Y90964D01*
Y90968D01*
X-4159Y90995D01*
X-4159Y91036D01*
X-4154Y91095D01*
X-4150Y91164D01*
X-4145Y91246D01*
X-4136Y91337D01*
X-4123Y91432D01*
X-4109Y91541D01*
X-4091Y91650D01*
X-4068Y91764D01*
X-4045Y91883D01*
X-4014Y92001D01*
X-3977Y92119D01*
X-3937Y92233D01*
X-3887Y92342D01*
X-3882Y92347D01*
X-3873Y92370D01*
X-3859Y92397D01*
X-3836Y92438D01*
X-3809Y92488D01*
X-3773Y92542D01*
X-3736Y92606D01*
X-3691Y92670D01*
X-3641Y92743D01*
X-3582Y92816D01*
X-3518Y92888D01*
X-3455Y92961D01*
X-3382Y93034D01*
X-3304Y93102D01*
X-3218Y93171D01*
X-3132Y93230D01*
X-3127Y93234D01*
X-3109Y93243D01*
X-3081Y93257D01*
X-3045Y93280D01*
X-3000Y93303D01*
X-2945Y93325D01*
X-2881Y93353D01*
X-2809Y93385D01*
X-2731Y93412D01*
X-2649Y93439D01*
X-2558Y93462D01*
X-2458Y93489D01*
X-2358Y93508D01*
X-2249Y93521D01*
X-2140Y93530D01*
X-2026Y93535D01*
X-1967Y93535D01*
X-1921Y93531D01*
D02*
G37*
G36*
X-17914Y92345D02*
X-17860Y92341D01*
X-17791Y92332D01*
X-17709Y92323D01*
X-17618Y92304D01*
X-17523Y92282D01*
X-17423Y92250D01*
X-17318Y92214D01*
X-17213Y92173D01*
X-17109Y92118D01*
X-17004Y92054D01*
X-16908Y91982D01*
X-16813Y91895D01*
X-16726Y91800D01*
X-16727Y92291D01*
X-15676Y92292D01*
X-15674Y89098D01*
Y89093D01*
X-15674Y89084D01*
Y89070D01*
X-15674Y89052D01*
X-15674Y89029D01*
X-15679Y88998D01*
X-15683Y88925D01*
X-15692Y88838D01*
X-15701Y88738D01*
X-15719Y88629D01*
X-15742Y88511D01*
X-15774Y88383D01*
X-15810Y88256D01*
X-15851Y88128D01*
X-15906Y87996D01*
X-15969Y87874D01*
X-16042Y87751D01*
X-16128Y87641D01*
X-16224Y87537D01*
X-16229Y87532D01*
X-16251Y87514D01*
X-16283Y87491D01*
X-16324Y87455D01*
X-16383Y87418D01*
X-16451Y87373D01*
X-16533Y87327D01*
X-16629Y87282D01*
X-16734Y87232D01*
X-16856Y87186D01*
X-16988Y87141D01*
X-17129Y87104D01*
X-17284Y87068D01*
X-17452Y87045D01*
X-17634Y87027D01*
X-17825Y87022D01*
X-17880Y87022D01*
X-17921Y87026D01*
X-17971Y87026D01*
X-18026Y87031D01*
X-18094Y87035D01*
X-18167Y87040D01*
X-18244Y87044D01*
X-18326Y87054D01*
X-18503Y87081D01*
X-18690Y87112D01*
X-18881Y87158D01*
X-18886Y87158D01*
X-18904Y87162D01*
X-18931Y87172D01*
X-18963Y87185D01*
X-19004Y87199D01*
X-19054Y87212D01*
X-19109Y87235D01*
X-19168Y87258D01*
X-19300Y87312D01*
X-19436Y87381D01*
X-19577Y87458D01*
X-19705Y87549D01*
X-19264Y88345D01*
X-19259D01*
X-19255Y88336D01*
X-19241Y88327D01*
X-19218Y88313D01*
X-19196Y88295D01*
X-19168Y88277D01*
X-19136Y88254D01*
X-19095Y88232D01*
X-19009Y88182D01*
X-18904Y88132D01*
X-18786Y88077D01*
X-18654Y88032D01*
X-18649Y88032D01*
X-18636Y88027D01*
X-18618Y88023D01*
X-18590Y88013D01*
X-18554Y88004D01*
X-18517Y87995D01*
X-18472Y87982D01*
X-18422Y87972D01*
X-18308Y87950D01*
X-18181Y87932D01*
X-18049Y87918D01*
X-17908Y87914D01*
X-17853Y87914D01*
X-17812Y87918D01*
X-17767Y87923D01*
X-17712Y87927D01*
X-17648Y87937D01*
X-17585Y87946D01*
X-17448Y87977D01*
X-17375Y88000D01*
X-17303Y88023D01*
X-17239Y88055D01*
X-17171Y88087D01*
X-17111Y88128D01*
X-17057Y88173D01*
X-17052Y88178D01*
X-17043Y88187D01*
X-17030Y88201D01*
X-17016Y88223D01*
X-16993Y88251D01*
X-16971Y88283D01*
X-16948Y88323D01*
X-16920Y88369D01*
X-16893Y88419D01*
X-16871Y88478D01*
X-16848Y88542D01*
X-16825Y88615D01*
X-16811Y88688D01*
X-16798Y88774D01*
X-16789Y88860D01*
X-16784Y88956D01*
X-16784Y89120D01*
X-16789Y89115D01*
X-16803Y89102D01*
X-16830Y89074D01*
X-16862Y89047D01*
X-16907Y89011D01*
X-16962Y88970D01*
X-17025Y88924D01*
X-17098Y88883D01*
X-17180Y88838D01*
X-17271Y88792D01*
X-17371Y88751D01*
X-17476Y88715D01*
X-17594Y88687D01*
X-17717Y88664D01*
X-17853Y88646D01*
X-17994Y88642D01*
X-18045Y88642D01*
X-18085Y88646D01*
X-18131Y88651D01*
X-18185Y88655D01*
X-18245Y88660D01*
X-18313Y88669D01*
X-18386Y88682D01*
X-18463Y88696D01*
X-18627Y88741D01*
X-18709Y88764D01*
X-18795Y88796D01*
X-18882Y88832D01*
X-18964Y88873D01*
X-18968Y88878D01*
X-18982Y88882D01*
X-19005Y88896D01*
X-19037Y88914D01*
X-19073Y88941D01*
X-19114Y88969D01*
X-19164Y89000D01*
X-19214Y89041D01*
X-19269Y89087D01*
X-19323Y89132D01*
X-19382Y89187D01*
X-19442Y89246D01*
X-19496Y89310D01*
X-19551Y89373D01*
X-19656Y89524D01*
X-19660Y89528D01*
X-19665Y89542D01*
X-19678Y89565D01*
X-19696Y89596D01*
X-19715Y89637D01*
X-19737Y89687D01*
X-19760Y89742D01*
X-19783Y89806D01*
X-19806Y89874D01*
X-19829Y89947D01*
X-19851Y90024D01*
X-19870Y90110D01*
X-19888Y90201D01*
X-19902Y90292D01*
X-19906Y90393D01*
X-19911Y90493D01*
Y90497D01*
X-19911Y90515D01*
X-19911Y90547D01*
X-19906Y90584D01*
X-19902Y90634D01*
X-19897Y90688D01*
X-19888Y90752D01*
X-19879Y90820D01*
X-19865Y90893D01*
X-19847Y90970D01*
X-19802Y91134D01*
X-19775Y91216D01*
X-19738Y91298D01*
X-19702Y91380D01*
X-19656Y91462D01*
X-19652Y91466D01*
X-19643Y91480D01*
X-19629Y91503D01*
X-19611Y91530D01*
X-19584Y91566D01*
X-19552Y91607D01*
X-19515Y91653D01*
X-19475Y91703D01*
X-19429Y91753D01*
X-19374Y91808D01*
X-19320Y91862D01*
X-19256Y91917D01*
X-19193Y91972D01*
X-19120Y92022D01*
X-18965Y92117D01*
X-18960Y92122D01*
X-18947Y92126D01*
X-18920Y92140D01*
X-18888Y92154D01*
X-18847Y92172D01*
X-18797Y92190D01*
X-18742Y92213D01*
X-18678Y92236D01*
X-18610Y92254D01*
X-18533Y92277D01*
X-18455Y92295D01*
X-18369Y92313D01*
X-18187Y92341D01*
X-18092Y92345D01*
X-17996Y92350D01*
X-17960Y92350D01*
X-17914Y92345D01*
D02*
G37*
G36*
X-27638Y83332D02*
X-27584D01*
X-27529Y83328D01*
X-27465Y83323D01*
X-27397Y83319D01*
X-27324Y83309D01*
X-27165Y83287D01*
X-26997Y83259D01*
X-26828Y83223D01*
X-26824D01*
X-26805Y83218D01*
X-26783Y83209D01*
X-26751Y83200D01*
X-26710Y83191D01*
X-26665Y83177D01*
X-26614Y83159D01*
X-26555Y83141D01*
X-26432Y83091D01*
X-26296Y83036D01*
X-26159Y82973D01*
X-26028Y82895D01*
X-26387Y82022D01*
X-26396Y82026D01*
X-26419Y82040D01*
X-26455Y82058D01*
X-26505Y82081D01*
X-26569Y82113D01*
X-26642Y82145D01*
X-26724Y82181D01*
X-26815Y82217D01*
X-26919Y82254D01*
X-27024Y82290D01*
X-27138Y82322D01*
X-27256Y82354D01*
X-27383Y82377D01*
X-27506Y82395D01*
X-27638Y82408D01*
X-27766Y82413D01*
X-27811D01*
X-27843Y82408D01*
X-27884D01*
X-27934Y82404D01*
X-27984Y82399D01*
X-28039Y82395D01*
X-28157Y82372D01*
X-28275Y82345D01*
X-28389Y82308D01*
X-28439Y82281D01*
X-28484Y82254D01*
X-28489D01*
X-28494Y82245D01*
X-28521Y82227D01*
X-28557Y82190D01*
X-28598Y82145D01*
X-28644Y82085D01*
X-28680Y82017D01*
X-28708Y81935D01*
X-28712Y81890D01*
X-28717Y81844D01*
Y81840D01*
Y81835D01*
Y81822D01*
X-28712Y81803D01*
X-28703Y81758D01*
X-28685Y81699D01*
X-28653Y81635D01*
X-28630Y81603D01*
X-28603Y81571D01*
X-28571Y81539D01*
X-28535Y81512D01*
X-28494Y81485D01*
X-28448Y81458D01*
X-28444D01*
X-28434Y81453D01*
X-28421Y81444D01*
X-28398Y81435D01*
X-28371Y81426D01*
X-28334Y81412D01*
X-28293Y81398D01*
X-28243Y81380D01*
X-28193Y81362D01*
X-28130Y81344D01*
X-28066Y81326D01*
X-27993Y81303D01*
X-27911Y81285D01*
X-27825Y81262D01*
X-27734Y81239D01*
X-27634Y81216D01*
X-27629D01*
X-27606Y81212D01*
X-27579Y81203D01*
X-27538Y81194D01*
X-27488Y81180D01*
X-27433Y81166D01*
X-27370Y81148D01*
X-27301Y81130D01*
X-27156Y81089D01*
X-26997Y81043D01*
X-26842Y80993D01*
X-26769Y80971D01*
X-26701Y80943D01*
X-26696D01*
X-26683Y80939D01*
X-26665Y80930D01*
X-26642Y80916D01*
X-26610Y80902D01*
X-26574Y80884D01*
X-26487Y80839D01*
X-26387Y80780D01*
X-26282Y80707D01*
X-26178Y80620D01*
X-26078Y80516D01*
X-26073Y80511D01*
X-26064Y80502D01*
X-26055Y80484D01*
X-26037Y80461D01*
X-26018Y80434D01*
X-25996Y80397D01*
X-25968Y80356D01*
X-25946Y80306D01*
X-25923Y80256D01*
X-25896Y80197D01*
X-25873Y80129D01*
X-25855Y80061D01*
X-25836Y79983D01*
X-25823Y79906D01*
X-25818Y79820D01*
X-25814Y79729D01*
Y79724D01*
Y79710D01*
Y79688D01*
X-25818Y79656D01*
X-25823Y79619D01*
X-25827Y79574D01*
X-25832Y79524D01*
X-25846Y79469D01*
X-25873Y79351D01*
X-25914Y79219D01*
X-25941Y79151D01*
X-25973Y79082D01*
X-26014Y79014D01*
X-26055Y78946D01*
X-26059Y78941D01*
X-26064Y78932D01*
X-26078Y78914D01*
X-26100Y78887D01*
X-26123Y78860D01*
X-26155Y78823D01*
X-26191Y78787D01*
X-26232Y78746D01*
X-26282Y78700D01*
X-26332Y78655D01*
X-26392Y78609D01*
X-26455Y78564D01*
X-26524Y78518D01*
X-26601Y78473D01*
X-26683Y78432D01*
X-26769Y78391D01*
X-26774D01*
X-26792Y78382D01*
X-26819Y78373D01*
X-26856Y78359D01*
X-26901Y78345D01*
X-26956Y78327D01*
X-27019Y78309D01*
X-27092Y78291D01*
X-27174Y78268D01*
X-27261Y78250D01*
X-27356Y78232D01*
X-27461Y78218D01*
X-27570Y78204D01*
X-27684Y78195D01*
X-27802Y78191D01*
X-27929Y78186D01*
X-27988D01*
X-28030Y78191D01*
X-28084D01*
X-28148Y78195D01*
X-28216Y78200D01*
X-28293Y78204D01*
X-28380Y78213D01*
X-28471Y78223D01*
X-28562Y78236D01*
X-28662Y78250D01*
X-28867Y78291D01*
X-29076Y78341D01*
X-29081D01*
X-29099Y78350D01*
X-29131Y78359D01*
X-29167Y78368D01*
X-29212Y78386D01*
X-29267Y78404D01*
X-29326Y78427D01*
X-29395Y78455D01*
X-29536Y78514D01*
X-29681Y78587D01*
X-29827Y78668D01*
X-29899Y78714D01*
X-29963Y78759D01*
X-29572Y79628D01*
X-29567Y79624D01*
X-29558Y79619D01*
X-29540Y79606D01*
X-29513Y79588D01*
X-29485Y79569D01*
X-29445Y79546D01*
X-29404Y79519D01*
X-29354Y79492D01*
X-29304Y79460D01*
X-29244Y79433D01*
X-29181Y79401D01*
X-29112Y79369D01*
X-28967Y79305D01*
X-28808Y79246D01*
X-28803D01*
X-28789Y79242D01*
X-28762Y79233D01*
X-28730Y79224D01*
X-28694Y79214D01*
X-28644Y79201D01*
X-28589Y79187D01*
X-28530Y79178D01*
X-28466Y79164D01*
X-28398Y79151D01*
X-28248Y79128D01*
X-28089Y79110D01*
X-27925Y79105D01*
X-27879D01*
X-27843Y79110D01*
X-27802D01*
X-27757Y79114D01*
X-27707Y79119D01*
X-27647Y79123D01*
X-27529Y79142D01*
X-27411Y79169D01*
X-27297Y79201D01*
X-27242Y79224D01*
X-27197Y79251D01*
X-27192D01*
X-27188Y79260D01*
X-27160Y79278D01*
X-27124Y79310D01*
X-27079Y79355D01*
X-27033Y79415D01*
X-26997Y79478D01*
X-26969Y79556D01*
X-26965Y79597D01*
X-26960Y79642D01*
Y79651D01*
Y79674D01*
X-26969Y79706D01*
X-26978Y79747D01*
X-26997Y79792D01*
X-27019Y79842D01*
X-27056Y79892D01*
X-27101Y79938D01*
X-27106Y79942D01*
X-27124Y79956D01*
X-27156Y79979D01*
X-27197Y80006D01*
X-27247Y80033D01*
X-27311Y80065D01*
X-27379Y80097D01*
X-27456Y80124D01*
X-27461D01*
X-27465Y80129D01*
X-27479Y80133D01*
X-27497Y80138D01*
X-27520Y80143D01*
X-27543Y80152D01*
X-27611Y80170D01*
X-27697Y80197D01*
X-27797Y80225D01*
X-27911Y80252D01*
X-28043Y80284D01*
X-28048D01*
X-28070Y80288D01*
X-28098Y80297D01*
X-28139Y80306D01*
X-28189Y80320D01*
X-28243Y80334D01*
X-28307Y80347D01*
X-28375Y80366D01*
X-28526Y80406D01*
X-28680Y80452D01*
X-28835Y80502D01*
X-28908Y80525D01*
X-28980Y80552D01*
X-28985D01*
X-28994Y80557D01*
X-29017Y80566D01*
X-29040Y80579D01*
X-29071Y80593D01*
X-29108Y80611D01*
X-29194Y80657D01*
X-29290Y80716D01*
X-29395Y80793D01*
X-29499Y80880D01*
X-29604Y80984D01*
X-29608Y80989D01*
X-29613Y80998D01*
X-29627Y81016D01*
X-29645Y81039D01*
X-29663Y81071D01*
X-29686Y81107D01*
X-29708Y81148D01*
X-29731Y81198D01*
X-29759Y81253D01*
X-29781Y81312D01*
X-29804Y81376D01*
X-29822Y81448D01*
X-29840Y81526D01*
X-29854Y81608D01*
X-29859Y81694D01*
X-29863Y81785D01*
Y81790D01*
Y81803D01*
Y81826D01*
X-29859Y81858D01*
X-29854Y81899D01*
X-29849Y81940D01*
X-29845Y81994D01*
X-29831Y82049D01*
X-29804Y82167D01*
X-29763Y82304D01*
X-29736Y82367D01*
X-29704Y82436D01*
X-29667Y82504D01*
X-29627Y82572D01*
X-29622Y82577D01*
X-29618Y82586D01*
X-29599Y82609D01*
X-29581Y82631D01*
X-29558Y82659D01*
X-29526Y82695D01*
X-29490Y82736D01*
X-29449Y82777D01*
X-29404Y82818D01*
X-29349Y82863D01*
X-29290Y82914D01*
X-29226Y82959D01*
X-29158Y83004D01*
X-29085Y83050D01*
X-29003Y83091D01*
X-28917Y83132D01*
X-28912Y83136D01*
X-28894Y83141D01*
X-28867Y83150D01*
X-28830Y83164D01*
X-28785Y83177D01*
X-28730Y83196D01*
X-28666Y83214D01*
X-28594Y83237D01*
X-28516Y83255D01*
X-28425Y83273D01*
X-28330Y83291D01*
X-28230Y83305D01*
X-28120Y83319D01*
X-28007Y83328D01*
X-27889Y83337D01*
X-27679D01*
X-27638Y83332D01*
D02*
G37*
G36*
X10282Y82145D02*
X10304D01*
X10336Y82140D01*
X10404Y82126D01*
X10482Y82104D01*
X10564Y82067D01*
X10645Y82022D01*
X10723Y81958D01*
X10727D01*
X10732Y81949D01*
X10755Y81926D01*
X10786Y81881D01*
X10823Y81826D01*
X10859Y81753D01*
X10891Y81671D01*
X10914Y81571D01*
X10923Y81517D01*
Y81462D01*
Y81458D01*
Y81448D01*
Y81435D01*
X10919Y81412D01*
Y81389D01*
X10914Y81357D01*
X10900Y81289D01*
X10873Y81212D01*
X10837Y81130D01*
X10791Y81043D01*
X10759Y81007D01*
X10723Y80966D01*
X10714Y80957D01*
X10687Y80934D01*
X10645Y80902D01*
X10586Y80866D01*
X10514Y80830D01*
X10432Y80798D01*
X10336Y80775D01*
X10286Y80770D01*
X10231Y80766D01*
X10204D01*
X10181Y80770D01*
X10159D01*
X10127Y80775D01*
X10058Y80793D01*
X9981Y80816D01*
X9899Y80852D01*
X9813Y80902D01*
X9776Y80930D01*
X9736Y80966D01*
Y80971D01*
X9726Y80975D01*
X9704Y81002D01*
X9672Y81043D01*
X9640Y81103D01*
X9604Y81175D01*
X9572Y81262D01*
X9549Y81357D01*
X9544Y81407D01*
X9540Y81462D01*
Y81467D01*
Y81476D01*
Y81494D01*
X9544Y81512D01*
Y81539D01*
X9549Y81571D01*
X9563Y81639D01*
X9590Y81721D01*
X9622Y81803D01*
X9672Y81885D01*
X9699Y81922D01*
X9736Y81958D01*
X9740Y81963D01*
X9745Y81967D01*
X9772Y81990D01*
X9813Y82017D01*
X9872Y82054D01*
X9945Y82090D01*
X10031Y82117D01*
X10127Y82140D01*
X10231Y82149D01*
X10259D01*
X10282Y82145D01*
D02*
G37*
G36*
X-31947Y78268D02*
X-33189D01*
X-34286Y81644D01*
X-35419Y78268D01*
X-36652D01*
X-38290Y83255D01*
X-37093D01*
X-35969Y79747D01*
X-34791Y83255D01*
X-33722D01*
X-32584Y79719D01*
X-31419Y83255D01*
X-30318D01*
X-31947Y78268D01*
D02*
G37*
G36*
X26269Y82795D02*
X23989D01*
X23816Y81207D01*
X24530D01*
X24562Y81203D01*
X24635D01*
X24726Y81194D01*
X24826Y81189D01*
X24940Y81175D01*
X25063Y81157D01*
X25190Y81139D01*
X25318Y81112D01*
X25449Y81080D01*
X25581Y81043D01*
X25709Y80998D01*
X25827Y80948D01*
X25936Y80889D01*
X26037Y80821D01*
X26041Y80816D01*
X26059Y80802D01*
X26082Y80780D01*
X26114Y80748D01*
X26150Y80711D01*
X26196Y80661D01*
X26237Y80607D01*
X26287Y80538D01*
X26332Y80466D01*
X26378Y80384D01*
X26419Y80297D01*
X26455Y80197D01*
X26487Y80093D01*
X26510Y79983D01*
X26528Y79861D01*
X26532Y79733D01*
Y79729D01*
Y79715D01*
Y79692D01*
X26528Y79660D01*
Y79624D01*
X26523Y79578D01*
X26514Y79528D01*
X26505Y79474D01*
X26482Y79355D01*
X26446Y79224D01*
X26396Y79087D01*
X26364Y79019D01*
X26328Y78955D01*
Y78951D01*
X26319Y78941D01*
X26305Y78923D01*
X26291Y78900D01*
X26269Y78869D01*
X26241Y78837D01*
X26214Y78800D01*
X26177Y78759D01*
X26137Y78718D01*
X26091Y78673D01*
X26041Y78627D01*
X25986Y78587D01*
X25927Y78541D01*
X25864Y78496D01*
X25791Y78455D01*
X25718Y78418D01*
X25713D01*
X25700Y78409D01*
X25677Y78400D01*
X25645Y78386D01*
X25604Y78373D01*
X25559Y78359D01*
X25504Y78341D01*
X25440Y78323D01*
X25372Y78304D01*
X25295Y78286D01*
X25213Y78272D01*
X25126Y78259D01*
X25036Y78245D01*
X24935Y78236D01*
X24831Y78232D01*
X24722Y78227D01*
X24671D01*
X24631Y78232D01*
X24585D01*
X24526Y78236D01*
X24467Y78241D01*
X24394Y78250D01*
X24321Y78259D01*
X24239Y78268D01*
X24071Y78300D01*
X23889Y78341D01*
X23707Y78400D01*
X23702D01*
X23684Y78409D01*
X23661Y78418D01*
X23625Y78432D01*
X23584Y78450D01*
X23539Y78468D01*
X23489Y78496D01*
X23429Y78523D01*
X23306Y78591D01*
X23179Y78668D01*
X23052Y78759D01*
X22933Y78864D01*
X23184Y79269D01*
X23188Y79264D01*
X23197Y79260D01*
X23211Y79246D01*
X23229Y79228D01*
X23256Y79205D01*
X23284Y79178D01*
X23320Y79151D01*
X23361Y79123D01*
X23407Y79087D01*
X23452Y79055D01*
X23566Y78987D01*
X23693Y78914D01*
X23839Y78850D01*
X23843D01*
X23857Y78846D01*
X23880Y78837D01*
X23912Y78828D01*
X23948Y78814D01*
X23993Y78800D01*
X24044Y78787D01*
X24098Y78773D01*
X24162Y78755D01*
X24230Y78741D01*
X24380Y78718D01*
X24540Y78700D01*
X24712Y78691D01*
X24772D01*
X24817Y78696D01*
X24867Y78700D01*
X24926Y78705D01*
X24994Y78714D01*
X25067Y78728D01*
X25222Y78759D01*
X25299Y78782D01*
X25381Y78809D01*
X25459Y78841D01*
X25536Y78878D01*
X25604Y78919D01*
X25673Y78969D01*
X25677Y78973D01*
X25686Y78982D01*
X25704Y78996D01*
X25727Y79019D01*
X25750Y79046D01*
X25777Y79082D01*
X25809Y79123D01*
X25841Y79169D01*
X25873Y79219D01*
X25905Y79273D01*
X25932Y79333D01*
X25955Y79401D01*
X25977Y79469D01*
X25995Y79546D01*
X26005Y79628D01*
X26009Y79710D01*
Y79715D01*
Y79733D01*
X26005Y79760D01*
Y79797D01*
X25995Y79838D01*
X25991Y79888D01*
X25977Y79942D01*
X25964Y80001D01*
X25941Y80061D01*
X25918Y80124D01*
X25886Y80193D01*
X25850Y80256D01*
X25804Y80320D01*
X25754Y80379D01*
X25695Y80438D01*
X25627Y80488D01*
X25622Y80493D01*
X25609Y80502D01*
X25586Y80511D01*
X25554Y80529D01*
X25513Y80547D01*
X25459Y80570D01*
X25400Y80598D01*
X25327Y80620D01*
X25240Y80643D01*
X25149Y80670D01*
X25045Y80693D01*
X24926Y80711D01*
X24799Y80730D01*
X24658Y80743D01*
X24508Y80748D01*
X24344Y80752D01*
X23284D01*
X23539Y83255D01*
X26269D01*
Y82795D01*
D02*
G37*
G36*
X4385Y83250D02*
X4457Y83246D01*
X4539Y83237D01*
X4630Y83227D01*
X4735Y83214D01*
X4844Y83200D01*
X4958Y83177D01*
X5076Y83155D01*
X5199Y83123D01*
X5322Y83086D01*
X5445Y83046D01*
X5568Y82995D01*
X5686Y82941D01*
X5695Y82936D01*
X5713Y82927D01*
X5745Y82909D01*
X5791Y82882D01*
X5841Y82850D01*
X5900Y82813D01*
X5968Y82768D01*
X6041Y82718D01*
X6118Y82659D01*
X6196Y82591D01*
X6278Y82522D01*
X6359Y82440D01*
X6437Y82358D01*
X6514Y82267D01*
X6587Y82172D01*
X6655Y82067D01*
X6660Y82063D01*
X6669Y82040D01*
X6687Y82013D01*
X6710Y81967D01*
X6737Y81912D01*
X6764Y81849D01*
X6796Y81776D01*
X6828Y81694D01*
X6860Y81603D01*
X6892Y81503D01*
X6919Y81394D01*
X6946Y81280D01*
X6969Y81157D01*
X6987Y81030D01*
X6996Y80898D01*
X7001Y80761D01*
Y80752D01*
Y80730D01*
Y80689D01*
X6996Y80634D01*
X6992Y80570D01*
X6983Y80493D01*
X6974Y80411D01*
X6960Y80316D01*
X6942Y80215D01*
X6915Y80111D01*
X6887Y80001D01*
X6855Y79892D01*
X6814Y79779D01*
X6769Y79665D01*
X6714Y79556D01*
X6655Y79446D01*
X6651Y79442D01*
X6637Y79424D01*
X6619Y79392D01*
X6592Y79355D01*
X6555Y79305D01*
X6514Y79255D01*
X6464Y79192D01*
X6405Y79128D01*
X6341Y79060D01*
X6268Y78987D01*
X6186Y78914D01*
X6100Y78846D01*
X6009Y78773D01*
X5909Y78705D01*
X5800Y78636D01*
X5686Y78577D01*
X5677Y78573D01*
X5659Y78564D01*
X5622Y78550D01*
X5577Y78527D01*
X5518Y78505D01*
X5445Y78482D01*
X5363Y78450D01*
X5272Y78423D01*
X5172Y78395D01*
X5063Y78368D01*
X4944Y78341D01*
X4817Y78318D01*
X4685Y78295D01*
X4544Y78282D01*
X4398Y78272D01*
X4248Y78268D01*
X1982D01*
Y83255D01*
X4326D01*
X4385Y83250D01*
D02*
G37*
G36*
X972Y82327D02*
X-1649D01*
Y81244D01*
X667D01*
Y80347D01*
X-1649D01*
Y79192D01*
X1063D01*
Y78268D01*
X-2800D01*
Y83255D01*
X972D01*
Y82327D01*
D02*
G37*
G36*
X-5948Y79205D02*
X-3446D01*
Y78268D01*
X-7104D01*
Y83255D01*
X-5948D01*
Y79205D01*
D02*
G37*
G36*
X-11831Y83332D02*
X-11786D01*
X-11727Y83328D01*
X-11663Y83323D01*
X-11595Y83314D01*
X-11522Y83305D01*
X-11445Y83291D01*
X-11281Y83259D01*
X-11113Y83214D01*
X-10953Y83155D01*
X-10949D01*
X-10935Y83146D01*
X-10912Y83136D01*
X-10885Y83123D01*
X-10849Y83105D01*
X-10808Y83082D01*
X-10717Y83023D01*
X-10612Y82955D01*
X-10503Y82863D01*
X-10398Y82763D01*
X-10303Y82645D01*
X-10298Y82640D01*
X-10294Y82631D01*
X-10280Y82613D01*
X-10266Y82586D01*
X-10248Y82554D01*
X-10230Y82518D01*
X-10207Y82472D01*
X-10184Y82422D01*
X-10166Y82367D01*
X-10143Y82308D01*
X-10125Y82245D01*
X-10107Y82176D01*
X-10080Y82026D01*
X-10075Y81944D01*
X-10071Y81862D01*
Y81858D01*
Y81844D01*
Y81822D01*
X-10075Y81794D01*
Y81758D01*
X-10080Y81717D01*
X-10084Y81667D01*
X-10093Y81617D01*
X-10112Y81498D01*
X-10143Y81371D01*
X-10184Y81235D01*
X-10244Y81098D01*
Y81094D01*
X-10253Y81080D01*
X-10262Y81062D01*
X-10280Y81034D01*
X-10298Y81002D01*
X-10325Y80962D01*
X-10353Y80916D01*
X-10389Y80866D01*
X-10435Y80807D01*
X-10480Y80743D01*
X-10535Y80680D01*
X-10598Y80607D01*
X-10662Y80534D01*
X-10740Y80452D01*
X-10821Y80375D01*
X-10908Y80288D01*
X-12054Y79205D01*
X-9907D01*
Y78268D01*
X-13679D01*
Y79014D01*
X-11754Y80830D01*
X-11750Y80834D01*
X-11740Y80843D01*
X-11727Y80857D01*
X-11704Y80880D01*
X-11681Y80902D01*
X-11654Y80934D01*
X-11590Y81002D01*
X-11522Y81080D01*
X-11454Y81162D01*
X-11390Y81248D01*
X-11367Y81289D01*
X-11345Y81330D01*
Y81335D01*
X-11340Y81339D01*
X-11326Y81366D01*
X-11308Y81407D01*
X-11290Y81462D01*
X-11272Y81526D01*
X-11254Y81599D01*
X-11240Y81671D01*
X-11236Y81749D01*
Y81753D01*
Y81762D01*
Y81776D01*
X-11240Y81799D01*
X-11244Y81853D01*
X-11263Y81917D01*
X-11286Y81994D01*
X-11322Y82067D01*
X-11372Y82145D01*
X-11404Y82176D01*
X-11440Y82208D01*
X-11449Y82217D01*
X-11463Y82222D01*
X-11477Y82236D01*
X-11499Y82245D01*
X-11522Y82258D01*
X-11554Y82276D01*
X-11590Y82290D01*
X-11627Y82304D01*
X-11672Y82322D01*
X-11722Y82336D01*
X-11772Y82345D01*
X-11895Y82363D01*
X-12032Y82372D01*
X-12086D01*
X-12114Y82367D01*
X-12150D01*
X-12227Y82358D01*
X-12318Y82340D01*
X-12418Y82318D01*
X-12523Y82286D01*
X-12623Y82245D01*
X-12628D01*
X-12637Y82240D01*
X-12651Y82231D01*
X-12669Y82222D01*
X-12714Y82195D01*
X-12778Y82154D01*
X-12846Y82099D01*
X-12919Y82035D01*
X-12996Y81958D01*
X-13065Y81872D01*
X-13906Y82413D01*
X-13902Y82418D01*
X-13893Y82431D01*
X-13874Y82454D01*
X-13852Y82486D01*
X-13824Y82522D01*
X-13788Y82563D01*
X-13743Y82609D01*
X-13697Y82659D01*
X-13642Y82713D01*
X-13583Y82768D01*
X-13515Y82827D01*
X-13442Y82882D01*
X-13365Y82936D01*
X-13283Y82991D01*
X-13196Y83041D01*
X-13101Y83091D01*
X-13096Y83096D01*
X-13078Y83100D01*
X-13051Y83114D01*
X-13010Y83127D01*
X-12960Y83150D01*
X-12905Y83168D01*
X-12837Y83191D01*
X-12760Y83214D01*
X-12678Y83237D01*
X-12587Y83259D01*
X-12491Y83282D01*
X-12387Y83300D01*
X-12282Y83314D01*
X-12168Y83328D01*
X-12050Y83332D01*
X-11927Y83337D01*
X-11873D01*
X-11831Y83332D01*
D02*
G37*
G36*
X-14507Y78268D02*
X-15658D01*
Y82327D01*
X-16659D01*
Y83255D01*
X-14507D01*
Y78268D01*
D02*
G37*
G36*
X-23534Y83332D02*
X-23489D01*
X-23429Y83328D01*
X-23366Y83323D01*
X-23298Y83314D01*
X-23225Y83305D01*
X-23147Y83291D01*
X-22984Y83259D01*
X-22815Y83214D01*
X-22656Y83155D01*
X-22651D01*
X-22638Y83146D01*
X-22615Y83136D01*
X-22588Y83123D01*
X-22551Y83105D01*
X-22510Y83082D01*
X-22419Y83023D01*
X-22315Y82955D01*
X-22206Y82863D01*
X-22101Y82763D01*
X-22005Y82645D01*
X-22001Y82640D01*
X-21996Y82631D01*
X-21983Y82613D01*
X-21969Y82586D01*
X-21951Y82554D01*
X-21933Y82518D01*
X-21910Y82472D01*
X-21887Y82422D01*
X-21869Y82367D01*
X-21846Y82308D01*
X-21828Y82245D01*
X-21810Y82176D01*
X-21782Y82026D01*
X-21778Y81944D01*
X-21773Y81862D01*
Y81858D01*
Y81844D01*
Y81822D01*
X-21778Y81794D01*
Y81758D01*
X-21782Y81717D01*
X-21787Y81667D01*
X-21796Y81617D01*
X-21814Y81498D01*
X-21846Y81371D01*
X-21887Y81235D01*
X-21946Y81098D01*
Y81094D01*
X-21955Y81080D01*
X-21964Y81062D01*
X-21983Y81034D01*
X-22001Y81002D01*
X-22028Y80962D01*
X-22055Y80916D01*
X-22092Y80866D01*
X-22137Y80807D01*
X-22183Y80743D01*
X-22237Y80680D01*
X-22301Y80607D01*
X-22365Y80534D01*
X-22442Y80452D01*
X-22524Y80375D01*
X-22611Y80288D01*
X-23757Y79205D01*
X-21610D01*
Y78268D01*
X-25381D01*
Y79014D01*
X-23457Y80830D01*
X-23452Y80834D01*
X-23443Y80843D01*
X-23429Y80857D01*
X-23407Y80880D01*
X-23384Y80902D01*
X-23357Y80934D01*
X-23293Y81002D01*
X-23225Y81080D01*
X-23156Y81162D01*
X-23093Y81248D01*
X-23070Y81289D01*
X-23047Y81330D01*
Y81335D01*
X-23043Y81339D01*
X-23029Y81366D01*
X-23011Y81407D01*
X-22993Y81462D01*
X-22974Y81526D01*
X-22956Y81599D01*
X-22943Y81671D01*
X-22938Y81749D01*
Y81753D01*
Y81762D01*
Y81776D01*
X-22943Y81799D01*
X-22947Y81853D01*
X-22965Y81917D01*
X-22988Y81994D01*
X-23024Y82067D01*
X-23075Y82145D01*
X-23106Y82176D01*
X-23143Y82208D01*
X-23152Y82217D01*
X-23166Y82222D01*
X-23179Y82236D01*
X-23202Y82245D01*
X-23225Y82258D01*
X-23257Y82276D01*
X-23293Y82290D01*
X-23329Y82304D01*
X-23375Y82322D01*
X-23425Y82336D01*
X-23475Y82345D01*
X-23598Y82363D01*
X-23734Y82372D01*
X-23789D01*
X-23816Y82367D01*
X-23853D01*
X-23930Y82358D01*
X-24021Y82340D01*
X-24121Y82318D01*
X-24226Y82286D01*
X-24326Y82245D01*
X-24330D01*
X-24339Y82240D01*
X-24353Y82231D01*
X-24371Y82222D01*
X-24417Y82195D01*
X-24480Y82154D01*
X-24549Y82099D01*
X-24622Y82035D01*
X-24699Y81958D01*
X-24767Y81872D01*
X-25609Y82413D01*
X-25604Y82418D01*
X-25595Y82431D01*
X-25577Y82454D01*
X-25554Y82486D01*
X-25527Y82522D01*
X-25491Y82563D01*
X-25445Y82609D01*
X-25400Y82659D01*
X-25345Y82713D01*
X-25286Y82768D01*
X-25218Y82827D01*
X-25145Y82882D01*
X-25067Y82936D01*
X-24986Y82991D01*
X-24899Y83041D01*
X-24804Y83091D01*
X-24799Y83096D01*
X-24781Y83100D01*
X-24754Y83114D01*
X-24712Y83127D01*
X-24663Y83150D01*
X-24608Y83168D01*
X-24540Y83191D01*
X-24462Y83214D01*
X-24380Y83237D01*
X-24289Y83259D01*
X-24194Y83282D01*
X-24089Y83300D01*
X-23984Y83314D01*
X-23871Y83328D01*
X-23753Y83332D01*
X-23630Y83337D01*
X-23575D01*
X-23534Y83332D01*
D02*
G37*
G36*
X21960Y78268D02*
X21445D01*
Y82795D01*
X20272D01*
Y83255D01*
X21960D01*
Y78268D01*
D02*
G37*
G36*
X13415D02*
X12887D01*
Y83255D01*
X13415D01*
Y78268D01*
D02*
G37*
G36*
X17346Y83291D02*
X17410Y83287D01*
X17487Y83277D01*
X17569Y83268D01*
X17664Y83255D01*
X17765Y83237D01*
X17869Y83214D01*
X17983Y83191D01*
X18097Y83159D01*
X18211Y83118D01*
X18329Y83077D01*
X18442Y83027D01*
X18556Y82968D01*
X18565Y82964D01*
X18584Y82955D01*
X18615Y82936D01*
X18656Y82909D01*
X18706Y82873D01*
X18761Y82836D01*
X18829Y82786D01*
X18898Y82731D01*
X18970Y82672D01*
X19048Y82604D01*
X19125Y82527D01*
X19202Y82445D01*
X19280Y82358D01*
X19357Y82263D01*
X19425Y82163D01*
X19494Y82058D01*
X19498Y82054D01*
X19507Y82031D01*
X19525Y81999D01*
X19548Y81958D01*
X19571Y81903D01*
X19603Y81840D01*
X19635Y81762D01*
X19667Y81681D01*
X19698Y81590D01*
X19726Y81489D01*
X19758Y81380D01*
X19780Y81266D01*
X19803Y81148D01*
X19821Y81025D01*
X19830Y80893D01*
X19835Y80761D01*
Y80752D01*
Y80730D01*
Y80693D01*
X19830Y80638D01*
X19826Y80575D01*
X19817Y80502D01*
X19807Y80420D01*
X19794Y80329D01*
X19776Y80229D01*
X19753Y80124D01*
X19726Y80015D01*
X19689Y79906D01*
X19653Y79792D01*
X19607Y79678D01*
X19553Y79565D01*
X19494Y79456D01*
X19489Y79451D01*
X19480Y79428D01*
X19457Y79401D01*
X19430Y79360D01*
X19398Y79310D01*
X19353Y79255D01*
X19307Y79192D01*
X19248Y79128D01*
X19184Y79055D01*
X19116Y78982D01*
X19039Y78905D01*
X18952Y78832D01*
X18866Y78755D01*
X18766Y78682D01*
X18665Y78614D01*
X18556Y78550D01*
X18552Y78545D01*
X18529Y78536D01*
X18497Y78518D01*
X18452Y78500D01*
X18397Y78477D01*
X18329Y78450D01*
X18251Y78418D01*
X18165Y78391D01*
X18069Y78359D01*
X17969Y78327D01*
X17856Y78300D01*
X17742Y78277D01*
X17619Y78259D01*
X17487Y78241D01*
X17355Y78232D01*
X17219Y78227D01*
X17187D01*
X17146Y78232D01*
X17096D01*
X17028Y78236D01*
X16950Y78245D01*
X16868Y78254D01*
X16773Y78268D01*
X16673Y78286D01*
X16563Y78309D01*
X16454Y78332D01*
X16340Y78364D01*
X16222Y78404D01*
X16108Y78445D01*
X15990Y78496D01*
X15876Y78555D01*
X15872Y78559D01*
X15849Y78568D01*
X15817Y78591D01*
X15776Y78614D01*
X15726Y78650D01*
X15667Y78691D01*
X15603Y78737D01*
X15535Y78791D01*
X15458Y78855D01*
X15380Y78923D01*
X15303Y78996D01*
X15226Y79078D01*
X15148Y79164D01*
X15071Y79255D01*
X15003Y79355D01*
X14934Y79460D01*
X14930Y79465D01*
X14921Y79487D01*
X14903Y79519D01*
X14880Y79560D01*
X14857Y79615D01*
X14830Y79683D01*
X14798Y79756D01*
X14766Y79838D01*
X14734Y79933D01*
X14702Y80033D01*
X14675Y80138D01*
X14652Y80252D01*
X14630Y80375D01*
X14611Y80497D01*
X14602Y80629D01*
X14598Y80761D01*
Y80770D01*
Y80793D01*
X14602Y80830D01*
Y80884D01*
X14607Y80948D01*
X14616Y81021D01*
X14625Y81103D01*
X14639Y81194D01*
X14657Y81289D01*
X14680Y81394D01*
X14707Y81498D01*
X14739Y81612D01*
X14780Y81721D01*
X14825Y81835D01*
X14875Y81944D01*
X14934Y82054D01*
X14939Y82058D01*
X14953Y82081D01*
X14971Y82108D01*
X14998Y82149D01*
X15030Y82199D01*
X15076Y82254D01*
X15126Y82318D01*
X15180Y82386D01*
X15244Y82454D01*
X15317Y82531D01*
X15394Y82604D01*
X15476Y82682D01*
X15567Y82754D01*
X15663Y82827D01*
X15767Y82900D01*
X15876Y82964D01*
X15885Y82968D01*
X15904Y82977D01*
X15935Y82995D01*
X15981Y83014D01*
X16040Y83041D01*
X16104Y83068D01*
X16181Y83100D01*
X16268Y83132D01*
X16363Y83159D01*
X16468Y83191D01*
X16577Y83218D01*
X16695Y83246D01*
X16818Y83264D01*
X16950Y83282D01*
X17082Y83291D01*
X17219Y83296D01*
X17291D01*
X17346Y83291D01*
D02*
G37*
G36*
X10282Y79588D02*
X10304D01*
X10336Y79583D01*
X10404Y79569D01*
X10482Y79546D01*
X10564Y79510D01*
X10645Y79465D01*
X10723Y79401D01*
X10727D01*
X10732Y79392D01*
X10755Y79369D01*
X10786Y79324D01*
X10823Y79269D01*
X10859Y79196D01*
X10891Y79114D01*
X10914Y79014D01*
X10923Y78960D01*
Y78905D01*
Y78900D01*
Y78891D01*
Y78878D01*
X10919Y78855D01*
Y78832D01*
X10914Y78800D01*
X10900Y78732D01*
X10873Y78655D01*
X10837Y78573D01*
X10791Y78486D01*
X10759Y78450D01*
X10723Y78409D01*
X10714Y78400D01*
X10687Y78377D01*
X10645Y78345D01*
X10586Y78313D01*
X10514Y78277D01*
X10432Y78245D01*
X10336Y78223D01*
X10286Y78218D01*
X10231Y78213D01*
X10204D01*
X10181Y78218D01*
X10159D01*
X10127Y78223D01*
X10058Y78236D01*
X9981Y78263D01*
X9899Y78295D01*
X9813Y78345D01*
X9776Y78373D01*
X9736Y78409D01*
Y78414D01*
X9726Y78418D01*
X9704Y78445D01*
X9672Y78486D01*
X9640Y78545D01*
X9604Y78618D01*
X9572Y78705D01*
X9549Y78800D01*
X9544Y78850D01*
X9540Y78905D01*
Y78909D01*
Y78919D01*
Y78937D01*
X9544Y78955D01*
Y78982D01*
X9549Y79014D01*
X9563Y79082D01*
X9590Y79164D01*
X9622Y79246D01*
X9672Y79328D01*
X9699Y79365D01*
X9736Y79401D01*
X9740Y79405D01*
X9745Y79410D01*
X9772Y79433D01*
X9813Y79460D01*
X9872Y79497D01*
X9945Y79533D01*
X10031Y79560D01*
X10127Y79583D01*
X10231Y79592D01*
X10259D01*
X10282Y79588D01*
D02*
G37*
G36*
X-18970Y83332D02*
X-18920D01*
X-18861Y83328D01*
X-18798Y83323D01*
X-18725Y83314D01*
X-18652Y83305D01*
X-18570Y83296D01*
X-18402Y83264D01*
X-18229Y83223D01*
X-18060Y83164D01*
X-18056D01*
X-18042Y83155D01*
X-18020Y83146D01*
X-17988Y83132D01*
X-17951Y83114D01*
X-17906Y83091D01*
X-17860Y83068D01*
X-17810Y83036D01*
X-17701Y82968D01*
X-17587Y82882D01*
X-17478Y82782D01*
X-17423Y82727D01*
X-17378Y82668D01*
X-17373Y82663D01*
X-17369Y82654D01*
X-17355Y82636D01*
X-17342Y82613D01*
X-17323Y82581D01*
X-17301Y82545D01*
X-17278Y82504D01*
X-17255Y82454D01*
X-17237Y82399D01*
X-17214Y82345D01*
X-17173Y82213D01*
X-17146Y82072D01*
X-17141Y81994D01*
X-17137Y81912D01*
Y81908D01*
Y81899D01*
Y81881D01*
Y81858D01*
X-17141Y81826D01*
X-17146Y81794D01*
X-17155Y81712D01*
X-17173Y81621D01*
X-17200Y81521D01*
X-17237Y81417D01*
X-17287Y81317D01*
Y81312D01*
X-17296Y81307D01*
X-17301Y81294D01*
X-17314Y81275D01*
X-17351Y81226D01*
X-17396Y81166D01*
X-17460Y81098D01*
X-17533Y81025D01*
X-17619Y80957D01*
X-17719Y80889D01*
X-17715D01*
X-17701Y80880D01*
X-17683Y80871D01*
X-17660Y80857D01*
X-17628Y80839D01*
X-17592Y80816D01*
X-17510Y80757D01*
X-17419Y80689D01*
X-17323Y80607D01*
X-17237Y80511D01*
X-17155Y80402D01*
X-17151Y80397D01*
X-17146Y80388D01*
X-17137Y80370D01*
X-17123Y80352D01*
X-17109Y80320D01*
X-17091Y80288D01*
X-17073Y80247D01*
X-17055Y80206D01*
X-17037Y80156D01*
X-17023Y80102D01*
X-16991Y79983D01*
X-16969Y79856D01*
X-16959Y79783D01*
Y79710D01*
Y79706D01*
Y79692D01*
Y79665D01*
X-16964Y79633D01*
X-16969Y79592D01*
X-16973Y79546D01*
X-16982Y79497D01*
X-16991Y79437D01*
X-17023Y79310D01*
X-17046Y79246D01*
X-17068Y79178D01*
X-17100Y79110D01*
X-17137Y79037D01*
X-17178Y78973D01*
X-17223Y78905D01*
X-17228Y78900D01*
X-17237Y78891D01*
X-17251Y78873D01*
X-17273Y78850D01*
X-17301Y78819D01*
X-17333Y78787D01*
X-17369Y78750D01*
X-17414Y78709D01*
X-17464Y78668D01*
X-17519Y78623D01*
X-17583Y78577D01*
X-17646Y78536D01*
X-17719Y78491D01*
X-17797Y78450D01*
X-17878Y78409D01*
X-17965Y78373D01*
X-17969D01*
X-17988Y78364D01*
X-18010Y78354D01*
X-18047Y78345D01*
X-18092Y78332D01*
X-18147Y78313D01*
X-18211Y78295D01*
X-18279Y78282D01*
X-18356Y78263D01*
X-18443Y78245D01*
X-18534Y78232D01*
X-18629Y78213D01*
X-18729Y78204D01*
X-18838Y78195D01*
X-18952Y78186D01*
X-19125D01*
X-19171Y78191D01*
X-19225D01*
X-19289Y78195D01*
X-19362Y78200D01*
X-19439Y78209D01*
X-19521Y78218D01*
X-19612Y78232D01*
X-19794Y78263D01*
X-19985Y78309D01*
X-20167Y78373D01*
X-20172Y78377D01*
X-20190Y78382D01*
X-20213Y78391D01*
X-20245Y78409D01*
X-20285Y78427D01*
X-20331Y78450D01*
X-20381Y78477D01*
X-20436Y78509D01*
X-20554Y78587D01*
X-20677Y78677D01*
X-20795Y78782D01*
X-20854Y78841D01*
X-20904Y78905D01*
X-20909Y78909D01*
X-20913Y78919D01*
X-20927Y78941D01*
X-20945Y78964D01*
X-20963Y79001D01*
X-20986Y79037D01*
X-21009Y79082D01*
X-21032Y79137D01*
X-21059Y79192D01*
X-21082Y79255D01*
X-21104Y79319D01*
X-21123Y79392D01*
X-21141Y79465D01*
X-21154Y79542D01*
X-21159Y79624D01*
X-21164Y79710D01*
Y79715D01*
Y79729D01*
Y79747D01*
X-21159Y79779D01*
Y79810D01*
X-21154Y79851D01*
X-21145Y79897D01*
X-21141Y79947D01*
X-21113Y80052D01*
X-21082Y80170D01*
X-21032Y80288D01*
X-21004Y80347D01*
X-20968Y80402D01*
X-20963Y80406D01*
X-20959Y80416D01*
X-20945Y80429D01*
X-20932Y80452D01*
X-20913Y80479D01*
X-20886Y80507D01*
X-20822Y80575D01*
X-20745Y80652D01*
X-20649Y80734D01*
X-20536Y80816D01*
X-20408Y80889D01*
X-20413D01*
X-20422Y80898D01*
X-20436Y80907D01*
X-20454Y80921D01*
X-20504Y80957D01*
X-20568Y81007D01*
X-20636Y81066D01*
X-20704Y81139D01*
X-20772Y81226D01*
X-20836Y81317D01*
Y81321D01*
X-20841Y81330D01*
X-20850Y81344D01*
X-20859Y81362D01*
X-20872Y81389D01*
X-20881Y81417D01*
X-20909Y81489D01*
X-20941Y81580D01*
X-20963Y81681D01*
X-20981Y81790D01*
X-20986Y81912D01*
Y81917D01*
Y81931D01*
Y81954D01*
X-20981Y81985D01*
X-20977Y82022D01*
X-20973Y82067D01*
X-20968Y82117D01*
X-20954Y82172D01*
X-20927Y82290D01*
X-20886Y82418D01*
X-20859Y82481D01*
X-20822Y82545D01*
X-20786Y82609D01*
X-20745Y82668D01*
X-20740Y82672D01*
X-20731Y82682D01*
X-20718Y82700D01*
X-20699Y82722D01*
X-20677Y82750D01*
X-20645Y82782D01*
X-20608Y82813D01*
X-20568Y82850D01*
X-20522Y82891D01*
X-20472Y82932D01*
X-20417Y82973D01*
X-20354Y83014D01*
X-20290Y83055D01*
X-20222Y83091D01*
X-20067Y83164D01*
X-20063D01*
X-20049Y83173D01*
X-20021Y83182D01*
X-19990Y83191D01*
X-19949Y83205D01*
X-19899Y83218D01*
X-19844Y83232D01*
X-19776Y83250D01*
X-19708Y83268D01*
X-19630Y83282D01*
X-19548Y83296D01*
X-19462Y83309D01*
X-19366Y83323D01*
X-19271Y83328D01*
X-19066Y83337D01*
X-19011D01*
X-18970Y83332D01*
D02*
G37*
G36*
X-78543Y32077D02*
X-77874Y32183D01*
X-77768Y31518D01*
X-77660Y30835D01*
X-77553Y30155D01*
X-77445Y29476D01*
X-77337Y28793D01*
X-77229Y28113D01*
X-77122Y27437D01*
X-77017Y26772D01*
X-76910Y26100D01*
X-79618Y25671D01*
X-79724Y26344D01*
X-80407Y26235D01*
X-80301Y25563D01*
X-83008Y25134D01*
X-85715Y24705D01*
X-85821Y25378D01*
X-85836Y25376D01*
X-85729Y24703D01*
X-88437Y24274D01*
X-88543Y24947D01*
X-89226Y24839D01*
X-89120Y24166D01*
X-91827Y23738D01*
X-91933Y24410D01*
X-92613Y24302D01*
X-92718Y24967D01*
X-92825Y25643D01*
X-92933Y26323D01*
X-93041Y27006D01*
X-93149Y27685D01*
X-93256Y28365D01*
X-93364Y29048D01*
X-93470Y29713D01*
X-93578Y30396D01*
X-90871Y30825D01*
X-90763Y30142D01*
X-90083Y30249D01*
X-90191Y30932D01*
X-87470Y31363D01*
X-87362Y30680D01*
X-87358Y30681D01*
X-87466Y31364D01*
X-84759Y31793D01*
X-82052Y32222D01*
X-81944Y31539D01*
X-81264Y31646D01*
X-81372Y32329D01*
X-78651Y32760D01*
X-78543Y32077D01*
D02*
G37*
G36*
X690376Y-128249D02*
X690090D01*
Y-128535D01*
X689804D01*
Y-128821D01*
Y-129108D01*
X689517D01*
Y-129394D01*
X689231D01*
Y-129680D01*
X688945D01*
Y-129966D01*
Y-130253D01*
X688658D01*
Y-130539D01*
X688372D01*
Y-130825D01*
X688086D01*
Y-131112D01*
X687799D01*
Y-131398D01*
Y-131684D01*
X687513D01*
Y-131971D01*
X687227D01*
Y-132257D01*
X686940D01*
Y-132543D01*
Y-132830D01*
X686654D01*
Y-133116D01*
X686368D01*
Y-133402D01*
X686082D01*
Y-133689D01*
X685795D01*
Y-133975D01*
Y-134261D01*
X685509D01*
Y-134547D01*
X685223D01*
Y-134834D01*
X684936D01*
Y-135120D01*
Y-135406D01*
X684650D01*
Y-135693D01*
X684364D01*
Y-135979D01*
X684077D01*
Y-136265D01*
Y-136552D01*
X683791D01*
Y-136838D01*
X683505D01*
Y-137124D01*
X683218D01*
Y-137411D01*
X682932D01*
Y-137697D01*
Y-137983D01*
X682646D01*
Y-138270D01*
X682359D01*
Y-138556D01*
X682073D01*
Y-138842D01*
Y-139128D01*
X681787D01*
Y-139415D01*
X681500D01*
Y-139701D01*
X681214D01*
Y-139988D01*
Y-140274D01*
X680928D01*
Y-140560D01*
X680642D01*
Y-140846D01*
X680355D01*
Y-141133D01*
X680069D01*
Y-141419D01*
Y-141705D01*
X679783D01*
Y-141992D01*
X679496D01*
Y-142278D01*
X679210D01*
Y-142564D01*
Y-142851D01*
X678924D01*
Y-143137D01*
X678637D01*
Y-143423D01*
X678351D01*
Y-143710D01*
Y-143996D01*
X678065D01*
Y-144282D01*
X677778D01*
Y-144569D01*
X677492D01*
Y-144855D01*
X677206D01*
Y-145141D01*
Y-145427D01*
X676920D01*
Y-145714D01*
X676633D01*
Y-146000D01*
X676347D01*
Y-146286D01*
Y-146573D01*
X676060D01*
Y-146859D01*
X675774D01*
Y-147145D01*
X675488D01*
Y-147432D01*
X675202D01*
Y-147718D01*
Y-148004D01*
X675488D01*
Y-148291D01*
Y-148577D01*
X675774D01*
Y-148863D01*
Y-149150D01*
X676060D01*
Y-149436D01*
X676347D01*
Y-149722D01*
Y-150008D01*
X676633D01*
Y-150295D01*
Y-150581D01*
X676920D01*
Y-150867D01*
Y-151154D01*
X677206D01*
Y-151440D01*
Y-151726D01*
X677492D01*
Y-152013D01*
Y-152299D01*
X677778D01*
Y-152585D01*
Y-152872D01*
X678065D01*
Y-153158D01*
Y-153444D01*
X678351D01*
Y-153730D01*
Y-154017D01*
X678637D01*
Y-154303D01*
X678924D01*
Y-154589D01*
Y-154876D01*
X679210D01*
Y-155162D01*
Y-155448D01*
X679496D01*
Y-155735D01*
Y-156021D01*
X679783D01*
Y-156307D01*
Y-156594D01*
X680069D01*
Y-156880D01*
Y-157166D01*
X680355D01*
Y-157453D01*
Y-157739D01*
X680642D01*
Y-158025D01*
Y-158311D01*
X680928D01*
Y-158598D01*
X681214D01*
Y-158884D01*
Y-159170D01*
X681500D01*
Y-159457D01*
Y-159743D01*
X681787D01*
Y-160029D01*
Y-160316D01*
X682073D01*
Y-160602D01*
Y-160888D01*
X682359D01*
Y-161175D01*
Y-161461D01*
X682646D01*
Y-161747D01*
Y-162034D01*
X682932D01*
Y-162320D01*
Y-162606D01*
X683218D01*
Y-162892D01*
X683505D01*
Y-163179D01*
Y-163465D01*
X683791D01*
Y-163751D01*
Y-164038D01*
X684077D01*
Y-164324D01*
X668903D01*
Y-164038D01*
X668616D01*
Y-163751D01*
Y-163465D01*
Y-163179D01*
X668330D01*
Y-162892D01*
Y-162606D01*
Y-162320D01*
X668044D01*
Y-162034D01*
Y-161747D01*
X667758D01*
Y-161461D01*
Y-161175D01*
Y-160888D01*
X667471D01*
Y-160602D01*
Y-160316D01*
Y-160029D01*
X667185D01*
Y-159743D01*
Y-159457D01*
X666898D01*
Y-159170D01*
Y-158884D01*
Y-158598D01*
X666612D01*
Y-158311D01*
Y-158025D01*
Y-157739D01*
X666326D01*
Y-157453D01*
Y-157166D01*
Y-156880D01*
X666040D01*
Y-156594D01*
X665467D01*
Y-156880D01*
Y-157166D01*
X665181D01*
Y-157453D01*
X664894D01*
Y-157739D01*
Y-158025D01*
X664608D01*
Y-158311D01*
X664322D01*
Y-158598D01*
Y-158884D01*
X664035D01*
Y-159170D01*
X663749D01*
Y-159457D01*
Y-159743D01*
X663463D01*
Y-160029D01*
X663176D01*
Y-160316D01*
X662890D01*
Y-160602D01*
Y-160888D01*
X662604D01*
Y-161175D01*
X662318D01*
Y-161461D01*
Y-161747D01*
X662031D01*
Y-162034D01*
X661745D01*
Y-162320D01*
Y-162606D01*
X661459D01*
Y-162892D01*
X661172D01*
Y-163179D01*
Y-163465D01*
X660886D01*
Y-163751D01*
X660600D01*
Y-164038D01*
Y-164324D01*
X644566D01*
Y-164038D01*
X644852D01*
Y-163751D01*
X645139D01*
Y-163465D01*
X645425D01*
Y-163179D01*
X645711D01*
Y-162892D01*
Y-162606D01*
X645998D01*
Y-162320D01*
X646284D01*
Y-162034D01*
X646570D01*
Y-161747D01*
X646857D01*
Y-161461D01*
Y-161175D01*
X647143D01*
Y-160888D01*
X647429D01*
Y-160602D01*
X647716D01*
Y-160316D01*
Y-160029D01*
X648002D01*
Y-159743D01*
X648288D01*
Y-159457D01*
X648574D01*
Y-159170D01*
X648861D01*
Y-158884D01*
Y-158598D01*
X649147D01*
Y-158311D01*
X649433D01*
Y-158025D01*
X649720D01*
Y-157739D01*
X650006D01*
Y-157453D01*
Y-157166D01*
X650292D01*
Y-156880D01*
X650579D01*
Y-156594D01*
X650865D01*
Y-156307D01*
Y-156021D01*
X651151D01*
Y-155735D01*
X651438D01*
Y-155448D01*
X651724D01*
Y-155162D01*
X652010D01*
Y-154876D01*
Y-154589D01*
X652297D01*
Y-154303D01*
X652583D01*
Y-154017D01*
X652869D01*
Y-153730D01*
Y-153444D01*
X653156D01*
Y-153158D01*
X653442D01*
Y-152872D01*
X653728D01*
Y-152585D01*
X654014D01*
Y-152299D01*
Y-152013D01*
X654301D01*
Y-151726D01*
X654587D01*
Y-151440D01*
X654873D01*
Y-151154D01*
Y-150867D01*
X655160D01*
Y-150581D01*
X655446D01*
Y-150295D01*
X655732D01*
Y-150008D01*
X656019D01*
Y-149722D01*
Y-149436D01*
X656305D01*
Y-149150D01*
X656591D01*
Y-148863D01*
X656878D01*
Y-148577D01*
X657164D01*
Y-148291D01*
Y-148004D01*
X657450D01*
Y-147718D01*
X657736D01*
Y-147432D01*
X658023D01*
Y-147145D01*
Y-146859D01*
X658309D01*
Y-146573D01*
X658596D01*
Y-146286D01*
X658882D01*
Y-146000D01*
X659168D01*
Y-145714D01*
Y-145427D01*
X659454D01*
Y-145141D01*
Y-144855D01*
Y-144569D01*
X659168D01*
Y-144282D01*
X658882D01*
Y-143996D01*
Y-143710D01*
X658596D01*
Y-143423D01*
Y-143137D01*
X658309D01*
Y-142851D01*
Y-142564D01*
X658023D01*
Y-142278D01*
Y-141992D01*
X657736D01*
Y-141705D01*
Y-141419D01*
X657450D01*
Y-141133D01*
Y-140846D01*
X657164D01*
Y-140560D01*
X656878D01*
Y-140274D01*
Y-139988D01*
X656591D01*
Y-139701D01*
Y-139415D01*
X656305D01*
Y-139128D01*
Y-138842D01*
X656019D01*
Y-138556D01*
Y-138270D01*
X655732D01*
Y-137983D01*
Y-137697D01*
X655446D01*
Y-137411D01*
Y-137124D01*
X655160D01*
Y-136838D01*
X654873D01*
Y-136552D01*
Y-136265D01*
X654587D01*
Y-135979D01*
Y-135693D01*
X654301D01*
Y-135406D01*
Y-135120D01*
X654014D01*
Y-134834D01*
Y-134547D01*
X653728D01*
Y-134261D01*
Y-133975D01*
X653442D01*
Y-133689D01*
Y-133402D01*
X653156D01*
Y-133116D01*
Y-132830D01*
X652869D01*
Y-132543D01*
X652583D01*
Y-132257D01*
Y-131971D01*
X652297D01*
Y-131684D01*
Y-131398D01*
X652010D01*
Y-131112D01*
Y-130825D01*
X651724D01*
Y-130539D01*
Y-130253D01*
X651438D01*
Y-129966D01*
Y-129680D01*
X651151D01*
Y-129394D01*
Y-129108D01*
X650865D01*
Y-128821D01*
X650579D01*
Y-128535D01*
Y-128249D01*
X650292D01*
Y-127962D01*
X666040D01*
Y-128249D01*
X666326D01*
Y-128535D01*
Y-128821D01*
Y-129108D01*
X666612D01*
Y-129394D01*
Y-129680D01*
Y-129966D01*
X666898D01*
Y-130253D01*
Y-130539D01*
Y-130825D01*
X667185D01*
Y-131112D01*
Y-131398D01*
Y-131684D01*
X667471D01*
Y-131971D01*
Y-132257D01*
Y-132543D01*
X667758D01*
Y-132830D01*
Y-133116D01*
Y-133402D01*
X668044D01*
Y-133689D01*
Y-133975D01*
Y-134261D01*
X668330D01*
Y-134547D01*
Y-134834D01*
Y-135120D01*
X668616D01*
Y-135406D01*
Y-135693D01*
Y-135979D01*
Y-136265D01*
X669189D01*
Y-135979D01*
X669475D01*
Y-135693D01*
X669762D01*
Y-135406D01*
Y-135120D01*
X670048D01*
Y-134834D01*
X670334D01*
Y-134547D01*
Y-134261D01*
X670621D01*
Y-133975D01*
X670907D01*
Y-133689D01*
Y-133402D01*
X671193D01*
Y-133116D01*
X671480D01*
Y-132830D01*
Y-132543D01*
X671766D01*
Y-132257D01*
X672052D01*
Y-131971D01*
Y-131684D01*
X672338D01*
Y-131398D01*
X672625D01*
Y-131112D01*
Y-130825D01*
X672911D01*
Y-130539D01*
X673197D01*
Y-130253D01*
Y-129966D01*
X673484D01*
Y-129680D01*
X673770D01*
Y-129394D01*
Y-129108D01*
X674056D01*
Y-128821D01*
X674343D01*
Y-128535D01*
Y-128249D01*
X674629D01*
Y-127962D01*
X690376D01*
Y-128249D01*
D02*
G37*
G36*
X557241Y-114219D02*
X558959D01*
Y-114506D01*
X559818D01*
Y-114792D01*
X560676D01*
Y-115078D01*
X561535D01*
Y-115365D01*
X562108D01*
Y-115651D01*
X562394D01*
Y-115937D01*
X562967D01*
Y-116224D01*
X563253D01*
Y-116510D01*
X563826D01*
Y-116796D01*
X564112D01*
Y-117083D01*
X564398D01*
Y-117369D01*
X564685D01*
Y-117655D01*
X564971D01*
Y-117941D01*
X565258D01*
Y-118228D01*
X565544D01*
Y-118514D01*
Y-118800D01*
X565830D01*
Y-119087D01*
X566116D01*
Y-119373D01*
Y-119659D01*
X566403D01*
Y-119946D01*
X566689D01*
Y-120232D01*
Y-120518D01*
X566975D01*
Y-120805D01*
Y-121091D01*
Y-121377D01*
X567262D01*
Y-121663D01*
Y-121950D01*
Y-122236D01*
X567548D01*
Y-122522D01*
Y-122809D01*
Y-123095D01*
Y-123381D01*
X567834D01*
Y-123668D01*
Y-123954D01*
Y-124240D01*
Y-124527D01*
Y-124813D01*
X568121D01*
Y-125099D01*
Y-125385D01*
Y-125672D01*
Y-125958D01*
Y-126244D01*
Y-126531D01*
Y-126817D01*
Y-127103D01*
Y-127390D01*
Y-127676D01*
Y-127962D01*
Y-128249D01*
Y-128535D01*
Y-128821D01*
Y-129108D01*
Y-129394D01*
Y-129680D01*
Y-129966D01*
Y-130253D01*
Y-130539D01*
X567834D01*
Y-130825D01*
Y-131112D01*
Y-131398D01*
Y-131684D01*
Y-131971D01*
Y-132257D01*
Y-132543D01*
X567548D01*
Y-132830D01*
Y-133116D01*
Y-133402D01*
Y-133689D01*
Y-133975D01*
X567262D01*
Y-134261D01*
Y-134547D01*
Y-134834D01*
Y-135120D01*
Y-135406D01*
X566975D01*
Y-135693D01*
Y-135979D01*
Y-136265D01*
X566689D01*
Y-136552D01*
Y-136838D01*
Y-137124D01*
Y-137411D01*
X566403D01*
Y-137697D01*
Y-137983D01*
Y-138270D01*
X566116D01*
Y-138556D01*
Y-138842D01*
X565830D01*
Y-139128D01*
Y-139415D01*
Y-139701D01*
X565544D01*
Y-139988D01*
Y-140274D01*
X565258D01*
Y-140560D01*
Y-140846D01*
X564971D01*
Y-141133D01*
Y-141419D01*
X564685D01*
Y-141705D01*
X564398D01*
Y-141992D01*
Y-142278D01*
X564112D01*
Y-142564D01*
X563826D01*
Y-142851D01*
X563540D01*
Y-143137D01*
Y-143423D01*
X563253D01*
Y-143710D01*
X562967D01*
Y-143996D01*
X562681D01*
Y-144282D01*
X562394D01*
Y-144569D01*
X562108D01*
Y-144855D01*
X561535D01*
Y-145141D01*
X561249D01*
Y-145427D01*
X560676D01*
Y-145714D01*
X560390D01*
Y-146000D01*
X559818D01*
Y-146286D01*
X558959D01*
Y-146573D01*
X558100D01*
Y-146859D01*
X557241D01*
Y-147145D01*
X555523D01*
Y-147432D01*
X550369D01*
Y-147145D01*
X547792D01*
Y-146859D01*
X545788D01*
Y-146573D01*
X544357D01*
Y-146286D01*
X542925D01*
Y-146000D01*
X541494D01*
Y-146286D01*
Y-146573D01*
Y-146859D01*
Y-147145D01*
Y-147432D01*
Y-147718D01*
Y-148004D01*
X541207D01*
Y-148291D01*
Y-148577D01*
Y-148863D01*
Y-149150D01*
Y-149436D01*
Y-149722D01*
X540921D01*
Y-150008D01*
Y-150295D01*
Y-150581D01*
Y-150867D01*
Y-151154D01*
Y-151440D01*
X540635D01*
Y-151726D01*
Y-152013D01*
Y-152299D01*
Y-152585D01*
Y-152872D01*
Y-153158D01*
Y-153444D01*
X540348D01*
Y-153730D01*
Y-154017D01*
Y-154303D01*
Y-154589D01*
Y-154876D01*
Y-155162D01*
X540062D01*
Y-155448D01*
Y-155735D01*
Y-156021D01*
Y-156307D01*
Y-156594D01*
Y-156880D01*
X539776D01*
Y-157166D01*
Y-157453D01*
Y-157739D01*
Y-158025D01*
Y-158311D01*
Y-158598D01*
Y-158884D01*
X539489D01*
Y-159170D01*
Y-159457D01*
Y-159743D01*
Y-160029D01*
Y-160316D01*
Y-160602D01*
X539203D01*
Y-160888D01*
Y-161175D01*
Y-161461D01*
Y-161747D01*
Y-162034D01*
Y-162320D01*
X538917D01*
Y-162606D01*
Y-162892D01*
Y-163179D01*
Y-163465D01*
Y-163751D01*
Y-164038D01*
Y-164324D01*
X525460D01*
Y-164038D01*
X525746D01*
Y-163751D01*
Y-163465D01*
Y-163179D01*
Y-162892D01*
Y-162606D01*
X526033D01*
Y-162320D01*
Y-162034D01*
Y-161747D01*
Y-161461D01*
Y-161175D01*
Y-160888D01*
Y-160602D01*
X526319D01*
Y-160316D01*
Y-160029D01*
Y-159743D01*
Y-159457D01*
Y-159170D01*
Y-158884D01*
X526605D01*
Y-158598D01*
Y-158311D01*
Y-158025D01*
Y-157739D01*
Y-157453D01*
Y-157166D01*
X526892D01*
Y-156880D01*
Y-156594D01*
Y-156307D01*
Y-156021D01*
Y-155735D01*
Y-155448D01*
Y-155162D01*
X527178D01*
Y-154876D01*
Y-154589D01*
Y-154303D01*
Y-154017D01*
Y-153730D01*
Y-153444D01*
X527464D01*
Y-153158D01*
Y-152872D01*
Y-152585D01*
Y-152299D01*
Y-152013D01*
Y-151726D01*
X527750D01*
Y-151440D01*
Y-151154D01*
Y-150867D01*
Y-150581D01*
Y-150295D01*
Y-150008D01*
X528037D01*
Y-149722D01*
Y-149436D01*
Y-149150D01*
Y-148863D01*
Y-148577D01*
Y-148291D01*
Y-148004D01*
X528323D01*
Y-147718D01*
Y-147432D01*
Y-147145D01*
Y-146859D01*
Y-146573D01*
Y-146286D01*
X528609D01*
Y-146000D01*
Y-145714D01*
Y-145427D01*
Y-145141D01*
Y-144855D01*
Y-144569D01*
X528896D01*
Y-144282D01*
Y-143996D01*
Y-143710D01*
Y-143423D01*
Y-143137D01*
Y-142851D01*
X529182D01*
Y-142564D01*
Y-142278D01*
Y-141992D01*
Y-141705D01*
Y-141419D01*
Y-141133D01*
Y-140846D01*
X529468D01*
Y-140560D01*
Y-140274D01*
Y-139988D01*
Y-139701D01*
Y-139415D01*
Y-139128D01*
X529755D01*
Y-138842D01*
Y-138556D01*
Y-138270D01*
Y-137983D01*
Y-137697D01*
Y-137411D01*
X530041D01*
Y-137124D01*
Y-136838D01*
Y-136552D01*
Y-136265D01*
Y-135979D01*
Y-135693D01*
Y-135406D01*
X530327D01*
Y-135120D01*
Y-134834D01*
Y-134547D01*
Y-134261D01*
Y-133975D01*
Y-133689D01*
X530614D01*
Y-133402D01*
Y-133116D01*
Y-132830D01*
Y-132543D01*
Y-132257D01*
Y-131971D01*
X530900D01*
Y-131684D01*
Y-131398D01*
Y-131112D01*
Y-130825D01*
Y-130539D01*
Y-130253D01*
X531186D01*
Y-129966D01*
Y-129680D01*
Y-129394D01*
Y-129108D01*
Y-128821D01*
Y-128535D01*
Y-128249D01*
X531473D01*
Y-127962D01*
Y-127676D01*
Y-127390D01*
Y-127103D01*
Y-126817D01*
Y-126531D01*
X531759D01*
Y-126244D01*
Y-125958D01*
Y-125672D01*
Y-125385D01*
Y-125099D01*
Y-124813D01*
X532045D01*
Y-124527D01*
Y-124240D01*
Y-123954D01*
Y-123668D01*
Y-123381D01*
Y-123095D01*
Y-122809D01*
X532332D01*
Y-122522D01*
Y-122236D01*
Y-121950D01*
Y-121663D01*
Y-121377D01*
Y-121091D01*
X532618D01*
Y-120805D01*
Y-120518D01*
Y-120232D01*
Y-119946D01*
Y-119659D01*
Y-119373D01*
X532904D01*
Y-119087D01*
Y-118800D01*
Y-118514D01*
Y-118228D01*
Y-117941D01*
Y-117655D01*
Y-117369D01*
X533190D01*
Y-117083D01*
Y-116796D01*
Y-116510D01*
Y-116224D01*
Y-115937D01*
Y-115651D01*
X533477D01*
Y-115365D01*
Y-115078D01*
Y-114792D01*
Y-114506D01*
Y-114219D01*
Y-113933D01*
X557241D01*
Y-114219D01*
D02*
G37*
G36*
X646284Y-128249D02*
Y-128535D01*
Y-128821D01*
Y-129108D01*
Y-129394D01*
Y-129680D01*
Y-129966D01*
Y-130253D01*
Y-130539D01*
Y-130825D01*
Y-131112D01*
Y-131398D01*
Y-131684D01*
Y-131971D01*
Y-132257D01*
Y-132543D01*
Y-132830D01*
Y-133116D01*
Y-133402D01*
Y-133689D01*
Y-133975D01*
X645998D01*
Y-134261D01*
Y-134547D01*
Y-134834D01*
Y-135120D01*
Y-135406D01*
X645711D01*
Y-135693D01*
Y-135979D01*
Y-136265D01*
Y-136552D01*
X645425D01*
Y-136838D01*
Y-137124D01*
Y-137411D01*
Y-137697D01*
X645139D01*
Y-137983D01*
Y-138270D01*
Y-138556D01*
X644852D01*
Y-138842D01*
Y-139128D01*
Y-139415D01*
X644566D01*
Y-139701D01*
Y-139988D01*
Y-140274D01*
X644280D01*
Y-140560D01*
Y-140846D01*
Y-141133D01*
X643994D01*
Y-141419D01*
Y-141705D01*
X643707D01*
Y-141992D01*
Y-142278D01*
X643421D01*
Y-142564D01*
Y-142851D01*
Y-143137D01*
X643135D01*
Y-143423D01*
Y-143710D01*
X642848D01*
Y-143996D01*
Y-144282D01*
Y-144569D01*
X642562D01*
Y-144855D01*
Y-145141D01*
X642276D01*
Y-145427D01*
Y-145714D01*
Y-146000D01*
X641989D01*
Y-146286D01*
Y-146573D01*
X641703D01*
Y-146859D01*
Y-147145D01*
Y-147432D01*
X641417D01*
Y-147718D01*
Y-148004D01*
X641130D01*
Y-148291D01*
Y-148577D01*
Y-148863D01*
X640844D01*
Y-149150D01*
Y-149436D01*
X640558D01*
Y-149722D01*
Y-150008D01*
Y-150295D01*
X640271D01*
Y-150581D01*
Y-150867D01*
X639985D01*
Y-151154D01*
Y-151440D01*
Y-151726D01*
X639699D01*
Y-152013D01*
Y-152299D01*
X639412D01*
Y-152585D01*
Y-152872D01*
Y-153158D01*
X639126D01*
Y-153444D01*
Y-153730D01*
X638840D01*
Y-154017D01*
Y-154303D01*
Y-154589D01*
X638554D01*
Y-154876D01*
Y-155162D01*
X638267D01*
Y-155448D01*
Y-155735D01*
Y-156021D01*
X637981D01*
Y-156307D01*
Y-156594D01*
X637695D01*
Y-156880D01*
Y-157166D01*
Y-157453D01*
X637408D01*
Y-157739D01*
Y-158025D01*
X637122D01*
Y-158311D01*
Y-158598D01*
Y-158884D01*
X636836D01*
Y-159170D01*
Y-159457D01*
X636549D01*
Y-159743D01*
Y-160029D01*
Y-160316D01*
X636263D01*
Y-160602D01*
Y-160888D01*
X635977D01*
Y-161175D01*
Y-161461D01*
Y-161747D01*
X635690D01*
Y-162034D01*
Y-162320D01*
X635404D01*
Y-162606D01*
Y-162892D01*
Y-163179D01*
X635118D01*
Y-163465D01*
Y-163751D01*
X634831D01*
Y-164038D01*
Y-164324D01*
Y-164610D01*
X634545D01*
Y-164897D01*
Y-165183D01*
X634259D01*
Y-165469D01*
Y-165756D01*
X633973D01*
Y-166042D01*
Y-166328D01*
X633686D01*
Y-166615D01*
Y-166901D01*
Y-167187D01*
X633400D01*
Y-167473D01*
X633114D01*
Y-167760D01*
Y-168046D01*
Y-168333D01*
X632827D01*
Y-168619D01*
X632541D01*
Y-168905D01*
Y-169191D01*
X632255D01*
Y-169478D01*
Y-169764D01*
X631968D01*
Y-170050D01*
Y-170337D01*
X631682D01*
Y-170623D01*
Y-170909D01*
X631396D01*
Y-171196D01*
X631109D01*
Y-171482D01*
Y-171768D01*
X630823D01*
Y-172055D01*
Y-172341D01*
X630537D01*
Y-172627D01*
X630251D01*
Y-172914D01*
X629964D01*
Y-173200D01*
Y-173486D01*
X629678D01*
Y-173772D01*
X629392D01*
Y-174059D01*
Y-174345D01*
X629105D01*
Y-174631D01*
X628819D01*
Y-174918D01*
X628533D01*
Y-175204D01*
Y-175490D01*
X628246D01*
Y-175777D01*
X627960D01*
Y-176063D01*
X627674D01*
Y-176349D01*
X627387D01*
Y-176636D01*
X627101D01*
Y-176922D01*
Y-177208D01*
X626815D01*
Y-177495D01*
X626528D01*
Y-177781D01*
X626242D01*
Y-178067D01*
X625956D01*
Y-178353D01*
X625669D01*
Y-178640D01*
X625383D01*
Y-178926D01*
X625097D01*
Y-179212D01*
X624524D01*
Y-179499D01*
X624238D01*
Y-179785D01*
X623952D01*
Y-180071D01*
X623665D01*
Y-180358D01*
X623379D01*
Y-180644D01*
X622806D01*
Y-180930D01*
X622520D01*
Y-181217D01*
X621947D01*
Y-181503D01*
X621661D01*
Y-181789D01*
X621089D01*
Y-182076D01*
X620802D01*
Y-182362D01*
X620229D01*
Y-182648D01*
X619657D01*
Y-182934D01*
X619084D01*
Y-183221D01*
X618512D01*
Y-183507D01*
X617939D01*
Y-183793D01*
X617080D01*
Y-184080D01*
X616507D01*
Y-184366D01*
X615649D01*
Y-184652D01*
X614503D01*
Y-184939D01*
X613358D01*
Y-185225D01*
X611640D01*
Y-185511D01*
X609636D01*
Y-185798D01*
X609350D01*
Y-185511D01*
Y-185225D01*
Y-184939D01*
Y-184652D01*
Y-184366D01*
Y-184080D01*
Y-183793D01*
Y-183507D01*
Y-183221D01*
Y-182934D01*
Y-182648D01*
Y-182362D01*
Y-182076D01*
Y-181789D01*
Y-181503D01*
Y-181217D01*
Y-180930D01*
Y-180644D01*
Y-180358D01*
Y-180071D01*
Y-179785D01*
Y-179499D01*
Y-179212D01*
Y-178926D01*
Y-178640D01*
Y-178353D01*
Y-178067D01*
Y-177781D01*
Y-177495D01*
Y-177208D01*
Y-176922D01*
Y-176636D01*
Y-176349D01*
X609922D01*
Y-176063D01*
X610495D01*
Y-175777D01*
X611067D01*
Y-175490D01*
X611640D01*
Y-175204D01*
X612213D01*
Y-174918D01*
X612785D01*
Y-174631D01*
X613072D01*
Y-174345D01*
X613644D01*
Y-174059D01*
X613931D01*
Y-173772D01*
X614503D01*
Y-173486D01*
X614790D01*
Y-173200D01*
X615076D01*
Y-172914D01*
X615649D01*
Y-172627D01*
X615935D01*
Y-172341D01*
X616221D01*
Y-172055D01*
X616507D01*
Y-171768D01*
X616794D01*
Y-171482D01*
X617080D01*
Y-171196D01*
X617366D01*
Y-170909D01*
X617653D01*
Y-170623D01*
X617939D01*
Y-170337D01*
X618225D01*
Y-170050D01*
X618512D01*
Y-169764D01*
X618798D01*
Y-169478D01*
Y-169191D01*
X619084D01*
Y-168905D01*
X619371D01*
Y-168619D01*
X619657D01*
Y-168333D01*
Y-168046D01*
X619943D01*
Y-167760D01*
X620229D01*
Y-167473D01*
Y-167187D01*
X620516D01*
Y-166901D01*
Y-166615D01*
X620802D01*
Y-166328D01*
X621089D01*
Y-166042D01*
Y-165756D01*
X621375D01*
Y-165469D01*
Y-165183D01*
X621661D01*
Y-164897D01*
Y-164610D01*
X619943D01*
Y-164324D01*
X617939D01*
Y-164038D01*
X616794D01*
Y-163751D01*
X616221D01*
Y-163465D01*
X615362D01*
Y-163179D01*
X614790D01*
Y-162892D01*
X614503D01*
Y-162606D01*
X613931D01*
Y-162320D01*
X613644D01*
Y-162034D01*
X613358D01*
Y-161747D01*
X613072D01*
Y-161461D01*
X612785D01*
Y-161175D01*
X612499D01*
Y-160888D01*
Y-160602D01*
X612213D01*
Y-160316D01*
X611927D01*
Y-160029D01*
Y-159743D01*
X611640D01*
Y-159457D01*
Y-159170D01*
X611354D01*
Y-158884D01*
Y-158598D01*
X611067D01*
Y-158311D01*
Y-158025D01*
Y-157739D01*
X610781D01*
Y-157453D01*
Y-157166D01*
Y-156880D01*
Y-156594D01*
X610495D01*
Y-156307D01*
Y-156021D01*
Y-155735D01*
Y-155448D01*
Y-155162D01*
Y-154876D01*
Y-154589D01*
X610209D01*
Y-154303D01*
Y-154017D01*
Y-153730D01*
Y-153444D01*
Y-153158D01*
Y-152872D01*
Y-152585D01*
Y-152299D01*
Y-152013D01*
Y-151726D01*
Y-151440D01*
Y-151154D01*
Y-150867D01*
Y-150581D01*
Y-150295D01*
X609922D01*
Y-150008D01*
Y-149722D01*
Y-149436D01*
Y-149150D01*
Y-148863D01*
Y-148577D01*
Y-148291D01*
Y-148004D01*
Y-147718D01*
Y-147432D01*
Y-147145D01*
Y-146859D01*
Y-146573D01*
Y-146286D01*
Y-146000D01*
X609636D01*
Y-145714D01*
Y-145427D01*
Y-145141D01*
Y-144855D01*
Y-144569D01*
Y-144282D01*
Y-143996D01*
Y-143710D01*
Y-143423D01*
Y-143137D01*
Y-142851D01*
Y-142564D01*
Y-142278D01*
Y-141992D01*
Y-141705D01*
Y-141419D01*
X609350D01*
Y-141133D01*
Y-140846D01*
Y-140560D01*
Y-140274D01*
Y-139988D01*
Y-139701D01*
Y-139415D01*
Y-139128D01*
Y-138842D01*
Y-138556D01*
Y-138270D01*
Y-137983D01*
Y-137697D01*
Y-137411D01*
Y-137124D01*
Y-136838D01*
X609063D01*
Y-136552D01*
Y-136265D01*
Y-135979D01*
Y-135693D01*
Y-135406D01*
Y-135120D01*
Y-134834D01*
Y-134547D01*
Y-134261D01*
Y-133975D01*
Y-133689D01*
Y-133402D01*
Y-133116D01*
Y-132830D01*
X608777D01*
Y-132543D01*
Y-132257D01*
Y-131971D01*
Y-131684D01*
Y-131398D01*
Y-131112D01*
Y-130825D01*
Y-130539D01*
Y-130253D01*
Y-129966D01*
Y-129680D01*
Y-129394D01*
Y-129108D01*
Y-128821D01*
Y-128535D01*
Y-128249D01*
X608491D01*
Y-127962D01*
X622234D01*
Y-128249D01*
Y-128535D01*
Y-128821D01*
Y-129108D01*
Y-129394D01*
Y-129680D01*
Y-129966D01*
Y-130253D01*
Y-130539D01*
Y-130825D01*
Y-131112D01*
Y-131398D01*
Y-131684D01*
Y-131971D01*
X622520D01*
Y-132257D01*
Y-132543D01*
Y-132830D01*
Y-133116D01*
Y-133402D01*
Y-133689D01*
Y-133975D01*
Y-134261D01*
Y-134547D01*
Y-134834D01*
Y-135120D01*
Y-135406D01*
Y-135693D01*
Y-135979D01*
Y-136265D01*
Y-136552D01*
Y-136838D01*
Y-137124D01*
Y-137411D01*
Y-137697D01*
Y-137983D01*
Y-138270D01*
Y-138556D01*
Y-138842D01*
Y-139128D01*
Y-139415D01*
Y-139701D01*
Y-139988D01*
Y-140274D01*
Y-140560D01*
Y-140846D01*
Y-141133D01*
Y-141419D01*
Y-141705D01*
Y-141992D01*
Y-142278D01*
Y-142564D01*
Y-142851D01*
Y-143137D01*
Y-143423D01*
Y-143710D01*
X622806D01*
Y-143996D01*
X622520D01*
Y-144282D01*
Y-144569D01*
X622806D01*
Y-144855D01*
Y-145141D01*
Y-145427D01*
Y-145714D01*
Y-146000D01*
Y-146286D01*
Y-146573D01*
Y-146859D01*
Y-147145D01*
Y-147432D01*
Y-147718D01*
Y-148004D01*
Y-148291D01*
Y-148577D01*
Y-148863D01*
Y-149150D01*
Y-149436D01*
Y-149722D01*
Y-150008D01*
Y-150295D01*
Y-150581D01*
Y-150867D01*
Y-151154D01*
Y-151440D01*
Y-151726D01*
Y-152013D01*
X623093D01*
Y-152299D01*
Y-152585D01*
Y-152872D01*
X623379D01*
Y-153158D01*
X623665D01*
Y-153444D01*
X623952D01*
Y-153730D01*
X624811D01*
Y-154017D01*
X625669D01*
Y-153730D01*
X625956D01*
Y-153444D01*
Y-153158D01*
Y-152872D01*
X626242D01*
Y-152585D01*
Y-152299D01*
X626528D01*
Y-152013D01*
Y-151726D01*
Y-151440D01*
X626815D01*
Y-151154D01*
Y-150867D01*
Y-150581D01*
X627101D01*
Y-150295D01*
Y-150008D01*
Y-149722D01*
X627387D01*
Y-149436D01*
Y-149150D01*
Y-148863D01*
X627674D01*
Y-148577D01*
Y-148291D01*
X627960D01*
Y-148004D01*
Y-147718D01*
Y-147432D01*
X628246D01*
Y-147145D01*
Y-146859D01*
Y-146573D01*
X628533D01*
Y-146286D01*
Y-146000D01*
Y-145714D01*
X628819D01*
Y-145427D01*
Y-145141D01*
X629105D01*
Y-144855D01*
Y-144569D01*
Y-144282D01*
X629392D01*
Y-143996D01*
Y-143710D01*
Y-143423D01*
X629678D01*
Y-143137D01*
Y-142851D01*
Y-142564D01*
X629964D01*
Y-142278D01*
Y-141992D01*
X630251D01*
Y-141705D01*
Y-141419D01*
Y-141133D01*
X630537D01*
Y-140846D01*
Y-140560D01*
Y-140274D01*
X630823D01*
Y-139988D01*
Y-139701D01*
Y-139415D01*
X631109D01*
Y-139128D01*
Y-138842D01*
X631396D01*
Y-138556D01*
Y-138270D01*
Y-137983D01*
X631682D01*
Y-137697D01*
Y-137411D01*
Y-137124D01*
X631968D01*
Y-136838D01*
Y-136552D01*
Y-136265D01*
X632255D01*
Y-135979D01*
Y-135693D01*
Y-135406D01*
Y-135120D01*
X632541D01*
Y-134834D01*
Y-134547D01*
Y-134261D01*
Y-133975D01*
X632827D01*
Y-133689D01*
Y-133402D01*
Y-133116D01*
Y-132830D01*
Y-132543D01*
X633114D01*
Y-132257D01*
Y-131971D01*
Y-131684D01*
Y-131398D01*
Y-131112D01*
Y-130825D01*
X633400D01*
Y-130539D01*
Y-130253D01*
Y-129966D01*
Y-129680D01*
Y-129394D01*
Y-129108D01*
Y-128821D01*
Y-128535D01*
Y-128249D01*
Y-127962D01*
X646284D01*
Y-128249D01*
D02*
G37*
G36*
X588449Y-110784D02*
Y-111070D01*
X588163D01*
Y-111356D01*
Y-111643D01*
Y-111929D01*
Y-112215D01*
Y-112501D01*
Y-112788D01*
X587876D01*
Y-113074D01*
Y-113360D01*
Y-113647D01*
Y-113933D01*
Y-114219D01*
Y-114506D01*
X587590D01*
Y-114792D01*
Y-115078D01*
Y-115365D01*
Y-115651D01*
Y-115937D01*
Y-116224D01*
Y-116510D01*
X587304D01*
Y-116796D01*
Y-117083D01*
Y-117369D01*
Y-117655D01*
Y-117941D01*
Y-118228D01*
X587017D01*
Y-118514D01*
Y-118800D01*
Y-119087D01*
Y-119373D01*
Y-119659D01*
Y-119946D01*
X586731D01*
Y-120232D01*
Y-120518D01*
Y-120805D01*
Y-121091D01*
Y-121377D01*
Y-121663D01*
Y-121950D01*
X586445D01*
Y-122236D01*
Y-122522D01*
Y-122809D01*
Y-123095D01*
Y-123381D01*
Y-123668D01*
X586158D01*
Y-123954D01*
Y-124240D01*
Y-124527D01*
Y-124813D01*
Y-125099D01*
Y-125385D01*
X585872D01*
Y-125672D01*
Y-125958D01*
Y-126244D01*
Y-126531D01*
Y-126817D01*
Y-127103D01*
X585586D01*
Y-127390D01*
Y-127676D01*
Y-127962D01*
Y-128249D01*
Y-128535D01*
Y-128821D01*
Y-129108D01*
X585299D01*
Y-129394D01*
Y-129680D01*
Y-129966D01*
Y-130253D01*
Y-130539D01*
Y-130825D01*
X585013D01*
Y-131112D01*
Y-131398D01*
X585586D01*
Y-131112D01*
X585872D01*
Y-130825D01*
X586158D01*
Y-130539D01*
X586731D01*
Y-130253D01*
X587017D01*
Y-129966D01*
X587304D01*
Y-129680D01*
X587876D01*
Y-129394D01*
X588449D01*
Y-129108D01*
X588735D01*
Y-128821D01*
X589308D01*
Y-128535D01*
X590167D01*
Y-128249D01*
X590739D01*
Y-127962D01*
X591598D01*
Y-127676D01*
X593030D01*
Y-127390D01*
X599329D01*
Y-127676D01*
X600474D01*
Y-127962D01*
X601333D01*
Y-128249D01*
X601905D01*
Y-128535D01*
X602192D01*
Y-128821D01*
X602765D01*
Y-129108D01*
X603051D01*
Y-129394D01*
X603337D01*
Y-129680D01*
X603623D01*
Y-129966D01*
X603910D01*
Y-130253D01*
Y-130539D01*
X604196D01*
Y-130825D01*
Y-131112D01*
X604482D01*
Y-131398D01*
Y-131684D01*
Y-131971D01*
X604769D01*
Y-132257D01*
Y-132543D01*
Y-132830D01*
Y-133116D01*
X605055D01*
Y-133402D01*
Y-133689D01*
Y-133975D01*
Y-134261D01*
Y-134547D01*
Y-134834D01*
Y-135120D01*
Y-135406D01*
Y-135693D01*
Y-135979D01*
Y-136265D01*
Y-136552D01*
Y-136838D01*
Y-137124D01*
Y-137411D01*
Y-137697D01*
Y-137983D01*
Y-138270D01*
X604769D01*
Y-138556D01*
Y-138842D01*
Y-139128D01*
Y-139415D01*
Y-139701D01*
Y-139988D01*
Y-140274D01*
X604482D01*
Y-140560D01*
Y-140846D01*
Y-141133D01*
Y-141419D01*
Y-141705D01*
Y-141992D01*
Y-142278D01*
X604196D01*
Y-142564D01*
Y-142851D01*
Y-143137D01*
Y-143423D01*
Y-143710D01*
Y-143996D01*
X603910D01*
Y-144282D01*
Y-144569D01*
Y-144855D01*
Y-145141D01*
Y-145427D01*
Y-145714D01*
X603623D01*
Y-146000D01*
Y-146286D01*
Y-146573D01*
Y-146859D01*
Y-147145D01*
Y-147432D01*
X603337D01*
Y-147718D01*
Y-148004D01*
Y-148291D01*
Y-148577D01*
Y-148863D01*
Y-149150D01*
Y-149436D01*
X603051D01*
Y-149722D01*
Y-150008D01*
Y-150295D01*
Y-150581D01*
Y-150867D01*
Y-151154D01*
X602765D01*
Y-151440D01*
Y-151726D01*
Y-152013D01*
Y-152299D01*
Y-152585D01*
Y-152872D01*
X602478D01*
Y-153158D01*
Y-153444D01*
Y-153730D01*
Y-154017D01*
Y-154303D01*
Y-154589D01*
Y-154876D01*
X602192D01*
Y-155162D01*
Y-155448D01*
Y-155735D01*
Y-156021D01*
Y-156307D01*
Y-156594D01*
X601905D01*
Y-156880D01*
Y-157166D01*
Y-157453D01*
Y-157739D01*
Y-158025D01*
Y-158311D01*
X601619D01*
Y-158598D01*
Y-158884D01*
Y-159170D01*
Y-159457D01*
Y-159743D01*
Y-160029D01*
X601333D01*
Y-160316D01*
Y-160602D01*
Y-160888D01*
Y-161175D01*
Y-161461D01*
Y-161747D01*
Y-162034D01*
X601047D01*
Y-162320D01*
Y-162606D01*
Y-162892D01*
Y-163179D01*
Y-163465D01*
Y-163751D01*
X600760D01*
Y-164038D01*
Y-164324D01*
X587590D01*
Y-164038D01*
Y-163751D01*
X587876D01*
Y-163465D01*
Y-163179D01*
Y-162892D01*
Y-162606D01*
Y-162320D01*
Y-162034D01*
X588163D01*
Y-161747D01*
Y-161461D01*
Y-161175D01*
Y-160888D01*
Y-160602D01*
Y-160316D01*
Y-160029D01*
X588449D01*
Y-159743D01*
Y-159457D01*
Y-159170D01*
Y-158884D01*
Y-158598D01*
Y-158311D01*
X588735D01*
Y-158025D01*
Y-157739D01*
Y-157453D01*
Y-157166D01*
Y-156880D01*
Y-156594D01*
X589021D01*
Y-156307D01*
Y-156021D01*
Y-155735D01*
Y-155448D01*
Y-155162D01*
Y-154876D01*
Y-154589D01*
X589308D01*
Y-154303D01*
Y-154017D01*
Y-153730D01*
Y-153444D01*
Y-153158D01*
Y-152872D01*
X589594D01*
Y-152585D01*
Y-152299D01*
Y-152013D01*
Y-151726D01*
Y-151440D01*
Y-151154D01*
Y-150867D01*
X589880D01*
Y-150581D01*
Y-150295D01*
Y-150008D01*
Y-149722D01*
Y-149436D01*
Y-149150D01*
X590167D01*
Y-148863D01*
Y-148577D01*
Y-148291D01*
Y-148004D01*
Y-147718D01*
Y-147432D01*
X590453D01*
Y-147145D01*
Y-146859D01*
Y-146573D01*
Y-146286D01*
Y-146000D01*
Y-145714D01*
X590739D01*
Y-145427D01*
Y-145141D01*
Y-144855D01*
Y-144569D01*
Y-144282D01*
Y-143996D01*
Y-143710D01*
X591026D01*
Y-143423D01*
Y-143137D01*
Y-142851D01*
Y-142564D01*
Y-142278D01*
Y-141992D01*
X591312D01*
Y-141705D01*
Y-141419D01*
Y-141133D01*
Y-140846D01*
Y-140560D01*
Y-140274D01*
Y-139988D01*
X591598D01*
Y-139701D01*
Y-139415D01*
Y-139128D01*
Y-138842D01*
Y-138556D01*
Y-138270D01*
X591312D01*
Y-137983D01*
Y-137697D01*
X591026D01*
Y-137411D01*
X590739D01*
Y-137124D01*
X590167D01*
Y-136838D01*
X588449D01*
Y-137124D01*
X587017D01*
Y-137411D01*
X586158D01*
Y-137697D01*
X585586D01*
Y-137983D01*
X585299D01*
Y-138270D01*
X584727D01*
Y-138556D01*
X584440D01*
Y-138842D01*
X584154D01*
Y-139128D01*
Y-139415D01*
X583868D01*
Y-139701D01*
Y-139988D01*
Y-140274D01*
X583581D01*
Y-140560D01*
Y-140846D01*
Y-141133D01*
Y-141419D01*
Y-141705D01*
Y-141992D01*
X583295D01*
Y-142278D01*
Y-142564D01*
Y-142851D01*
Y-143137D01*
Y-143423D01*
Y-143710D01*
Y-143996D01*
X583009D01*
Y-144282D01*
Y-144569D01*
Y-144855D01*
Y-145141D01*
Y-145427D01*
Y-145714D01*
X582723D01*
Y-146000D01*
Y-146286D01*
Y-146573D01*
Y-146859D01*
Y-147145D01*
Y-147432D01*
X582436D01*
Y-147718D01*
Y-148004D01*
Y-148291D01*
Y-148577D01*
Y-148863D01*
Y-149150D01*
X582150D01*
Y-149436D01*
Y-149722D01*
Y-150008D01*
Y-150295D01*
Y-150581D01*
Y-150867D01*
Y-151154D01*
X581864D01*
Y-151440D01*
Y-151726D01*
Y-152013D01*
Y-152299D01*
Y-152585D01*
Y-152872D01*
X581577D01*
Y-153158D01*
Y-153444D01*
Y-153730D01*
Y-154017D01*
Y-154303D01*
Y-154589D01*
X581291D01*
Y-154876D01*
Y-155162D01*
Y-155448D01*
Y-155735D01*
Y-156021D01*
Y-156307D01*
Y-156594D01*
X581005D01*
Y-156880D01*
Y-157166D01*
Y-157453D01*
Y-157739D01*
Y-158025D01*
Y-158311D01*
X580718D01*
Y-158598D01*
Y-158884D01*
Y-159170D01*
Y-159457D01*
Y-159743D01*
Y-160029D01*
X580432D01*
Y-160316D01*
Y-160602D01*
Y-160888D01*
Y-161175D01*
Y-161461D01*
Y-161747D01*
X580146D01*
Y-162034D01*
Y-162320D01*
Y-162606D01*
Y-162892D01*
Y-163179D01*
Y-163465D01*
Y-163751D01*
X579859D01*
Y-164038D01*
Y-164324D01*
X566689D01*
Y-164038D01*
Y-163751D01*
X566975D01*
Y-163465D01*
Y-163179D01*
Y-162892D01*
Y-162606D01*
Y-162320D01*
Y-162034D01*
Y-161747D01*
X567262D01*
Y-161461D01*
Y-161175D01*
Y-160888D01*
Y-160602D01*
Y-160316D01*
Y-160029D01*
X567548D01*
Y-159743D01*
Y-159457D01*
Y-159170D01*
Y-158884D01*
Y-158598D01*
Y-158311D01*
X567834D01*
Y-158025D01*
Y-157739D01*
Y-157453D01*
Y-157166D01*
Y-156880D01*
Y-156594D01*
Y-156307D01*
X568121D01*
Y-156021D01*
Y-155735D01*
Y-155448D01*
Y-155162D01*
Y-154876D01*
Y-154589D01*
X568407D01*
Y-154303D01*
Y-154017D01*
Y-153730D01*
Y-153444D01*
Y-153158D01*
Y-152872D01*
X568693D01*
Y-152585D01*
Y-152299D01*
Y-152013D01*
Y-151726D01*
Y-151440D01*
Y-151154D01*
X568980D01*
Y-150867D01*
Y-150581D01*
Y-150295D01*
Y-150008D01*
Y-149722D01*
Y-149436D01*
Y-149150D01*
X569266D01*
Y-148863D01*
Y-148577D01*
Y-148291D01*
Y-148004D01*
Y-147718D01*
Y-147432D01*
X569552D01*
Y-147145D01*
Y-146859D01*
Y-146573D01*
Y-146286D01*
Y-146000D01*
Y-145714D01*
X569838D01*
Y-145427D01*
Y-145141D01*
Y-144855D01*
Y-144569D01*
Y-144282D01*
Y-143996D01*
Y-143710D01*
X570125D01*
Y-143423D01*
Y-143137D01*
Y-142851D01*
Y-142564D01*
Y-142278D01*
Y-141992D01*
X570411D01*
Y-141705D01*
Y-141419D01*
Y-141133D01*
Y-140846D01*
Y-140560D01*
Y-140274D01*
X570697D01*
Y-139988D01*
Y-139701D01*
Y-139415D01*
Y-139128D01*
Y-138842D01*
Y-138556D01*
X570984D01*
Y-138270D01*
Y-137983D01*
Y-137697D01*
Y-137411D01*
Y-137124D01*
Y-136838D01*
Y-136552D01*
X571270D01*
Y-136265D01*
Y-135979D01*
Y-135693D01*
Y-135406D01*
Y-135120D01*
Y-134834D01*
X571556D01*
Y-134547D01*
Y-134261D01*
Y-133975D01*
Y-133689D01*
Y-133402D01*
Y-133116D01*
X571843D01*
Y-132830D01*
Y-132543D01*
Y-132257D01*
Y-131971D01*
Y-131684D01*
Y-131398D01*
X572129D01*
Y-131112D01*
Y-130825D01*
Y-130539D01*
Y-130253D01*
Y-129966D01*
Y-129680D01*
Y-129394D01*
X572415D01*
Y-129108D01*
Y-128821D01*
Y-128535D01*
Y-128249D01*
Y-127962D01*
Y-127676D01*
X572702D01*
Y-127390D01*
Y-127103D01*
Y-126817D01*
Y-126531D01*
Y-126244D01*
Y-125958D01*
X572988D01*
Y-125672D01*
Y-125385D01*
Y-125099D01*
Y-124813D01*
Y-124527D01*
Y-124240D01*
Y-123954D01*
X573274D01*
Y-123668D01*
Y-123381D01*
Y-123095D01*
Y-122809D01*
Y-122522D01*
Y-122236D01*
X573560D01*
Y-121950D01*
Y-121663D01*
Y-121377D01*
Y-121091D01*
Y-120805D01*
Y-120518D01*
X573847D01*
Y-120232D01*
Y-119946D01*
Y-119659D01*
Y-119373D01*
Y-119087D01*
Y-118800D01*
X574133D01*
Y-118514D01*
Y-118228D01*
Y-117941D01*
Y-117655D01*
Y-117369D01*
Y-117083D01*
Y-116796D01*
X574419D01*
Y-116510D01*
Y-116224D01*
Y-115937D01*
Y-115651D01*
Y-115365D01*
Y-115078D01*
X574706D01*
Y-114792D01*
Y-114506D01*
Y-114219D01*
Y-113933D01*
Y-113647D01*
Y-113360D01*
X574992D01*
Y-113074D01*
Y-112788D01*
Y-112501D01*
Y-112215D01*
Y-111929D01*
Y-111643D01*
Y-111356D01*
X575278D01*
Y-111070D01*
Y-110784D01*
Y-110497D01*
X588449D01*
Y-110784D01*
D02*
G37*
%LPC*%
G36*
X-1010Y115664D02*
X-5357Y113873D01*
X-2468Y110984D01*
X-3842Y113732D01*
X-3820Y113792D01*
X-3071Y114107D01*
X-1010Y109985D01*
X1051Y114107D01*
X1808Y113801D01*
X1831Y113741D01*
X457Y110993D01*
X3337Y113873D01*
X-1010Y115664D01*
D02*
G37*
G36*
X7102Y90732D02*
X6998Y90732D01*
X6971Y90727D01*
X6939Y90727D01*
X6902Y90723D01*
X6816Y90704D01*
X6716Y90681D01*
X6611Y90645D01*
X6506Y90590D01*
X6456Y90558D01*
X6411Y90522D01*
X6406Y90517D01*
X6402Y90513D01*
X6388Y90499D01*
X6375Y90486D01*
X6334Y90440D01*
X6293Y90376D01*
X6247Y90299D01*
X6206Y90208D01*
X6179Y90103D01*
X6175Y90044D01*
X6170Y89985D01*
Y89981D01*
X6170Y89971D01*
X6170Y89953D01*
X6175Y89930D01*
X6179Y89903D01*
X6184Y89871D01*
X6197Y89794D01*
X6225Y89712D01*
X6270Y89621D01*
X6293Y89576D01*
X6325Y89530D01*
X6361Y89489D01*
X6402Y89448D01*
X6407D01*
X6411Y89439D01*
X6425Y89430D01*
X6448Y89416D01*
X6471Y89403D01*
X6498Y89385D01*
X6534Y89366D01*
X6571Y89348D01*
X6616Y89325D01*
X6666Y89307D01*
X6716Y89289D01*
X6775Y89275D01*
X6903Y89253D01*
X6976Y89248D01*
X7049Y89244D01*
X7085Y89244D01*
X7108Y89248D01*
X7140Y89248D01*
X7176Y89253D01*
X7262Y89271D01*
X7358Y89294D01*
X7458Y89330D01*
X7558Y89381D01*
X7604Y89408D01*
X7649Y89444D01*
X7654Y89449D01*
X7658Y89453D01*
X7685Y89481D01*
X7722Y89526D01*
X7767Y89585D01*
X7808Y89663D01*
X7845Y89758D01*
X7872Y89863D01*
X7876Y89922D01*
X7881Y89986D01*
Y89990D01*
Y90000D01*
X7881Y90018D01*
X7876Y90040D01*
X7872Y90072D01*
X7867Y90104D01*
X7853Y90181D01*
X7826Y90268D01*
X7785Y90359D01*
X7758Y90404D01*
X7726Y90445D01*
X7689Y90486D01*
X7649Y90527D01*
X7644Y90532D01*
X7639Y90536D01*
X7626Y90545D01*
X7608Y90559D01*
X7585Y90573D01*
X7553Y90591D01*
X7521Y90609D01*
X7485Y90632D01*
X7398Y90668D01*
X7294Y90700D01*
X7171Y90723D01*
X7102Y90732D01*
D02*
G37*
G36*
X-22723Y91433D02*
X-22764Y91433D01*
X-22796Y91429D01*
X-22832Y91424D01*
X-22873Y91420D01*
X-22919Y91410D01*
X-22973Y91397D01*
X-23083Y91360D01*
X-23142Y91338D01*
X-23201Y91310D01*
X-23260Y91278D01*
X-23319Y91237D01*
X-23374Y91192D01*
X-23428Y91142D01*
X-23433Y91137D01*
X-23442Y91128D01*
X-23456Y91114D01*
X-23469Y91092D01*
X-23492Y91060D01*
X-23515Y91028D01*
X-23542Y90987D01*
X-23565Y90937D01*
X-23592Y90887D01*
X-23619Y90828D01*
X-23642Y90764D01*
X-23660Y90696D01*
X-23678Y90623D01*
X-23692Y90546D01*
X-23701Y90459D01*
X-23705Y90373D01*
X-23705Y90368D01*
Y90350D01*
X-23705Y90327D01*
X-23701Y90291D01*
X-23696Y90250D01*
X-23692Y90204D01*
X-23683Y90150D01*
X-23669Y90095D01*
X-23637Y89968D01*
X-23614Y89904D01*
X-23587Y89840D01*
X-23555Y89777D01*
X-23519Y89713D01*
X-23478Y89649D01*
X-23427Y89595D01*
X-23423Y89590D01*
X-23414Y89581D01*
X-23400Y89567D01*
X-23378Y89549D01*
X-23350Y89526D01*
X-23318Y89504D01*
X-23277Y89477D01*
X-23236Y89454D01*
X-23186Y89426D01*
X-23132Y89399D01*
X-23077Y89376D01*
X-23013Y89354D01*
X-22945Y89336D01*
X-22877Y89322D01*
X-22799Y89313D01*
X-22722Y89308D01*
X-22681Y89308D01*
X-22649Y89313D01*
X-22617Y89318D01*
X-22572Y89322D01*
X-22526Y89331D01*
X-22477Y89345D01*
X-22367Y89377D01*
X-22308Y89404D01*
X-22249Y89431D01*
X-22190Y89463D01*
X-22131Y89500D01*
X-22076Y89545D01*
X-22022Y89595D01*
X-22017Y89600D01*
X-22008Y89609D01*
X-21994Y89627D01*
X-21976Y89650D01*
X-21958Y89677D01*
X-21935Y89714D01*
X-21908Y89755D01*
X-21881Y89800D01*
X-21858Y89855D01*
X-21831Y89914D01*
X-21808Y89978D01*
X-21785Y90046D01*
X-21772Y90123D01*
X-21758Y90201D01*
X-21749Y90282D01*
X-21744Y90373D01*
Y90378D01*
X-21744Y90396D01*
X-21744Y90419D01*
X-21749Y90455D01*
X-21754Y90496D01*
X-21758Y90542D01*
X-21767Y90592D01*
X-21781Y90651D01*
X-21813Y90774D01*
X-21836Y90838D01*
X-21863Y90901D01*
X-21895Y90965D01*
X-21931Y91029D01*
X-21972Y91088D01*
X-22022Y91142D01*
X-22027Y91147D01*
X-22036Y91156D01*
X-22050Y91170D01*
X-22072Y91188D01*
X-22100Y91211D01*
X-22131Y91233D01*
X-22173Y91261D01*
X-22213Y91288D01*
X-22264Y91315D01*
X-22313Y91342D01*
X-22373Y91365D01*
X-22436Y91388D01*
X-22500Y91406D01*
X-22573Y91420D01*
X-22646Y91429D01*
X-22723Y91433D01*
D02*
G37*
G36*
X31635Y92526D02*
X30694Y92525D01*
X30694Y90787D01*
X31686Y90788D01*
X31723Y90792D01*
X31763Y90797D01*
X31813Y90801D01*
X31868Y90806D01*
X31927Y90815D01*
X32055Y90842D01*
X32187Y90883D01*
X32250Y90911D01*
X32314Y90943D01*
X32368Y90975D01*
X32423Y91015D01*
X32428Y91020D01*
X32437Y91025D01*
X32450Y91038D01*
X32464Y91057D01*
X32487Y91079D01*
X32509Y91111D01*
X32532Y91143D01*
X32559Y91179D01*
X32587Y91225D01*
X32610Y91270D01*
X32632Y91325D01*
X32655Y91384D01*
X32669Y91443D01*
X32682Y91512D01*
X32691Y91580D01*
X32696Y91657D01*
X32696Y91662D01*
Y91675D01*
X32696Y91698D01*
X32691Y91725D01*
X32687Y91762D01*
X32682Y91803D01*
X32664Y91894D01*
X32627Y91998D01*
X32609Y92053D01*
X32582Y92103D01*
X32550Y92158D01*
X32514Y92208D01*
X32473Y92253D01*
X32423Y92299D01*
X32418Y92303D01*
X32409Y92308D01*
X32395Y92321D01*
X32372Y92335D01*
X32345Y92353D01*
X32309Y92371D01*
X32268Y92390D01*
X32222Y92412D01*
X32172Y92435D01*
X32113Y92453D01*
X32049Y92471D01*
X31977Y92490D01*
X31899Y92503D01*
X31817Y92517D01*
X31731Y92521D01*
X31635Y92526D01*
D02*
G37*
G36*
X24383Y92523D02*
X23441Y92522D01*
X23441Y90784D01*
X24433Y90785D01*
X24470Y90789D01*
X24511Y90794D01*
X24561Y90798D01*
X24615Y90803D01*
X24675Y90812D01*
X24802Y90839D01*
X24934Y90880D01*
X24998Y90908D01*
X25061Y90940D01*
X25116Y90971D01*
X25170Y91012D01*
X25175Y91017D01*
X25184Y91022D01*
X25198Y91035D01*
X25211Y91053D01*
X25234Y91076D01*
X25257Y91108D01*
X25280Y91140D01*
X25307Y91176D01*
X25334Y91222D01*
X25357Y91267D01*
X25380Y91322D01*
X25402Y91381D01*
X25416Y91440D01*
X25429Y91509D01*
X25439Y91577D01*
X25443Y91654D01*
X25443Y91659D01*
Y91672D01*
X25443Y91695D01*
X25439Y91722D01*
X25434Y91759D01*
X25429Y91800D01*
X25411Y91891D01*
X25375Y91995D01*
X25357Y92050D01*
X25329Y92100D01*
X25297Y92155D01*
X25261Y92205D01*
X25220Y92250D01*
X25170Y92295D01*
X25165Y92300D01*
X25156Y92305D01*
X25142Y92318D01*
X25120Y92332D01*
X25093Y92350D01*
X25056Y92368D01*
X25015Y92387D01*
X24970Y92409D01*
X24919Y92432D01*
X24860Y92450D01*
X24797Y92468D01*
X24724Y92487D01*
X24646Y92500D01*
X24565Y92514D01*
X24478Y92518D01*
X24383Y92523D01*
D02*
G37*
G36*
X-26676Y90057D02*
X-27464Y90057D01*
X-27500Y90052D01*
X-27545Y90048D01*
X-27595Y90043D01*
X-27655Y90034D01*
X-27714Y90021D01*
X-27777Y90002D01*
X-27846Y89975D01*
X-27905Y89948D01*
X-27964Y89911D01*
X-28014Y89866D01*
X-28060Y89816D01*
X-28091Y89757D01*
X-28114Y89684D01*
X-28123Y89606D01*
Y89602D01*
X-28123Y89597D01*
X-28119Y89570D01*
X-28114Y89534D01*
X-28100Y89483D01*
X-28082Y89429D01*
X-28050Y89374D01*
X-28009Y89315D01*
X-27955Y89265D01*
X-27946Y89261D01*
X-27923Y89247D01*
X-27886Y89224D01*
X-27832Y89206D01*
X-27768Y89183D01*
X-27691Y89161D01*
X-27600Y89147D01*
X-27495Y89143D01*
X-27445Y89143D01*
X-27422Y89147D01*
X-27395Y89152D01*
X-27322Y89161D01*
X-27245Y89174D01*
X-27163Y89197D01*
X-27077Y89229D01*
X-26990Y89275D01*
X-26985Y89275D01*
X-26981Y89279D01*
X-26954Y89297D01*
X-26913Y89329D01*
X-26867Y89375D01*
X-26817Y89429D01*
X-26763Y89498D01*
X-26717Y89575D01*
X-26676Y89666D01*
X-26676Y90057D01*
D02*
G37*
G36*
X-31956Y92571D02*
X-33180Y92571D01*
X-33179Y91392D01*
X-31991Y91393D01*
X-31964Y91397D01*
X-31928Y91397D01*
X-31887Y91402D01*
X-31791Y91411D01*
X-31687Y91429D01*
X-31577Y91457D01*
X-31477Y91493D01*
X-31427Y91516D01*
X-31386Y91543D01*
X-31382D01*
X-31377Y91552D01*
X-31350Y91571D01*
X-31314Y91607D01*
X-31273Y91657D01*
X-31232Y91716D01*
X-31200Y91794D01*
X-31173Y91880D01*
X-31168Y91930D01*
X-31164Y91985D01*
Y91989D01*
X-31164Y91998D01*
Y92012D01*
X-31168Y92035D01*
X-31177Y92085D01*
X-31191Y92149D01*
X-31218Y92221D01*
X-31259Y92294D01*
X-31282Y92326D01*
X-31314Y92362D01*
X-31346Y92394D01*
X-31387Y92421D01*
X-31391D01*
X-31396Y92426D01*
X-31409Y92435D01*
X-31428Y92444D01*
X-31450Y92458D01*
X-31478Y92467D01*
X-31510Y92480D01*
X-31550Y92499D01*
X-31591Y92512D01*
X-31642Y92526D01*
X-31692Y92535D01*
X-31751Y92549D01*
X-31815Y92558D01*
X-31883Y92567D01*
X-31956Y92571D01*
D02*
G37*
G36*
X-31750Y90551D02*
X-33179Y90551D01*
X-33178Y89322D01*
X-31786Y89323D01*
X-31758Y89327D01*
X-31718Y89327D01*
X-31677Y89332D01*
X-31626Y89336D01*
X-31576Y89341D01*
X-31463Y89359D01*
X-31349Y89387D01*
X-31240Y89419D01*
X-31190Y89441D01*
X-31144Y89469D01*
X-31140D01*
X-31135Y89478D01*
X-31108Y89496D01*
X-31071Y89532D01*
X-31026Y89582D01*
X-30985Y89646D01*
X-30949Y89728D01*
X-30922Y89824D01*
X-30917Y89878D01*
X-30912Y89933D01*
Y89942D01*
X-30913Y89960D01*
X-30917Y89992D01*
X-30926Y90028D01*
X-30940Y90078D01*
X-30963Y90128D01*
X-30990Y90183D01*
X-31026Y90242D01*
X-31076Y90301D01*
X-31136Y90356D01*
X-31213Y90406D01*
X-31299Y90456D01*
X-31404Y90492D01*
X-31463Y90510D01*
X-31527Y90524D01*
X-31595Y90538D01*
X-31668Y90547D01*
X-31750Y90551D01*
D02*
G37*
G36*
X-40023Y92486D02*
X-41078Y92485D01*
X-41077Y89396D01*
X-39990Y89397D01*
X-39948Y89401D01*
X-39898Y89401D01*
X-39835Y89410D01*
X-39762Y89419D01*
X-39680Y89433D01*
X-39594Y89447D01*
X-39498Y89469D01*
X-39403Y89497D01*
X-39303Y89533D01*
X-39202Y89570D01*
X-39107Y89620D01*
X-39007Y89675D01*
X-38916Y89738D01*
X-38829Y89811D01*
X-38825Y89816D01*
X-38811Y89829D01*
X-38789Y89857D01*
X-38761Y89888D01*
X-38725Y89929D01*
X-38688Y89979D01*
X-38647Y90043D01*
X-38607Y90112D01*
X-38566Y90189D01*
X-38525Y90271D01*
X-38488Y90366D01*
X-38452Y90466D01*
X-38425Y90576D01*
X-38402Y90689D01*
X-38388Y90812D01*
X-38384Y90944D01*
X-38384Y90953D01*
X-38384Y90976D01*
X-38388Y91013D01*
X-38389Y91062D01*
X-38398Y91122D01*
X-38407Y91190D01*
X-38421Y91267D01*
X-38439Y91349D01*
X-38462Y91440D01*
X-38493Y91531D01*
X-38530Y91622D01*
X-38571Y91718D01*
X-38625Y91809D01*
X-38685Y91900D01*
X-38753Y91986D01*
X-38830Y92068D01*
X-38835Y92072D01*
X-38849Y92086D01*
X-38876Y92109D01*
X-38912Y92132D01*
X-38958Y92163D01*
X-39012Y92200D01*
X-39076Y92236D01*
X-39144Y92277D01*
X-39226Y92318D01*
X-39317Y92354D01*
X-39417Y92391D01*
X-39522Y92422D01*
X-39636Y92450D01*
X-39759Y92468D01*
X-39886Y92481D01*
X-40023Y92486D01*
D02*
G37*
G36*
X36468Y91531D02*
X36431Y91531D01*
X36404Y91527D01*
X36372Y91527D01*
X36336Y91522D01*
X36245Y91504D01*
X36145Y91481D01*
X36040Y91440D01*
X35931Y91390D01*
X35881Y91354D01*
X35831Y91317D01*
X35826Y91313D01*
X35822Y91308D01*
X35808Y91295D01*
X35790Y91276D01*
X35772Y91258D01*
X35749Y91231D01*
X35695Y91163D01*
X35645Y91081D01*
X35590Y90980D01*
X35549Y90862D01*
X35531Y90798D01*
X35517Y90730D01*
X37405Y90731D01*
Y90736D01*
X37401Y90749D01*
X37401Y90767D01*
X37392Y90790D01*
X37387Y90822D01*
X37374Y90858D01*
X37346Y90940D01*
X37305Y91031D01*
X37251Y91131D01*
X37178Y91227D01*
X37137Y91272D01*
X37091Y91313D01*
X37087Y91318D01*
X37078Y91322D01*
X37064Y91331D01*
X37046Y91350D01*
X37023Y91363D01*
X36991Y91382D01*
X36955Y91404D01*
X36918Y91422D01*
X36827Y91463D01*
X36723Y91500D01*
X36600Y91522D01*
X36536Y91527D01*
X36468Y91531D01*
D02*
G37*
G36*
X54071Y92585D02*
X54053D01*
X54030Y92581D01*
X53999Y92581D01*
X53962Y92572D01*
X53917Y92563D01*
X53867Y92554D01*
X53816Y92535D01*
X53762Y92517D01*
X53703Y92490D01*
X53644Y92458D01*
X53585Y92422D01*
X53525Y92376D01*
X53466Y92321D01*
X53412Y92262D01*
X53362Y92194D01*
X53357Y92189D01*
X53353Y92176D01*
X53339Y92153D01*
X53321Y92121D01*
X53303Y92080D01*
X53280Y92026D01*
X53257Y91966D01*
X53234Y91898D01*
X53207Y91816D01*
X53184Y91725D01*
X53162Y91625D01*
X53144Y91520D01*
X53125Y91398D01*
X53112Y91270D01*
X53107Y91134D01*
X53103Y90983D01*
Y90974D01*
X53103Y90947D01*
X53103Y90906D01*
X53108Y90851D01*
X53112Y90783D01*
X53117Y90701D01*
X53126Y90619D01*
X53135Y90524D01*
X53149Y90428D01*
X53167Y90328D01*
X53190Y90228D01*
X53212Y90124D01*
X53244Y90028D01*
X53276Y89933D01*
X53317Y89846D01*
X53363Y89769D01*
X53367Y89764D01*
X53376Y89750D01*
X53390Y89732D01*
X53413Y89710D01*
X53436Y89678D01*
X53472Y89646D01*
X53508Y89610D01*
X53549Y89573D01*
X53599Y89537D01*
X53654Y89500D01*
X53709Y89469D01*
X53772Y89437D01*
X53841Y89414D01*
X53913Y89396D01*
X53991Y89382D01*
X54073Y89378D01*
X54091Y89378D01*
X54118Y89382D01*
X54150Y89382D01*
X54186Y89391D01*
X54232Y89401D01*
X54282Y89410D01*
X54337Y89428D01*
X54391Y89446D01*
X54450Y89473D01*
X54510Y89505D01*
X54569Y89542D01*
X54628Y89587D01*
X54687Y89642D01*
X54741Y89701D01*
X54791Y89769D01*
X54796Y89774D01*
X54800Y89788D01*
X54814Y89810D01*
X54832Y89842D01*
X54851Y89888D01*
X54873Y89938D01*
X54896Y89997D01*
X54923Y90070D01*
X54946Y90152D01*
X54969Y90238D01*
X54991Y90338D01*
X55010Y90447D01*
X55028Y90570D01*
X55041Y90698D01*
X55046Y90834D01*
X55050Y90984D01*
X55050Y90989D01*
Y90993D01*
X55050Y91021D01*
X55050Y91062D01*
X55046Y91121D01*
X55041Y91185D01*
X55036Y91266D01*
X55027Y91348D01*
X55018Y91444D01*
X55005Y91539D01*
X54986Y91640D01*
X54968Y91740D01*
X54941Y91840D01*
X54909Y91940D01*
X54877Y92031D01*
X54836Y92117D01*
X54790Y92194D01*
X54786Y92199D01*
X54777Y92213D01*
X54763Y92231D01*
X54745Y92254D01*
X54718Y92286D01*
X54686Y92317D01*
X54645Y92354D01*
X54604Y92390D01*
X54554Y92426D01*
X54499Y92463D01*
X54440Y92495D01*
X54376Y92527D01*
X54308Y92549D01*
X54235Y92567D01*
X54153Y92581D01*
X54071Y92585D01*
D02*
G37*
G36*
X-12872Y91510D02*
X-12909Y91510D01*
X-12936Y91506D01*
X-12968Y91506D01*
X-13004Y91501D01*
X-13095Y91483D01*
X-13195Y91460D01*
X-13300Y91419D01*
X-13409Y91369D01*
X-13459Y91333D01*
X-13509Y91296D01*
X-13514Y91292D01*
X-13518Y91287D01*
X-13532Y91273D01*
X-13550Y91255D01*
X-13568Y91237D01*
X-13591Y91210D01*
X-13646Y91141D01*
X-13696Y91059D01*
X-13750Y90959D01*
X-13791Y90841D01*
X-13809Y90777D01*
X-13823Y90709D01*
X-11935Y90710D01*
Y90714D01*
X-11939Y90728D01*
X-11939Y90746D01*
X-11948Y90769D01*
X-11953Y90801D01*
X-11967Y90837D01*
X-11994Y90919D01*
X-12035Y91010D01*
X-12090Y91110D01*
X-12162Y91206D01*
X-12203Y91251D01*
X-12249Y91292D01*
X-12253Y91297D01*
X-12263Y91301D01*
X-12276Y91310D01*
X-12294Y91329D01*
X-12317Y91342D01*
X-12349Y91360D01*
X-12386Y91383D01*
X-12422Y91401D01*
X-12513Y91442D01*
X-12618Y91479D01*
X-12740Y91501D01*
X-12804Y91506D01*
X-12872Y91510D01*
D02*
G37*
G36*
X49235Y92583D02*
X49216Y92583D01*
X49194Y92579D01*
X49162Y92579D01*
X49125Y92570D01*
X49080Y92561D01*
X49030Y92551D01*
X48980Y92533D01*
X48925Y92515D01*
X48866Y92488D01*
X48807Y92456D01*
X48748Y92419D01*
X48689Y92374D01*
X48630Y92319D01*
X48575Y92260D01*
X48525Y92192D01*
X48520Y92187D01*
X48516Y92174D01*
X48502Y92151D01*
X48484Y92119D01*
X48466Y92078D01*
X48443Y92023D01*
X48421Y91964D01*
X48398Y91896D01*
X48371Y91814D01*
X48348Y91723D01*
X48325Y91623D01*
X48307Y91518D01*
X48289Y91395D01*
X48275Y91268D01*
X48271Y91132D01*
X48266Y90981D01*
Y90972D01*
X48266Y90945D01*
X48266Y90904D01*
X48271Y90850D01*
X48275Y90781D01*
X48280Y90699D01*
X48289Y90617D01*
X48298Y90522D01*
X48312Y90426D01*
X48330Y90326D01*
X48353Y90226D01*
X48376Y90122D01*
X48408Y90026D01*
X48440Y89930D01*
X48480Y89844D01*
X48526Y89767D01*
X48531Y89762D01*
X48540Y89749D01*
X48553Y89730D01*
X48576Y89707D01*
X48599Y89676D01*
X48635Y89644D01*
X48672Y89608D01*
X48713Y89571D01*
X48763Y89535D01*
X48817Y89498D01*
X48872Y89467D01*
X48936Y89435D01*
X49004Y89412D01*
X49077Y89394D01*
X49154Y89380D01*
X49236Y89376D01*
X49254Y89376D01*
X49281Y89380D01*
X49313Y89380D01*
X49350Y89389D01*
X49395Y89398D01*
X49445Y89408D01*
X49500Y89426D01*
X49554Y89444D01*
X49614Y89471D01*
X49673Y89503D01*
X49732Y89540D01*
X49791Y89585D01*
X49850Y89640D01*
X49905Y89699D01*
X49955Y89767D01*
X49959Y89772D01*
X49964Y89785D01*
X49977Y89808D01*
X49996Y89840D01*
X50014Y89886D01*
X50037Y89936D01*
X50059Y89995D01*
X50087Y90068D01*
X50109Y90149D01*
X50132Y90236D01*
X50155Y90336D01*
X50173Y90445D01*
X50191Y90568D01*
X50205Y90696D01*
X50209Y90832D01*
X50214Y90982D01*
X50214Y90987D01*
Y90991D01*
X50214Y91019D01*
X50214Y91060D01*
X50209Y91119D01*
X50204Y91182D01*
X50200Y91264D01*
X50191Y91346D01*
X50182Y91442D01*
X50168Y91537D01*
X50150Y91637D01*
X50131Y91738D01*
X50104Y91838D01*
X50072Y91938D01*
X50040Y92029D01*
X49999Y92115D01*
X49954Y92192D01*
X49949Y92197D01*
X49940Y92211D01*
X49926Y92229D01*
X49908Y92252D01*
X49881Y92283D01*
X49849Y92315D01*
X49808Y92352D01*
X49767Y92388D01*
X49717Y92424D01*
X49662Y92461D01*
X49603Y92493D01*
X49540Y92524D01*
X49471Y92547D01*
X49398Y92565D01*
X49317Y92579D01*
X49235Y92583D01*
D02*
G37*
G36*
X-2026Y92561D02*
X-2044Y92561D01*
X-2067Y92557D01*
X-2098Y92557D01*
X-2135Y92548D01*
X-2180Y92539D01*
X-2230Y92529D01*
X-2280Y92511D01*
X-2335Y92493D01*
X-2394Y92466D01*
X-2453Y92434D01*
X-2512Y92397D01*
X-2572Y92352D01*
X-2631Y92297D01*
X-2685Y92238D01*
X-2735Y92170D01*
X-2740Y92165D01*
X-2744Y92152D01*
X-2758Y92129D01*
X-2776Y92097D01*
X-2794Y92056D01*
X-2817Y92001D01*
X-2840Y91942D01*
X-2863Y91874D01*
X-2890Y91792D01*
X-2912Y91701D01*
X-2935Y91601D01*
X-2953Y91496D01*
X-2971Y91373D01*
X-2985Y91246D01*
X-2990Y91110D01*
X-2994Y90959D01*
X-2994Y90950D01*
X-2994Y90923D01*
X-2994Y90882D01*
X-2990Y90827D01*
X-2985Y90759D01*
X-2980Y90677D01*
X-2971Y90595D01*
X-2962Y90500D01*
X-2948Y90404D01*
X-2930Y90304D01*
X-2907Y90204D01*
X-2884Y90100D01*
X-2853Y90004D01*
X-2821Y89908D01*
X-2780Y89822D01*
X-2734Y89745D01*
X-2730Y89740D01*
X-2721Y89727D01*
X-2707Y89708D01*
X-2684Y89685D01*
X-2661Y89654D01*
X-2625Y89622D01*
X-2589Y89586D01*
X-2548Y89549D01*
X-2497Y89513D01*
X-2443Y89476D01*
X-2388Y89445D01*
X-2325Y89413D01*
X-2256Y89390D01*
X-2183Y89372D01*
X-2106Y89358D01*
X-2024Y89354D01*
X-2006Y89354D01*
X-1979Y89358D01*
X-1947Y89358D01*
X-1911Y89367D01*
X-1865Y89376D01*
X-1815Y89386D01*
X-1760Y89404D01*
X-1706Y89422D01*
X-1647Y89449D01*
X-1588Y89481D01*
X-1528Y89518D01*
X-1469Y89563D01*
X-1410Y89618D01*
X-1355Y89677D01*
X-1306Y89745D01*
X-1301Y89750D01*
X-1296Y89763D01*
X-1283Y89786D01*
X-1265Y89818D01*
X-1246Y89864D01*
X-1224Y89914D01*
X-1201Y89973D01*
X-1174Y90046D01*
X-1151Y90127D01*
X-1128Y90214D01*
X-1106Y90314D01*
X-1087Y90423D01*
X-1069Y90546D01*
X-1056Y90674D01*
X-1051Y90810D01*
X-1047Y90960D01*
Y90965D01*
Y90969D01*
X-1047Y90997D01*
X-1047Y91038D01*
X-1051Y91097D01*
X-1056Y91160D01*
X-1060Y91242D01*
X-1070Y91324D01*
X-1079Y91420D01*
X-1092Y91515D01*
X-1111Y91615D01*
X-1129Y91716D01*
X-1156Y91816D01*
X-1188Y91916D01*
X-1220Y92007D01*
X-1261Y92093D01*
X-1307Y92170D01*
X-1311Y92175D01*
X-1320Y92189D01*
X-1334Y92207D01*
X-1352Y92229D01*
X-1379Y92261D01*
X-1411Y92293D01*
X-1452Y92330D01*
X-1493Y92366D01*
X-1543Y92402D01*
X-1598Y92439D01*
X-1657Y92471D01*
X-1721Y92502D01*
X-1789Y92525D01*
X-1862Y92543D01*
X-1944Y92557D01*
X-2026Y92561D01*
D02*
G37*
G36*
X-17777Y91435D02*
X-17818Y91435D01*
X-17850Y91431D01*
X-17886Y91426D01*
X-17932Y91422D01*
X-17982Y91413D01*
X-18032Y91403D01*
X-18150Y91372D01*
X-18210Y91353D01*
X-18269Y91326D01*
X-18332Y91294D01*
X-18391Y91262D01*
X-18451Y91221D01*
X-18505Y91176D01*
X-18510Y91171D01*
X-18519Y91162D01*
X-18532Y91148D01*
X-18551Y91130D01*
X-18569Y91103D01*
X-18596Y91071D01*
X-18619Y91035D01*
X-18646Y90994D01*
X-18673Y90948D01*
X-18696Y90894D01*
X-18723Y90839D01*
X-18742Y90780D01*
X-18760Y90711D01*
X-18773Y90643D01*
X-18782Y90570D01*
X-18787Y90493D01*
Y90488D01*
X-18787Y90475D01*
X-18787Y90452D01*
X-18782Y90425D01*
X-18778Y90388D01*
X-18773Y90347D01*
X-18764Y90302D01*
X-18750Y90252D01*
X-18719Y90143D01*
X-18696Y90088D01*
X-18668Y90029D01*
X-18637Y89974D01*
X-18596Y89920D01*
X-18555Y89865D01*
X-18505Y89815D01*
X-18500Y89811D01*
X-18491Y89806D01*
X-18477Y89793D01*
X-18454Y89774D01*
X-18423Y89756D01*
X-18391Y89733D01*
X-18350Y89711D01*
X-18304Y89688D01*
X-18254Y89661D01*
X-18200Y89638D01*
X-18140Y89615D01*
X-18077Y89597D01*
X-18009Y89579D01*
X-17936Y89565D01*
X-17858Y89561D01*
X-17776Y89556D01*
X-17736Y89556D01*
X-17704Y89561D01*
X-17663Y89565D01*
X-17622Y89570D01*
X-17572Y89579D01*
X-17517Y89588D01*
X-17403Y89620D01*
X-17344Y89643D01*
X-17285Y89666D01*
X-17221Y89697D01*
X-17162Y89729D01*
X-17108Y89770D01*
X-17053Y89816D01*
X-17049Y89820D01*
X-17039Y89829D01*
X-17026Y89843D01*
X-17008Y89861D01*
X-16989Y89889D01*
X-16962Y89921D01*
X-16939Y89957D01*
X-16912Y89998D01*
X-16885Y90043D01*
X-16862Y90093D01*
X-16835Y90153D01*
X-16817Y90212D01*
X-16799Y90276D01*
X-16785Y90344D01*
X-16776Y90417D01*
X-16771Y90494D01*
Y90499D01*
X-16771Y90512D01*
X-16771Y90535D01*
X-16776Y90562D01*
X-16780Y90599D01*
X-16785Y90640D01*
X-16794Y90690D01*
X-16808Y90740D01*
X-16840Y90849D01*
X-16862Y90903D01*
X-16890Y90962D01*
X-16922Y91017D01*
X-16963Y91072D01*
X-17004Y91126D01*
X-17054Y91176D01*
X-17058Y91181D01*
X-17067Y91185D01*
X-17081Y91199D01*
X-17104Y91217D01*
X-17131Y91235D01*
X-17163Y91258D01*
X-17204Y91281D01*
X-17249Y91308D01*
X-17299Y91331D01*
X-17354Y91354D01*
X-17413Y91376D01*
X-17477Y91395D01*
X-17545Y91413D01*
X-17618Y91426D01*
X-17695Y91431D01*
X-17777Y91435D01*
D02*
G37*
G36*
X4194Y82304D02*
X3138D01*
Y79214D01*
X4225D01*
X4266Y79219D01*
X4316D01*
X4380Y79228D01*
X4453Y79237D01*
X4535Y79251D01*
X4621Y79264D01*
X4717Y79287D01*
X4812Y79315D01*
X4913Y79351D01*
X5013Y79387D01*
X5108Y79437D01*
X5208Y79492D01*
X5299Y79556D01*
X5386Y79628D01*
X5390Y79633D01*
X5404Y79647D01*
X5427Y79674D01*
X5454Y79706D01*
X5490Y79747D01*
X5527Y79797D01*
X5568Y79861D01*
X5609Y79929D01*
X5650Y80006D01*
X5691Y80088D01*
X5727Y80184D01*
X5763Y80284D01*
X5791Y80393D01*
X5813Y80507D01*
X5827Y80629D01*
X5832Y80761D01*
Y80770D01*
Y80793D01*
X5827Y80830D01*
Y80880D01*
X5818Y80939D01*
X5809Y81007D01*
X5795Y81084D01*
X5777Y81166D01*
X5754Y81257D01*
X5722Y81348D01*
X5686Y81439D01*
X5645Y81535D01*
X5590Y81626D01*
X5531Y81717D01*
X5463Y81803D01*
X5386Y81885D01*
X5381Y81890D01*
X5367Y81903D01*
X5340Y81926D01*
X5304Y81949D01*
X5258Y81981D01*
X5204Y82017D01*
X5140Y82054D01*
X5072Y82095D01*
X4990Y82135D01*
X4899Y82172D01*
X4799Y82208D01*
X4694Y82240D01*
X4580Y82267D01*
X4457Y82286D01*
X4330Y82299D01*
X4194Y82304D01*
D02*
G37*
G36*
X17219Y82827D02*
X17159D01*
X17119Y82823D01*
X17068Y82818D01*
X17005Y82813D01*
X16937Y82804D01*
X16864Y82795D01*
X16782Y82782D01*
X16695Y82763D01*
X16609Y82741D01*
X16518Y82713D01*
X16422Y82682D01*
X16331Y82650D01*
X16236Y82604D01*
X16145Y82559D01*
X16140Y82554D01*
X16122Y82545D01*
X16099Y82531D01*
X16067Y82509D01*
X16026Y82481D01*
X15981Y82449D01*
X15926Y82408D01*
X15872Y82367D01*
X15813Y82318D01*
X15749Y82258D01*
X15690Y82199D01*
X15626Y82131D01*
X15562Y82063D01*
X15503Y81985D01*
X15444Y81903D01*
X15390Y81817D01*
X15385Y81812D01*
X15376Y81794D01*
X15362Y81771D01*
X15349Y81735D01*
X15326Y81690D01*
X15303Y81635D01*
X15280Y81576D01*
X15253Y81508D01*
X15226Y81435D01*
X15203Y81353D01*
X15180Y81266D01*
X15157Y81171D01*
X15144Y81075D01*
X15130Y80975D01*
X15121Y80871D01*
X15116Y80761D01*
Y80757D01*
Y80734D01*
Y80702D01*
X15121Y80661D01*
X15126Y80611D01*
X15130Y80552D01*
X15139Y80484D01*
X15153Y80411D01*
X15167Y80329D01*
X15185Y80243D01*
X15207Y80156D01*
X15230Y80065D01*
X15262Y79974D01*
X15299Y79883D01*
X15339Y79792D01*
X15390Y79701D01*
X15394Y79697D01*
X15403Y79678D01*
X15417Y79656D01*
X15439Y79624D01*
X15467Y79583D01*
X15503Y79537D01*
X15544Y79487D01*
X15590Y79433D01*
X15640Y79374D01*
X15694Y79315D01*
X15758Y79251D01*
X15826Y79187D01*
X15899Y79128D01*
X15976Y79069D01*
X16058Y79014D01*
X16145Y78960D01*
X16149Y78955D01*
X16168Y78946D01*
X16195Y78937D01*
X16231Y78919D01*
X16277Y78896D01*
X16327Y78873D01*
X16390Y78850D01*
X16459Y78828D01*
X16536Y78800D01*
X16618Y78778D01*
X16709Y78755D01*
X16800Y78732D01*
X16900Y78714D01*
X17005Y78705D01*
X17109Y78696D01*
X17219Y78691D01*
X17278D01*
X17319Y78696D01*
X17369Y78700D01*
X17432Y78705D01*
X17501Y78714D01*
X17573Y78723D01*
X17655Y78741D01*
X17742Y78755D01*
X17828Y78778D01*
X17919Y78805D01*
X18010Y78837D01*
X18106Y78873D01*
X18197Y78914D01*
X18288Y78960D01*
X18292Y78964D01*
X18311Y78973D01*
X18333Y78987D01*
X18365Y79010D01*
X18406Y79037D01*
X18452Y79069D01*
X18506Y79110D01*
X18561Y79155D01*
X18620Y79205D01*
X18679Y79260D01*
X18743Y79319D01*
X18807Y79387D01*
X18866Y79456D01*
X18925Y79533D01*
X18979Y79615D01*
X19034Y79701D01*
X19039Y79706D01*
X19048Y79724D01*
X19061Y79747D01*
X19075Y79783D01*
X19098Y79829D01*
X19120Y79883D01*
X19143Y79942D01*
X19171Y80011D01*
X19198Y80088D01*
X19221Y80170D01*
X19243Y80256D01*
X19266Y80347D01*
X19280Y80447D01*
X19293Y80547D01*
X19302Y80652D01*
X19307Y80761D01*
Y80766D01*
Y80789D01*
Y80821D01*
X19302Y80862D01*
X19298Y80911D01*
X19293Y80971D01*
X19284Y81039D01*
X19275Y81112D01*
X19257Y81189D01*
X19239Y81275D01*
X19221Y81362D01*
X19193Y81453D01*
X19161Y81544D01*
X19125Y81635D01*
X19084Y81726D01*
X19034Y81817D01*
X19029Y81822D01*
X19020Y81840D01*
X19007Y81862D01*
X18984Y81894D01*
X18957Y81935D01*
X18925Y81981D01*
X18884Y82031D01*
X18838Y82085D01*
X18788Y82145D01*
X18734Y82208D01*
X18675Y82267D01*
X18606Y82331D01*
X18533Y82390D01*
X18456Y82449D01*
X18374Y82504D01*
X18288Y82559D01*
X18283Y82563D01*
X18265Y82572D01*
X18238Y82581D01*
X18206Y82600D01*
X18160Y82622D01*
X18106Y82645D01*
X18042Y82668D01*
X17974Y82695D01*
X17901Y82718D01*
X17819Y82741D01*
X17728Y82763D01*
X17637Y82786D01*
X17537Y82804D01*
X17432Y82813D01*
X17328Y82823D01*
X17219Y82827D01*
D02*
G37*
G36*
X-19066Y82490D02*
X-19098D01*
X-19125Y82486D01*
X-19152D01*
X-19189Y82481D01*
X-19266Y82468D01*
X-19357Y82449D01*
X-19448Y82418D01*
X-19539Y82377D01*
X-19626Y82322D01*
X-19635Y82313D01*
X-19658Y82290D01*
X-19694Y82254D01*
X-19730Y82204D01*
X-19767Y82140D01*
X-19803Y82058D01*
X-19826Y81967D01*
X-19830Y81917D01*
X-19835Y81862D01*
Y81858D01*
Y81849D01*
Y81835D01*
X-19830Y81817D01*
X-19826Y81767D01*
X-19808Y81703D01*
X-19785Y81630D01*
X-19748Y81558D01*
X-19698Y81485D01*
X-19667Y81448D01*
X-19630Y81417D01*
X-19626D01*
X-19621Y81407D01*
X-19608Y81403D01*
X-19594Y81389D01*
X-19548Y81366D01*
X-19485Y81335D01*
X-19403Y81303D01*
X-19307Y81280D01*
X-19193Y81262D01*
X-19066Y81253D01*
X-19030D01*
X-19007Y81257D01*
X-18975D01*
X-18943Y81262D01*
X-18861Y81275D01*
X-18770Y81294D01*
X-18675Y81321D01*
X-18584Y81362D01*
X-18497Y81417D01*
X-18493D01*
X-18488Y81426D01*
X-18465Y81448D01*
X-18429Y81485D01*
X-18388Y81535D01*
X-18352Y81599D01*
X-18315Y81676D01*
X-18293Y81762D01*
X-18283Y81812D01*
Y81862D01*
Y81867D01*
Y81876D01*
Y81890D01*
X-18288Y81912D01*
X-18293Y81963D01*
X-18311Y82031D01*
X-18333Y82104D01*
X-18374Y82181D01*
X-18424Y82254D01*
X-18461Y82290D01*
X-18497Y82322D01*
X-18502D01*
X-18506Y82331D01*
X-18520Y82336D01*
X-18538Y82349D01*
X-18556Y82363D01*
X-18584Y82377D01*
X-18647Y82408D01*
X-18729Y82436D01*
X-18829Y82463D01*
X-18939Y82481D01*
X-19066Y82490D01*
D02*
G37*
G36*
X-18989Y80461D02*
X-19107D01*
X-19139Y80457D01*
X-19171D01*
X-19216Y80452D01*
X-19262Y80443D01*
X-19312Y80438D01*
X-19421Y80416D01*
X-19530Y80379D01*
X-19644Y80329D01*
X-19694Y80302D01*
X-19744Y80265D01*
X-19748D01*
X-19753Y80256D01*
X-19785Y80229D01*
X-19821Y80188D01*
X-19867Y80129D01*
X-19917Y80056D01*
X-19953Y79965D01*
X-19985Y79865D01*
X-19990Y79806D01*
X-19994Y79747D01*
Y79742D01*
Y79733D01*
Y79715D01*
X-19990Y79692D01*
X-19985Y79665D01*
X-19981Y79633D01*
X-19962Y79556D01*
X-19935Y79474D01*
X-19890Y79383D01*
X-19858Y79342D01*
X-19826Y79296D01*
X-19789Y79255D01*
X-19744Y79219D01*
X-19739D01*
X-19730Y79210D01*
X-19717Y79201D01*
X-19698Y79187D01*
X-19671Y79173D01*
X-19644Y79160D01*
X-19608Y79142D01*
X-19567Y79123D01*
X-19521Y79105D01*
X-19466Y79087D01*
X-19412Y79073D01*
X-19353Y79060D01*
X-19289Y79046D01*
X-19216Y79037D01*
X-19066Y79028D01*
X-19025D01*
X-18993Y79032D01*
X-18957D01*
X-18916Y79037D01*
X-18870Y79046D01*
X-18820Y79051D01*
X-18711Y79078D01*
X-18597Y79110D01*
X-18484Y79160D01*
X-18433Y79187D01*
X-18383Y79224D01*
X-18379Y79228D01*
X-18374Y79233D01*
X-18342Y79260D01*
X-18302Y79301D01*
X-18256Y79365D01*
X-18211Y79437D01*
X-18170Y79528D01*
X-18138Y79628D01*
X-18133Y79688D01*
X-18129Y79747D01*
Y79751D01*
Y79760D01*
Y79779D01*
X-18133Y79801D01*
X-18138Y79829D01*
X-18142Y79861D01*
X-18161Y79933D01*
X-18192Y80020D01*
X-18238Y80106D01*
X-18265Y80147D01*
X-18297Y80188D01*
X-18338Y80229D01*
X-18383Y80265D01*
X-18388Y80270D01*
X-18397Y80274D01*
X-18411Y80284D01*
X-18429Y80297D01*
X-18456Y80311D01*
X-18484Y80329D01*
X-18520Y80347D01*
X-18561Y80366D01*
X-18611Y80384D01*
X-18661Y80397D01*
X-18716Y80416D01*
X-18775Y80429D01*
X-18843Y80443D01*
X-18911Y80452D01*
X-18989Y80461D01*
D02*
G37*
G36*
X-79218Y31970D02*
X-80581Y31754D01*
X-80476Y31089D01*
X-81159Y30981D01*
X-81050Y30298D01*
X-81730Y30190D01*
X-81838Y30873D01*
X-82503Y30768D01*
X-82609Y31433D01*
X-83971Y31217D01*
X-83866Y30552D01*
X-83758Y29869D01*
X-83650Y29190D01*
X-83543Y28510D01*
X-83434Y27827D01*
X-83327Y27148D01*
X-83220Y26472D01*
X-81857Y26687D01*
X-81964Y27363D01*
X-82072Y28043D01*
X-82180Y28726D01*
X-82288Y29406D01*
X-81622Y29511D01*
X-81515Y28831D01*
X-80835Y28939D01*
X-80943Y29618D01*
X-80260Y29727D01*
X-80152Y29047D01*
X-80044Y28364D01*
X-79936Y27685D01*
X-79829Y27009D01*
X-78467Y27224D01*
X-78574Y27900D01*
X-78681Y28580D01*
X-78790Y29263D01*
X-78897Y29942D01*
X-79005Y30622D01*
X-79113Y31305D01*
X-79218Y31970D01*
D02*
G37*
G36*
X-88037Y30573D02*
X-89400Y30358D01*
X-89295Y29692D01*
X-89186Y29009D01*
X-89079Y28330D01*
X-88971Y27650D01*
X-89654Y27542D01*
X-89762Y28222D01*
X-90441Y28114D01*
X-90334Y27435D01*
X-90999Y27329D01*
X-91106Y28009D01*
X-91214Y28688D01*
X-91322Y29371D01*
X-91428Y30036D01*
X-92790Y29821D01*
X-92685Y29155D01*
X-92577Y28472D01*
X-92469Y27793D01*
X-92361Y27113D01*
X-92253Y26430D01*
X-92146Y25751D01*
X-92039Y25075D01*
X-90676Y25291D01*
X-90783Y25967D01*
X-90118Y26072D01*
X-90226Y26751D01*
X-89546Y26859D01*
X-89438Y26180D01*
X-88755Y26288D01*
X-88648Y25612D01*
X-87286Y25828D01*
X-87393Y26504D01*
X-87500Y27183D01*
X-87609Y27866D01*
X-87716Y28546D01*
X-87824Y29225D01*
X-87932Y29908D01*
X-88037Y30573D01*
D02*
G37*
G36*
X-85316Y31004D02*
X-86678Y30789D01*
X-86573Y30123D01*
X-86465Y29440D01*
X-86357Y28761D01*
X-86250Y28081D01*
X-86141Y27398D01*
X-86034Y26719D01*
X-85927Y26043D01*
X-84564Y26259D01*
X-84671Y26935D01*
X-84779Y27614D01*
X-84887Y28297D01*
X-84995Y28977D01*
X-85102Y29656D01*
X-85211Y30339D01*
X-85316Y31004D01*
D02*
G37*
G36*
X552946Y-125099D02*
X544929D01*
Y-125385D01*
Y-125672D01*
Y-125958D01*
Y-126244D01*
Y-126531D01*
X544643D01*
Y-126817D01*
Y-127103D01*
Y-127390D01*
Y-127676D01*
Y-127962D01*
Y-128249D01*
X544357D01*
Y-128535D01*
Y-128821D01*
Y-129108D01*
Y-129394D01*
Y-129680D01*
Y-129966D01*
X544070D01*
Y-130253D01*
Y-130539D01*
Y-130825D01*
Y-131112D01*
Y-131398D01*
Y-131684D01*
X543784D01*
Y-131971D01*
Y-132257D01*
Y-132543D01*
Y-132830D01*
Y-133116D01*
Y-133402D01*
Y-133689D01*
X543498D01*
Y-133975D01*
Y-134261D01*
Y-134547D01*
Y-134834D01*
Y-135120D01*
Y-135406D01*
X543211D01*
Y-135693D01*
Y-135979D01*
Y-136265D01*
X550369D01*
Y-135979D01*
X551514D01*
Y-135693D01*
X552087D01*
Y-135406D01*
X552373D01*
Y-135120D01*
X552660D01*
Y-134834D01*
X552946D01*
Y-134547D01*
X553232D01*
Y-134261D01*
Y-133975D01*
X553519D01*
Y-133689D01*
Y-133402D01*
X553805D01*
Y-133116D01*
Y-132830D01*
X554091D01*
Y-132543D01*
Y-132257D01*
Y-131971D01*
Y-131684D01*
X554378D01*
Y-131398D01*
Y-131112D01*
Y-130825D01*
Y-130539D01*
Y-130253D01*
X554664D01*
Y-129966D01*
Y-129680D01*
Y-129394D01*
Y-129108D01*
Y-128821D01*
Y-128535D01*
Y-128249D01*
Y-127962D01*
Y-127676D01*
Y-127390D01*
Y-127103D01*
X554378D01*
Y-126817D01*
Y-126531D01*
X554091D01*
Y-126244D01*
Y-125958D01*
X553805D01*
Y-125672D01*
X553519D01*
Y-125385D01*
X552946D01*
Y-125099D01*
D02*
G37*
%LPD*%
D10*
X10236Y47638D02*
G03*
X10236Y47638I-394J0D01*
G01*
X36696Y63642D02*
X42020Y52224D01*
X34170Y48563D02*
X42020Y52224D01*
X28846Y59981D02*
X34170Y48563D01*
X28846Y59981D02*
X36696Y63642D01*
X-30000Y11654D02*
X30000Y11654D01*
X-30000Y31653D02*
X30000D01*
X-30000Y11654D02*
Y31653D01*
X30000Y11654D02*
Y31653D01*
X863787Y-202012D02*
Y-162642D01*
X706307Y-123272D02*
X981897D01*
X706307Y-162642D02*
X981897D01*
X509456Y-202012D02*
X981897D01*
X509456Y-83902D02*
X981897D01*
X509456Y-241382D02*
Y-83902D01*
X706307Y-241382D02*
Y-83902D01*
X-671646Y927909D02*
X981897D01*
Y-241382D02*
Y927909D01*
X-671646Y-241382D02*
Y927909D01*
Y-241382D02*
X981897D01*
X720085Y-227604D02*
X716149D01*
Y-230556D01*
X718117D01*
X716149D01*
Y-233508D01*
X722053Y-229572D02*
Y-233508D01*
Y-231540D01*
X723037Y-230556D01*
X724021Y-229572D01*
X725005D01*
X727956Y-233508D02*
X729924D01*
X728940D01*
Y-229572D01*
X727956D01*
X732876Y-228588D02*
X733860Y-227604D01*
X735828D01*
X736812Y-228588D01*
Y-229572D01*
X735828Y-230556D01*
X734844D01*
X735828D01*
X736812Y-231540D01*
Y-232524D01*
X735828Y-233508D01*
X733860D01*
X732876Y-232524D01*
X742716Y-227604D02*
Y-233508D01*
X739764D01*
X738780Y-232524D01*
Y-230556D01*
X739764Y-229572D01*
X742716D01*
X744683Y-234492D02*
X748619D01*
X754523Y-233508D02*
X750587D01*
X754523Y-229572D01*
Y-228588D01*
X753539Y-227604D01*
X751571D01*
X750587Y-228588D01*
X756491D02*
X757475Y-227604D01*
X759442D01*
X760426Y-228588D01*
Y-232524D01*
X759442Y-233508D01*
X757475D01*
X756491Y-232524D01*
Y-228588D01*
X766330Y-233508D02*
X762394D01*
X766330Y-229572D01*
Y-228588D01*
X765346Y-227604D01*
X763378D01*
X762394Y-228588D01*
X772233Y-227604D02*
X770266Y-228588D01*
X768298Y-230556D01*
Y-232524D01*
X769282Y-233508D01*
X771250D01*
X772233Y-232524D01*
Y-231540D01*
X771250Y-230556D01*
X768298D01*
X774201Y-234492D02*
X778137D01*
X784041Y-228588D02*
X783057Y-227604D01*
X781089D01*
X780105Y-228588D01*
Y-232524D01*
X781089Y-233508D01*
X783057D01*
X784041Y-232524D01*
X786009Y-227604D02*
Y-231540D01*
X787976Y-233508D01*
X789944Y-231540D01*
Y-227604D01*
X791912Y-233508D02*
Y-227604D01*
X794864D01*
X795848Y-228588D01*
Y-230556D01*
X794864Y-231540D01*
X791912D01*
X793880D02*
X795848Y-233508D01*
X797816Y-234492D02*
X801752D01*
X803719Y-228588D02*
X804703Y-227604D01*
X806671D01*
X807655Y-228588D01*
Y-232524D01*
X806671Y-233508D01*
X804703D01*
X803719Y-232524D01*
Y-228588D01*
X809623D02*
X810607Y-227604D01*
X812575D01*
X813559Y-228588D01*
Y-232524D01*
X812575Y-233508D01*
X810607D01*
X809623Y-232524D01*
Y-228588D01*
X815527Y-233508D02*
Y-232524D01*
X816510D01*
Y-233508D01*
X815527D01*
X820446D02*
Y-227604D01*
X823398D01*
X824382Y-228588D01*
Y-230556D01*
X823398Y-231540D01*
X820446D01*
X830286Y-229572D02*
X827334D01*
X826350Y-230556D01*
Y-232524D01*
X827334Y-233508D01*
X830286D01*
X832253Y-227604D02*
Y-233508D01*
X835205D01*
X836189Y-232524D01*
Y-231540D01*
Y-230556D01*
X835205Y-229572D01*
X832253D01*
X838157Y-227604D02*
Y-233508D01*
X841109D01*
X842093Y-232524D01*
Y-228588D01*
X841109Y-227604D01*
X838157D01*
X845045Y-233508D02*
X847012D01*
X847996Y-232524D01*
Y-230556D01*
X847012Y-229572D01*
X845045D01*
X844061Y-230556D01*
Y-232524D01*
X845045Y-233508D01*
X853900Y-229572D02*
X850948D01*
X849964Y-230556D01*
Y-232524D01*
X850948Y-233508D01*
X853900D01*
D11*
X15354Y44488D02*
X16142Y44488D01*
X15354Y42126D02*
X16142Y42126D01*
X-85501Y82379D02*
X-84944Y81822D01*
X-88284Y79595D02*
X-87728Y79038D01*
X15354Y50664D02*
X16142Y50664D01*
X15354Y54601D02*
X16142Y54601D01*
X-43293Y34080D02*
X-41772Y36411D01*
X-56852Y40403D02*
X-56044Y43067D01*
X-56852Y40403D02*
X-43293Y34080D01*
X-56044Y43067D02*
X-41772Y36411D01*
X-41178Y40479D02*
X-40821Y40312D01*
X-41772Y36411D02*
X-40821Y40312D01*
X-56044Y43067D02*
X-53667Y46302D01*
X-53310Y46136D01*
X-46464Y161066D02*
X-45751Y161399D01*
X-44800Y157498D02*
X-44087Y157831D01*
X41814Y163368D02*
X42527Y163035D01*
X40150Y159800D02*
X40863Y159467D01*
X89696Y81007D02*
X90253Y81564D01*
X86912Y83791D02*
X87469Y84347D01*
X-93931Y64781D02*
X-91704Y66452D01*
X-104510Y75360D02*
X-102840Y77587D01*
X-104510Y75360D02*
X-93931Y64781D01*
X-102840Y77587D02*
X-91704Y66452D01*
X-89756Y70071D02*
X-89477Y69792D01*
X-91704Y66452D02*
X-89477Y69792D01*
X-102840Y77587D02*
X-99499Y79814D01*
X-99221Y79536D01*
X-116929Y98819D02*
X-114173Y98425D01*
X-116929Y113779D02*
X-114173Y114173D01*
X-116929Y98819D02*
Y113779D01*
X-114173Y98425D02*
Y114173D01*
X-110236Y99213D02*
Y99606D01*
X-114173Y98425D02*
X-110236Y99213D01*
X-114173Y114173D02*
X-110236Y113386D01*
Y112992D02*
Y113386D01*
X-104510Y137239D02*
X-102840Y135011D01*
X-93931Y147817D02*
X-91704Y146147D01*
X-104510Y137239D02*
X-93931Y147817D01*
X-102840Y135011D02*
X-91704Y146147D01*
X-99499Y132784D02*
X-99221Y133063D01*
X-102840Y135011D02*
X-99499Y132784D01*
X-91704Y146147D02*
X-89477Y142806D01*
X-89756Y142528D02*
X-89477Y142806D01*
X-56852Y172196D02*
X-56044Y169532D01*
X-43293Y178518D02*
X-41772Y176187D01*
X-56852Y172196D02*
X-43293Y178518D01*
X-56044Y169532D02*
X-41772Y176187D01*
X-53667Y166296D02*
X-53310Y166463D01*
X-56044Y169532D02*
X-53667Y166296D01*
X-41772Y176187D02*
X-40821Y172286D01*
X-41178Y172120D02*
X-40821Y172286D01*
X-7874Y181102D02*
X-7480Y183858D01*
X7480D02*
X7874Y181102D01*
X-7480Y183858D02*
X7480D01*
X-7874Y181102D02*
X7874D01*
X-7087Y177165D02*
X-6693D01*
X-7874Y181102D02*
X-7087Y177165D01*
X7087D02*
X7874Y181102D01*
X6693Y177165D02*
X7087D01*
X41772Y176187D02*
X43293Y178518D01*
X56044Y169532D02*
X56852Y172196D01*
X43293Y178518D02*
X56852Y172196D01*
X41772Y176187D02*
X56044Y169532D01*
X40821Y172286D02*
X41178Y172120D01*
X40821Y172286D02*
X41772Y176187D01*
X53667Y166296D02*
X56044Y169532D01*
X53310Y166463D02*
X53667Y166296D01*
X91704Y146147D02*
X93931Y147817D01*
X102840Y135011D02*
X104510Y137239D01*
X93931Y147817D02*
X104510Y137239D01*
X91704Y146147D02*
X102840Y135011D01*
X89477Y142806D02*
X89756Y142528D01*
X89477Y142806D02*
X91704Y146147D01*
X99499Y132784D02*
X102840Y135011D01*
X99221Y133063D02*
X99499Y132784D01*
X114173Y114173D02*
X116929Y113779D01*
X114173Y98425D02*
X116929Y98819D01*
Y113779D01*
X114173Y98425D02*
Y114173D01*
X110236Y112992D02*
Y113386D01*
X114173Y114173D01*
X110236Y99213D02*
X114173Y98425D01*
X110236Y99213D02*
Y99606D01*
X102840Y77587D02*
X104510Y75360D01*
X91704Y66452D02*
X93931Y64781D01*
X104510Y75360D01*
X91704Y66452D02*
X102840Y77587D01*
X99221Y79536D02*
X99499Y79814D01*
X102840Y77587D01*
X89477Y69792D02*
X91704Y66452D01*
X89477Y69792D02*
X89756Y70071D01*
X56044Y43067D02*
X56852Y40403D01*
X41772Y36411D02*
X43293Y34080D01*
X56852Y40403D01*
X41772Y36411D02*
X56044Y43067D01*
X53310Y46136D02*
X53667Y46302D01*
X56044Y43067D01*
X40821Y40312D02*
X41772Y36411D01*
X40821Y40312D02*
X41178Y40479D01*
D12*
X18504Y47244D02*
Y47638D01*
X12992Y47638D02*
X18504Y47638D01*
X12992Y47244D02*
X12992Y47638D01*
X18504Y42126D02*
Y44488D01*
X12992Y38976D02*
Y39370D01*
Y38976D02*
X18504Y38976D01*
X18504Y39370D01*
X94488Y191339D02*
G03*
X103937Y200787I0J9449D01*
G01*
X85039D02*
G03*
X94488Y191339I9449J0D01*
G01*
X116535Y203150D02*
G03*
X103937Y203150I-6299J0D01*
G01*
X62992Y191339D02*
G03*
X72441Y200787I0J9449D01*
G01*
X53543D02*
G03*
X62992Y191339I9449J0D01*
G01*
X85039Y203150D02*
G03*
X72441Y203150I-6299J0D01*
G01*
X53543D02*
G03*
X47244Y209449I-6299J0D01*
G01*
X157480Y191339D02*
G03*
X166929Y200787I0J9449D01*
G01*
X179527Y203150D02*
G03*
X166929Y203150I-6299J0D01*
G01*
X148031D02*
G03*
X135433Y203150I-6299J0D01*
G01*
X148031Y200787D02*
G03*
X157480Y191339I9449J0D01*
G01*
X116535Y200787D02*
G03*
X125984Y191339I9449J0D01*
G01*
D02*
G03*
X135433Y200787I0J9449D01*
G01*
X135433Y11811D02*
G03*
X125984Y21260I-9449J0D01*
G01*
D02*
G03*
X116535Y11811I0J-9449D01*
G01*
X157480Y21260D02*
G03*
X148031Y11811I0J-9449D01*
G01*
X135433Y9449D02*
G03*
X148031Y9449I6299J0D01*
G01*
X166929D02*
G03*
X179528Y9449I6299J0D01*
G01*
X166929Y11811D02*
G03*
X157480Y21260I-9449J0D01*
G01*
X-157480D02*
G03*
X-166929Y11811I0J-9449D01*
G01*
X-179527Y9449D02*
G03*
X-166929Y9449I6299J0D01*
G01*
X-148031D02*
G03*
X-135433Y9449I6299J0D01*
G01*
X-148031Y11811D02*
G03*
X-157480Y21260I-9449J0D01*
G01*
X-116535Y11811D02*
G03*
X-125984Y21260I-9449J0D01*
G01*
D02*
G03*
X-135433Y11811I0J-9449D01*
G01*
X-94488Y21260D02*
G03*
X-103937Y11811I0J-9449D01*
G01*
X-85039D02*
G03*
X-94488Y21260I-9449J0D01*
G01*
X-116535Y9449D02*
G03*
X-103937Y9449I6299J0D01*
G01*
X-62992Y21260D02*
G03*
X-72441Y11811I0J-9449D01*
G01*
X-53543D02*
G03*
X-62992Y21260I-9449J0D01*
G01*
X-85039Y9449D02*
G03*
X-72441Y9449I6299J0D01*
G01*
X-53543D02*
G03*
X-47244Y3150I6299J0D01*
G01*
X47244D02*
G03*
X53543Y9449I0J6299D01*
G01*
X72441D02*
G03*
X85040Y9449I6299J0D01*
G01*
X62992Y21260D02*
G03*
X53543Y11811I0J-9449D01*
G01*
X72441D02*
G03*
X62992Y21260I-9449J0D01*
G01*
X103937Y9449D02*
G03*
X116535Y9449I6299J0D01*
G01*
X94488Y21260D02*
G03*
X85040Y11811I0J-9449D01*
G01*
X103937D02*
G03*
X94488Y21260I-9449J0D01*
G01*
X-157480Y191339D02*
G03*
X-148031Y200787I0J9449D01*
G01*
X-141732Y209449D02*
G03*
X-148031Y203150I0J-6299D01*
G01*
X-166929D02*
G03*
X-179528Y203150I-6299J0D01*
G01*
X-166929Y200787D02*
G03*
X-157480Y191339I9449J0D01*
G01*
X85039Y200787D02*
Y203150D01*
X103937Y200787D02*
Y203150D01*
X53543Y200787D02*
Y203150D01*
X72441Y200787D02*
Y203150D01*
X166929Y200787D02*
Y203150D01*
X148031Y200787D02*
Y203150D01*
X135433Y200787D02*
Y203150D01*
X116535Y200787D02*
Y203150D01*
X116535Y9449D02*
Y11811D01*
X135433Y9449D02*
Y11811D01*
X148031Y9449D02*
Y11811D01*
X166929Y9449D02*
Y11811D01*
X-166929Y9449D02*
Y11811D01*
X-148031Y9449D02*
Y11811D01*
X-135433Y9449D02*
Y11811D01*
X-116535Y9449D02*
Y11811D01*
X-47244Y3150D02*
X47244Y3150D01*
X-85039Y9449D02*
Y11811D01*
X-103937Y9449D02*
Y11811D01*
X-53543Y9449D02*
Y11811D01*
X-72441Y9449D02*
Y11811D01*
X72441Y9449D02*
Y11811D01*
X53543Y9449D02*
Y11811D01*
X103937Y9449D02*
Y11811D01*
X85040Y9449D02*
Y11811D01*
X-148031Y200787D02*
Y203150D01*
X-166929Y200787D02*
Y203150D01*
X-141732Y209449D02*
X47244D01*
X179527Y9449D02*
X179527Y203150D01*
X-179528Y9449D02*
X-179528Y203150D01*
D13*
X727960Y-140993D02*
X737144D01*
X732552D01*
Y-154768D01*
X744031D02*
X748623D01*
X750919Y-152472D01*
Y-147880D01*
X748623Y-145584D01*
X744031D01*
X741735Y-147880D01*
Y-152472D01*
X744031Y-154768D01*
X755511Y-159360D02*
Y-145584D01*
X762398D01*
X764694Y-147880D01*
Y-152472D01*
X762398Y-154768D01*
X755511D01*
X789948Y-140993D02*
X785357D01*
X783061Y-143289D01*
Y-152472D01*
X785357Y-154768D01*
X789948D01*
X792244Y-152472D01*
Y-143289D01*
X789948Y-140993D01*
X796836Y-145584D02*
X801427Y-154768D01*
X806019Y-145584D01*
X817498Y-154768D02*
X812907D01*
X810611Y-152472D01*
Y-147880D01*
X812907Y-145584D01*
X817498D01*
X819794Y-147880D01*
Y-150176D01*
X810611D01*
X824386Y-145584D02*
Y-154768D01*
Y-150176D01*
X826682Y-147880D01*
X828978Y-145584D01*
X831273D01*
X838161Y-154768D02*
X842753D01*
X840457D01*
Y-140993D01*
X838161D01*
X851936Y-145584D02*
X856528D01*
X858824Y-147880D01*
Y-154768D01*
X851936D01*
X849640Y-152472D01*
X851936Y-150176D01*
X858824D01*
X863415Y-145584D02*
Y-152472D01*
X865711Y-154768D01*
X872599D01*
Y-157064D01*
X870303Y-159360D01*
X868007D01*
X872599Y-154768D02*
Y-145584D01*
X531110Y-219734D02*
Y-235476D01*
X536358Y-230229D01*
X541605Y-235476D01*
Y-219734D01*
X546853Y-235476D02*
X552101D01*
X549477D01*
Y-224981D01*
X546853D01*
X559972Y-235476D02*
Y-224981D01*
X562596D01*
X565220Y-227605D01*
Y-235476D01*
Y-227605D01*
X567843Y-224981D01*
X570467Y-227605D01*
Y-235476D01*
X575715Y-219734D02*
Y-230229D01*
X580963Y-235476D01*
X586210Y-230229D01*
Y-219734D01*
X601953Y-222357D02*
X599329Y-219734D01*
X594082D01*
X591458Y-222357D01*
Y-232853D01*
X594082Y-235476D01*
X599329D01*
X601953Y-232853D01*
Y-227605D01*
X596705D01*
X885441Y-182987D02*
X888064Y-180364D01*
X893312D01*
X895936Y-182987D01*
Y-193483D01*
X893312Y-196106D01*
X888064D01*
X885441Y-193483D01*
Y-182987D01*
X901184D02*
X903807Y-180364D01*
X909055D01*
X911679Y-182987D01*
Y-193483D01*
X909055Y-196106D01*
X903807D01*
X901184Y-193483D01*
Y-182987D01*
X722055Y-196106D02*
X726647D01*
X724351D01*
Y-182331D01*
X722055Y-184627D01*
X733534Y-182331D02*
X742717D01*
Y-184627D01*
X733534Y-193811D01*
Y-196106D01*
X747309D02*
X756493Y-186923D01*
X761084Y-184627D02*
X763380Y-182331D01*
X767972D01*
X770268Y-184627D01*
Y-193811D01*
X767972Y-196106D01*
X763380D01*
X761084Y-193811D01*
Y-184627D01*
X781747Y-196106D02*
Y-182331D01*
X774859Y-189219D01*
X784043D01*
X788634Y-196106D02*
X797818Y-186923D01*
X811593Y-196106D02*
X802409D01*
X811593Y-186923D01*
Y-184627D01*
X809297Y-182331D01*
X804705D01*
X802409Y-184627D01*
X816185D02*
X818480Y-182331D01*
X823072D01*
X825368Y-184627D01*
Y-193811D01*
X823072Y-196106D01*
X818480D01*
X816185Y-193811D01*
Y-184627D01*
X839143Y-196106D02*
X829960D01*
X839143Y-186923D01*
Y-184627D01*
X836847Y-182331D01*
X832255D01*
X829960Y-184627D01*
X852918Y-182331D02*
X848326Y-184627D01*
X843735Y-189219D01*
Y-193811D01*
X846031Y-196106D01*
X850622D01*
X852918Y-193811D01*
Y-191515D01*
X850622Y-189219D01*
X843735D01*
X724545Y-104772D02*
X716149D01*
Y-111069D01*
X720347D01*
X716149D01*
Y-117366D01*
X728744Y-108970D02*
Y-117366D01*
Y-113168D01*
X730843Y-111069D01*
X732942Y-108970D01*
X735041D01*
X741338Y-117366D02*
X745536D01*
X743437D01*
Y-108970D01*
X741338D01*
X751833Y-106871D02*
X753932Y-104772D01*
X758131D01*
X760230Y-106871D01*
Y-108970D01*
X758131Y-111069D01*
X756031D01*
X758131D01*
X760230Y-113168D01*
Y-115267D01*
X758131Y-117366D01*
X753932D01*
X751833Y-115267D01*
X764428Y-104772D02*
Y-117366D01*
X770725D01*
X772824Y-115267D01*
Y-106871D01*
X770725Y-104772D01*
X764428D01*
X789616D02*
Y-117366D01*
X795914D01*
X798013Y-115267D01*
Y-113168D01*
X795914Y-111069D01*
X789616D01*
X795914D01*
X798013Y-108970D01*
Y-106871D01*
X795914Y-104772D01*
X789616D01*
X804310Y-108970D02*
X808508D01*
X810607Y-111069D01*
Y-117366D01*
X804310D01*
X802211Y-115267D01*
X804310Y-113168D01*
X810607D01*
X823201Y-104772D02*
Y-117366D01*
X816904D01*
X814805Y-115267D01*
Y-111069D01*
X816904Y-108970D01*
X823201D01*
X831598Y-121564D02*
X833697D01*
X835796Y-119465D01*
Y-108970D01*
X829498D01*
X827400Y-111069D01*
Y-115267D01*
X829498Y-117366D01*
X835796D01*
X846291D02*
X842093D01*
X839994Y-115267D01*
Y-111069D01*
X842093Y-108970D01*
X846291D01*
X848390Y-111069D01*
Y-113168D01*
X839994D01*
X873579Y-117366D02*
X865183D01*
X873579Y-108970D01*
Y-106871D01*
X871480Y-104772D01*
X867282D01*
X865183Y-106871D01*
X877777D02*
X879876Y-104772D01*
X884074D01*
X886173Y-106871D01*
Y-115267D01*
X884074Y-117366D01*
X879876D01*
X877777Y-115267D01*
Y-106871D01*
X898767Y-117366D02*
X890371D01*
X898767Y-108970D01*
Y-106871D01*
X896668Y-104772D01*
X892470D01*
X890371Y-106871D01*
X911362Y-104772D02*
X907164Y-106871D01*
X902966Y-111069D01*
Y-115267D01*
X905065Y-117366D01*
X909263D01*
X911362Y-115267D01*
Y-113168D01*
X909263Y-111069D01*
X902966D01*
X936551Y-106871D02*
X934451Y-104772D01*
X930253D01*
X928154Y-106871D01*
Y-115267D01*
X930253Y-117366D01*
X934451D01*
X936551Y-115267D01*
X940749Y-104772D02*
Y-113168D01*
X944947Y-117366D01*
X949145Y-113168D01*
Y-104772D01*
X953343Y-117366D02*
Y-104772D01*
X959640D01*
X961739Y-106871D01*
Y-111069D01*
X959640Y-113168D01*
X953343D01*
X957541D02*
X961739Y-117366D01*
D14*
X867724Y-174453D02*
Y-166581D01*
X871660D01*
X872972Y-167893D01*
Y-170517D01*
X871660Y-171829D01*
X867724D01*
X870348D02*
X872972Y-174453D01*
X879531D02*
X876908D01*
X875596Y-173141D01*
Y-170517D01*
X876908Y-169205D01*
X879531D01*
X880843Y-170517D01*
Y-171829D01*
X875596D01*
X883467Y-169205D02*
X886091Y-174453D01*
X888715Y-169205D01*
X513393Y-205951D02*
Y-213823D01*
X517329D01*
X518641Y-212511D01*
Y-207263D01*
X517329Y-205951D01*
X513393D01*
X525201Y-213823D02*
X522577D01*
X521265Y-212511D01*
Y-209887D01*
X522577Y-208575D01*
X525201D01*
X526512Y-209887D01*
Y-211199D01*
X521265D01*
X529136Y-213823D02*
X533072D01*
X534384Y-212511D01*
X533072Y-211199D01*
X530448D01*
X529136Y-209887D01*
X530448Y-208575D01*
X534384D01*
X539632Y-216447D02*
X540944D01*
X542255Y-215135D01*
Y-208575D01*
X538320D01*
X537008Y-209887D01*
Y-212511D01*
X538320Y-213823D01*
X542255D01*
X544879D02*
X547503D01*
X546191D01*
Y-208575D01*
X544879D01*
X551439Y-213823D02*
Y-208575D01*
X555375D01*
X556686Y-209887D01*
Y-213823D01*
X563246D02*
X560622D01*
X559310Y-212511D01*
Y-209887D01*
X560622Y-208575D01*
X563246D01*
X564558Y-209887D01*
Y-211199D01*
X559310D01*
X567182Y-208575D02*
Y-213823D01*
Y-211199D01*
X568494Y-209887D01*
X569806Y-208575D01*
X571118D01*
X710244Y-87841D02*
Y-95713D01*
X714180D01*
X715491Y-94401D01*
Y-89153D01*
X714180Y-87841D01*
X710244D01*
X719427Y-95713D02*
X722051D01*
X723363Y-94401D01*
Y-91777D01*
X722051Y-90465D01*
X719427D01*
X718115Y-91777D01*
Y-94401D01*
X719427Y-95713D01*
X731234Y-90465D02*
X727299D01*
X725987Y-91777D01*
Y-94401D01*
X727299Y-95713D01*
X731234D01*
X733858Y-90465D02*
Y-94401D01*
X735170Y-95713D01*
X739106D01*
Y-90465D01*
X741730Y-95713D02*
Y-90465D01*
X743042D01*
X744353Y-91777D01*
Y-95713D01*
Y-91777D01*
X745665Y-90465D01*
X746977Y-91777D01*
Y-95713D01*
X753537D02*
X750913D01*
X749601Y-94401D01*
Y-91777D01*
X750913Y-90465D01*
X753537D01*
X754849Y-91777D01*
Y-93089D01*
X749601D01*
X757473Y-95713D02*
Y-90465D01*
X761408D01*
X762720Y-91777D01*
Y-95713D01*
X766656Y-89153D02*
Y-90465D01*
X765344D01*
X767968D01*
X766656D01*
Y-94401D01*
X767968Y-95713D01*
X710244Y-127211D02*
Y-135083D01*
X715491D01*
X719427Y-129835D02*
X722051D01*
X723363Y-131147D01*
Y-135083D01*
X719427D01*
X718115Y-133771D01*
X719427Y-132459D01*
X723363D01*
X725987Y-129835D02*
Y-133771D01*
X727299Y-135083D01*
X731234D01*
Y-136395D01*
X729922Y-137707D01*
X728611D01*
X731234Y-135083D02*
Y-129835D01*
X737794Y-135083D02*
X735170D01*
X733858Y-133771D01*
Y-131147D01*
X735170Y-129835D01*
X737794D01*
X739106Y-131147D01*
Y-132459D01*
X733858D01*
X741730Y-129835D02*
Y-135083D01*
Y-132459D01*
X743042Y-131147D01*
X744353Y-129835D01*
X745665D01*
X757473Y-135083D02*
Y-127211D01*
X762720Y-135083D01*
Y-127211D01*
X766656Y-129835D02*
X769280D01*
X770592Y-131147D01*
Y-135083D01*
X766656D01*
X765344Y-133771D01*
X766656Y-132459D01*
X770592D01*
X773216Y-135083D02*
Y-129835D01*
X774528D01*
X775839Y-131147D01*
Y-135083D01*
Y-131147D01*
X777151Y-129835D01*
X778463Y-131147D01*
Y-135083D01*
X785023D02*
X782399D01*
X781087Y-133771D01*
Y-131147D01*
X782399Y-129835D01*
X785023D01*
X786335Y-131147D01*
Y-132459D01*
X781087D01*
X710244Y-166581D02*
Y-174453D01*
X714180D01*
X715491Y-173141D01*
Y-167893D01*
X714180Y-166581D01*
X710244D01*
X719427Y-169205D02*
X722051D01*
X723363Y-170517D01*
Y-174453D01*
X719427D01*
X718115Y-173141D01*
X719427Y-171829D01*
X723363D01*
X727299Y-167893D02*
Y-169205D01*
X725987D01*
X728611D01*
X727299D01*
Y-173141D01*
X728611Y-174453D01*
X736482D02*
X733858D01*
X732546Y-173141D01*
Y-170517D01*
X733858Y-169205D01*
X736482D01*
X737794Y-170517D01*
Y-171829D01*
X732546D01*
X710244Y-205951D02*
Y-213823D01*
X714180D01*
X715491Y-212511D01*
Y-207263D01*
X714180Y-205951D01*
X710244D01*
X719427Y-213823D02*
X722051D01*
X723363Y-212511D01*
Y-209887D01*
X722051Y-208575D01*
X719427D01*
X718115Y-209887D01*
Y-212511D01*
X719427Y-213823D01*
X731234Y-208575D02*
X727299D01*
X725987Y-209887D01*
Y-212511D01*
X727299Y-213823D01*
X731234D01*
X733858Y-208575D02*
Y-212511D01*
X735170Y-213823D01*
X739106D01*
Y-208575D01*
X741730Y-213823D02*
Y-208575D01*
X743042D01*
X744353Y-209887D01*
Y-213823D01*
Y-209887D01*
X745665Y-208575D01*
X746977Y-209887D01*
Y-213823D01*
X753537D02*
X750913D01*
X749601Y-212511D01*
Y-209887D01*
X750913Y-208575D01*
X753537D01*
X754849Y-209887D01*
Y-211199D01*
X749601D01*
X757473Y-213823D02*
Y-208575D01*
X761408D01*
X762720Y-209887D01*
Y-213823D01*
X766656Y-207263D02*
Y-208575D01*
X765344D01*
X767968D01*
X766656D01*
Y-212511D01*
X767968Y-213823D01*
M02*
