G04*
G04 #@! TF.GenerationSoftware,Altium Limited,Altium Designer,26.1.1 (7)*
G04*
G04 Layer_Color=2752767*
%FSLAX25Y25*%
%MOIN*%
G70*
G04*
G04 #@! TF.SameCoordinates,1A265796-0B11-4517-A3FD-3FE39C335806*
G04*
G04*
G04 #@! TF.FilePolarity,Positive*
G04*
G01*
G75*
%ADD10C,0.00787*%
%ADD11C,0.00591*%
%ADD12C,0.00394*%
%ADD13C,0.01575*%
%ADD14C,0.00984*%
%ADD59C,0.00200*%
%ADD60C,0.00945*%
G36*
X557241Y-114219D02*
X558959D01*
Y-114506D01*
X559818D01*
Y-114792D01*
X560676D01*
Y-115078D01*
X561535D01*
Y-115365D01*
X562108D01*
Y-115651D01*
X562394D01*
Y-115937D01*
X562967D01*
Y-116224D01*
X563253D01*
Y-116510D01*
X563826D01*
Y-116796D01*
X564112D01*
Y-117083D01*
X564398D01*
Y-117369D01*
X564685D01*
Y-117655D01*
X564971D01*
Y-117941D01*
X565258D01*
Y-118228D01*
X565544D01*
Y-118514D01*
Y-118800D01*
X565830D01*
Y-119087D01*
X566116D01*
Y-119373D01*
Y-119659D01*
X566403D01*
Y-119946D01*
X566689D01*
Y-120232D01*
Y-120518D01*
X566975D01*
Y-120805D01*
Y-121091D01*
Y-121377D01*
X567262D01*
Y-121663D01*
Y-121950D01*
Y-122236D01*
X567548D01*
Y-122522D01*
Y-122809D01*
Y-123095D01*
Y-123381D01*
X567834D01*
Y-123668D01*
Y-123954D01*
Y-124240D01*
Y-124527D01*
Y-124813D01*
X568121D01*
Y-125099D01*
Y-125385D01*
Y-125672D01*
Y-125958D01*
Y-126244D01*
Y-126531D01*
Y-126817D01*
Y-127103D01*
Y-127390D01*
Y-127676D01*
Y-127962D01*
Y-128249D01*
Y-128535D01*
Y-128821D01*
Y-129108D01*
Y-129394D01*
Y-129680D01*
Y-129966D01*
Y-130253D01*
Y-130539D01*
X567834D01*
Y-130825D01*
Y-131112D01*
Y-131398D01*
Y-131684D01*
Y-131971D01*
Y-132257D01*
Y-132543D01*
X567548D01*
Y-132830D01*
Y-133116D01*
Y-133402D01*
Y-133689D01*
Y-133975D01*
X567262D01*
Y-134261D01*
Y-134547D01*
Y-134834D01*
Y-135120D01*
Y-135406D01*
X566975D01*
Y-135693D01*
Y-135979D01*
Y-136265D01*
X566689D01*
Y-136552D01*
Y-136838D01*
Y-137124D01*
Y-137411D01*
X566403D01*
Y-137697D01*
Y-137983D01*
Y-138270D01*
X566116D01*
Y-138556D01*
Y-138842D01*
X565830D01*
Y-139128D01*
Y-139415D01*
Y-139701D01*
X565544D01*
Y-139988D01*
Y-140274D01*
X565258D01*
Y-140560D01*
Y-140846D01*
X564971D01*
Y-141133D01*
Y-141419D01*
X564685D01*
Y-141705D01*
X564398D01*
Y-141992D01*
Y-142278D01*
X564112D01*
Y-142564D01*
X563826D01*
Y-142851D01*
X563540D01*
Y-143137D01*
Y-143423D01*
X563253D01*
Y-143710D01*
X562967D01*
Y-143996D01*
X562681D01*
Y-144282D01*
X562394D01*
Y-144569D01*
X562108D01*
Y-144855D01*
X561535D01*
Y-145141D01*
X561249D01*
Y-145427D01*
X560676D01*
Y-145714D01*
X560390D01*
Y-146000D01*
X559818D01*
Y-146286D01*
X558959D01*
Y-146573D01*
X558100D01*
Y-146859D01*
X557241D01*
Y-147145D01*
X555523D01*
Y-147432D01*
X550369D01*
Y-147145D01*
X547792D01*
Y-146859D01*
X545788D01*
Y-146573D01*
X544357D01*
Y-146286D01*
X542925D01*
Y-146000D01*
X541494D01*
Y-146286D01*
Y-146573D01*
Y-146859D01*
Y-147145D01*
Y-147432D01*
Y-147718D01*
Y-148004D01*
X541207D01*
Y-148291D01*
Y-148577D01*
Y-148863D01*
Y-149150D01*
Y-149436D01*
Y-149722D01*
X540921D01*
Y-150008D01*
Y-150295D01*
Y-150581D01*
Y-150867D01*
Y-151154D01*
Y-151440D01*
X540635D01*
Y-151726D01*
Y-152013D01*
Y-152299D01*
Y-152585D01*
Y-152872D01*
Y-153158D01*
Y-153444D01*
X540348D01*
Y-153730D01*
Y-154017D01*
Y-154303D01*
Y-154589D01*
Y-154876D01*
Y-155162D01*
X540062D01*
Y-155448D01*
Y-155735D01*
Y-156021D01*
Y-156307D01*
Y-156594D01*
Y-156880D01*
X539776D01*
Y-157166D01*
Y-157453D01*
Y-157739D01*
Y-158025D01*
Y-158311D01*
Y-158598D01*
Y-158884D01*
X539489D01*
Y-159170D01*
Y-159457D01*
Y-159743D01*
Y-160029D01*
Y-160316D01*
Y-160602D01*
X539203D01*
Y-160888D01*
Y-161175D01*
Y-161461D01*
Y-161747D01*
Y-162034D01*
Y-162320D01*
X538917D01*
Y-162606D01*
Y-162892D01*
Y-163179D01*
Y-163465D01*
Y-163751D01*
Y-164038D01*
Y-164324D01*
X525460D01*
Y-164038D01*
X525746D01*
Y-163751D01*
Y-163465D01*
Y-163179D01*
Y-162892D01*
Y-162606D01*
X526033D01*
Y-162320D01*
Y-162034D01*
Y-161747D01*
Y-161461D01*
Y-161175D01*
Y-160888D01*
Y-160602D01*
X526319D01*
Y-160316D01*
Y-160029D01*
Y-159743D01*
Y-159457D01*
Y-159170D01*
Y-158884D01*
X526605D01*
Y-158598D01*
Y-158311D01*
Y-158025D01*
Y-157739D01*
Y-157453D01*
Y-157166D01*
X526892D01*
Y-156880D01*
Y-156594D01*
Y-156307D01*
Y-156021D01*
Y-155735D01*
Y-155448D01*
Y-155162D01*
X527178D01*
Y-154876D01*
Y-154589D01*
Y-154303D01*
Y-154017D01*
Y-153730D01*
Y-153444D01*
X527464D01*
Y-153158D01*
Y-152872D01*
Y-152585D01*
Y-152299D01*
Y-152013D01*
Y-151726D01*
X527750D01*
Y-151440D01*
Y-151154D01*
Y-150867D01*
Y-150581D01*
Y-150295D01*
Y-150008D01*
X528037D01*
Y-149722D01*
Y-149436D01*
Y-149150D01*
Y-148863D01*
Y-148577D01*
Y-148291D01*
Y-148004D01*
X528323D01*
Y-147718D01*
Y-147432D01*
Y-147145D01*
Y-146859D01*
Y-146573D01*
Y-146286D01*
X528609D01*
Y-146000D01*
Y-145714D01*
Y-145427D01*
Y-145141D01*
Y-144855D01*
Y-144569D01*
X528896D01*
Y-144282D01*
Y-143996D01*
Y-143710D01*
Y-143423D01*
Y-143137D01*
Y-142851D01*
X529182D01*
Y-142564D01*
Y-142278D01*
Y-141992D01*
Y-141705D01*
Y-141419D01*
Y-141133D01*
Y-140846D01*
X529468D01*
Y-140560D01*
Y-140274D01*
Y-139988D01*
Y-139701D01*
Y-139415D01*
Y-139128D01*
X529755D01*
Y-138842D01*
Y-138556D01*
Y-138270D01*
Y-137983D01*
Y-137697D01*
Y-137411D01*
X530041D01*
Y-137124D01*
Y-136838D01*
Y-136552D01*
Y-136265D01*
Y-135979D01*
Y-135693D01*
Y-135406D01*
X530327D01*
Y-135120D01*
Y-134834D01*
Y-134547D01*
Y-134261D01*
Y-133975D01*
Y-133689D01*
X530614D01*
Y-133402D01*
Y-133116D01*
Y-132830D01*
Y-132543D01*
Y-132257D01*
Y-131971D01*
X530900D01*
Y-131684D01*
Y-131398D01*
Y-131112D01*
Y-130825D01*
Y-130539D01*
Y-130253D01*
X531186D01*
Y-129966D01*
Y-129680D01*
Y-129394D01*
Y-129108D01*
Y-128821D01*
Y-128535D01*
Y-128249D01*
X531473D01*
Y-127962D01*
Y-127676D01*
Y-127390D01*
Y-127103D01*
Y-126817D01*
Y-126531D01*
X531759D01*
Y-126244D01*
Y-125958D01*
Y-125672D01*
Y-125385D01*
Y-125099D01*
Y-124813D01*
X532045D01*
Y-124527D01*
Y-124240D01*
Y-123954D01*
Y-123668D01*
Y-123381D01*
Y-123095D01*
Y-122809D01*
X532332D01*
Y-122522D01*
Y-122236D01*
Y-121950D01*
Y-121663D01*
Y-121377D01*
Y-121091D01*
X532618D01*
Y-120805D01*
Y-120518D01*
Y-120232D01*
Y-119946D01*
Y-119659D01*
Y-119373D01*
X532904D01*
Y-119087D01*
Y-118800D01*
Y-118514D01*
Y-118228D01*
Y-117941D01*
Y-117655D01*
Y-117369D01*
X533190D01*
Y-117083D01*
Y-116796D01*
Y-116510D01*
Y-116224D01*
Y-115937D01*
Y-115651D01*
X533477D01*
Y-115365D01*
Y-115078D01*
Y-114792D01*
Y-114506D01*
Y-114219D01*
Y-113933D01*
X557241D01*
Y-114219D01*
D02*
G37*
G36*
X588449Y-110784D02*
Y-111070D01*
X588163D01*
Y-111356D01*
Y-111643D01*
Y-111929D01*
Y-112215D01*
Y-112501D01*
Y-112788D01*
X587876D01*
Y-113074D01*
Y-113360D01*
Y-113647D01*
Y-113933D01*
Y-114219D01*
Y-114506D01*
X587590D01*
Y-114792D01*
Y-115078D01*
Y-115365D01*
Y-115651D01*
Y-115937D01*
Y-116224D01*
Y-116510D01*
X587304D01*
Y-116796D01*
Y-117083D01*
Y-117369D01*
Y-117655D01*
Y-117941D01*
Y-118228D01*
X587017D01*
Y-118514D01*
Y-118800D01*
Y-119087D01*
Y-119373D01*
Y-119659D01*
Y-119946D01*
X586731D01*
Y-120232D01*
Y-120518D01*
Y-120805D01*
Y-121091D01*
Y-121377D01*
Y-121663D01*
Y-121950D01*
X586445D01*
Y-122236D01*
Y-122522D01*
Y-122809D01*
Y-123095D01*
Y-123381D01*
Y-123668D01*
X586158D01*
Y-123954D01*
Y-124240D01*
Y-124527D01*
Y-124813D01*
Y-125099D01*
Y-125385D01*
X585872D01*
Y-125672D01*
Y-125958D01*
Y-126244D01*
Y-126531D01*
Y-126817D01*
Y-127103D01*
X585586D01*
Y-127390D01*
Y-127676D01*
Y-127962D01*
Y-128249D01*
Y-128535D01*
Y-128821D01*
Y-129108D01*
X585299D01*
Y-129394D01*
Y-129680D01*
Y-129966D01*
Y-130253D01*
Y-130539D01*
Y-130825D01*
X585013D01*
Y-131112D01*
Y-131398D01*
X585586D01*
Y-131112D01*
X585872D01*
Y-130825D01*
X586158D01*
Y-130539D01*
X586731D01*
Y-130253D01*
X587017D01*
Y-129966D01*
X587304D01*
Y-129680D01*
X587876D01*
Y-129394D01*
X588449D01*
Y-129108D01*
X588735D01*
Y-128821D01*
X589308D01*
Y-128535D01*
X590167D01*
Y-128249D01*
X590739D01*
Y-127962D01*
X591598D01*
Y-127676D01*
X593030D01*
Y-127390D01*
X599329D01*
Y-127676D01*
X600474D01*
Y-127962D01*
X601333D01*
Y-128249D01*
X601905D01*
Y-128535D01*
X602192D01*
Y-128821D01*
X602765D01*
Y-129108D01*
X603051D01*
Y-129394D01*
X603337D01*
Y-129680D01*
X603623D01*
Y-129966D01*
X603910D01*
Y-130253D01*
Y-130539D01*
X604196D01*
Y-130825D01*
Y-131112D01*
X604482D01*
Y-131398D01*
Y-131684D01*
Y-131971D01*
X604769D01*
Y-132257D01*
Y-132543D01*
Y-132830D01*
Y-133116D01*
X605055D01*
Y-133402D01*
Y-133689D01*
Y-133975D01*
Y-134261D01*
Y-134547D01*
Y-134834D01*
Y-135120D01*
Y-135406D01*
Y-135693D01*
Y-135979D01*
Y-136265D01*
Y-136552D01*
Y-136838D01*
Y-137124D01*
Y-137411D01*
Y-137697D01*
Y-137983D01*
Y-138270D01*
X604769D01*
Y-138556D01*
Y-138842D01*
Y-139128D01*
Y-139415D01*
Y-139701D01*
Y-139988D01*
Y-140274D01*
X604482D01*
Y-140560D01*
Y-140846D01*
Y-141133D01*
Y-141419D01*
Y-141705D01*
Y-141992D01*
Y-142278D01*
X604196D01*
Y-142564D01*
Y-142851D01*
Y-143137D01*
Y-143423D01*
Y-143710D01*
Y-143996D01*
X603910D01*
Y-144282D01*
Y-144569D01*
Y-144855D01*
Y-145141D01*
Y-145427D01*
Y-145714D01*
X603623D01*
Y-146000D01*
Y-146286D01*
Y-146573D01*
Y-146859D01*
Y-147145D01*
Y-147432D01*
X603337D01*
Y-147718D01*
Y-148004D01*
Y-148291D01*
Y-148577D01*
Y-148863D01*
Y-149150D01*
Y-149436D01*
X603051D01*
Y-149722D01*
Y-150008D01*
Y-150295D01*
Y-150581D01*
Y-150867D01*
Y-151154D01*
X602765D01*
Y-151440D01*
Y-151726D01*
Y-152013D01*
Y-152299D01*
Y-152585D01*
Y-152872D01*
X602478D01*
Y-153158D01*
Y-153444D01*
Y-153730D01*
Y-154017D01*
Y-154303D01*
Y-154589D01*
Y-154876D01*
X602192D01*
Y-155162D01*
Y-155448D01*
Y-155735D01*
Y-156021D01*
Y-156307D01*
Y-156594D01*
X601905D01*
Y-156880D01*
Y-157166D01*
Y-157453D01*
Y-157739D01*
Y-158025D01*
Y-158311D01*
X601619D01*
Y-158598D01*
Y-158884D01*
Y-159170D01*
Y-159457D01*
Y-159743D01*
Y-160029D01*
X601333D01*
Y-160316D01*
Y-160602D01*
Y-160888D01*
Y-161175D01*
Y-161461D01*
Y-161747D01*
Y-162034D01*
X601047D01*
Y-162320D01*
Y-162606D01*
Y-162892D01*
Y-163179D01*
Y-163465D01*
Y-163751D01*
X600760D01*
Y-164038D01*
Y-164324D01*
X587590D01*
Y-164038D01*
Y-163751D01*
X587876D01*
Y-163465D01*
Y-163179D01*
Y-162892D01*
Y-162606D01*
Y-162320D01*
Y-162034D01*
X588163D01*
Y-161747D01*
Y-161461D01*
Y-161175D01*
Y-160888D01*
Y-160602D01*
Y-160316D01*
Y-160029D01*
X588449D01*
Y-159743D01*
Y-159457D01*
Y-159170D01*
Y-158884D01*
Y-158598D01*
Y-158311D01*
X588735D01*
Y-158025D01*
Y-157739D01*
Y-157453D01*
Y-157166D01*
Y-156880D01*
Y-156594D01*
X589021D01*
Y-156307D01*
Y-156021D01*
Y-155735D01*
Y-155448D01*
Y-155162D01*
Y-154876D01*
Y-154589D01*
X589308D01*
Y-154303D01*
Y-154017D01*
Y-153730D01*
Y-153444D01*
Y-153158D01*
Y-152872D01*
X589594D01*
Y-152585D01*
Y-152299D01*
Y-152013D01*
Y-151726D01*
Y-151440D01*
Y-151154D01*
Y-150867D01*
X589880D01*
Y-150581D01*
Y-150295D01*
Y-150008D01*
Y-149722D01*
Y-149436D01*
Y-149150D01*
X590167D01*
Y-148863D01*
Y-148577D01*
Y-148291D01*
Y-148004D01*
Y-147718D01*
Y-147432D01*
X590453D01*
Y-147145D01*
Y-146859D01*
Y-146573D01*
Y-146286D01*
Y-146000D01*
Y-145714D01*
X590739D01*
Y-145427D01*
Y-145141D01*
Y-144855D01*
Y-144569D01*
Y-144282D01*
Y-143996D01*
Y-143710D01*
X591026D01*
Y-143423D01*
Y-143137D01*
Y-142851D01*
Y-142564D01*
Y-142278D01*
Y-141992D01*
X591312D01*
Y-141705D01*
Y-141419D01*
Y-141133D01*
Y-140846D01*
Y-140560D01*
Y-140274D01*
Y-139988D01*
X591598D01*
Y-139701D01*
Y-139415D01*
Y-139128D01*
Y-138842D01*
Y-138556D01*
Y-138270D01*
X591312D01*
Y-137983D01*
Y-137697D01*
X591026D01*
Y-137411D01*
X590739D01*
Y-137124D01*
X590167D01*
Y-136838D01*
X588449D01*
Y-137124D01*
X587017D01*
Y-137411D01*
X586158D01*
Y-137697D01*
X585586D01*
Y-137983D01*
X585299D01*
Y-138270D01*
X584727D01*
Y-138556D01*
X584440D01*
Y-138842D01*
X584154D01*
Y-139128D01*
Y-139415D01*
X583868D01*
Y-139701D01*
Y-139988D01*
Y-140274D01*
X583581D01*
Y-140560D01*
Y-140846D01*
Y-141133D01*
Y-141419D01*
Y-141705D01*
Y-141992D01*
X583295D01*
Y-142278D01*
Y-142564D01*
Y-142851D01*
Y-143137D01*
Y-143423D01*
Y-143710D01*
Y-143996D01*
X583009D01*
Y-144282D01*
Y-144569D01*
Y-144855D01*
Y-145141D01*
Y-145427D01*
Y-145714D01*
X582723D01*
Y-146000D01*
Y-146286D01*
Y-146573D01*
Y-146859D01*
Y-147145D01*
Y-147432D01*
X582436D01*
Y-147718D01*
Y-148004D01*
Y-148291D01*
Y-148577D01*
Y-148863D01*
Y-149150D01*
X582150D01*
Y-149436D01*
Y-149722D01*
Y-150008D01*
Y-150295D01*
Y-150581D01*
Y-150867D01*
Y-151154D01*
X581864D01*
Y-151440D01*
Y-151726D01*
Y-152013D01*
Y-152299D01*
Y-152585D01*
Y-152872D01*
X581577D01*
Y-153158D01*
Y-153444D01*
Y-153730D01*
Y-154017D01*
Y-154303D01*
Y-154589D01*
X581291D01*
Y-154876D01*
Y-155162D01*
Y-155448D01*
Y-155735D01*
Y-156021D01*
Y-156307D01*
Y-156594D01*
X581005D01*
Y-156880D01*
Y-157166D01*
Y-157453D01*
Y-157739D01*
Y-158025D01*
Y-158311D01*
X580718D01*
Y-158598D01*
Y-158884D01*
Y-159170D01*
Y-159457D01*
Y-159743D01*
Y-160029D01*
X580432D01*
Y-160316D01*
Y-160602D01*
Y-160888D01*
Y-161175D01*
Y-161461D01*
Y-161747D01*
X580146D01*
Y-162034D01*
Y-162320D01*
Y-162606D01*
Y-162892D01*
Y-163179D01*
Y-163465D01*
Y-163751D01*
X579859D01*
Y-164038D01*
Y-164324D01*
X566689D01*
Y-164038D01*
Y-163751D01*
X566975D01*
Y-163465D01*
Y-163179D01*
Y-162892D01*
Y-162606D01*
Y-162320D01*
Y-162034D01*
Y-161747D01*
X567262D01*
Y-161461D01*
Y-161175D01*
Y-160888D01*
Y-160602D01*
Y-160316D01*
Y-160029D01*
X567548D01*
Y-159743D01*
Y-159457D01*
Y-159170D01*
Y-158884D01*
Y-158598D01*
Y-158311D01*
X567834D01*
Y-158025D01*
Y-157739D01*
Y-157453D01*
Y-157166D01*
Y-156880D01*
Y-156594D01*
Y-156307D01*
X568121D01*
Y-156021D01*
Y-155735D01*
Y-155448D01*
Y-155162D01*
Y-154876D01*
Y-154589D01*
X568407D01*
Y-154303D01*
Y-154017D01*
Y-153730D01*
Y-153444D01*
Y-153158D01*
Y-152872D01*
X568693D01*
Y-152585D01*
Y-152299D01*
Y-152013D01*
Y-151726D01*
Y-151440D01*
Y-151154D01*
X568980D01*
Y-150867D01*
Y-150581D01*
Y-150295D01*
Y-150008D01*
Y-149722D01*
Y-149436D01*
Y-149150D01*
X569266D01*
Y-148863D01*
Y-148577D01*
Y-148291D01*
Y-148004D01*
Y-147718D01*
Y-147432D01*
X569552D01*
Y-147145D01*
Y-146859D01*
Y-146573D01*
Y-146286D01*
Y-146000D01*
Y-145714D01*
X569838D01*
Y-145427D01*
Y-145141D01*
Y-144855D01*
Y-144569D01*
Y-144282D01*
Y-143996D01*
Y-143710D01*
X570125D01*
Y-143423D01*
Y-143137D01*
Y-142851D01*
Y-142564D01*
Y-142278D01*
Y-141992D01*
X570411D01*
Y-141705D01*
Y-141419D01*
Y-141133D01*
Y-140846D01*
Y-140560D01*
Y-140274D01*
X570697D01*
Y-139988D01*
Y-139701D01*
Y-139415D01*
Y-139128D01*
Y-138842D01*
Y-138556D01*
X570984D01*
Y-138270D01*
Y-137983D01*
Y-137697D01*
Y-137411D01*
Y-137124D01*
Y-136838D01*
Y-136552D01*
X571270D01*
Y-136265D01*
Y-135979D01*
Y-135693D01*
Y-135406D01*
Y-135120D01*
Y-134834D01*
X571556D01*
Y-134547D01*
Y-134261D01*
Y-133975D01*
Y-133689D01*
Y-133402D01*
Y-133116D01*
X571843D01*
Y-132830D01*
Y-132543D01*
Y-132257D01*
Y-131971D01*
Y-131684D01*
Y-131398D01*
X572129D01*
Y-131112D01*
Y-130825D01*
Y-130539D01*
Y-130253D01*
Y-129966D01*
Y-129680D01*
Y-129394D01*
X572415D01*
Y-129108D01*
Y-128821D01*
Y-128535D01*
Y-128249D01*
Y-127962D01*
Y-127676D01*
X572702D01*
Y-127390D01*
Y-127103D01*
Y-126817D01*
Y-126531D01*
Y-126244D01*
Y-125958D01*
X572988D01*
Y-125672D01*
Y-125385D01*
Y-125099D01*
Y-124813D01*
Y-124527D01*
Y-124240D01*
Y-123954D01*
X573274D01*
Y-123668D01*
Y-123381D01*
Y-123095D01*
Y-122809D01*
Y-122522D01*
Y-122236D01*
X573560D01*
Y-121950D01*
Y-121663D01*
Y-121377D01*
Y-121091D01*
Y-120805D01*
Y-120518D01*
X573847D01*
Y-120232D01*
Y-119946D01*
Y-119659D01*
Y-119373D01*
Y-119087D01*
Y-118800D01*
X574133D01*
Y-118514D01*
Y-118228D01*
Y-117941D01*
Y-117655D01*
Y-117369D01*
Y-117083D01*
Y-116796D01*
X574419D01*
Y-116510D01*
Y-116224D01*
Y-115937D01*
Y-115651D01*
Y-115365D01*
Y-115078D01*
X574706D01*
Y-114792D01*
Y-114506D01*
Y-114219D01*
Y-113933D01*
Y-113647D01*
Y-113360D01*
X574992D01*
Y-113074D01*
Y-112788D01*
Y-112501D01*
Y-112215D01*
Y-111929D01*
Y-111643D01*
Y-111356D01*
X575278D01*
Y-111070D01*
Y-110784D01*
Y-110497D01*
X588449D01*
Y-110784D01*
D02*
G37*
G36*
X690376Y-128249D02*
X690090D01*
Y-128535D01*
X689804D01*
Y-128821D01*
Y-129108D01*
X689517D01*
Y-129394D01*
X689231D01*
Y-129680D01*
X688945D01*
Y-129966D01*
Y-130253D01*
X688658D01*
Y-130539D01*
X688372D01*
Y-130825D01*
X688086D01*
Y-131112D01*
X687799D01*
Y-131398D01*
Y-131684D01*
X687513D01*
Y-131971D01*
X687227D01*
Y-132257D01*
X686940D01*
Y-132543D01*
Y-132830D01*
X686654D01*
Y-133116D01*
X686368D01*
Y-133402D01*
X686082D01*
Y-133689D01*
X685795D01*
Y-133975D01*
Y-134261D01*
X685509D01*
Y-134547D01*
X685223D01*
Y-134834D01*
X684936D01*
Y-135120D01*
Y-135406D01*
X684650D01*
Y-135693D01*
X684364D01*
Y-135979D01*
X684077D01*
Y-136265D01*
Y-136552D01*
X683791D01*
Y-136838D01*
X683505D01*
Y-137124D01*
X683218D01*
Y-137411D01*
X682932D01*
Y-137697D01*
Y-137983D01*
X682646D01*
Y-138270D01*
X682359D01*
Y-138556D01*
X682073D01*
Y-138842D01*
Y-139128D01*
X681787D01*
Y-139415D01*
X681500D01*
Y-139701D01*
X681214D01*
Y-139988D01*
Y-140274D01*
X680928D01*
Y-140560D01*
X680642D01*
Y-140846D01*
X680355D01*
Y-141133D01*
X680069D01*
Y-141419D01*
Y-141705D01*
X679783D01*
Y-141992D01*
X679496D01*
Y-142278D01*
X679210D01*
Y-142564D01*
Y-142851D01*
X678924D01*
Y-143137D01*
X678637D01*
Y-143423D01*
X678351D01*
Y-143710D01*
Y-143996D01*
X678065D01*
Y-144282D01*
X677778D01*
Y-144569D01*
X677492D01*
Y-144855D01*
X677206D01*
Y-145141D01*
Y-145427D01*
X676920D01*
Y-145714D01*
X676633D01*
Y-146000D01*
X676347D01*
Y-146286D01*
Y-146573D01*
X676060D01*
Y-146859D01*
X675774D01*
Y-147145D01*
X675488D01*
Y-147432D01*
X675202D01*
Y-147718D01*
Y-148004D01*
X675488D01*
Y-148291D01*
Y-148577D01*
X675774D01*
Y-148863D01*
Y-149150D01*
X676060D01*
Y-149436D01*
X676347D01*
Y-149722D01*
Y-150008D01*
X676633D01*
Y-150295D01*
Y-150581D01*
X676920D01*
Y-150867D01*
Y-151154D01*
X677206D01*
Y-151440D01*
Y-151726D01*
X677492D01*
Y-152013D01*
Y-152299D01*
X677778D01*
Y-152585D01*
Y-152872D01*
X678065D01*
Y-153158D01*
Y-153444D01*
X678351D01*
Y-153730D01*
Y-154017D01*
X678637D01*
Y-154303D01*
X678924D01*
Y-154589D01*
Y-154876D01*
X679210D01*
Y-155162D01*
Y-155448D01*
X679496D01*
Y-155735D01*
Y-156021D01*
X679783D01*
Y-156307D01*
Y-156594D01*
X680069D01*
Y-156880D01*
Y-157166D01*
X680355D01*
Y-157453D01*
Y-157739D01*
X680642D01*
Y-158025D01*
Y-158311D01*
X680928D01*
Y-158598D01*
X681214D01*
Y-158884D01*
Y-159170D01*
X681500D01*
Y-159457D01*
Y-159743D01*
X681787D01*
Y-160029D01*
Y-160316D01*
X682073D01*
Y-160602D01*
Y-160888D01*
X682359D01*
Y-161175D01*
Y-161461D01*
X682646D01*
Y-161747D01*
Y-162034D01*
X682932D01*
Y-162320D01*
Y-162606D01*
X683218D01*
Y-162892D01*
X683505D01*
Y-163179D01*
Y-163465D01*
X683791D01*
Y-163751D01*
Y-164038D01*
X684077D01*
Y-164324D01*
X668903D01*
Y-164038D01*
X668616D01*
Y-163751D01*
Y-163465D01*
Y-163179D01*
X668330D01*
Y-162892D01*
Y-162606D01*
Y-162320D01*
X668044D01*
Y-162034D01*
Y-161747D01*
X667758D01*
Y-161461D01*
Y-161175D01*
Y-160888D01*
X667471D01*
Y-160602D01*
Y-160316D01*
Y-160029D01*
X667185D01*
Y-159743D01*
Y-159457D01*
X666898D01*
Y-159170D01*
Y-158884D01*
Y-158598D01*
X666612D01*
Y-158311D01*
Y-158025D01*
Y-157739D01*
X666326D01*
Y-157453D01*
Y-157166D01*
Y-156880D01*
X666040D01*
Y-156594D01*
X665467D01*
Y-156880D01*
Y-157166D01*
X665181D01*
Y-157453D01*
X664894D01*
Y-157739D01*
Y-158025D01*
X664608D01*
Y-158311D01*
X664322D01*
Y-158598D01*
Y-158884D01*
X664035D01*
Y-159170D01*
X663749D01*
Y-159457D01*
Y-159743D01*
X663463D01*
Y-160029D01*
X663176D01*
Y-160316D01*
X662890D01*
Y-160602D01*
Y-160888D01*
X662604D01*
Y-161175D01*
X662318D01*
Y-161461D01*
Y-161747D01*
X662031D01*
Y-162034D01*
X661745D01*
Y-162320D01*
Y-162606D01*
X661459D01*
Y-162892D01*
X661172D01*
Y-163179D01*
Y-163465D01*
X660886D01*
Y-163751D01*
X660600D01*
Y-164038D01*
Y-164324D01*
X644566D01*
Y-164038D01*
X644852D01*
Y-163751D01*
X645139D01*
Y-163465D01*
X645425D01*
Y-163179D01*
X645711D01*
Y-162892D01*
Y-162606D01*
X645998D01*
Y-162320D01*
X646284D01*
Y-162034D01*
X646570D01*
Y-161747D01*
X646857D01*
Y-161461D01*
Y-161175D01*
X647143D01*
Y-160888D01*
X647429D01*
Y-160602D01*
X647716D01*
Y-160316D01*
Y-160029D01*
X648002D01*
Y-159743D01*
X648288D01*
Y-159457D01*
X648574D01*
Y-159170D01*
X648861D01*
Y-158884D01*
Y-158598D01*
X649147D01*
Y-158311D01*
X649433D01*
Y-158025D01*
X649720D01*
Y-157739D01*
X650006D01*
Y-157453D01*
Y-157166D01*
X650292D01*
Y-156880D01*
X650579D01*
Y-156594D01*
X650865D01*
Y-156307D01*
Y-156021D01*
X651151D01*
Y-155735D01*
X651438D01*
Y-155448D01*
X651724D01*
Y-155162D01*
X652010D01*
Y-154876D01*
Y-154589D01*
X652297D01*
Y-154303D01*
X652583D01*
Y-154017D01*
X652869D01*
Y-153730D01*
Y-153444D01*
X653156D01*
Y-153158D01*
X653442D01*
Y-152872D01*
X653728D01*
Y-152585D01*
X654014D01*
Y-152299D01*
Y-152013D01*
X654301D01*
Y-151726D01*
X654587D01*
Y-151440D01*
X654873D01*
Y-151154D01*
Y-150867D01*
X655160D01*
Y-150581D01*
X655446D01*
Y-150295D01*
X655732D01*
Y-150008D01*
X656019D01*
Y-149722D01*
Y-149436D01*
X656305D01*
Y-149150D01*
X656591D01*
Y-148863D01*
X656878D01*
Y-148577D01*
X657164D01*
Y-148291D01*
Y-148004D01*
X657450D01*
Y-147718D01*
X657736D01*
Y-147432D01*
X658023D01*
Y-147145D01*
Y-146859D01*
X658309D01*
Y-146573D01*
X658596D01*
Y-146286D01*
X658882D01*
Y-146000D01*
X659168D01*
Y-145714D01*
Y-145427D01*
X659454D01*
Y-145141D01*
Y-144855D01*
Y-144569D01*
X659168D01*
Y-144282D01*
X658882D01*
Y-143996D01*
Y-143710D01*
X658596D01*
Y-143423D01*
Y-143137D01*
X658309D01*
Y-142851D01*
Y-142564D01*
X658023D01*
Y-142278D01*
Y-141992D01*
X657736D01*
Y-141705D01*
Y-141419D01*
X657450D01*
Y-141133D01*
Y-140846D01*
X657164D01*
Y-140560D01*
X656878D01*
Y-140274D01*
Y-139988D01*
X656591D01*
Y-139701D01*
Y-139415D01*
X656305D01*
Y-139128D01*
Y-138842D01*
X656019D01*
Y-138556D01*
Y-138270D01*
X655732D01*
Y-137983D01*
Y-137697D01*
X655446D01*
Y-137411D01*
Y-137124D01*
X655160D01*
Y-136838D01*
X654873D01*
Y-136552D01*
Y-136265D01*
X654587D01*
Y-135979D01*
Y-135693D01*
X654301D01*
Y-135406D01*
Y-135120D01*
X654014D01*
Y-134834D01*
Y-134547D01*
X653728D01*
Y-134261D01*
Y-133975D01*
X653442D01*
Y-133689D01*
Y-133402D01*
X653156D01*
Y-133116D01*
Y-132830D01*
X652869D01*
Y-132543D01*
X652583D01*
Y-132257D01*
Y-131971D01*
X652297D01*
Y-131684D01*
Y-131398D01*
X652010D01*
Y-131112D01*
Y-130825D01*
X651724D01*
Y-130539D01*
Y-130253D01*
X651438D01*
Y-129966D01*
Y-129680D01*
X651151D01*
Y-129394D01*
Y-129108D01*
X650865D01*
Y-128821D01*
X650579D01*
Y-128535D01*
Y-128249D01*
X650292D01*
Y-127962D01*
X666040D01*
Y-128249D01*
X666326D01*
Y-128535D01*
Y-128821D01*
Y-129108D01*
X666612D01*
Y-129394D01*
Y-129680D01*
Y-129966D01*
X666898D01*
Y-130253D01*
Y-130539D01*
Y-130825D01*
X667185D01*
Y-131112D01*
Y-131398D01*
Y-131684D01*
X667471D01*
Y-131971D01*
Y-132257D01*
Y-132543D01*
X667758D01*
Y-132830D01*
Y-133116D01*
Y-133402D01*
X668044D01*
Y-133689D01*
Y-133975D01*
Y-134261D01*
X668330D01*
Y-134547D01*
Y-134834D01*
Y-135120D01*
X668616D01*
Y-135406D01*
Y-135693D01*
Y-135979D01*
Y-136265D01*
X669189D01*
Y-135979D01*
X669475D01*
Y-135693D01*
X669762D01*
Y-135406D01*
Y-135120D01*
X670048D01*
Y-134834D01*
X670334D01*
Y-134547D01*
Y-134261D01*
X670621D01*
Y-133975D01*
X670907D01*
Y-133689D01*
Y-133402D01*
X671193D01*
Y-133116D01*
X671480D01*
Y-132830D01*
Y-132543D01*
X671766D01*
Y-132257D01*
X672052D01*
Y-131971D01*
Y-131684D01*
X672338D01*
Y-131398D01*
X672625D01*
Y-131112D01*
Y-130825D01*
X672911D01*
Y-130539D01*
X673197D01*
Y-130253D01*
Y-129966D01*
X673484D01*
Y-129680D01*
X673770D01*
Y-129394D01*
Y-129108D01*
X674056D01*
Y-128821D01*
X674343D01*
Y-128535D01*
Y-128249D01*
X674629D01*
Y-127962D01*
X690376D01*
Y-128249D01*
D02*
G37*
G36*
X646284D02*
Y-128535D01*
Y-128821D01*
Y-129108D01*
Y-129394D01*
Y-129680D01*
Y-129966D01*
Y-130253D01*
Y-130539D01*
Y-130825D01*
Y-131112D01*
Y-131398D01*
Y-131684D01*
Y-131971D01*
Y-132257D01*
Y-132543D01*
Y-132830D01*
Y-133116D01*
Y-133402D01*
Y-133689D01*
Y-133975D01*
X645998D01*
Y-134261D01*
Y-134547D01*
Y-134834D01*
Y-135120D01*
Y-135406D01*
X645711D01*
Y-135693D01*
Y-135979D01*
Y-136265D01*
Y-136552D01*
X645425D01*
Y-136838D01*
Y-137124D01*
Y-137411D01*
Y-137697D01*
X645139D01*
Y-137983D01*
Y-138270D01*
Y-138556D01*
X644852D01*
Y-138842D01*
Y-139128D01*
Y-139415D01*
X644566D01*
Y-139701D01*
Y-139988D01*
Y-140274D01*
X644280D01*
Y-140560D01*
Y-140846D01*
Y-141133D01*
X643994D01*
Y-141419D01*
Y-141705D01*
X643707D01*
Y-141992D01*
Y-142278D01*
X643421D01*
Y-142564D01*
Y-142851D01*
Y-143137D01*
X643135D01*
Y-143423D01*
Y-143710D01*
X642848D01*
Y-143996D01*
Y-144282D01*
Y-144569D01*
X642562D01*
Y-144855D01*
Y-145141D01*
X642276D01*
Y-145427D01*
Y-145714D01*
Y-146000D01*
X641989D01*
Y-146286D01*
Y-146573D01*
X641703D01*
Y-146859D01*
Y-147145D01*
Y-147432D01*
X641417D01*
Y-147718D01*
Y-148004D01*
X641130D01*
Y-148291D01*
Y-148577D01*
Y-148863D01*
X640844D01*
Y-149150D01*
Y-149436D01*
X640558D01*
Y-149722D01*
Y-150008D01*
Y-150295D01*
X640271D01*
Y-150581D01*
Y-150867D01*
X639985D01*
Y-151154D01*
Y-151440D01*
Y-151726D01*
X639699D01*
Y-152013D01*
Y-152299D01*
X639412D01*
Y-152585D01*
Y-152872D01*
Y-153158D01*
X639126D01*
Y-153444D01*
Y-153730D01*
X638840D01*
Y-154017D01*
Y-154303D01*
Y-154589D01*
X638554D01*
Y-154876D01*
Y-155162D01*
X638267D01*
Y-155448D01*
Y-155735D01*
Y-156021D01*
X637981D01*
Y-156307D01*
Y-156594D01*
X637695D01*
Y-156880D01*
Y-157166D01*
Y-157453D01*
X637408D01*
Y-157739D01*
Y-158025D01*
X637122D01*
Y-158311D01*
Y-158598D01*
Y-158884D01*
X636836D01*
Y-159170D01*
Y-159457D01*
X636549D01*
Y-159743D01*
Y-160029D01*
Y-160316D01*
X636263D01*
Y-160602D01*
Y-160888D01*
X635977D01*
Y-161175D01*
Y-161461D01*
Y-161747D01*
X635690D01*
Y-162034D01*
Y-162320D01*
X635404D01*
Y-162606D01*
Y-162892D01*
Y-163179D01*
X635118D01*
Y-163465D01*
Y-163751D01*
X634831D01*
Y-164038D01*
Y-164324D01*
Y-164610D01*
X634545D01*
Y-164897D01*
Y-165183D01*
X634259D01*
Y-165469D01*
Y-165756D01*
X633973D01*
Y-166042D01*
Y-166328D01*
X633686D01*
Y-166615D01*
Y-166901D01*
Y-167187D01*
X633400D01*
Y-167473D01*
X633114D01*
Y-167760D01*
Y-168046D01*
Y-168333D01*
X632827D01*
Y-168619D01*
X632541D01*
Y-168905D01*
Y-169191D01*
X632255D01*
Y-169478D01*
Y-169764D01*
X631968D01*
Y-170050D01*
Y-170337D01*
X631682D01*
Y-170623D01*
Y-170909D01*
X631396D01*
Y-171196D01*
X631109D01*
Y-171482D01*
Y-171768D01*
X630823D01*
Y-172055D01*
Y-172341D01*
X630537D01*
Y-172627D01*
X630251D01*
Y-172914D01*
X629964D01*
Y-173200D01*
Y-173486D01*
X629678D01*
Y-173772D01*
X629392D01*
Y-174059D01*
Y-174345D01*
X629105D01*
Y-174631D01*
X628819D01*
Y-174918D01*
X628533D01*
Y-175204D01*
Y-175490D01*
X628246D01*
Y-175777D01*
X627960D01*
Y-176063D01*
X627674D01*
Y-176349D01*
X627387D01*
Y-176636D01*
X627101D01*
Y-176922D01*
Y-177208D01*
X626815D01*
Y-177495D01*
X626528D01*
Y-177781D01*
X626242D01*
Y-178067D01*
X625956D01*
Y-178353D01*
X625669D01*
Y-178640D01*
X625383D01*
Y-178926D01*
X625097D01*
Y-179212D01*
X624524D01*
Y-179499D01*
X624238D01*
Y-179785D01*
X623952D01*
Y-180071D01*
X623665D01*
Y-180358D01*
X623379D01*
Y-180644D01*
X622806D01*
Y-180930D01*
X622520D01*
Y-181217D01*
X621947D01*
Y-181503D01*
X621661D01*
Y-181789D01*
X621089D01*
Y-182076D01*
X620802D01*
Y-182362D01*
X620229D01*
Y-182648D01*
X619657D01*
Y-182934D01*
X619084D01*
Y-183221D01*
X618512D01*
Y-183507D01*
X617939D01*
Y-183793D01*
X617080D01*
Y-184080D01*
X616507D01*
Y-184366D01*
X615649D01*
Y-184652D01*
X614503D01*
Y-184939D01*
X613358D01*
Y-185225D01*
X611640D01*
Y-185511D01*
X609636D01*
Y-185798D01*
X609350D01*
Y-185511D01*
Y-185225D01*
Y-184939D01*
Y-184652D01*
Y-184366D01*
Y-184080D01*
Y-183793D01*
Y-183507D01*
Y-183221D01*
Y-182934D01*
Y-182648D01*
Y-182362D01*
Y-182076D01*
Y-181789D01*
Y-181503D01*
Y-181217D01*
Y-180930D01*
Y-180644D01*
Y-180358D01*
Y-180071D01*
Y-179785D01*
Y-179499D01*
Y-179212D01*
Y-178926D01*
Y-178640D01*
Y-178353D01*
Y-178067D01*
Y-177781D01*
Y-177495D01*
Y-177208D01*
Y-176922D01*
Y-176636D01*
Y-176349D01*
X609922D01*
Y-176063D01*
X610495D01*
Y-175777D01*
X611067D01*
Y-175490D01*
X611640D01*
Y-175204D01*
X612213D01*
Y-174918D01*
X612785D01*
Y-174631D01*
X613072D01*
Y-174345D01*
X613644D01*
Y-174059D01*
X613931D01*
Y-173772D01*
X614503D01*
Y-173486D01*
X614790D01*
Y-173200D01*
X615076D01*
Y-172914D01*
X615649D01*
Y-172627D01*
X615935D01*
Y-172341D01*
X616221D01*
Y-172055D01*
X616507D01*
Y-171768D01*
X616794D01*
Y-171482D01*
X617080D01*
Y-171196D01*
X617366D01*
Y-170909D01*
X617653D01*
Y-170623D01*
X617939D01*
Y-170337D01*
X618225D01*
Y-170050D01*
X618512D01*
Y-169764D01*
X618798D01*
Y-169478D01*
Y-169191D01*
X619084D01*
Y-168905D01*
X619371D01*
Y-168619D01*
X619657D01*
Y-168333D01*
Y-168046D01*
X619943D01*
Y-167760D01*
X620229D01*
Y-167473D01*
Y-167187D01*
X620516D01*
Y-166901D01*
Y-166615D01*
X620802D01*
Y-166328D01*
X621089D01*
Y-166042D01*
Y-165756D01*
X621375D01*
Y-165469D01*
Y-165183D01*
X621661D01*
Y-164897D01*
Y-164610D01*
X619943D01*
Y-164324D01*
X617939D01*
Y-164038D01*
X616794D01*
Y-163751D01*
X616221D01*
Y-163465D01*
X615362D01*
Y-163179D01*
X614790D01*
Y-162892D01*
X614503D01*
Y-162606D01*
X613931D01*
Y-162320D01*
X613644D01*
Y-162034D01*
X613358D01*
Y-161747D01*
X613072D01*
Y-161461D01*
X612785D01*
Y-161175D01*
X612499D01*
Y-160888D01*
Y-160602D01*
X612213D01*
Y-160316D01*
X611927D01*
Y-160029D01*
Y-159743D01*
X611640D01*
Y-159457D01*
Y-159170D01*
X611354D01*
Y-158884D01*
Y-158598D01*
X611067D01*
Y-158311D01*
Y-158025D01*
Y-157739D01*
X610781D01*
Y-157453D01*
Y-157166D01*
Y-156880D01*
Y-156594D01*
X610495D01*
Y-156307D01*
Y-156021D01*
Y-155735D01*
Y-155448D01*
Y-155162D01*
Y-154876D01*
Y-154589D01*
X610209D01*
Y-154303D01*
Y-154017D01*
Y-153730D01*
Y-153444D01*
Y-153158D01*
Y-152872D01*
Y-152585D01*
Y-152299D01*
Y-152013D01*
Y-151726D01*
Y-151440D01*
Y-151154D01*
Y-150867D01*
Y-150581D01*
Y-150295D01*
X609922D01*
Y-150008D01*
Y-149722D01*
Y-149436D01*
Y-149150D01*
Y-148863D01*
Y-148577D01*
Y-148291D01*
Y-148004D01*
Y-147718D01*
Y-147432D01*
Y-147145D01*
Y-146859D01*
Y-146573D01*
Y-146286D01*
Y-146000D01*
X609636D01*
Y-145714D01*
Y-145427D01*
Y-145141D01*
Y-144855D01*
Y-144569D01*
Y-144282D01*
Y-143996D01*
Y-143710D01*
Y-143423D01*
Y-143137D01*
Y-142851D01*
Y-142564D01*
Y-142278D01*
Y-141992D01*
Y-141705D01*
Y-141419D01*
X609350D01*
Y-141133D01*
Y-140846D01*
Y-140560D01*
Y-140274D01*
Y-139988D01*
Y-139701D01*
Y-139415D01*
Y-139128D01*
Y-138842D01*
Y-138556D01*
Y-138270D01*
Y-137983D01*
Y-137697D01*
Y-137411D01*
Y-137124D01*
Y-136838D01*
X609063D01*
Y-136552D01*
Y-136265D01*
Y-135979D01*
Y-135693D01*
Y-135406D01*
Y-135120D01*
Y-134834D01*
Y-134547D01*
Y-134261D01*
Y-133975D01*
Y-133689D01*
Y-133402D01*
Y-133116D01*
Y-132830D01*
X608777D01*
Y-132543D01*
Y-132257D01*
Y-131971D01*
Y-131684D01*
Y-131398D01*
Y-131112D01*
Y-130825D01*
Y-130539D01*
Y-130253D01*
Y-129966D01*
Y-129680D01*
Y-129394D01*
Y-129108D01*
Y-128821D01*
Y-128535D01*
Y-128249D01*
X608491D01*
Y-127962D01*
X622234D01*
Y-128249D01*
Y-128535D01*
Y-128821D01*
Y-129108D01*
Y-129394D01*
Y-129680D01*
Y-129966D01*
Y-130253D01*
Y-130539D01*
Y-130825D01*
Y-131112D01*
Y-131398D01*
Y-131684D01*
Y-131971D01*
X622520D01*
Y-132257D01*
Y-132543D01*
Y-132830D01*
Y-133116D01*
Y-133402D01*
Y-133689D01*
Y-133975D01*
Y-134261D01*
Y-134547D01*
Y-134834D01*
Y-135120D01*
Y-135406D01*
Y-135693D01*
Y-135979D01*
Y-136265D01*
Y-136552D01*
Y-136838D01*
Y-137124D01*
Y-137411D01*
Y-137697D01*
Y-137983D01*
Y-138270D01*
Y-138556D01*
Y-138842D01*
Y-139128D01*
Y-139415D01*
Y-139701D01*
Y-139988D01*
Y-140274D01*
Y-140560D01*
Y-140846D01*
Y-141133D01*
Y-141419D01*
Y-141705D01*
Y-141992D01*
Y-142278D01*
Y-142564D01*
Y-142851D01*
Y-143137D01*
Y-143423D01*
Y-143710D01*
X622806D01*
Y-143996D01*
X622520D01*
Y-144282D01*
Y-144569D01*
X622806D01*
Y-144855D01*
Y-145141D01*
Y-145427D01*
Y-145714D01*
Y-146000D01*
Y-146286D01*
Y-146573D01*
Y-146859D01*
Y-147145D01*
Y-147432D01*
Y-147718D01*
Y-148004D01*
Y-148291D01*
Y-148577D01*
Y-148863D01*
Y-149150D01*
Y-149436D01*
Y-149722D01*
Y-150008D01*
Y-150295D01*
Y-150581D01*
Y-150867D01*
Y-151154D01*
Y-151440D01*
Y-151726D01*
Y-152013D01*
X623093D01*
Y-152299D01*
Y-152585D01*
Y-152872D01*
X623379D01*
Y-153158D01*
X623665D01*
Y-153444D01*
X623952D01*
Y-153730D01*
X624811D01*
Y-154017D01*
X625669D01*
Y-153730D01*
X625956D01*
Y-153444D01*
Y-153158D01*
Y-152872D01*
X626242D01*
Y-152585D01*
Y-152299D01*
X626528D01*
Y-152013D01*
Y-151726D01*
Y-151440D01*
X626815D01*
Y-151154D01*
Y-150867D01*
Y-150581D01*
X627101D01*
Y-150295D01*
Y-150008D01*
Y-149722D01*
X627387D01*
Y-149436D01*
Y-149150D01*
Y-148863D01*
X627674D01*
Y-148577D01*
Y-148291D01*
X627960D01*
Y-148004D01*
Y-147718D01*
Y-147432D01*
X628246D01*
Y-147145D01*
Y-146859D01*
Y-146573D01*
X628533D01*
Y-146286D01*
Y-146000D01*
Y-145714D01*
X628819D01*
Y-145427D01*
Y-145141D01*
X629105D01*
Y-144855D01*
Y-144569D01*
Y-144282D01*
X629392D01*
Y-143996D01*
Y-143710D01*
Y-143423D01*
X629678D01*
Y-143137D01*
Y-142851D01*
Y-142564D01*
X629964D01*
Y-142278D01*
Y-141992D01*
X630251D01*
Y-141705D01*
Y-141419D01*
Y-141133D01*
X630537D01*
Y-140846D01*
Y-140560D01*
Y-140274D01*
X630823D01*
Y-139988D01*
Y-139701D01*
Y-139415D01*
X631109D01*
Y-139128D01*
Y-138842D01*
X631396D01*
Y-138556D01*
Y-138270D01*
Y-137983D01*
X631682D01*
Y-137697D01*
Y-137411D01*
Y-137124D01*
X631968D01*
Y-136838D01*
Y-136552D01*
Y-136265D01*
X632255D01*
Y-135979D01*
Y-135693D01*
Y-135406D01*
Y-135120D01*
X632541D01*
Y-134834D01*
Y-134547D01*
Y-134261D01*
Y-133975D01*
X632827D01*
Y-133689D01*
Y-133402D01*
Y-133116D01*
Y-132830D01*
Y-132543D01*
X633114D01*
Y-132257D01*
Y-131971D01*
Y-131684D01*
Y-131398D01*
Y-131112D01*
Y-130825D01*
X633400D01*
Y-130539D01*
Y-130253D01*
Y-129966D01*
Y-129680D01*
Y-129394D01*
Y-129108D01*
Y-128821D01*
Y-128535D01*
Y-128249D01*
Y-127962D01*
X646284D01*
Y-128249D01*
D02*
G37*
%LPC*%
G36*
X552946Y-125099D02*
X544929D01*
Y-125385D01*
Y-125672D01*
Y-125958D01*
Y-126244D01*
Y-126531D01*
X544643D01*
Y-126817D01*
Y-127103D01*
Y-127390D01*
Y-127676D01*
Y-127962D01*
Y-128249D01*
X544357D01*
Y-128535D01*
Y-128821D01*
Y-129108D01*
Y-129394D01*
Y-129680D01*
Y-129966D01*
X544070D01*
Y-130253D01*
Y-130539D01*
Y-130825D01*
Y-131112D01*
Y-131398D01*
Y-131684D01*
X543784D01*
Y-131971D01*
Y-132257D01*
Y-132543D01*
Y-132830D01*
Y-133116D01*
Y-133402D01*
Y-133689D01*
X543498D01*
Y-133975D01*
Y-134261D01*
Y-134547D01*
Y-134834D01*
Y-135120D01*
Y-135406D01*
X543211D01*
Y-135693D01*
Y-135979D01*
Y-136265D01*
X550369D01*
Y-135979D01*
X551514D01*
Y-135693D01*
X552087D01*
Y-135406D01*
X552373D01*
Y-135120D01*
X552660D01*
Y-134834D01*
X552946D01*
Y-134547D01*
X553232D01*
Y-134261D01*
Y-133975D01*
X553519D01*
Y-133689D01*
Y-133402D01*
X553805D01*
Y-133116D01*
Y-132830D01*
X554091D01*
Y-132543D01*
Y-132257D01*
Y-131971D01*
Y-131684D01*
X554378D01*
Y-131398D01*
Y-131112D01*
Y-130825D01*
Y-130539D01*
Y-130253D01*
X554664D01*
Y-129966D01*
Y-129680D01*
Y-129394D01*
Y-129108D01*
Y-128821D01*
Y-128535D01*
Y-128249D01*
Y-127962D01*
Y-127676D01*
Y-127390D01*
Y-127103D01*
X554378D01*
Y-126817D01*
Y-126531D01*
X554091D01*
Y-126244D01*
Y-125958D01*
X553805D01*
Y-125672D01*
X553519D01*
Y-125385D01*
X552946D01*
Y-125099D01*
D02*
G37*
%LPD*%
D10*
X863787Y-202012D02*
Y-162642D01*
X706307Y-123272D02*
X981897D01*
X706307Y-162642D02*
X981897D01*
X509456Y-202012D02*
X981897D01*
X509456Y-83902D02*
X981897D01*
X509456Y-241382D02*
Y-83902D01*
X706307Y-241382D02*
Y-83902D01*
X-671646Y927909D02*
X981897D01*
Y-241382D02*
Y927909D01*
X-671646Y-241382D02*
Y927909D01*
Y-241382D02*
X981897D01*
X720085Y-227604D02*
X716149D01*
Y-230556D01*
X718117D01*
X716149D01*
Y-233508D01*
X722053Y-229572D02*
Y-233508D01*
Y-231540D01*
X723037Y-230556D01*
X724021Y-229572D01*
X725005D01*
X727956Y-233508D02*
X729924D01*
X728940D01*
Y-229572D01*
X727956D01*
X732876Y-228588D02*
X733860Y-227604D01*
X735828D01*
X736812Y-228588D01*
Y-229572D01*
X735828Y-230556D01*
X734844D01*
X735828D01*
X736812Y-231540D01*
Y-232524D01*
X735828Y-233508D01*
X733860D01*
X732876Y-232524D01*
X742716Y-227604D02*
Y-233508D01*
X739764D01*
X738780Y-232524D01*
Y-230556D01*
X739764Y-229572D01*
X742716D01*
X744683Y-234492D02*
X748619D01*
X754523Y-233508D02*
X750587D01*
X754523Y-229572D01*
Y-228588D01*
X753539Y-227604D01*
X751571D01*
X750587Y-228588D01*
X756491D02*
X757475Y-227604D01*
X759442D01*
X760426Y-228588D01*
Y-232524D01*
X759442Y-233508D01*
X757475D01*
X756491Y-232524D01*
Y-228588D01*
X766330Y-233508D02*
X762394D01*
X766330Y-229572D01*
Y-228588D01*
X765346Y-227604D01*
X763378D01*
X762394Y-228588D01*
X772233Y-227604D02*
X770266Y-228588D01*
X768298Y-230556D01*
Y-232524D01*
X769282Y-233508D01*
X771250D01*
X772233Y-232524D01*
Y-231540D01*
X771250Y-230556D01*
X768298D01*
X774201Y-234492D02*
X778137D01*
X784041Y-228588D02*
X783057Y-227604D01*
X781089D01*
X780105Y-228588D01*
Y-232524D01*
X781089Y-233508D01*
X783057D01*
X784041Y-232524D01*
X786009Y-227604D02*
Y-231540D01*
X787976Y-233508D01*
X789944Y-231540D01*
Y-227604D01*
X791912Y-233508D02*
Y-227604D01*
X794864D01*
X795848Y-228588D01*
Y-230556D01*
X794864Y-231540D01*
X791912D01*
X793880D02*
X795848Y-233508D01*
X797816Y-234492D02*
X801752D01*
X803719Y-228588D02*
X804703Y-227604D01*
X806671D01*
X807655Y-228588D01*
Y-232524D01*
X806671Y-233508D01*
X804703D01*
X803719Y-232524D01*
Y-228588D01*
X809623D02*
X810607Y-227604D01*
X812575D01*
X813559Y-228588D01*
Y-232524D01*
X812575Y-233508D01*
X810607D01*
X809623Y-232524D01*
Y-228588D01*
X815527Y-233508D02*
Y-232524D01*
X816510D01*
Y-233508D01*
X815527D01*
X820446D02*
Y-227604D01*
X823398D01*
X824382Y-228588D01*
Y-230556D01*
X823398Y-231540D01*
X820446D01*
X830286Y-229572D02*
X827334D01*
X826350Y-230556D01*
Y-232524D01*
X827334Y-233508D01*
X830286D01*
X832253Y-227604D02*
Y-233508D01*
X835205D01*
X836189Y-232524D01*
Y-231540D01*
Y-230556D01*
X835205Y-229572D01*
X832253D01*
X838157Y-227604D02*
Y-233508D01*
X841109D01*
X842093Y-232524D01*
Y-228588D01*
X841109Y-227604D01*
X838157D01*
X845045Y-233508D02*
X847012D01*
X847996Y-232524D01*
Y-230556D01*
X847012Y-229572D01*
X845045D01*
X844061Y-230556D01*
Y-232524D01*
X845045Y-233508D01*
X853900Y-229572D02*
X850948D01*
X849964Y-230556D01*
Y-232524D01*
X850948Y-233508D01*
X853900D01*
D11*
X327512Y129568D02*
G03*
X327512Y129568I-1750J0D01*
G01*
X320853Y133330D02*
X815940D01*
X320853Y93960D02*
X815940D01*
X320853Y86086D02*
X815940D01*
Y141204D01*
X320853D02*
X815940D01*
X320853Y86086D02*
Y141204D01*
X742103Y86086D02*
Y141204D01*
X696446Y86086D02*
Y141204D01*
X653807Y86086D02*
Y141204D01*
X614448Y86086D02*
Y141204D01*
X583275Y86086D02*
Y141204D01*
X504427Y86086D02*
Y141204D01*
X465697Y86086D02*
Y141204D01*
X438932Y86086D02*
Y141204D01*
X378451Y86086D02*
Y141204D01*
X349980Y86086D02*
Y141204D01*
X324887Y120819D02*
X325762Y119944D01*
X324012Y120819D02*
X324887D01*
X324012D02*
X324887Y121694D01*
X324012Y122569D02*
X324887Y121694D01*
X324012Y122569D02*
X324887D01*
X325762Y123444D01*
X326637Y122569D01*
X327512D01*
X326637Y121694D02*
X327512Y122569D01*
X326637Y121694D02*
X327512Y120819D01*
X326637D02*
X327512D01*
X325762Y119944D02*
X326637Y120819D01*
X324012Y112070D02*
X327512D01*
Y115570D01*
X324012D02*
X327512D01*
X324012Y112070D02*
Y115570D01*
X325762Y104196D02*
X327512Y107696D01*
X324012D02*
X327512D01*
X324012D02*
X325762Y104196D01*
X324012Y96322D02*
X325762Y97197D01*
X327512Y96322D01*
X326637Y98072D02*
X327512Y96322D01*
X326637Y98072D02*
X327512Y99822D01*
X325762Y98947D02*
X327512Y99822D01*
X324012D02*
X325762Y98947D01*
X324012Y99822D02*
X324887Y98072D01*
X324012Y96322D02*
X324887Y98072D01*
X744465Y129392D02*
X746564D01*
X744465Y121518D02*
X746564D01*
X744465Y113644D02*
X746564D01*
X744465Y105770D02*
X746564D01*
X744465Y97896D02*
X746564D01*
X698808Y129392D02*
X700908D01*
X698808Y121518D02*
X700908D01*
X698808Y113644D02*
X700908D01*
X698808Y105770D02*
X700908D01*
X698808Y97896D02*
X700908D01*
X658268Y129917D02*
X656694D01*
X656169Y129392D01*
Y128343D01*
X656694Y127818D01*
X658268D01*
X661417D02*
X659318D01*
X661417Y129917D01*
Y130442D01*
X660892Y130967D01*
X659843D01*
X659318Y130442D01*
X664566Y130967D02*
X662467D01*
Y129392D01*
X663516Y129917D01*
X664041D01*
X664566Y129392D01*
Y128343D01*
X664041Y127818D01*
X662991D01*
X662467Y128343D01*
X665615Y130442D02*
X666140Y130967D01*
X667190D01*
X667714Y130442D01*
Y128343D01*
X667190Y127818D01*
X666140D01*
X665615Y128343D01*
Y130442D01*
X668764Y130967D02*
Y127818D01*
Y129392D01*
X669289Y129917D01*
X670338D01*
X670863Y129392D01*
Y127818D01*
X671912D02*
Y129917D01*
X673487D01*
X674012Y129392D01*
Y127818D01*
X677160D02*
X675061D01*
X677160Y129917D01*
Y130442D01*
X676635Y130967D01*
X675586D01*
X675061Y130442D01*
X680309Y130967D02*
X678210D01*
Y129392D01*
X679259Y129917D01*
X679784D01*
X680309Y129392D01*
Y128343D01*
X679784Y127818D01*
X678734D01*
X678210Y128343D01*
X681358Y130442D02*
X681883Y130967D01*
X682933D01*
X683457Y130442D01*
Y128343D01*
X682933Y127818D01*
X681883D01*
X681358Y128343D01*
Y130442D01*
X658268Y122043D02*
X656694D01*
X656169Y121518D01*
Y120469D01*
X656694Y119944D01*
X658268D01*
X660892D02*
Y123093D01*
X659318Y121518D01*
X661417D01*
X662467Y122568D02*
X662991Y123093D01*
X664041D01*
X664566Y122568D01*
Y122043D01*
X664041Y121518D01*
X664566Y120994D01*
Y120469D01*
X664041Y119944D01*
X662991D01*
X662467Y120469D01*
Y120994D01*
X662991Y121518D01*
X662467Y122043D01*
Y122568D01*
X662991Y121518D02*
X664041D01*
X665615Y122568D02*
X666140Y123093D01*
X667190D01*
X667714Y122568D01*
Y120469D01*
X667190Y119944D01*
X666140D01*
X665615Y120469D01*
Y122568D01*
X668764Y123093D02*
Y119944D01*
Y121518D01*
X669289Y122043D01*
X670338D01*
X670863Y121518D01*
Y119944D01*
X671912D02*
Y122043D01*
X673487D01*
X674012Y121518D01*
Y119944D01*
X676635D02*
Y123093D01*
X675061Y121518D01*
X677160D01*
X678210Y122568D02*
X678734Y123093D01*
X679784D01*
X680309Y122568D01*
Y122043D01*
X679784Y121518D01*
X680309Y120994D01*
Y120469D01*
X679784Y119944D01*
X678734D01*
X678210Y120469D01*
Y120994D01*
X678734Y121518D01*
X678210Y122043D01*
Y122568D01*
X678734Y121518D02*
X679784D01*
X681358Y122568D02*
X681883Y123093D01*
X682933D01*
X683457Y122568D01*
Y120469D01*
X682933Y119944D01*
X681883D01*
X681358Y120469D01*
Y122568D01*
X657219Y112070D02*
X656169Y113120D01*
Y114169D01*
X657219Y115219D01*
X658793Y112070D02*
Y115219D01*
X659843Y114169D01*
X660892Y115219D01*
Y112070D01*
X661942D02*
X662991D01*
X662467D01*
Y114169D01*
X661942D01*
X664566D02*
X666665Y112070D01*
X665615Y113120D01*
X666665Y114169D01*
X664566Y112070D01*
X669289D02*
X668239D01*
X667714Y112595D01*
Y113644D01*
X668239Y114169D01*
X669289D01*
X669813Y113644D01*
Y113120D01*
X667714D01*
X672962Y115219D02*
Y112070D01*
X671388D01*
X670863Y112595D01*
Y113644D01*
X671388Y114169D01*
X672962D01*
X674012Y112070D02*
X675061Y113120D01*
Y114169D01*
X674012Y115219D01*
X658268Y106295D02*
X656694D01*
X656169Y105770D01*
Y104721D01*
X656694Y104196D01*
X658268D01*
X659318Y106820D02*
X659843Y107345D01*
X660892D01*
X661417Y106820D01*
Y106295D01*
X660892Y105770D01*
X660368D01*
X660892D01*
X661417Y105246D01*
Y104721D01*
X660892Y104196D01*
X659843D01*
X659318Y104721D01*
X664566Y107345D02*
X662467D01*
Y105770D01*
X663516Y106295D01*
X664041D01*
X664566Y105770D01*
Y104721D01*
X664041Y104196D01*
X662991D01*
X662467Y104721D01*
X665615Y106820D02*
X666140Y107345D01*
X667190D01*
X667714Y106820D01*
Y104721D01*
X667190Y104196D01*
X666140D01*
X665615Y104721D01*
Y106820D01*
X668764Y107345D02*
Y104196D01*
Y105770D01*
X669289Y106295D01*
X670338D01*
X670863Y105770D01*
Y104196D01*
X674012D02*
X671912D01*
X674012Y106295D01*
Y106820D01*
X673487Y107345D01*
X672437D01*
X671912Y106820D01*
X677160Y107345D02*
X675061D01*
Y105770D01*
X676111Y106295D01*
X676635D01*
X677160Y105770D01*
Y104721D01*
X676635Y104196D01*
X675586D01*
X675061Y104721D01*
X678210Y106820D02*
X678734Y107345D01*
X679784D01*
X680309Y106820D01*
Y104721D01*
X679784Y104196D01*
X678734D01*
X678210Y104721D01*
Y106820D01*
X656169Y98421D02*
X657219Y96322D01*
X658268Y98421D01*
X661417Y99471D02*
X660368Y98946D01*
X659318Y97896D01*
Y96847D01*
X659843Y96322D01*
X660892D01*
X661417Y96847D01*
Y97372D01*
X660892Y97896D01*
X659318D01*
X662467Y98946D02*
X662991Y99471D01*
X664041D01*
X664566Y98946D01*
Y96847D01*
X664041Y96322D01*
X662991D01*
X662467Y96847D01*
Y98946D01*
X665615Y99471D02*
Y96322D01*
Y97896D01*
X666140Y98421D01*
X667190D01*
X667714Y97896D01*
Y96322D01*
X670863D02*
X668764D01*
X670863Y98421D01*
Y98946D01*
X670338Y99471D01*
X669289D01*
X668764Y98946D01*
X674012Y99471D02*
X671912D01*
Y97896D01*
X672962Y98421D01*
X673487D01*
X674012Y97896D01*
Y96847D01*
X673487Y96322D01*
X672437D01*
X671912Y96847D01*
X675061Y96322D02*
Y98421D01*
X675586D01*
X676111Y97896D01*
Y96322D01*
Y97896D01*
X676635Y98421D01*
X677160Y97896D01*
Y96322D01*
X679784D02*
Y99471D01*
X678210Y97896D01*
X680309D01*
X683457Y99471D02*
X681358D01*
Y97896D01*
X682408Y98421D01*
X682933D01*
X683457Y97896D01*
Y96847D01*
X682933Y96322D01*
X681883D01*
X681358Y96847D01*
X684507Y96322D02*
Y98421D01*
X685032D01*
X685556Y97896D01*
Y96322D01*
Y97896D01*
X686081Y98421D01*
X686606Y97896D01*
Y96322D01*
X687655Y98421D02*
X689754Y96322D01*
X688705Y97372D01*
X689754Y98421D01*
X687655Y96322D01*
X690804Y98946D02*
X691329Y99471D01*
X692378D01*
X692903Y98946D01*
Y96847D01*
X692378Y96322D01*
X691329D01*
X690804Y96847D01*
Y98946D01*
X616810Y127818D02*
Y130967D01*
X618384D01*
X618909Y130442D01*
Y129392D01*
X618384Y128868D01*
X616810D01*
X617860D02*
X618909Y127818D01*
X620483D02*
X621533D01*
X622058Y128343D01*
Y129392D01*
X621533Y129917D01*
X620483D01*
X619958Y129392D01*
Y128343D01*
X620483Y127818D01*
X623107Y129917D02*
Y128343D01*
X623632Y127818D01*
X625206D01*
Y129917D01*
X626256Y127818D02*
Y129917D01*
X627830D01*
X628355Y129392D01*
Y127818D01*
X631503Y130967D02*
Y127818D01*
X629929D01*
X629404Y128343D01*
Y129392D01*
X629929Y129917D01*
X631503D01*
X634127Y127818D02*
X633078D01*
X632553Y128343D01*
Y129392D01*
X633078Y129917D01*
X634127D01*
X634652Y129392D01*
Y128868D01*
X632553D01*
X637801Y130967D02*
Y127818D01*
X636226D01*
X635702Y128343D01*
Y129392D01*
X636226Y129917D01*
X637801D01*
X616810Y119944D02*
Y123093D01*
X618384D01*
X618909Y122568D01*
Y121518D01*
X618384Y120994D01*
X616810D01*
X617860D02*
X618909Y119944D01*
X620483D02*
X621533D01*
X622058Y120469D01*
Y121518D01*
X621533Y122043D01*
X620483D01*
X619958Y121518D01*
Y120469D01*
X620483Y119944D01*
X623107Y122043D02*
Y120469D01*
X623632Y119944D01*
X625206D01*
Y122043D01*
X626256Y119944D02*
Y122043D01*
X627830D01*
X628355Y121518D01*
Y119944D01*
X631503Y123093D02*
Y119944D01*
X629929D01*
X629404Y120469D01*
Y121518D01*
X629929Y122043D01*
X631503D01*
X634127Y119944D02*
X633078D01*
X632553Y120469D01*
Y121518D01*
X633078Y122043D01*
X634127D01*
X634652Y121518D01*
Y120994D01*
X632553D01*
X637801Y123093D02*
Y119944D01*
X636226D01*
X635702Y120469D01*
Y121518D01*
X636226Y122043D01*
X637801D01*
X617860Y112070D02*
X616810Y113120D01*
Y114169D01*
X617860Y115219D01*
X619434Y112070D02*
Y115219D01*
X620483Y114169D01*
X621533Y115219D01*
Y112070D01*
X622582D02*
X623632D01*
X623107D01*
Y114169D01*
X622582D01*
X625206D02*
X627305Y112070D01*
X626256Y113120D01*
X627305Y114169D01*
X625206Y112070D01*
X629929D02*
X628880D01*
X628355Y112595D01*
Y113644D01*
X628880Y114169D01*
X629929D01*
X630454Y113644D01*
Y113120D01*
X628355D01*
X633602Y115219D02*
Y112070D01*
X632028D01*
X631503Y112595D01*
Y113644D01*
X632028Y114169D01*
X633602D01*
X634652Y112070D02*
X635702Y113120D01*
Y114169D01*
X634652Y115219D01*
X616810Y104196D02*
Y107345D01*
X618384D01*
X618909Y106820D01*
Y105770D01*
X618384Y105246D01*
X616810D01*
X617860D02*
X618909Y104196D01*
X620483D02*
X621533D01*
X622058Y104721D01*
Y105770D01*
X621533Y106295D01*
X620483D01*
X619958Y105770D01*
Y104721D01*
X620483Y104196D01*
X623107Y106295D02*
Y104721D01*
X623632Y104196D01*
X625206D01*
Y106295D01*
X626256Y104196D02*
Y106295D01*
X627830D01*
X628355Y105770D01*
Y104196D01*
X631503Y107345D02*
Y104196D01*
X629929D01*
X629404Y104721D01*
Y105770D01*
X629929Y106295D01*
X631503D01*
X634127Y104196D02*
X633078D01*
X632553Y104721D01*
Y105770D01*
X633078Y106295D01*
X634127D01*
X634652Y105770D01*
Y105246D01*
X632553D01*
X637801Y107345D02*
Y104196D01*
X636226D01*
X635702Y104721D01*
Y105770D01*
X636226Y106295D01*
X637801D01*
X616810Y96322D02*
Y99471D01*
X618384D01*
X618909Y98946D01*
Y97896D01*
X618384Y97372D01*
X616810D01*
X617860D02*
X618909Y96322D01*
X620483D02*
X621533D01*
X622058Y96847D01*
Y97896D01*
X621533Y98421D01*
X620483D01*
X619958Y97896D01*
Y96847D01*
X620483Y96322D01*
X623107Y98421D02*
Y96847D01*
X623632Y96322D01*
X625206D01*
Y98421D01*
X626256Y96322D02*
Y98421D01*
X627830D01*
X628355Y97896D01*
Y96322D01*
X631503Y99471D02*
Y96322D01*
X629929D01*
X629404Y96847D01*
Y97896D01*
X629929Y98421D01*
X631503D01*
X634127Y96322D02*
X633078D01*
X632553Y96847D01*
Y97896D01*
X633078Y98421D01*
X634127D01*
X634652Y97896D01*
Y97372D01*
X632553D01*
X637801Y99471D02*
Y96322D01*
X636226D01*
X635702Y96847D01*
Y97896D01*
X636226Y98421D01*
X637801D01*
X585637Y127818D02*
Y130967D01*
X587211D01*
X587736Y130442D01*
Y129392D01*
X587211Y128868D01*
X585637D01*
X589310Y129917D02*
X590360D01*
X590884Y129392D01*
Y127818D01*
X589310D01*
X588785Y128343D01*
X589310Y128868D01*
X590884D01*
X594033Y130967D02*
Y127818D01*
X592459D01*
X591934Y128343D01*
Y129392D01*
X592459Y129917D01*
X594033D01*
X585637Y119944D02*
Y123093D01*
X587211D01*
X587736Y122568D01*
Y121518D01*
X587211Y120994D01*
X585637D01*
X589310Y122043D02*
X590360D01*
X590884Y121518D01*
Y119944D01*
X589310D01*
X588785Y120469D01*
X589310Y120994D01*
X590884D01*
X594033Y123093D02*
Y119944D01*
X592459D01*
X591934Y120469D01*
Y121518D01*
X592459Y122043D01*
X594033D01*
X585637Y112070D02*
Y115219D01*
X587211D01*
X587736Y114694D01*
Y113644D01*
X587211Y113120D01*
X585637D01*
X589310Y114169D02*
X590360D01*
X590884Y113644D01*
Y112070D01*
X589310D01*
X588785Y112595D01*
X589310Y113120D01*
X590884D01*
X594033Y115219D02*
Y112070D01*
X592459D01*
X591934Y112595D01*
Y113644D01*
X592459Y114169D01*
X594033D01*
X585637Y104196D02*
Y107345D01*
X587211D01*
X587736Y106820D01*
Y105770D01*
X587211Y105246D01*
X585637D01*
X589310Y106295D02*
X590360D01*
X590884Y105770D01*
Y104196D01*
X589310D01*
X588785Y104721D01*
X589310Y105246D01*
X590884D01*
X594033Y107345D02*
Y104196D01*
X592459D01*
X591934Y104721D01*
Y105770D01*
X592459Y106295D01*
X594033D01*
X585637Y99471D02*
Y97372D01*
X586686Y96322D01*
X587736Y97372D01*
Y99471D01*
X588785Y96322D02*
X589835D01*
X589310D01*
Y98421D01*
X588785D01*
X591934D02*
X592983D01*
X593508Y97896D01*
Y96322D01*
X591934D01*
X591409Y96847D01*
X591934Y97372D01*
X593508D01*
X506789Y130967D02*
X508888D01*
X507838D01*
Y127818D01*
X510462D02*
X511512D01*
X512037Y128343D01*
Y129392D01*
X511512Y129917D01*
X510462D01*
X509937Y129392D01*
Y128343D01*
X510462Y127818D01*
X513086Y126769D02*
Y129917D01*
X514660D01*
X515185Y129392D01*
Y128343D01*
X514660Y127818D01*
X513086D01*
X519383Y130967D02*
Y127818D01*
X521482D01*
X523057Y129917D02*
X524106D01*
X524631Y129392D01*
Y127818D01*
X523057D01*
X522532Y128343D01*
X523057Y128868D01*
X524631D01*
X525680Y129917D02*
Y128343D01*
X526205Y127818D01*
X527779D01*
Y127293D01*
X527255Y126769D01*
X526730D01*
X527779Y127818D02*
Y129917D01*
X530403Y127818D02*
X529354D01*
X528829Y128343D01*
Y129392D01*
X529354Y129917D01*
X530403D01*
X530928Y129392D01*
Y128868D01*
X528829D01*
X531978Y129917D02*
Y127818D01*
Y128868D01*
X532502Y129392D01*
X533027Y129917D01*
X533552D01*
X538275Y129392D02*
X540374D01*
X544572Y130967D02*
Y127818D01*
X546146D01*
X546671Y128343D01*
Y128868D01*
X546146Y129392D01*
X544572D01*
X546146D01*
X546671Y129917D01*
Y130442D01*
X546146Y130967D01*
X544572D01*
X548245Y127818D02*
X549295D01*
X549820Y128343D01*
Y129392D01*
X549295Y129917D01*
X548245D01*
X547721Y129392D01*
Y128343D01*
X548245Y127818D01*
X551394Y130442D02*
Y129917D01*
X550869D01*
X551919D01*
X551394D01*
Y128343D01*
X551919Y127818D01*
X554018Y130442D02*
Y129917D01*
X553493D01*
X554543D01*
X554018D01*
Y128343D01*
X554543Y127818D01*
X556642D02*
X557691D01*
X558216Y128343D01*
Y129392D01*
X557691Y129917D01*
X556642D01*
X556117Y129392D01*
Y128343D01*
X556642Y127818D01*
X559265D02*
Y129917D01*
X559790D01*
X560315Y129392D01*
Y127818D01*
Y129392D01*
X560840Y129917D01*
X561365Y129392D01*
Y127818D01*
X565563Y130967D02*
Y127818D01*
X567662D01*
X569236Y129917D02*
X570286D01*
X570810Y129392D01*
Y127818D01*
X569236D01*
X568711Y128343D01*
X569236Y128868D01*
X570810D01*
X571860Y129917D02*
Y128343D01*
X572385Y127818D01*
X573959D01*
Y127293D01*
X573434Y126769D01*
X572909D01*
X573959Y127818D02*
Y129917D01*
X576583Y127818D02*
X575533D01*
X575008Y128343D01*
Y129392D01*
X575533Y129917D01*
X576583D01*
X577107Y129392D01*
Y128868D01*
X575008D01*
X578157Y129917D02*
Y127818D01*
Y128868D01*
X578682Y129392D01*
X579207Y129917D01*
X579731D01*
X506789Y123093D02*
X508888D01*
X507838D01*
Y119944D01*
X510462D02*
X511512D01*
X512037Y120469D01*
Y121518D01*
X511512Y122043D01*
X510462D01*
X509937Y121518D01*
Y120469D01*
X510462Y119944D01*
X513086Y118895D02*
Y122043D01*
X514660D01*
X515185Y121518D01*
Y120469D01*
X514660Y119944D01*
X513086D01*
X519383Y123093D02*
Y119944D01*
X521482D01*
X523057Y122043D02*
X524106D01*
X524631Y121518D01*
Y119944D01*
X523057D01*
X522532Y120469D01*
X523057Y120994D01*
X524631D01*
X525680Y122043D02*
Y120469D01*
X526205Y119944D01*
X527779D01*
Y119419D01*
X527255Y118895D01*
X526730D01*
X527779Y119944D02*
Y122043D01*
X530403Y119944D02*
X529354D01*
X528829Y120469D01*
Y121518D01*
X529354Y122043D01*
X530403D01*
X530928Y121518D01*
Y120994D01*
X528829D01*
X531978Y122043D02*
Y119944D01*
Y120994D01*
X532502Y121518D01*
X533027Y122043D01*
X533552D01*
X538275Y121518D02*
X540374D01*
X544572Y123093D02*
Y119944D01*
X546146D01*
X546671Y120469D01*
Y120994D01*
X546146Y121518D01*
X544572D01*
X546146D01*
X546671Y122043D01*
Y122568D01*
X546146Y123093D01*
X544572D01*
X548245Y119944D02*
X549295D01*
X549820Y120469D01*
Y121518D01*
X549295Y122043D01*
X548245D01*
X547721Y121518D01*
Y120469D01*
X548245Y119944D01*
X551394Y122568D02*
Y122043D01*
X550869D01*
X551919D01*
X551394D01*
Y120469D01*
X551919Y119944D01*
X554018Y122568D02*
Y122043D01*
X553493D01*
X554543D01*
X554018D01*
Y120469D01*
X554543Y119944D01*
X556642D02*
X557691D01*
X558216Y120469D01*
Y121518D01*
X557691Y122043D01*
X556642D01*
X556117Y121518D01*
Y120469D01*
X556642Y119944D01*
X559265D02*
Y122043D01*
X559790D01*
X560315Y121518D01*
Y119944D01*
Y121518D01*
X560840Y122043D01*
X561365Y121518D01*
Y119944D01*
X565563Y123093D02*
Y119944D01*
X567662D01*
X569236Y122043D02*
X570286D01*
X570810Y121518D01*
Y119944D01*
X569236D01*
X568711Y120469D01*
X569236Y120994D01*
X570810D01*
X571860Y122043D02*
Y120469D01*
X572385Y119944D01*
X573959D01*
Y119419D01*
X573434Y118895D01*
X572909D01*
X573959Y119944D02*
Y122043D01*
X576583Y119944D02*
X575533D01*
X575008Y120469D01*
Y121518D01*
X575533Y122043D01*
X576583D01*
X577107Y121518D01*
Y120994D01*
X575008D01*
X578157Y122043D02*
Y119944D01*
Y120994D01*
X578682Y121518D01*
X579207Y122043D01*
X579731D01*
X506789Y115219D02*
X508888D01*
X507838D01*
Y112070D01*
X510462D02*
X511512D01*
X512037Y112595D01*
Y113644D01*
X511512Y114169D01*
X510462D01*
X509937Y113644D01*
Y112595D01*
X510462Y112070D01*
X513086Y111021D02*
Y114169D01*
X514660D01*
X515185Y113644D01*
Y112595D01*
X514660Y112070D01*
X513086D01*
X519383Y115219D02*
Y112070D01*
X521482D01*
X523057Y114169D02*
X524106D01*
X524631Y113644D01*
Y112070D01*
X523057D01*
X522532Y112595D01*
X523057Y113120D01*
X524631D01*
X525680Y114169D02*
Y112595D01*
X526205Y112070D01*
X527779D01*
Y111545D01*
X527255Y111021D01*
X526730D01*
X527779Y112070D02*
Y114169D01*
X530403Y112070D02*
X529354D01*
X528829Y112595D01*
Y113644D01*
X529354Y114169D01*
X530403D01*
X530928Y113644D01*
Y113120D01*
X528829D01*
X531978Y114169D02*
Y112070D01*
Y113120D01*
X532502Y113644D01*
X533027Y114169D01*
X533552D01*
X538275Y113644D02*
X540374D01*
X544572Y115219D02*
Y112070D01*
X546146D01*
X546671Y112595D01*
Y113120D01*
X546146Y113644D01*
X544572D01*
X546146D01*
X546671Y114169D01*
Y114694D01*
X546146Y115219D01*
X544572D01*
X548245Y112070D02*
X549295D01*
X549820Y112595D01*
Y113644D01*
X549295Y114169D01*
X548245D01*
X547721Y113644D01*
Y112595D01*
X548245Y112070D01*
X551394Y114694D02*
Y114169D01*
X550869D01*
X551919D01*
X551394D01*
Y112595D01*
X551919Y112070D01*
X554018Y114694D02*
Y114169D01*
X553493D01*
X554543D01*
X554018D01*
Y112595D01*
X554543Y112070D01*
X556642D02*
X557691D01*
X558216Y112595D01*
Y113644D01*
X557691Y114169D01*
X556642D01*
X556117Y113644D01*
Y112595D01*
X556642Y112070D01*
X559265D02*
Y114169D01*
X559790D01*
X560315Y113644D01*
Y112070D01*
Y113644D01*
X560840Y114169D01*
X561365Y113644D01*
Y112070D01*
X565563Y115219D02*
Y112070D01*
X567662D01*
X569236Y114169D02*
X570286D01*
X570810Y113644D01*
Y112070D01*
X569236D01*
X568711Y112595D01*
X569236Y113120D01*
X570810D01*
X571860Y114169D02*
Y112595D01*
X572385Y112070D01*
X573959D01*
Y111545D01*
X573434Y111021D01*
X572909D01*
X573959Y112070D02*
Y114169D01*
X576583Y112070D02*
X575533D01*
X575008Y112595D01*
Y113644D01*
X575533Y114169D01*
X576583D01*
X577107Y113644D01*
Y113120D01*
X575008D01*
X578157Y114169D02*
Y112070D01*
Y113120D01*
X578682Y113644D01*
X579207Y114169D01*
X579731D01*
X506789Y107345D02*
X508888D01*
X507838D01*
Y104196D01*
X510462D02*
X511512D01*
X512037Y104721D01*
Y105770D01*
X511512Y106295D01*
X510462D01*
X509937Y105770D01*
Y104721D01*
X510462Y104196D01*
X513086Y103147D02*
Y106295D01*
X514660D01*
X515185Y105770D01*
Y104721D01*
X514660Y104196D01*
X513086D01*
X519383Y107345D02*
Y104196D01*
X521482D01*
X523057Y106295D02*
X524106D01*
X524631Y105770D01*
Y104196D01*
X523057D01*
X522532Y104721D01*
X523057Y105246D01*
X524631D01*
X525680Y106295D02*
Y104721D01*
X526205Y104196D01*
X527779D01*
Y103671D01*
X527255Y103147D01*
X526730D01*
X527779Y104196D02*
Y106295D01*
X530403Y104196D02*
X529354D01*
X528829Y104721D01*
Y105770D01*
X529354Y106295D01*
X530403D01*
X530928Y105770D01*
Y105246D01*
X528829D01*
X531978Y106295D02*
Y104196D01*
Y105246D01*
X532502Y105770D01*
X533027Y106295D01*
X533552D01*
X538275Y105770D02*
X540374D01*
X544572Y107345D02*
Y104196D01*
X546146D01*
X546671Y104721D01*
Y105246D01*
X546146Y105770D01*
X544572D01*
X546146D01*
X546671Y106295D01*
Y106820D01*
X546146Y107345D01*
X544572D01*
X548245Y104196D02*
X549295D01*
X549820Y104721D01*
Y105770D01*
X549295Y106295D01*
X548245D01*
X547721Y105770D01*
Y104721D01*
X548245Y104196D01*
X551394Y106820D02*
Y106295D01*
X550869D01*
X551919D01*
X551394D01*
Y104721D01*
X551919Y104196D01*
X554018Y106820D02*
Y106295D01*
X553493D01*
X554543D01*
X554018D01*
Y104721D01*
X554543Y104196D01*
X556642D02*
X557691D01*
X558216Y104721D01*
Y105770D01*
X557691Y106295D01*
X556642D01*
X556117Y105770D01*
Y104721D01*
X556642Y104196D01*
X559265D02*
Y106295D01*
X559790D01*
X560315Y105770D01*
Y104196D01*
Y105770D01*
X560840Y106295D01*
X561365Y105770D01*
Y104196D01*
X565563Y107345D02*
Y104196D01*
X567662D01*
X569236Y106295D02*
X570286D01*
X570810Y105770D01*
Y104196D01*
X569236D01*
X568711Y104721D01*
X569236Y105246D01*
X570810D01*
X571860Y106295D02*
Y104721D01*
X572385Y104196D01*
X573959D01*
Y103671D01*
X573434Y103147D01*
X572909D01*
X573959Y104196D02*
Y106295D01*
X576583Y104196D02*
X575533D01*
X575008Y104721D01*
Y105770D01*
X575533Y106295D01*
X576583D01*
X577107Y105770D01*
Y105246D01*
X575008D01*
X578157Y106295D02*
Y104196D01*
Y105246D01*
X578682Y105770D01*
X579207Y106295D01*
X579731D01*
X506789Y99471D02*
X508888D01*
X507838D01*
Y96322D01*
X510462D02*
X511512D01*
X512037Y96847D01*
Y97896D01*
X511512Y98421D01*
X510462D01*
X509937Y97896D01*
Y96847D01*
X510462Y96322D01*
X513086Y95272D02*
Y98421D01*
X514660D01*
X515185Y97896D01*
Y96847D01*
X514660Y96322D01*
X513086D01*
X519383Y99471D02*
Y96322D01*
X521482D01*
X523057Y98421D02*
X524106D01*
X524631Y97896D01*
Y96322D01*
X523057D01*
X522532Y96847D01*
X523057Y97372D01*
X524631D01*
X525680Y98421D02*
Y96847D01*
X526205Y96322D01*
X527779D01*
Y95797D01*
X527255Y95272D01*
X526730D01*
X527779Y96322D02*
Y98421D01*
X530403Y96322D02*
X529354D01*
X528829Y96847D01*
Y97896D01*
X529354Y98421D01*
X530403D01*
X530928Y97896D01*
Y97372D01*
X528829D01*
X531978Y98421D02*
Y96322D01*
Y97372D01*
X532502Y97896D01*
X533027Y98421D01*
X533552D01*
X538275Y97896D02*
X540374D01*
X544572Y99471D02*
Y96322D01*
X546146D01*
X546671Y96847D01*
Y97372D01*
X546146Y97896D01*
X544572D01*
X546146D01*
X546671Y98421D01*
Y98946D01*
X546146Y99471D01*
X544572D01*
X548245Y96322D02*
X549295D01*
X549820Y96847D01*
Y97896D01*
X549295Y98421D01*
X548245D01*
X547721Y97896D01*
Y96847D01*
X548245Y96322D01*
X551394Y98946D02*
Y98421D01*
X550869D01*
X551919D01*
X551394D01*
Y96847D01*
X551919Y96322D01*
X554018Y98946D02*
Y98421D01*
X553493D01*
X554543D01*
X554018D01*
Y96847D01*
X554543Y96322D01*
X556642D02*
X557691D01*
X558216Y96847D01*
Y97896D01*
X557691Y98421D01*
X556642D01*
X556117Y97896D01*
Y96847D01*
X556642Y96322D01*
X559265D02*
Y98421D01*
X559790D01*
X560315Y97896D01*
Y96322D01*
Y97896D01*
X560840Y98421D01*
X561365Y97896D01*
Y96322D01*
X565563Y99471D02*
Y96322D01*
X567662D01*
X569236Y98421D02*
X570286D01*
X570810Y97896D01*
Y96322D01*
X569236D01*
X568711Y96847D01*
X569236Y97372D01*
X570810D01*
X571860Y98421D02*
Y96847D01*
X572385Y96322D01*
X573959D01*
Y95797D01*
X573434Y95272D01*
X572909D01*
X573959Y96322D02*
Y98421D01*
X576583Y96322D02*
X575533D01*
X575008Y96847D01*
Y97896D01*
X575533Y98421D01*
X576583D01*
X577107Y97896D01*
Y97372D01*
X575008D01*
X578157Y98421D02*
Y96322D01*
Y97372D01*
X578682Y97896D01*
X579207Y98421D01*
X579731D01*
X468059Y127818D02*
Y130967D01*
X469633D01*
X470158Y130442D01*
Y129392D01*
X469633Y128868D01*
X468059D01*
X469109D02*
X470158Y127818D01*
X471733D02*
X472782D01*
X473307Y128343D01*
Y129392D01*
X472782Y129917D01*
X471733D01*
X471208Y129392D01*
Y128343D01*
X471733Y127818D01*
X474356Y129917D02*
Y128343D01*
X474881Y127818D01*
X476455D01*
Y129917D01*
X477505Y127818D02*
Y129917D01*
X479079D01*
X479604Y129392D01*
Y127818D01*
X482753Y130967D02*
Y127818D01*
X481178D01*
X480653Y128343D01*
Y129392D01*
X481178Y129917D01*
X482753D01*
X468059Y119944D02*
Y123093D01*
X469633D01*
X470158Y122568D01*
Y121518D01*
X469633Y120994D01*
X468059D01*
X469109D02*
X470158Y119944D01*
X471733D02*
X472782D01*
X473307Y120469D01*
Y121518D01*
X472782Y122043D01*
X471733D01*
X471208Y121518D01*
Y120469D01*
X471733Y119944D01*
X474356Y122043D02*
Y120469D01*
X474881Y119944D01*
X476455D01*
Y122043D01*
X477505Y119944D02*
Y122043D01*
X479079D01*
X479604Y121518D01*
Y119944D01*
X482753Y123093D02*
Y119944D01*
X481178D01*
X480653Y120469D01*
Y121518D01*
X481178Y122043D01*
X482753D01*
X468059Y112070D02*
Y115219D01*
X469633D01*
X470158Y114694D01*
Y113644D01*
X469633Y113120D01*
X468059D01*
X469109D02*
X470158Y112070D01*
X471733D02*
X472782D01*
X473307Y112595D01*
Y113644D01*
X472782Y114169D01*
X471733D01*
X471208Y113644D01*
Y112595D01*
X471733Y112070D01*
X474356Y114169D02*
Y112595D01*
X474881Y112070D01*
X476455D01*
Y114169D01*
X477505Y112070D02*
Y114169D01*
X479079D01*
X479604Y113644D01*
Y112070D01*
X482753Y115219D02*
Y112070D01*
X481178D01*
X480653Y112595D01*
Y113644D01*
X481178Y114169D01*
X482753D01*
X468059Y104196D02*
Y107345D01*
X469633D01*
X470158Y106820D01*
Y105770D01*
X469633Y105246D01*
X468059D01*
X469109D02*
X470158Y104196D01*
X471733D02*
X472782D01*
X473307Y104721D01*
Y105770D01*
X472782Y106295D01*
X471733D01*
X471208Y105770D01*
Y104721D01*
X471733Y104196D01*
X474356Y106295D02*
Y104721D01*
X474881Y104196D01*
X476455D01*
Y106295D01*
X477505Y104196D02*
Y106295D01*
X479079D01*
X479604Y105770D01*
Y104196D01*
X482753Y107345D02*
Y104196D01*
X481178D01*
X480653Y104721D01*
Y105770D01*
X481178Y106295D01*
X482753D01*
X468059Y96322D02*
Y99471D01*
X469633D01*
X470158Y98946D01*
Y97896D01*
X469633Y97372D01*
X468059D01*
X469109D02*
X470158Y96322D01*
X471733D02*
X472782D01*
X473307Y96847D01*
Y97896D01*
X472782Y98421D01*
X471733D01*
X471208Y97896D01*
Y96847D01*
X471733Y96322D01*
X474356Y98421D02*
Y96847D01*
X474881Y96322D01*
X476455D01*
Y98421D01*
X477505Y96322D02*
Y98421D01*
X479079D01*
X479604Y97896D01*
Y96322D01*
X482753Y99471D02*
Y96322D01*
X481178D01*
X480653Y96847D01*
Y97896D01*
X481178Y98421D01*
X482753D01*
X441294Y127818D02*
Y130967D01*
X443393Y127818D01*
Y130967D01*
X444443Y127818D02*
Y130967D01*
X446017D01*
X446542Y130442D01*
Y129392D01*
X446017Y128868D01*
X444443D01*
X447591Y130967D02*
X449690D01*
X448641D01*
Y127818D01*
X450740Y130967D02*
Y127818D01*
Y129392D01*
X452839D01*
Y130967D01*
Y127818D01*
X441294Y119944D02*
Y123093D01*
X443393Y119944D01*
Y123093D01*
X444443Y119944D02*
Y123093D01*
X446017D01*
X446542Y122568D01*
Y121518D01*
X446017Y120994D01*
X444443D01*
X447591Y123093D02*
X449690D01*
X448641D01*
Y119944D01*
X450740Y123093D02*
Y119944D01*
Y121518D01*
X452839D01*
Y123093D01*
Y119944D01*
X441294Y112070D02*
Y115219D01*
X442868D01*
X443393Y114694D01*
Y113644D01*
X442868Y113120D01*
X441294D01*
X444443Y115219D02*
X446542D01*
X445492D01*
Y112070D01*
X447591Y115219D02*
Y112070D01*
Y113644D01*
X449690D01*
Y115219D01*
Y112070D01*
X441294Y104196D02*
Y107345D01*
X442868D01*
X443393Y106820D01*
Y105770D01*
X442868Y105246D01*
X441294D01*
X444443Y107345D02*
X446542D01*
X445492D01*
Y104196D01*
X447591Y107345D02*
Y104196D01*
Y105770D01*
X449690D01*
Y107345D01*
Y104196D01*
X441294Y96322D02*
Y99471D01*
X442868D01*
X443393Y98946D01*
Y97896D01*
X442868Y97372D01*
X441294D01*
X444443Y99471D02*
X446542D01*
X445492D01*
Y96322D01*
X447591Y99471D02*
Y96322D01*
Y97896D01*
X449690D01*
Y99471D01*
Y96322D01*
X382912Y127818D02*
X380813D01*
X382912Y129917D01*
Y130442D01*
X382387Y130967D01*
X381338D01*
X380813Y130442D01*
X383962Y127818D02*
Y128343D01*
X384486D01*
Y127818D01*
X383962D01*
X388684Y130967D02*
X386585D01*
Y129392D01*
X387635Y129917D01*
X388160D01*
X388684Y129392D01*
Y128343D01*
X388160Y127818D01*
X387110D01*
X386585Y128343D01*
X389734Y130442D02*
X390259Y130967D01*
X391308D01*
X391833Y130442D01*
Y128343D01*
X391308Y127818D01*
X390259D01*
X389734Y128343D01*
Y130442D01*
X392882D02*
X393407Y130967D01*
X394457D01*
X394982Y130442D01*
Y128343D01*
X394457Y127818D01*
X393407D01*
X392882Y128343D01*
Y130442D01*
X396031Y127818D02*
Y129917D01*
X396556D01*
X397081Y129392D01*
Y127818D01*
Y129392D01*
X397605Y129917D01*
X398130Y129392D01*
Y127818D01*
X399180D02*
Y129917D01*
X399705D01*
X400229Y129392D01*
Y127818D01*
Y129392D01*
X400754Y129917D01*
X401279Y129392D01*
Y127818D01*
X406526D02*
X405477Y128868D01*
Y129917D01*
X406526Y130967D01*
X408101Y128343D02*
X408626Y127818D01*
X409675D01*
X410200Y128343D01*
Y130442D01*
X409675Y130967D01*
X408626D01*
X408101Y130442D01*
Y129917D01*
X408626Y129392D01*
X410200D01*
X411249Y130442D02*
X411774Y130967D01*
X412824D01*
X413348Y130442D01*
Y129917D01*
X412824Y129392D01*
X413348Y128868D01*
Y128343D01*
X412824Y127818D01*
X411774D01*
X411249Y128343D01*
Y128868D01*
X411774Y129392D01*
X411249Y129917D01*
Y130442D01*
X411774Y129392D02*
X412824D01*
X414398Y127818D02*
Y128343D01*
X414923D01*
Y127818D01*
X414398D01*
X418596D02*
Y130967D01*
X417022Y129392D01*
X419121D01*
X420170Y130442D02*
X420695Y130967D01*
X421745D01*
X422269Y130442D01*
Y129917D01*
X421745Y129392D01*
X421220D01*
X421745D01*
X422269Y128868D01*
Y128343D01*
X421745Y127818D01*
X420695D01*
X420170Y128343D01*
X423319Y127818D02*
Y129917D01*
X423844D01*
X424368Y129392D01*
Y127818D01*
Y129392D01*
X424893Y129917D01*
X425418Y129392D01*
Y127818D01*
X426468D02*
X427517D01*
X426992D01*
Y129917D01*
X426468D01*
X429091Y127818D02*
X430141D01*
X429616D01*
Y130967D01*
X429091D01*
X431715Y127818D02*
X432765Y128868D01*
Y129917D01*
X431715Y130967D01*
X382387Y119944D02*
Y123093D01*
X380813Y121518D01*
X382912D01*
X383962Y119944D02*
Y120469D01*
X384486D01*
Y119944D01*
X383962D01*
X386585Y122568D02*
X387110Y123093D01*
X388160D01*
X388684Y122568D01*
Y122043D01*
X388160Y121518D01*
X388684Y120994D01*
Y120469D01*
X388160Y119944D01*
X387110D01*
X386585Y120469D01*
Y120994D01*
X387110Y121518D01*
X386585Y122043D01*
Y122568D01*
X387110Y121518D02*
X388160D01*
X389734Y122568D02*
X390259Y123093D01*
X391308D01*
X391833Y122568D01*
Y120469D01*
X391308Y119944D01*
X390259D01*
X389734Y120469D01*
Y122568D01*
X392882D02*
X393407Y123093D01*
X394457D01*
X394982Y122568D01*
Y120469D01*
X394457Y119944D01*
X393407D01*
X392882Y120469D01*
Y122568D01*
X396031Y119944D02*
Y122043D01*
X396556D01*
X397081Y121518D01*
Y119944D01*
Y121518D01*
X397605Y122043D01*
X398130Y121518D01*
Y119944D01*
X399180D02*
Y122043D01*
X399705D01*
X400229Y121518D01*
Y119944D01*
Y121518D01*
X400754Y122043D01*
X401279Y121518D01*
Y119944D01*
X406526D02*
X405477Y120994D01*
Y122043D01*
X406526Y123093D01*
X408101Y119944D02*
X409150D01*
X408626D01*
Y123093D01*
X408101Y122568D01*
X410725D02*
X411249Y123093D01*
X412299D01*
X412824Y122568D01*
Y122043D01*
X412299Y121518D01*
X412824Y120994D01*
Y120469D01*
X412299Y119944D01*
X411249D01*
X410725Y120469D01*
Y120994D01*
X411249Y121518D01*
X410725Y122043D01*
Y122568D01*
X411249Y121518D02*
X412299D01*
X413873Y122568D02*
X414398Y123093D01*
X415448D01*
X415972Y122568D01*
Y122043D01*
X415448Y121518D01*
X415972Y120994D01*
Y120469D01*
X415448Y119944D01*
X414398D01*
X413873Y120469D01*
Y120994D01*
X414398Y121518D01*
X413873Y122043D01*
Y122568D01*
X414398Y121518D02*
X415448D01*
X417022Y119944D02*
Y120469D01*
X417547D01*
Y119944D01*
X417022D01*
X419646Y120469D02*
X420170Y119944D01*
X421220D01*
X421745Y120469D01*
Y122568D01*
X421220Y123093D01*
X420170D01*
X419646Y122568D01*
Y122043D01*
X420170Y121518D01*
X421745D01*
X422794Y122568D02*
X423319Y123093D01*
X424368D01*
X424893Y122568D01*
Y122043D01*
X424368Y121518D01*
X424893Y120994D01*
Y120469D01*
X424368Y119944D01*
X423319D01*
X422794Y120469D01*
Y120994D01*
X423319Y121518D01*
X422794Y122043D01*
Y122568D01*
X423319Y121518D02*
X424368D01*
X425943Y119944D02*
Y122043D01*
X426468D01*
X426992Y121518D01*
Y119944D01*
Y121518D01*
X427517Y122043D01*
X428042Y121518D01*
Y119944D01*
X429091D02*
X430141D01*
X429616D01*
Y122043D01*
X429091D01*
X431715Y119944D02*
X432765D01*
X432240D01*
Y123093D01*
X431715D01*
X434339Y119944D02*
X435389Y120994D01*
Y122043D01*
X434339Y123093D01*
X380813Y114694D02*
X381338Y115219D01*
X382387D01*
X382912Y114694D01*
Y112595D01*
X382387Y112070D01*
X381338D01*
X380813Y112595D01*
Y114694D01*
X383962Y112070D02*
Y112595D01*
X384486D01*
Y112070D01*
X383962D01*
X386585Y112595D02*
X387110Y112070D01*
X388160D01*
X388684Y112595D01*
Y114694D01*
X388160Y115219D01*
X387110D01*
X386585Y114694D01*
Y114169D01*
X387110Y113644D01*
X388684D01*
X389734Y114694D02*
X390259Y115219D01*
X391308D01*
X391833Y114694D01*
Y112595D01*
X391308Y112070D01*
X390259D01*
X389734Y112595D01*
Y114694D01*
X392882D02*
X393407Y115219D01*
X394457D01*
X394982Y114694D01*
Y112595D01*
X394457Y112070D01*
X393407D01*
X392882Y112595D01*
Y114694D01*
X396031Y112070D02*
Y114169D01*
X396556D01*
X397081Y113644D01*
Y112070D01*
Y113644D01*
X397605Y114169D01*
X398130Y113644D01*
Y112070D01*
X399180D02*
Y114169D01*
X399705D01*
X400229Y113644D01*
Y112070D01*
Y113644D01*
X400754Y114169D01*
X401279Y113644D01*
Y112070D01*
X406526D02*
X405477Y113120D01*
Y114169D01*
X406526Y115219D01*
X408101Y114694D02*
X408626Y115219D01*
X409675D01*
X410200Y114694D01*
Y114169D01*
X409675Y113644D01*
X409150D01*
X409675D01*
X410200Y113120D01*
Y112595D01*
X409675Y112070D01*
X408626D01*
X408101Y112595D01*
X413348Y115219D02*
X411249D01*
Y113644D01*
X412299Y114169D01*
X412824D01*
X413348Y113644D01*
Y112595D01*
X412824Y112070D01*
X411774D01*
X411249Y112595D01*
X414398Y112070D02*
Y112595D01*
X414923D01*
Y112070D01*
X414398D01*
X418596D02*
Y115219D01*
X417022Y113644D01*
X419121D01*
X420170Y114694D02*
X420695Y115219D01*
X421745D01*
X422269Y114694D01*
Y114169D01*
X421745Y113644D01*
X421220D01*
X421745D01*
X422269Y113120D01*
Y112595D01*
X421745Y112070D01*
X420695D01*
X420170Y112595D01*
X423319Y112070D02*
Y114169D01*
X423844D01*
X424368Y113644D01*
Y112070D01*
Y113644D01*
X424893Y114169D01*
X425418Y113644D01*
Y112070D01*
X426468D02*
X427517D01*
X426992D01*
Y114169D01*
X426468D01*
X429091Y112070D02*
X430141D01*
X429616D01*
Y115219D01*
X429091D01*
X431715Y112070D02*
X432765Y113120D01*
Y114169D01*
X431715Y115219D01*
X382912Y104196D02*
X380813D01*
X382912Y106295D01*
Y106820D01*
X382387Y107345D01*
X381338D01*
X380813Y106820D01*
X383962Y104196D02*
Y104721D01*
X384486D01*
Y104196D01*
X383962D01*
X388684Y107345D02*
X386585D01*
Y105770D01*
X387635Y106295D01*
X388160D01*
X388684Y105770D01*
Y104721D01*
X388160Y104196D01*
X387110D01*
X386585Y104721D01*
X389734Y106820D02*
X390259Y107345D01*
X391308D01*
X391833Y106820D01*
Y104721D01*
X391308Y104196D01*
X390259D01*
X389734Y104721D01*
Y106820D01*
X392882D02*
X393407Y107345D01*
X394457D01*
X394982Y106820D01*
Y104721D01*
X394457Y104196D01*
X393407D01*
X392882Y104721D01*
Y106820D01*
X396031Y104196D02*
Y106295D01*
X396556D01*
X397081Y105770D01*
Y104196D01*
Y105770D01*
X397605Y106295D01*
X398130Y105770D01*
Y104196D01*
X399180D02*
Y106295D01*
X399705D01*
X400229Y105770D01*
Y104196D01*
Y105770D01*
X400754Y106295D01*
X401279Y105770D01*
Y104196D01*
X406526D02*
X405477Y105246D01*
Y106295D01*
X406526Y107345D01*
X408101Y104721D02*
X408626Y104196D01*
X409675D01*
X410200Y104721D01*
Y106820D01*
X409675Y107345D01*
X408626D01*
X408101Y106820D01*
Y106295D01*
X408626Y105770D01*
X410200D01*
X411249Y106820D02*
X411774Y107345D01*
X412824D01*
X413348Y106820D01*
Y106295D01*
X412824Y105770D01*
X413348Y105246D01*
Y104721D01*
X412824Y104196D01*
X411774D01*
X411249Y104721D01*
Y105246D01*
X411774Y105770D01*
X411249Y106295D01*
Y106820D01*
X411774Y105770D02*
X412824D01*
X414398Y104196D02*
Y104721D01*
X414923D01*
Y104196D01*
X414398D01*
X418596D02*
Y107345D01*
X417022Y105770D01*
X419121D01*
X420170Y106820D02*
X420695Y107345D01*
X421745D01*
X422269Y106820D01*
Y106295D01*
X421745Y105770D01*
X421220D01*
X421745D01*
X422269Y105246D01*
Y104721D01*
X421745Y104196D01*
X420695D01*
X420170Y104721D01*
X423319Y104196D02*
Y106295D01*
X423844D01*
X424368Y105770D01*
Y104196D01*
Y105770D01*
X424893Y106295D01*
X425418Y105770D01*
Y104196D01*
X426468D02*
X427517D01*
X426992D01*
Y106295D01*
X426468D01*
X429091Y104196D02*
X430141D01*
X429616D01*
Y107345D01*
X429091D01*
X431715Y104196D02*
X432765Y105246D01*
Y106295D01*
X431715Y107345D01*
X380813Y98946D02*
X381338Y99471D01*
X382387D01*
X382912Y98946D01*
Y96847D01*
X382387Y96322D01*
X381338D01*
X380813Y96847D01*
Y98946D01*
X383962Y96322D02*
Y96847D01*
X384486D01*
Y96322D01*
X383962D01*
X388684D02*
X386585D01*
X388684Y98421D01*
Y98946D01*
X388160Y99471D01*
X387110D01*
X386585Y98946D01*
X391833Y99471D02*
X389734D01*
Y97896D01*
X390784Y98421D01*
X391308D01*
X391833Y97896D01*
Y96847D01*
X391308Y96322D01*
X390259D01*
X389734Y96847D01*
X392882Y98946D02*
X393407Y99471D01*
X394457D01*
X394982Y98946D01*
Y96847D01*
X394457Y96322D01*
X393407D01*
X392882Y96847D01*
Y98946D01*
X396031Y96322D02*
Y98421D01*
X396556D01*
X397081Y97896D01*
Y96322D01*
Y97896D01*
X397605Y98421D01*
X398130Y97896D01*
Y96322D01*
X399180D02*
Y98421D01*
X399705D01*
X400229Y97896D01*
Y96322D01*
Y97896D01*
X400754Y98421D01*
X401279Y97896D01*
Y96322D01*
X406526D02*
X405477Y97372D01*
Y98421D01*
X406526Y99471D01*
X408101Y96847D02*
X408626Y96322D01*
X409675D01*
X410200Y96847D01*
Y98946D01*
X409675Y99471D01*
X408626D01*
X408101Y98946D01*
Y98421D01*
X408626Y97896D01*
X410200D01*
X411249Y96322D02*
Y96847D01*
X411774D01*
Y96322D01*
X411249D01*
X413873Y98946D02*
X414398Y99471D01*
X415448D01*
X415972Y98946D01*
Y98421D01*
X415448Y97896D01*
X415972Y97372D01*
Y96847D01*
X415448Y96322D01*
X414398D01*
X413873Y96847D01*
Y97372D01*
X414398Y97896D01*
X413873Y98421D01*
Y98946D01*
X414398Y97896D02*
X415448D01*
X418596Y96322D02*
Y99471D01*
X417022Y97896D01*
X419121D01*
X420170Y96322D02*
Y98421D01*
X420695D01*
X421220Y97896D01*
Y96322D01*
Y97896D01*
X421745Y98421D01*
X422269Y97896D01*
Y96322D01*
X423319D02*
X424368D01*
X423844D01*
Y98421D01*
X423319D01*
X425943Y96322D02*
X426992D01*
X426468D01*
Y99471D01*
X425943D01*
X428567Y96322D02*
X429616Y97372D01*
Y98421D01*
X428567Y99471D01*
X354442Y91597D02*
X352343D01*
Y90022D01*
X353392Y90547D01*
X353917D01*
X354442Y90022D01*
Y88973D01*
X353917Y88448D01*
X352867D01*
X352343Y88973D01*
X357590Y91597D02*
X356541Y91072D01*
X355491Y90022D01*
Y88973D01*
X356016Y88448D01*
X357066D01*
X357590Y88973D01*
Y89498D01*
X357066Y90022D01*
X355491D01*
X361788Y91597D02*
X363887D01*
X362838D01*
Y88448D01*
X365462D02*
X366511D01*
X367036Y88973D01*
Y90022D01*
X366511Y90547D01*
X365462D01*
X364937Y90022D01*
Y88973D01*
X365462Y88448D01*
X368610Y91072D02*
Y90547D01*
X368086D01*
X369135D01*
X368610D01*
Y88973D01*
X369135Y88448D01*
X371234Y90547D02*
X372284D01*
X372808Y90022D01*
Y88448D01*
X371234D01*
X370709Y88973D01*
X371234Y89498D01*
X372808D01*
X373858Y88448D02*
X374907D01*
X374383D01*
Y91597D01*
X373858D01*
X353917Y127818D02*
Y130967D01*
X352343Y129392D01*
X354442D01*
X352343Y120469D02*
X352867Y119944D01*
X353917D01*
X354442Y120469D01*
Y122568D01*
X353917Y123093D01*
X352867D01*
X352343Y122568D01*
Y122043D01*
X352867Y121518D01*
X354442D01*
X352343Y112070D02*
X353392D01*
X352867D01*
Y115219D01*
X352343Y114694D01*
X357066Y112070D02*
X354966D01*
X357066Y114169D01*
Y114694D01*
X356541Y115219D01*
X355491D01*
X354966Y114694D01*
X352343Y104196D02*
X353392D01*
X352867D01*
Y107345D01*
X352343Y106820D01*
X357066Y104196D02*
X354966D01*
X357066Y106295D01*
Y106820D01*
X356541Y107345D01*
X355491D01*
X354966Y106820D01*
X352343Y96322D02*
X353392D01*
X352867D01*
Y99471D01*
X352343Y98946D01*
X354966Y96847D02*
X355491Y96322D01*
X356541D01*
X357066Y96847D01*
Y98946D01*
X356541Y99471D01*
X355491D01*
X354966Y98946D01*
Y98421D01*
X355491Y97896D01*
X357066D01*
D12*
X94488Y191339D02*
G03*
X103937Y200787I0J9449D01*
G01*
X85039D02*
G03*
X94488Y191339I9449J0D01*
G01*
X116535Y203150D02*
G03*
X103937Y203150I-6299J0D01*
G01*
X62992Y191339D02*
G03*
X72441Y200787I0J9449D01*
G01*
X53543D02*
G03*
X62992Y191339I9449J0D01*
G01*
X85039Y203150D02*
G03*
X72441Y203150I-6299J0D01*
G01*
X53543D02*
G03*
X47244Y209449I-6299J0D01*
G01*
X157480Y191339D02*
G03*
X166929Y200787I0J9449D01*
G01*
X179527Y203150D02*
G03*
X166929Y203150I-6299J0D01*
G01*
X148031D02*
G03*
X135433Y203150I-6299J0D01*
G01*
X148031Y200787D02*
G03*
X157480Y191339I9449J0D01*
G01*
X116535Y200787D02*
G03*
X125984Y191339I9449J0D01*
G01*
D02*
G03*
X135433Y200787I0J9449D01*
G01*
X135433Y11811D02*
G03*
X125984Y21260I-9449J0D01*
G01*
D02*
G03*
X116535Y11811I0J-9449D01*
G01*
X157480Y21260D02*
G03*
X148031Y11811I0J-9449D01*
G01*
X135433Y9449D02*
G03*
X148031Y9449I6299J0D01*
G01*
X166929D02*
G03*
X179528Y9449I6299J0D01*
G01*
X166929Y11811D02*
G03*
X157480Y21260I-9449J0D01*
G01*
X-157480D02*
G03*
X-166929Y11811I0J-9449D01*
G01*
X-179527Y9449D02*
G03*
X-166929Y9449I6299J0D01*
G01*
X-148031D02*
G03*
X-135433Y9449I6299J0D01*
G01*
X-148031Y11811D02*
G03*
X-157480Y21260I-9449J0D01*
G01*
X-116535Y11811D02*
G03*
X-125984Y21260I-9449J0D01*
G01*
D02*
G03*
X-135433Y11811I0J-9449D01*
G01*
X-94488Y21260D02*
G03*
X-103937Y11811I0J-9449D01*
G01*
X-85039D02*
G03*
X-94488Y21260I-9449J0D01*
G01*
X-116535Y9449D02*
G03*
X-103937Y9449I6299J0D01*
G01*
X-62992Y21260D02*
G03*
X-72441Y11811I0J-9449D01*
G01*
X-53543D02*
G03*
X-62992Y21260I-9449J0D01*
G01*
X-85039Y9449D02*
G03*
X-72441Y9449I6299J0D01*
G01*
X-53543D02*
G03*
X-47244Y3150I6299J0D01*
G01*
X47244D02*
G03*
X53543Y9449I0J6299D01*
G01*
X72441D02*
G03*
X85040Y9449I6299J0D01*
G01*
X62992Y21260D02*
G03*
X53543Y11811I0J-9449D01*
G01*
X72441D02*
G03*
X62992Y21260I-9449J0D01*
G01*
X103937Y9449D02*
G03*
X116535Y9449I6299J0D01*
G01*
X94488Y21260D02*
G03*
X85040Y11811I0J-9449D01*
G01*
X103937D02*
G03*
X94488Y21260I-9449J0D01*
G01*
X-157480Y191339D02*
G03*
X-148031Y200787I0J9449D01*
G01*
X-141732Y209449D02*
G03*
X-148031Y203150I0J-6299D01*
G01*
X-166929D02*
G03*
X-179528Y203150I-6299J0D01*
G01*
X-166929Y200787D02*
G03*
X-157480Y191339I9449J0D01*
G01*
X85039Y200787D02*
Y203150D01*
X103937Y200787D02*
Y203150D01*
X53543Y200787D02*
Y203150D01*
X72441Y200787D02*
Y203150D01*
X166929Y200787D02*
Y203150D01*
X148031Y200787D02*
Y203150D01*
X135433Y200787D02*
Y203150D01*
X116535Y200787D02*
Y203150D01*
X116535Y9449D02*
Y11811D01*
X135433Y9449D02*
Y11811D01*
X148031Y9449D02*
Y11811D01*
X166929Y9449D02*
Y11811D01*
X-166929Y9449D02*
Y11811D01*
X-148031Y9449D02*
Y11811D01*
X-135433Y9449D02*
Y11811D01*
X-116535Y9449D02*
Y11811D01*
X-47244Y3150D02*
X47244Y3150D01*
X-85039Y9449D02*
Y11811D01*
X-103937Y9449D02*
Y11811D01*
X-53543Y9449D02*
Y11811D01*
X-72441Y9449D02*
Y11811D01*
X72441Y9449D02*
Y11811D01*
X53543Y9449D02*
Y11811D01*
X103937Y9449D02*
Y11811D01*
X85040Y9449D02*
Y11811D01*
X-148031Y200787D02*
Y203150D01*
X-166929Y200787D02*
Y203150D01*
X-141732Y209449D02*
X47244D01*
X179527Y9449D02*
X179527Y203150D01*
X-179528Y9449D02*
X-179528Y203150D01*
D13*
X531110Y-219734D02*
Y-235476D01*
X536358Y-230229D01*
X541605Y-235476D01*
Y-219734D01*
X546853Y-235476D02*
X552101D01*
X549477D01*
Y-224981D01*
X546853D01*
X559972Y-235476D02*
Y-224981D01*
X562596D01*
X565220Y-227605D01*
Y-235476D01*
Y-227605D01*
X567843Y-224981D01*
X570467Y-227605D01*
Y-235476D01*
X575715Y-219734D02*
Y-230229D01*
X580963Y-235476D01*
X586210Y-230229D01*
Y-219734D01*
X601953Y-222357D02*
X599329Y-219734D01*
X594082D01*
X591458Y-222357D01*
Y-232853D01*
X594082Y-235476D01*
X599329D01*
X601953Y-232853D01*
Y-227605D01*
X596705D01*
X885441Y-182987D02*
X888064Y-180364D01*
X893312D01*
X895936Y-182987D01*
Y-193483D01*
X893312Y-196106D01*
X888064D01*
X885441Y-193483D01*
Y-182987D01*
X901184D02*
X903807Y-180364D01*
X909055D01*
X911679Y-182987D01*
Y-193483D01*
X909055Y-196106D01*
X903807D01*
X901184Y-193483D01*
Y-182987D01*
X722055Y-196106D02*
X726647D01*
X724351D01*
Y-182331D01*
X722055Y-184627D01*
X733534Y-182331D02*
X742717D01*
Y-184627D01*
X733534Y-193811D01*
Y-196106D01*
X747309D02*
X756493Y-186923D01*
X761084Y-184627D02*
X763380Y-182331D01*
X767972D01*
X770268Y-184627D01*
Y-193811D01*
X767972Y-196106D01*
X763380D01*
X761084Y-193811D01*
Y-184627D01*
X781747Y-196106D02*
Y-182331D01*
X774859Y-189219D01*
X784043D01*
X788634Y-196106D02*
X797818Y-186923D01*
X811593Y-196106D02*
X802409D01*
X811593Y-186923D01*
Y-184627D01*
X809297Y-182331D01*
X804705D01*
X802409Y-184627D01*
X816185D02*
X818480Y-182331D01*
X823072D01*
X825368Y-184627D01*
Y-193811D01*
X823072Y-196106D01*
X818480D01*
X816185Y-193811D01*
Y-184627D01*
X839143Y-196106D02*
X829960D01*
X839143Y-186923D01*
Y-184627D01*
X836847Y-182331D01*
X832255D01*
X829960Y-184627D01*
X852918Y-182331D02*
X848326Y-184627D01*
X843735Y-189219D01*
Y-193811D01*
X846031Y-196106D01*
X850622D01*
X852918Y-193811D01*
Y-191515D01*
X850622Y-189219D01*
X843735D01*
X724545Y-104772D02*
X716149D01*
Y-111069D01*
X720347D01*
X716149D01*
Y-117366D01*
X728744Y-108970D02*
Y-117366D01*
Y-113168D01*
X730843Y-111069D01*
X732942Y-108970D01*
X735041D01*
X741338Y-117366D02*
X745536D01*
X743437D01*
Y-108970D01*
X741338D01*
X751833Y-106871D02*
X753932Y-104772D01*
X758131D01*
X760230Y-106871D01*
Y-108970D01*
X758131Y-111069D01*
X756031D01*
X758131D01*
X760230Y-113168D01*
Y-115267D01*
X758131Y-117366D01*
X753932D01*
X751833Y-115267D01*
X764428Y-104772D02*
Y-117366D01*
X770725D01*
X772824Y-115267D01*
Y-106871D01*
X770725Y-104772D01*
X764428D01*
X789616D02*
Y-117366D01*
X795914D01*
X798013Y-115267D01*
Y-113168D01*
X795914Y-111069D01*
X789616D01*
X795914D01*
X798013Y-108970D01*
Y-106871D01*
X795914Y-104772D01*
X789616D01*
X804310Y-108970D02*
X808508D01*
X810607Y-111069D01*
Y-117366D01*
X804310D01*
X802211Y-115267D01*
X804310Y-113168D01*
X810607D01*
X823201Y-104772D02*
Y-117366D01*
X816904D01*
X814805Y-115267D01*
Y-111069D01*
X816904Y-108970D01*
X823201D01*
X831598Y-121564D02*
X833697D01*
X835796Y-119465D01*
Y-108970D01*
X829498D01*
X827400Y-111069D01*
Y-115267D01*
X829498Y-117366D01*
X835796D01*
X846291D02*
X842093D01*
X839994Y-115267D01*
Y-111069D01*
X842093Y-108970D01*
X846291D01*
X848390Y-111069D01*
Y-113168D01*
X839994D01*
X873579Y-117366D02*
X865183D01*
X873579Y-108970D01*
Y-106871D01*
X871480Y-104772D01*
X867282D01*
X865183Y-106871D01*
X877777D02*
X879876Y-104772D01*
X884074D01*
X886173Y-106871D01*
Y-115267D01*
X884074Y-117366D01*
X879876D01*
X877777Y-115267D01*
Y-106871D01*
X898767Y-117366D02*
X890371D01*
X898767Y-108970D01*
Y-106871D01*
X896668Y-104772D01*
X892470D01*
X890371Y-106871D01*
X911362Y-104772D02*
X907164Y-106871D01*
X902966Y-111069D01*
Y-115267D01*
X905065Y-117366D01*
X909263D01*
X911362Y-115267D01*
Y-113168D01*
X909263Y-111069D01*
X902966D01*
X936551Y-106871D02*
X934451Y-104772D01*
X930253D01*
X928154Y-106871D01*
Y-115267D01*
X930253Y-117366D01*
X934451D01*
X936551Y-115267D01*
X940749Y-104772D02*
Y-113168D01*
X944947Y-117366D01*
X949145Y-113168D01*
Y-104772D01*
X953343Y-117366D02*
Y-104772D01*
X959640D01*
X961739Y-106871D01*
Y-111069D01*
X959640Y-113168D01*
X953343D01*
X957541D02*
X961739Y-117366D01*
X727960Y-140993D02*
Y-154768D01*
X734848D01*
X737144Y-152472D01*
Y-143289D01*
X734848Y-140993D01*
X727960D01*
X741735Y-145584D02*
Y-154768D01*
Y-150176D01*
X744031Y-147880D01*
X746327Y-145584D01*
X748623D01*
X755511Y-154768D02*
X760102D01*
X757806D01*
Y-145584D01*
X755511D01*
X766990Y-154768D02*
X771581D01*
X769286D01*
Y-140993D01*
X766990D01*
X778469Y-154768D02*
X783061D01*
X780765D01*
Y-140993D01*
X778469D01*
X803723D02*
Y-154768D01*
X810611D01*
X812907Y-152472D01*
Y-143289D01*
X810611Y-140993D01*
X803723D01*
X817498Y-145584D02*
Y-154768D01*
Y-150176D01*
X819794Y-147880D01*
X822090Y-145584D01*
X824386D01*
X833569D02*
X838161D01*
X840457Y-147880D01*
Y-154768D01*
X833569D01*
X831273Y-152472D01*
X833569Y-150176D01*
X840457D01*
X845049Y-145584D02*
Y-152472D01*
X847344Y-154768D01*
X849640Y-152472D01*
X851936Y-154768D01*
X854232Y-152472D01*
Y-145584D01*
X858824Y-154768D02*
X863415D01*
X861119D01*
Y-145584D01*
X858824D01*
X870303Y-154768D02*
Y-145584D01*
X877190D01*
X879486Y-147880D01*
Y-154768D01*
X888670Y-159360D02*
X890965D01*
X893261Y-157064D01*
Y-145584D01*
X886374D01*
X884078Y-147880D01*
Y-152472D01*
X886374Y-154768D01*
X893261D01*
D14*
X867724Y-174453D02*
Y-166581D01*
X871660D01*
X872972Y-167893D01*
Y-170517D01*
X871660Y-171829D01*
X867724D01*
X870348D02*
X872972Y-174453D01*
X879531D02*
X876908D01*
X875596Y-173141D01*
Y-170517D01*
X876908Y-169205D01*
X879531D01*
X880843Y-170517D01*
Y-171829D01*
X875596D01*
X883467Y-169205D02*
X886091Y-174453D01*
X888715Y-169205D01*
X513393Y-205951D02*
Y-213823D01*
X517329D01*
X518641Y-212511D01*
Y-207263D01*
X517329Y-205951D01*
X513393D01*
X525201Y-213823D02*
X522577D01*
X521265Y-212511D01*
Y-209887D01*
X522577Y-208575D01*
X525201D01*
X526512Y-209887D01*
Y-211199D01*
X521265D01*
X529136Y-213823D02*
X533072D01*
X534384Y-212511D01*
X533072Y-211199D01*
X530448D01*
X529136Y-209887D01*
X530448Y-208575D01*
X534384D01*
X539632Y-216447D02*
X540944D01*
X542255Y-215135D01*
Y-208575D01*
X538320D01*
X537008Y-209887D01*
Y-212511D01*
X538320Y-213823D01*
X542255D01*
X544879D02*
X547503D01*
X546191D01*
Y-208575D01*
X544879D01*
X551439Y-213823D02*
Y-208575D01*
X555375D01*
X556686Y-209887D01*
Y-213823D01*
X563246D02*
X560622D01*
X559310Y-212511D01*
Y-209887D01*
X560622Y-208575D01*
X563246D01*
X564558Y-209887D01*
Y-211199D01*
X559310D01*
X567182Y-208575D02*
Y-213823D01*
Y-211199D01*
X568494Y-209887D01*
X569806Y-208575D01*
X571118D01*
X710244Y-87841D02*
Y-95713D01*
X714180D01*
X715491Y-94401D01*
Y-89153D01*
X714180Y-87841D01*
X710244D01*
X719427Y-95713D02*
X722051D01*
X723363Y-94401D01*
Y-91777D01*
X722051Y-90465D01*
X719427D01*
X718115Y-91777D01*
Y-94401D01*
X719427Y-95713D01*
X731234Y-90465D02*
X727299D01*
X725987Y-91777D01*
Y-94401D01*
X727299Y-95713D01*
X731234D01*
X733858Y-90465D02*
Y-94401D01*
X735170Y-95713D01*
X739106D01*
Y-90465D01*
X741730Y-95713D02*
Y-90465D01*
X743042D01*
X744353Y-91777D01*
Y-95713D01*
Y-91777D01*
X745665Y-90465D01*
X746977Y-91777D01*
Y-95713D01*
X753537D02*
X750913D01*
X749601Y-94401D01*
Y-91777D01*
X750913Y-90465D01*
X753537D01*
X754849Y-91777D01*
Y-93089D01*
X749601D01*
X757473Y-95713D02*
Y-90465D01*
X761408D01*
X762720Y-91777D01*
Y-95713D01*
X766656Y-89153D02*
Y-90465D01*
X765344D01*
X767968D01*
X766656D01*
Y-94401D01*
X767968Y-95713D01*
X710244Y-127211D02*
Y-135083D01*
X715491D01*
X719427Y-129835D02*
X722051D01*
X723363Y-131147D01*
Y-135083D01*
X719427D01*
X718115Y-133771D01*
X719427Y-132459D01*
X723363D01*
X725987Y-129835D02*
Y-133771D01*
X727299Y-135083D01*
X731234D01*
Y-136395D01*
X729922Y-137707D01*
X728611D01*
X731234Y-135083D02*
Y-129835D01*
X737794Y-135083D02*
X735170D01*
X733858Y-133771D01*
Y-131147D01*
X735170Y-129835D01*
X737794D01*
X739106Y-131147D01*
Y-132459D01*
X733858D01*
X741730Y-129835D02*
Y-135083D01*
Y-132459D01*
X743042Y-131147D01*
X744353Y-129835D01*
X745665D01*
X757473Y-135083D02*
Y-127211D01*
X762720Y-135083D01*
Y-127211D01*
X766656Y-129835D02*
X769280D01*
X770592Y-131147D01*
Y-135083D01*
X766656D01*
X765344Y-133771D01*
X766656Y-132459D01*
X770592D01*
X773216Y-135083D02*
Y-129835D01*
X774528D01*
X775839Y-131147D01*
Y-135083D01*
Y-131147D01*
X777151Y-129835D01*
X778463Y-131147D01*
Y-135083D01*
X785023D02*
X782399D01*
X781087Y-133771D01*
Y-131147D01*
X782399Y-129835D01*
X785023D01*
X786335Y-131147D01*
Y-132459D01*
X781087D01*
X710244Y-166581D02*
Y-174453D01*
X714180D01*
X715491Y-173141D01*
Y-167893D01*
X714180Y-166581D01*
X710244D01*
X719427Y-169205D02*
X722051D01*
X723363Y-170517D01*
Y-174453D01*
X719427D01*
X718115Y-173141D01*
X719427Y-171829D01*
X723363D01*
X727299Y-167893D02*
Y-169205D01*
X725987D01*
X728611D01*
X727299D01*
Y-173141D01*
X728611Y-174453D01*
X736482D02*
X733858D01*
X732546Y-173141D01*
Y-170517D01*
X733858Y-169205D01*
X736482D01*
X737794Y-170517D01*
Y-171829D01*
X732546D01*
X710244Y-205951D02*
Y-213823D01*
X714180D01*
X715491Y-212511D01*
Y-207263D01*
X714180Y-205951D01*
X710244D01*
X719427Y-213823D02*
X722051D01*
X723363Y-212511D01*
Y-209887D01*
X722051Y-208575D01*
X719427D01*
X718115Y-209887D01*
Y-212511D01*
X719427Y-213823D01*
X731234Y-208575D02*
X727299D01*
X725987Y-209887D01*
Y-212511D01*
X727299Y-213823D01*
X731234D01*
X733858Y-208575D02*
Y-212511D01*
X735170Y-213823D01*
X739106D01*
Y-208575D01*
X741730Y-213823D02*
Y-208575D01*
X743042D01*
X744353Y-209887D01*
Y-213823D01*
Y-209887D01*
X745665Y-208575D01*
X746977Y-209887D01*
Y-213823D01*
X753537D02*
X750913D01*
X749601Y-212511D01*
Y-209887D01*
X750913Y-208575D01*
X753537D01*
X754849Y-209887D01*
Y-211199D01*
X749601D01*
X757473Y-213823D02*
Y-208575D01*
X761408D01*
X762720Y-209887D01*
Y-213823D01*
X766656Y-207263D02*
Y-208575D01*
X765344D01*
X767968D01*
X766656D01*
Y-212511D01*
X767968Y-213823D01*
D59*
X148638Y179134D02*
G03*
X148638Y179134I-1000J0D01*
G01*
Y37402D02*
G03*
X148638Y37402I-1000J0D01*
G01*
X-146638D02*
G03*
X-146638Y37402I-1000J0D01*
G01*
X-126953Y198819D02*
G03*
X-126953Y198819I-1000J0D01*
G01*
X10417Y35221D02*
X11417Y35721D01*
X12417Y35221D01*
X11917Y36220D02*
X12417Y35221D01*
X11917Y36220D02*
X12417Y37220D01*
X11417Y36720D02*
X12417Y37220D01*
X10417D02*
X11417Y36720D01*
X10417Y37220D02*
X10917Y36220D01*
X10417Y35221D02*
X10917Y36220D01*
X2150Y45457D02*
X3150Y45957D01*
X4150Y45457D01*
X3650Y46457D02*
X4150Y45457D01*
X3650Y46457D02*
X4150Y47457D01*
X3150Y46957D02*
X4150Y47457D01*
X2150D02*
X3150Y46957D01*
X2150Y47457D02*
X2650Y46457D01*
X2150Y45457D02*
X2650Y46457D01*
X-33677Y48213D02*
X-32677Y48713D01*
X-31677Y48213D01*
X-32177Y49213D02*
X-31677Y48213D01*
X-32177Y49213D02*
X-31677Y50213D01*
X-32677Y49713D02*
X-31677Y50213D01*
X-33677D02*
X-32677Y49713D01*
X-33677Y50213D02*
X-33177Y49213D01*
X-33677Y48213D02*
X-33177Y49213D01*
X-23835Y41126D02*
X-22835Y41626D01*
X-21835Y41126D01*
X-22335Y42126D02*
X-21835Y41126D01*
X-22335Y42126D02*
X-21835Y43126D01*
X-22835Y42626D02*
X-21835Y43126D01*
X-23835D02*
X-22835Y42626D01*
X-23835Y43126D02*
X-23335Y42126D01*
X-23835Y41126D02*
X-23335Y42126D01*
X-69898Y60024D02*
X-68898Y60524D01*
X-67898Y60024D01*
X-68398Y61024D02*
X-67898Y60024D01*
X-68398Y61024D02*
X-67898Y62024D01*
X-68898Y61524D02*
X-67898Y62024D01*
X-69898D02*
X-68898Y61524D01*
X-69898Y62024D02*
X-69398Y61024D01*
X-69898Y60024D02*
X-69398Y61024D01*
X-71866Y52543D02*
X-70866Y53043D01*
X-69866Y52543D01*
X-70366Y53543D02*
X-69866Y52543D01*
X-70366Y53543D02*
X-69866Y54543D01*
X-70866Y54043D02*
X-69866Y54543D01*
X-71866D02*
X-70866Y54043D01*
X-71866Y54543D02*
X-71366Y53543D01*
X-71866Y52543D02*
X-71366Y53543D01*
X-124622Y52543D02*
X-123622Y53043D01*
X-122622Y52543D01*
X-123122Y53543D02*
X-122622Y52543D01*
X-123122Y53543D02*
X-122622Y54543D01*
X-123622Y54043D02*
X-122622Y54543D01*
X-124622D02*
X-123622Y54043D01*
X-124622Y54543D02*
X-124122Y53543D01*
X-124622Y52543D02*
X-124122Y53543D01*
X-104543Y90732D02*
X-103543Y91232D01*
X-102543Y90732D01*
X-103043Y91732D02*
X-102543Y90732D01*
X-103043Y91732D02*
X-102543Y92732D01*
X-103543Y92232D02*
X-102543Y92732D01*
X-104543D02*
X-103543Y92232D01*
X-104543Y92732D02*
X-104043Y91732D01*
X-104543Y90732D02*
X-104043Y91732D01*
X-127378Y121441D02*
X-126378Y121941D01*
X-125378Y121441D01*
X-125878Y122441D02*
X-125378Y121441D01*
X-125878Y122441D02*
X-125378Y123441D01*
X-126378Y122941D02*
X-125378Y123441D01*
X-127378D02*
X-126378Y122941D01*
X-127378Y123441D02*
X-126878Y122441D01*
X-127378Y121441D02*
X-126878Y122441D01*
X-124228Y152150D02*
X-123228Y152650D01*
X-122228Y152150D01*
X-122728Y153150D02*
X-122228Y152150D01*
X-122728Y153150D02*
X-122228Y154150D01*
X-123228Y153650D02*
X-122228Y154150D01*
X-124228D02*
X-123228Y153650D01*
X-124228Y154150D02*
X-123728Y153150D01*
X-124228Y152150D02*
X-123728Y153150D01*
X-82890Y182858D02*
X-81890Y183358D01*
X-80890Y182858D01*
X-81390Y183858D02*
X-80890Y182858D01*
X-81390Y183858D02*
X-80890Y184858D01*
X-81890Y184358D02*
X-80890Y184858D01*
X-82890D02*
X-81890Y184358D01*
X-82890Y184858D02*
X-82390Y183858D01*
X-82890Y182858D02*
X-82390Y183858D01*
X-19504Y189551D02*
X-18504Y190051D01*
X-17504Y189551D01*
X-18004Y190551D02*
X-17504Y189551D01*
X-18004Y190551D02*
X-17504Y191551D01*
X-18504Y191051D02*
X-17504Y191551D01*
X-19504D02*
X-18504Y191051D01*
X-19504Y191551D02*
X-19004Y190551D01*
X-19504Y189551D02*
X-19004Y190551D01*
X34433Y183252D02*
X35433Y183752D01*
X36433Y183252D01*
X35933Y184252D02*
X36433Y183252D01*
X35933Y184252D02*
X36433Y185252D01*
X35433Y184752D02*
X36433Y185252D01*
X34433D02*
X35433Y184752D01*
X34433Y185252D02*
X34933Y184252D01*
X34433Y183252D02*
X34933Y184252D01*
X93094Y164354D02*
X94095Y164854D01*
X95095Y164354D01*
X94595Y165354D02*
X95095Y164354D01*
X94595Y165354D02*
X95095Y166354D01*
X94095Y165854D02*
X95095Y166354D01*
X93094D02*
X94095Y165854D01*
X93094Y166354D02*
X93594Y165354D01*
X93094Y164354D02*
X93594Y165354D01*
X71047Y171047D02*
X72047Y171547D01*
X73047Y171047D01*
X72547Y172047D02*
X73047Y171047D01*
X72547Y172047D02*
X73047Y173047D01*
X72047Y172547D02*
X73047Y173047D01*
X71047D02*
X72047Y172547D01*
X71047Y173047D02*
X71547Y172047D01*
X71047Y171047D02*
X71547Y172047D01*
X132858Y140339D02*
X133858Y140839D01*
X134858Y140339D01*
X134358Y141339D02*
X134858Y140339D01*
X134358Y141339D02*
X134858Y142339D01*
X133858Y141839D02*
X134858Y142339D01*
X132858D02*
X133858Y141839D01*
X132858Y142339D02*
X133358Y141339D01*
X132858Y140339D02*
X133358Y141339D01*
X132858Y102543D02*
X133858Y103043D01*
X134858Y102543D01*
X134358Y103543D02*
X134858Y102543D01*
X134358Y103543D02*
X134858Y104543D01*
X133858Y104043D02*
X134858Y104543D01*
X132858D02*
X133858Y104043D01*
X132858Y104543D02*
X133358Y103543D01*
X132858Y102543D02*
X133358Y103543D01*
X107268Y83252D02*
X108268Y83752D01*
X109268Y83252D01*
X108768Y84252D02*
X109268Y83252D01*
X108768Y84252D02*
X109268Y85252D01*
X108268Y84752D02*
X109268Y85252D01*
X107268D02*
X108268Y84752D01*
X107268Y85252D02*
X107768Y84252D01*
X107268Y83252D02*
X107768Y84252D01*
X92701Y41126D02*
X93701Y41626D01*
X94701Y41126D01*
X94201Y42126D02*
X94701Y41126D01*
X94201Y42126D02*
X94701Y43126D01*
X93701Y42626D02*
X94701Y43126D01*
X92701D02*
X93701Y42626D01*
X92701Y43126D02*
X93201Y42126D01*
X92701Y41126D02*
X93201Y42126D01*
X-26000Y15653D02*
X-24000D01*
Y17653D01*
X-26000D02*
X-24000D01*
X-26000Y15653D02*
Y17653D01*
Y25653D02*
X-24000D01*
Y27654D01*
X-26000D02*
X-24000D01*
X-26000Y25653D02*
Y27654D01*
X-16000Y15653D02*
X-14000D01*
Y17653D01*
X-16000D02*
X-14000D01*
X-16000Y15653D02*
Y17653D01*
Y25653D02*
X-14000D01*
Y27654D01*
X-16000D02*
X-14000D01*
X-16000Y25653D02*
Y27654D01*
X-6000Y15653D02*
X-4000D01*
Y17653D01*
X-6000D02*
X-4000D01*
X-6000Y15653D02*
Y17653D01*
X-6000Y25653D02*
X-4000D01*
Y27654D01*
X-6000D02*
X-4000D01*
X-6000Y25653D02*
Y27654D01*
X14000Y25653D02*
X16000D01*
Y27654D01*
X14000D02*
X16000D01*
X14000Y25653D02*
Y27654D01*
X14000Y15653D02*
X16000D01*
Y17653D01*
X14000D02*
X16000D01*
X14000Y15653D02*
Y17653D01*
X4000Y25653D02*
X6000D01*
Y27654D01*
X4000D02*
X6000D01*
X4000Y25653D02*
Y27654D01*
Y15653D02*
X6000D01*
Y17653D01*
X4000D02*
X6000D01*
X4000Y15653D02*
Y17653D01*
X24000Y25653D02*
X26000D01*
Y27654D01*
X24000D02*
X26000D01*
X24000Y25653D02*
Y27654D01*
Y15653D02*
X26000D01*
Y17653D01*
X24000D02*
X26000D01*
X24000Y15653D02*
Y17653D01*
X-157980Y168791D02*
X-157480Y168291D01*
X-158480Y168791D02*
X-157980D01*
X-158480D02*
X-157980Y169291D01*
X-158480Y169791D02*
X-157980Y169291D01*
X-158480Y169791D02*
X-157980D01*
X-157480Y170291D01*
X-156980Y169791D01*
X-156480D01*
X-156980Y169291D02*
X-156480Y169791D01*
X-156980Y169291D02*
X-156480Y168791D01*
X-156980D02*
X-156480D01*
X-157480Y168291D02*
X-156980Y168791D01*
X-169291Y152543D02*
X-168291Y154543D01*
X-170291D02*
X-168291D01*
X-170291D02*
X-169291Y152543D01*
Y121047D02*
X-168291Y123047D01*
X-170291D02*
X-168291D01*
X-170291D02*
X-169291Y121047D01*
X-157980Y137295D02*
X-157480Y136795D01*
X-158480Y137295D02*
X-157980D01*
X-158480D02*
X-157980Y137795D01*
X-158480Y138295D02*
X-157980Y137795D01*
X-158480Y138295D02*
X-157980D01*
X-157480Y138795D01*
X-156980Y138295D01*
X-156480D01*
X-156980Y137795D02*
X-156480Y138295D01*
X-156980Y137795D02*
X-156480Y137295D01*
X-156980D02*
X-156480D01*
X-157480Y136795D02*
X-156980Y137295D01*
X-169291Y89551D02*
X-168291Y91551D01*
X-170291D02*
X-168291D01*
X-170291D02*
X-169291Y89551D01*
X-157980Y105799D02*
X-157480Y105299D01*
X-158480Y105799D02*
X-157980D01*
X-158480D02*
X-157980Y106299D01*
X-158480Y106799D02*
X-157980Y106299D01*
X-158480Y106799D02*
X-157980D01*
X-157480Y107299D01*
X-156980Y106799D01*
X-156480D01*
X-156980Y106299D02*
X-156480Y106799D01*
X-156980Y106299D02*
X-156480Y105799D01*
X-156980D02*
X-156480D01*
X-157480Y105299D02*
X-156980Y105799D01*
X-169291Y58055D02*
X-168291Y60055D01*
X-170291D02*
X-168291D01*
X-170291D02*
X-169291Y58055D01*
X-157980Y74303D02*
X-157480Y73803D01*
X-158480Y74303D02*
X-157980D01*
X-158480D02*
X-157980Y74803D01*
X-158480Y75303D02*
X-157980Y74803D01*
X-158480Y75303D02*
X-157980D01*
X-157480Y75803D01*
X-156980Y75303D01*
X-156480D01*
X-156980Y74803D02*
X-156480Y75303D01*
X-156980Y74803D02*
X-156480Y74303D01*
X-156980D02*
X-156480D01*
X-157480Y73803D02*
X-156980Y74303D01*
X-169291Y184039D02*
X-168291Y186039D01*
X-170291D02*
X-168291D01*
X-170291D02*
X-169291Y184039D01*
Y26559D02*
X-168291Y28559D01*
X-170291D02*
X-168291D01*
X-170291D02*
X-169291Y26559D01*
X156980Y105799D02*
X157480Y105299D01*
X156480Y105799D02*
X156980D01*
X156480D02*
X156980Y106299D01*
X156480Y106799D02*
X156980Y106299D01*
X156480Y106799D02*
X156980D01*
X157480Y107299D01*
X157980Y106799D01*
X158480D01*
X157980Y106299D02*
X158480Y106799D01*
X157980Y106299D02*
X158480Y105799D01*
X157980D02*
X158480D01*
X157480Y105299D02*
X157980Y105799D01*
X156980Y137295D02*
X157480Y136795D01*
X156480Y137295D02*
X156980D01*
X156480D02*
X156980Y137795D01*
X156480Y138295D02*
X156980Y137795D01*
X156480Y138295D02*
X156980D01*
X157480Y138795D01*
X157980Y138295D01*
X158480D01*
X157980Y137795D02*
X158480Y138295D01*
X157980Y137795D02*
X158480Y137295D01*
X157980D02*
X158480D01*
X157480Y136795D02*
X157980Y137295D01*
X125484Y168791D02*
X125984Y168291D01*
X124984Y168791D02*
X125484D01*
X124984D02*
X125484Y169291D01*
X124984Y169791D02*
X125484Y169291D01*
X124984Y169791D02*
X125484D01*
X125984Y170291D01*
X126484Y169791D01*
X126984D01*
X126484Y169291D02*
X126984Y169791D01*
X126484Y169291D02*
X126984Y168791D01*
X126484D02*
X126984D01*
X125984Y168291D02*
X126484Y168791D01*
X156980Y74303D02*
X157480Y73803D01*
X156480Y74303D02*
X156980D01*
X156480D02*
X156980Y74803D01*
X156480Y75303D02*
X156980Y74803D01*
X156480Y75303D02*
X156980D01*
X157480Y75803D01*
X157980Y75303D01*
X158480D01*
X157980Y74803D02*
X158480Y75303D01*
X157980Y74803D02*
X158480Y74303D01*
X157980D02*
X158480D01*
X157480Y73803D02*
X157980Y74303D01*
X125484Y42807D02*
X125984Y42307D01*
X124984Y42807D02*
X125484D01*
X124984D02*
X125484Y43307D01*
X124984Y43807D02*
X125484Y43307D01*
X124984Y43807D02*
X125484D01*
X125984Y44307D01*
X126484Y43807D01*
X126984D01*
X126484Y43307D02*
X126984Y43807D01*
X126484Y43307D02*
X126984Y42807D01*
X126484D02*
X126984D01*
X125984Y42307D02*
X126484Y42807D01*
X169291Y26559D02*
X170291Y28559D01*
X168291D02*
X170291D01*
X168291D02*
X169291Y26559D01*
Y184039D02*
X170291Y186039D01*
X168291D02*
X170291D01*
X168291D02*
X169291Y184039D01*
Y58055D02*
X170291Y60055D01*
X168291D02*
X170291D01*
X168291D02*
X169291Y58055D01*
Y89551D02*
X170291Y91551D01*
X168291D02*
X170291D01*
X168291D02*
X169291Y89551D01*
Y152543D02*
X170291Y154543D01*
X168291D02*
X170291D01*
X168291D02*
X169291Y152543D01*
Y121047D02*
X170291Y123047D01*
X168291D02*
X170291D01*
X168291D02*
X169291Y121047D01*
D60*
X744465Y135692D02*
Y139470D01*
X746354D01*
X746984Y138841D01*
Y137581D01*
X746354Y136951D01*
X744465D01*
X745725D02*
X746984Y135692D01*
X748873D02*
X750133D01*
X750762Y136322D01*
Y137581D01*
X750133Y138211D01*
X748873D01*
X748244Y137581D01*
Y136322D01*
X748873Y135692D01*
X752022Y138211D02*
Y136322D01*
X752652Y135692D01*
X754541D01*
Y138211D01*
X756430Y138841D02*
Y138211D01*
X755800D01*
X757059D01*
X756430D01*
Y136322D01*
X757059Y135692D01*
X760838D02*
X759578D01*
X758949Y136322D01*
Y137581D01*
X759578Y138211D01*
X760838D01*
X761468Y137581D01*
Y136951D01*
X758949D01*
X765246Y139470D02*
Y135692D01*
X763357D01*
X762727Y136322D01*
Y137581D01*
X763357Y138211D01*
X765246D01*
X770284Y135692D02*
Y139470D01*
X772173D01*
X772802Y138841D01*
Y137581D01*
X772173Y136951D01*
X770284D01*
X774692Y138211D02*
X775951D01*
X776581Y137581D01*
Y135692D01*
X774692D01*
X774062Y136322D01*
X774692Y136951D01*
X776581D01*
X778470Y138841D02*
Y138211D01*
X777840D01*
X779100D01*
X778470D01*
Y136322D01*
X779100Y135692D01*
X780989Y139470D02*
Y135692D01*
Y137581D01*
X781618Y138211D01*
X782878D01*
X783508Y137581D01*
Y135692D01*
X788545Y139470D02*
Y135692D01*
X791064D01*
X794213D02*
X792953D01*
X792324Y136322D01*
Y137581D01*
X792953Y138211D01*
X794213D01*
X794843Y137581D01*
Y136951D01*
X792324D01*
X796102Y135692D02*
Y138211D01*
X797991D01*
X798621Y137581D01*
Y135692D01*
X801140Y134433D02*
X801770D01*
X802399Y135062D01*
Y138211D01*
X800510D01*
X799880Y137581D01*
Y136322D01*
X800510Y135692D01*
X802399D01*
X804288Y138841D02*
Y138211D01*
X803659D01*
X804918D01*
X804288D01*
Y136322D01*
X804918Y135692D01*
X806807Y139470D02*
Y135692D01*
Y137581D01*
X807437Y138211D01*
X808696D01*
X809326Y137581D01*
Y135692D01*
X698808Y139470D02*
Y135692D01*
Y137581D01*
X701327D01*
Y139470D01*
Y135692D01*
X703217D02*
X704476D01*
X705106Y136322D01*
Y137581D01*
X704476Y138211D01*
X703217D01*
X702587Y137581D01*
Y136322D01*
X703217Y135692D01*
X706365D02*
X707624D01*
X706995D01*
Y139470D01*
X706365D01*
X711403Y135692D02*
X710143D01*
X709514Y136322D01*
Y137581D01*
X710143Y138211D01*
X711403D01*
X712033Y137581D01*
Y136951D01*
X709514D01*
X717070Y139470D02*
Y135692D01*
X719589D01*
X722738D02*
X721478D01*
X720849Y136322D01*
Y137581D01*
X721478Y138211D01*
X722738D01*
X723368Y137581D01*
Y136951D01*
X720849D01*
X724627Y135692D02*
Y138211D01*
X726516D01*
X727146Y137581D01*
Y135692D01*
X729665Y134433D02*
X730294D01*
X730924Y135062D01*
Y138211D01*
X729035D01*
X728405Y137581D01*
Y136322D01*
X729035Y135692D01*
X730924D01*
X732813Y138841D02*
Y138211D01*
X732184D01*
X733443D01*
X732813D01*
Y136322D01*
X733443Y135692D01*
X735332Y139470D02*
Y135692D01*
Y137581D01*
X735962Y138211D01*
X737221D01*
X737851Y137581D01*
Y135692D01*
X656169Y139470D02*
X658688D01*
X657429D01*
Y135692D01*
X661837D02*
X660577D01*
X659948Y136322D01*
Y137581D01*
X660577Y138211D01*
X661837D01*
X662467Y137581D01*
Y136951D01*
X659948D01*
X663726Y135692D02*
Y138211D01*
X664356D01*
X664986Y137581D01*
Y135692D01*
Y137581D01*
X665615Y138211D01*
X666245Y137581D01*
Y135692D01*
X667504Y134433D02*
Y138211D01*
X669393D01*
X670023Y137581D01*
Y136322D01*
X669393Y135692D01*
X667504D01*
X671283D02*
X672542D01*
X671912D01*
Y139470D01*
X671283D01*
X675061Y138211D02*
X676320D01*
X676950Y137581D01*
Y135692D01*
X675061D01*
X674431Y136322D01*
X675061Y136951D01*
X676950D01*
X678839Y138841D02*
Y138211D01*
X678210D01*
X679469D01*
X678839D01*
Y136322D01*
X679469Y135692D01*
X683247D02*
X681988D01*
X681358Y136322D01*
Y137581D01*
X681988Y138211D01*
X683247D01*
X683877Y137581D01*
Y136951D01*
X681358D01*
X616810Y135692D02*
Y139470D01*
X618699D01*
X619329Y138841D01*
Y137581D01*
X618699Y136951D01*
X616810D01*
X621218Y138211D02*
X622477D01*
X623107Y137581D01*
Y135692D01*
X621218D01*
X620588Y136322D01*
X621218Y136951D01*
X623107D01*
X626885Y139470D02*
Y135692D01*
X624996D01*
X624367Y136322D01*
Y137581D01*
X624996Y138211D01*
X626885D01*
X634442Y138841D02*
X633812Y139470D01*
X632553D01*
X631923Y138841D01*
Y138211D01*
X632553Y137581D01*
X633812D01*
X634442Y136951D01*
Y136322D01*
X633812Y135692D01*
X632553D01*
X631923Y136322D01*
X635702Y139470D02*
Y135692D01*
Y137581D01*
X636331Y138211D01*
X637591D01*
X638220Y137581D01*
Y135692D01*
X640109Y138211D02*
X641369D01*
X641999Y137581D01*
Y135692D01*
X640109D01*
X639480Y136322D01*
X640109Y136951D01*
X641999D01*
X643258Y134433D02*
Y138211D01*
X645147D01*
X645777Y137581D01*
Y136322D01*
X645147Y135692D01*
X643258D01*
X648926D02*
X647666D01*
X647036Y136322D01*
Y137581D01*
X647666Y138211D01*
X648926D01*
X649555Y137581D01*
Y136951D01*
X647036D01*
X585637Y139470D02*
Y136951D01*
X586896Y135692D01*
X588156Y136951D01*
Y139470D01*
X589415Y135692D02*
X590674D01*
X590045D01*
Y138211D01*
X589415D01*
X593193D02*
X594453D01*
X595083Y137581D01*
Y135692D01*
X593193D01*
X592564Y136322D01*
X593193Y136951D01*
X595083D01*
X596342Y135692D02*
X598861Y138211D01*
X600120Y135692D02*
Y139470D01*
X602009D01*
X602639Y138841D01*
Y137581D01*
X602009Y136951D01*
X600120D01*
X604528Y138211D02*
X605788D01*
X606418Y137581D01*
Y135692D01*
X604528D01*
X603899Y136322D01*
X604528Y136951D01*
X606418D01*
X610196Y139470D02*
Y135692D01*
X608307D01*
X607677Y136322D01*
Y137581D01*
X608307Y138211D01*
X610196D01*
X506789Y139470D02*
Y135692D01*
X508678D01*
X509308Y136322D01*
Y138841D01*
X508678Y139470D01*
X506789D01*
X510567Y138211D02*
Y135692D01*
Y136951D01*
X511197Y137581D01*
X511827Y138211D01*
X512456D01*
X514346Y135692D02*
X515605D01*
X514975D01*
Y138211D01*
X514346D01*
X517494Y135692D02*
X518754D01*
X518124D01*
Y139470D01*
X517494D01*
X520643Y135692D02*
X521902D01*
X521273D01*
Y139470D01*
X520643D01*
X527570D02*
Y135692D01*
X530089D01*
X531978Y138211D02*
X533237D01*
X533867Y137581D01*
Y135692D01*
X531978D01*
X531348Y136322D01*
X531978Y136951D01*
X533867D01*
X535126Y138211D02*
Y136322D01*
X535756Y135692D01*
X537645D01*
Y135062D01*
X537015Y134433D01*
X536386D01*
X537645Y135692D02*
Y138211D01*
X540794Y135692D02*
X539534D01*
X538905Y136322D01*
Y137581D01*
X539534Y138211D01*
X540794D01*
X541423Y137581D01*
Y136951D01*
X538905D01*
X542683Y138211D02*
Y135692D01*
Y136951D01*
X543313Y137581D01*
X543942Y138211D01*
X544572D01*
X550240Y135692D02*
Y139470D01*
X552129D01*
X552758Y138841D01*
Y137581D01*
X552129Y136951D01*
X550240D01*
X554647Y138211D02*
X555907D01*
X556537Y137581D01*
Y135692D01*
X554647D01*
X554018Y136322D01*
X554647Y136951D01*
X556537D01*
X557796Y135692D02*
X559056D01*
X558426D01*
Y138211D01*
X557796D01*
X560945D02*
Y135692D01*
Y136951D01*
X561574Y137581D01*
X562204Y138211D01*
X562834D01*
X468059Y139470D02*
Y135692D01*
Y137581D01*
X470578D01*
Y139470D01*
Y135692D01*
X472467D02*
X473727D01*
X474356Y136322D01*
Y137581D01*
X473727Y138211D01*
X472467D01*
X471838Y137581D01*
Y136322D01*
X472467Y135692D01*
X475616D02*
X476875D01*
X476245D01*
Y139470D01*
X475616D01*
X480653Y135692D02*
X479394D01*
X478764Y136322D01*
Y137581D01*
X479394Y138211D01*
X480653D01*
X481283Y137581D01*
Y136951D01*
X478764D01*
X486321Y139470D02*
X488840D01*
X487580D01*
Y135692D01*
X490099Y138211D02*
Y136322D01*
X490729Y135692D01*
X492618D01*
Y135062D01*
X491988Y134433D01*
X491359D01*
X492618Y135692D02*
Y138211D01*
X493878Y134433D02*
Y138211D01*
X495767D01*
X496396Y137581D01*
Y136322D01*
X495767Y135692D01*
X493878D01*
X499545D02*
X498286D01*
X497656Y136322D01*
Y137581D01*
X498286Y138211D01*
X499545D01*
X500175Y137581D01*
Y136951D01*
X497656D01*
X441294Y135692D02*
Y139470D01*
X443183D01*
X443813Y138841D01*
Y137581D01*
X443183Y136951D01*
X441294D01*
X445072Y135692D02*
X446332D01*
X445702D01*
Y139470D01*
X445072D01*
X448851Y138211D02*
X450110D01*
X450740Y137581D01*
Y135692D01*
X448851D01*
X448221Y136322D01*
X448851Y136951D01*
X450740D01*
X452629Y138841D02*
Y138211D01*
X451999D01*
X453259D01*
X452629D01*
Y136322D01*
X453259Y135692D01*
X457037D02*
X455778D01*
X455148Y136322D01*
Y137581D01*
X455778Y138211D01*
X457037D01*
X457667Y137581D01*
Y136951D01*
X455148D01*
X461445Y139470D02*
Y135692D01*
X459556D01*
X458926Y136322D01*
Y137581D01*
X459556Y138211D01*
X461445D01*
X380813Y139470D02*
Y135692D01*
Y137581D01*
X383332D01*
Y139470D01*
Y135692D01*
X385221D02*
X386480D01*
X387110Y136322D01*
Y137581D01*
X386480Y138211D01*
X385221D01*
X384591Y137581D01*
Y136322D01*
X385221Y135692D01*
X388370D02*
X389629D01*
X388999D01*
Y139470D01*
X388370D01*
X393407Y135692D02*
X392148D01*
X391518Y136322D01*
Y137581D01*
X392148Y138211D01*
X393407D01*
X394037Y137581D01*
Y136951D01*
X391518D01*
X401594Y138841D02*
X400964Y139470D01*
X399705D01*
X399075Y138841D01*
Y138211D01*
X399705Y137581D01*
X400964D01*
X401594Y136951D01*
Y136322D01*
X400964Y135692D01*
X399705D01*
X399075Y136322D01*
X402853Y135692D02*
X404112D01*
X403483D01*
Y138211D01*
X402853D01*
X406002D02*
X408521D01*
X406002Y135692D01*
X408521D01*
X411669D02*
X410410D01*
X409780Y136322D01*
Y137581D01*
X410410Y138211D01*
X411669D01*
X412299Y137581D01*
Y136951D01*
X409780D01*
X354861Y138841D02*
X354232Y139470D01*
X352972D01*
X352343Y138841D01*
Y136322D01*
X352972Y135692D01*
X354232D01*
X354861Y136322D01*
X356751Y135692D02*
X358010D01*
X358640Y136322D01*
Y137581D01*
X358010Y138211D01*
X356751D01*
X356121Y137581D01*
Y136322D01*
X356751Y135692D01*
X359899Y138211D02*
Y136322D01*
X360529Y135692D01*
X362418D01*
Y138211D01*
X363678Y135692D02*
Y138211D01*
X365567D01*
X366196Y137581D01*
Y135692D01*
X368086Y138841D02*
Y138211D01*
X367456D01*
X368715D01*
X368086D01*
Y136322D01*
X368715Y135692D01*
X328096Y138841D02*
X327467Y139470D01*
X326207D01*
X325577Y138841D01*
Y138211D01*
X326207Y137581D01*
X327467D01*
X328096Y136951D01*
Y136322D01*
X327467Y135692D01*
X326207D01*
X325577Y136322D01*
X329356Y138211D02*
Y136322D01*
X329985Y135692D01*
X331875D01*
Y135062D01*
X331245Y134433D01*
X330615D01*
X331875Y135692D02*
Y138211D01*
X333134Y135692D02*
Y138211D01*
X333764D01*
X334394Y137581D01*
Y135692D01*
Y137581D01*
X335023Y138211D01*
X335653Y137581D01*
Y135692D01*
X336912Y139470D02*
Y135692D01*
X338802D01*
X339431Y136322D01*
Y136951D01*
Y137581D01*
X338802Y138211D01*
X336912D01*
X341320Y135692D02*
X342580D01*
X343210Y136322D01*
Y137581D01*
X342580Y138211D01*
X341320D01*
X340691Y137581D01*
Y136322D01*
X341320Y135692D01*
X344469D02*
X345728D01*
X345099D01*
Y139470D01*
X344469D01*
M02*
